# MagicaVoxel @ Ephtracy

# group
o 

# material
mtllib Armoire(petite).mtl
usemtl palette

# normals
vn -1 0 0
vn 1 0 0
vn 0 0 1
vn 0 0 -1
vn 0 -1 0
vn 0 1 0

# texcoords
vt 0.373047 0.5
vt 0.396484 0.5
vt 0.533203 0.5
vt 0.537109 0.5

# verts
v -2.7 0 -0.1
v -2.7 0 -1.1
v -2.7 1.6 -0.1
v -2.7 1.6 -1.1
v -2.2 1.2 0
v -2.2 1.2 -0.1
v -2.2 1.3 0
v -2.2 1.3 -0.1
v -2.1 0.2 0
v -2.1 0.2 -0.1
v -2.1 0.4 0
v -2.1 0.4 -0.1
v -2.1 0.7 0
v -2.1 0.7 -0.1
v -2.1 0.9 0
v -2.1 0.9 -0.1
v -2.1 1.3 0
v -2.1 1.3 -0.1
v -2.1 1.4 0
v -2.1 1.4 -0.1
v -1.3 0.1 -0.1
v -1.3 0.1 -0.2
v -1.3 0.5 -0.1
v -1.3 0.5 -0.2
v -1.3 0.6 -0.1
v -1.3 0.6 -0.2
v -1.3 1 -0.1
v -1.3 1 -0.2
v -1.3 1.1 -0.1
v -1.3 1.1 -0.2
v -1.3 1.5 -0.1
v -1.3 1.5 -0.2
v -0.9 0.3 0
v -0.9 0.3 -0.1
v -0.9 0.4 0
v -0.9 0.4 -0.1
v -0.8 0.2 0
v -0.8 0.2 -0.1
v -0.8 0.3 0
v -0.8 0.3 -0.1
v -0.8 0.7 0
v -0.8 0.7 -0.1
v -0.8 0.9 0
v -0.8 0.9 -0.1
v -0.8 1.2 0
v -0.8 1.2 -0.1
v -0.8 1.4 0
v -0.8 1.4 -0.1
v -0.0999999 0.5 -0.1
v -0.0999999 0.5 -0.2
v -0.0999999 0.6 -0.1
v -0.0999999 0.6 -0.2
v -0.0999999 1 -0.1
v -0.0999999 1 -0.2
v -0.0999999 1.1 -0.1
v -0.0999999 1.1 -0.2
v -2.6 0.5 -0.1
v -2.6 0.5 -0.2
v -2.6 0.6 -0.1
v -2.6 0.6 -0.2
v -2.6 1 -0.1
v -2.6 1 -0.2
v -2.6 1.1 -0.1
v -2.6 1.1 -0.2
v -1.9 0.2 0
v -1.9 0.2 -0.1
v -1.9 0.3 0
v -1.9 0.3 -0.1
v -1.9 0.7 0
v -1.9 0.7 -0.1
v -1.9 0.9 0
v -1.9 0.9 -0.1
v -1.9 1.2 0
v -1.9 1.2 -0.1
v -1.9 1.4 0
v -1.9 1.4 -0.1
v -1.8 0.3 0
v -1.8 0.3 -0.1
v -1.8 0.4 0
v -1.8 0.4 -0.1
v -1.4 0.1 -0.1
v -1.4 0.1 -0.2
v -1.4 0.5 -0.1
v -1.4 0.5 -0.2
v -1.4 0.6 -0.1
v -1.4 0.6 -0.2
v -1.4 1 -0.1
v -1.4 1 -0.2
v -1.4 1.1 -0.1
v -1.4 1.1 -0.2
v -1.4 1.5 -0.1
v -1.4 1.5 -0.2
v -0.6 0.2 0
v -0.6 0.2 -0.1
v -0.6 0.4 0
v -0.6 0.4 -0.1
v -0.6 0.7 0
v -0.6 0.7 -0.1
v -0.6 0.9 0
v -0.6 0.9 -0.1
v -0.6 1.3 0
v -0.6 1.3 -0.1
v -0.6 1.4 0
v -0.6 1.4 -0.1
v -0.5 1.2 0
v -0.5 1.2 -0.1
v -0.5 1.3 0
v -0.5 1.3 -0.1
v 0 0 -0.1
v 0 0 -1.1
v 0 1.6 -0.1
v 0 1.6 -1.1
v -2.2 1.2 0
v -2.2 1.3 0
v -2.1 0.2 0
v -2.1 0.4 0
v -2.1 0.7 0
v -2.1 0.9 0
v -2.1 1.3 0
v -2.1 1.4 0
v -1.9 0.2 0
v -1.9 0.3 0
v -1.9 0.7 0
v -1.9 0.9 0
v -1.9 1.2 0
v -1.9 1.4 0
v -1.8 0.3 0
v -1.8 0.4 0
v -0.9 0.3 0
v -0.9 0.4 0
v -0.8 0.2 0
v -0.8 0.3 0
v -0.8 0.7 0
v -0.8 0.9 0
v -0.8 1.2 0
v -0.8 1.4 0
v -0.6 0.2 0
v -0.6 0.4 0
v -0.6 0.7 0
v -0.6 0.9 0
v -0.6 1.3 0
v -0.6 1.4 0
v -0.5 1.2 0
v -0.5 1.3 0
v -2.7 0 -0.1
v -2.7 1.6 -0.1
v -2.6 0.1 -0.1
v -2.6 0.5 -0.1
v -2.6 0.6 -0.1
v -2.6 1 -0.1
v -2.6 1.1 -0.1
v -2.6 1.5 -0.1
v -2.2 1.2 -0.1
v -2.2 1.3 -0.1
v -2.1 0.2 -0.1
v -2.1 0.4 -0.1
v -2.1 0.7 -0.1
v -2.1 0.9 -0.1
v -2.1 1.3 -0.1
v -2.1 1.4 -0.1
v -1.9 0.2 -0.1
v -1.9 0.3 -0.1
v -1.9 0.7 -0.1
v -1.9 0.9 -0.1
v -1.9 1.2 -0.1
v -1.9 1.4 -0.1
v -1.8 0.3 -0.1
v -1.8 0.4 -0.1
v -1.4 0.1 -0.1
v -1.4 0.5 -0.1
v -1.4 0.6 -0.1
v -1.4 1 -0.1
v -1.4 1.1 -0.1
v -1.4 1.5 -0.1
v -1.3 0.1 -0.1
v -1.3 0.5 -0.1
v -1.3 0.6 -0.1
v -1.3 1 -0.1
v -1.3 1.1 -0.1
v -1.3 1.5 -0.1
v -0.9 0.3 -0.1
v -0.9 0.4 -0.1
v -0.8 0.2 -0.1
v -0.8 0.3 -0.1
v -0.8 0.7 -0.1
v -0.8 0.9 -0.1
v -0.8 1.2 -0.1
v -0.8 1.4 -0.1
v -0.6 0.2 -0.1
v -0.6 0.4 -0.1
v -0.6 0.7 -0.1
v -0.6 0.9 -0.1
v -0.6 1.3 -0.1
v -0.6 1.4 -0.1
v -0.5 1.2 -0.1
v -0.5 1.3 -0.1
v -0.0999999 0.1 -0.1
v -0.0999999 0.5 -0.1
v -0.0999999 0.6 -0.1
v -0.0999999 1 -0.1
v -0.0999999 1.1 -0.1
v -0.0999999 1.5 -0.1
v 0 0 -0.1
v 0 1.6 -0.1
v -2.6 0.5 -0.2
v -2.6 0.6 -0.2
v -2.6 1 -0.2
v -2.6 1.1 -0.2
v -1.4 0.1 -0.2
v -1.4 0.5 -0.2
v -1.4 0.6 -0.2
v -1.4 1 -0.2
v -1.4 1.1 -0.2
v -1.4 1.5 -0.2
v -1.3 0.1 -0.2
v -1.3 0.5 -0.2
v -1.3 0.6 -0.2
v -1.3 1 -0.2
v -1.3 1.1 -0.2
v -1.3 1.5 -0.2
v -0.0999999 0.5 -0.2
v -0.0999999 0.6 -0.2
v -0.0999999 1 -0.2
v -0.0999999 1.1 -0.2
v -2.7 0 -1.1
v -2.7 1.6 -1.1
v 0 0 -1.1
v 0 1.6 -1.1
v -2.7 0 -0.1
v 0 0 -0.1
v -2.6 0 -0.2
v -0.2 0 -0.2
v -2.6 0 -1
v -0.2 0 -1
v -2.7 0 -1.1
v 0 0 -1.1
v -2.1 0.2 0
v -1.9 0.2 0
v -0.8 0.2 0
v -0.6 0.2 0
v -2.1 0.2 -0.1
v -1.9 0.2 -0.1
v -0.8 0.2 -0.1
v -0.6 0.2 -0.1
v -1.9 0.3 0
v -1.8 0.3 0
v -0.9 0.3 0
v -0.8 0.3 0
v -1.9 0.3 -0.1
v -1.8 0.3 -0.1
v -0.9 0.3 -0.1
v -0.8 0.3 -0.1
v -2.6 0.6 -0.1
v -1.4 0.6 -0.1
v -1.3 0.6 -0.1
v -0.0999999 0.6 -0.1
v -2.6 0.6 -0.2
v -1.4 0.6 -0.2
v -1.3 0.6 -0.2
v -0.0999999 0.6 -0.2
v -2.1 0.7 0
v -1.9 0.7 0
v -0.8 0.7 0
v -0.6 0.7 0
v -2.1 0.7 -0.1
v -1.9 0.7 -0.1
v -0.8 0.7 -0.1
v -0.6 0.7 -0.1
v -2.6 1.1 -0.1
v -1.4 1.1 -0.1
v -1.3 1.1 -0.1
v -0.0999999 1.1 -0.1
v -2.6 1.1 -0.2
v -1.4 1.1 -0.2
v -1.3 1.1 -0.2
v -0.0999999 1.1 -0.2
v -2.2 1.2 0
v -1.9 1.2 0
v -0.8 1.2 0
v -0.5 1.2 0
v -2.2 1.2 -0.1
v -1.9 1.2 -0.1
v -0.8 1.2 -0.1
v -0.5 1.2 -0.1
v -1.4 1.5 -0.1
v -1.3 1.5 -0.1
v -1.4 1.5 -0.2
v -1.3 1.5 -0.2
v -1.4 0.1 -0.1
v -1.3 0.1 -0.1
v -1.4 0.1 -0.2
v -1.3 0.1 -0.2
v -2.1 0.4 0
v -1.8 0.4 0
v -0.9 0.4 0
v -0.6 0.4 0
v -2.1 0.4 -0.1
v -1.8 0.4 -0.1
v -0.9 0.4 -0.1
v -0.6 0.4 -0.1
v -2.6 0.5 -0.1
v -1.4 0.5 -0.1
v -1.3 0.5 -0.1
v -0.0999999 0.5 -0.1
v -2.6 0.5 -0.2
v -1.4 0.5 -0.2
v -1.3 0.5 -0.2
v -0.0999999 0.5 -0.2
v -2.1 0.9 0
v -1.9 0.9 0
v -0.8 0.9 0
v -0.6 0.9 0
v -2.1 0.9 -0.1
v -1.9 0.9 -0.1
v -0.8 0.9 -0.1
v -0.6 0.9 -0.1
v -2.6 1 -0.1
v -1.4 1 -0.1
v -1.3 1 -0.1
v -0.0999999 1 -0.1
v -2.6 1 -0.2
v -1.4 1 -0.2
v -1.3 1 -0.2
v -0.0999999 1 -0.2
v -2.2 1.3 0
v -2.1 1.3 0
v -0.6 1.3 0
v -0.5 1.3 0
v -2.2 1.3 -0.1
v -2.1 1.3 -0.1
v -0.6 1.3 -0.1
v -0.5 1.3 -0.1
v -2.1 1.4 0
v -1.9 1.4 0
v -0.8 1.4 0
v -0.6 1.4 0
v -2.1 1.4 -0.1
v -1.9 1.4 -0.1
v -0.8 1.4 -0.1
v -0.6 1.4 -0.1
v -2.7 1.6 -0.1
v 0 1.6 -0.1
v -2.7 1.6 -1.1
v 0 1.6 -1.1

# faces
f 3/1/1 2/1/1 1/1/1
f 4/1/1 2/1/1 3/1/1
f 7/2/1 6/2/1 5/2/1
f 8/2/1 6/2/1 7/2/1
f 11/2/1 10/2/1 9/2/1
f 12/2/1 10/2/1 11/2/1
f 15/2/1 14/2/1 13/2/1
f 16/2/1 14/2/1 15/2/1
f 19/2/1 18/2/1 17/2/1
f 20/2/1 18/2/1 19/2/1
f 23/4/1 22/4/1 21/4/1
f 24/4/1 22/4/1 23/4/1
f 27/4/1 26/4/1 25/4/1
f 28/4/1 26/4/1 27/4/1
f 31/4/1 30/4/1 29/4/1
f 32/4/1 30/4/1 31/4/1
f 35/2/1 34/2/1 33/2/1
f 36/2/1 34/2/1 35/2/1
f 39/2/1 38/2/1 37/2/1
f 40/2/1 38/2/1 39/2/1
f 43/2/1 42/2/1 41/2/1
f 44/2/1 42/2/1 43/2/1
f 47/2/1 46/2/1 45/2/1
f 48/2/1 46/2/1 47/2/1
f 51/1/1 50/1/1 49/1/1
f 52/1/1 50/1/1 51/1/1
f 55/1/1 54/1/1 53/1/1
f 56/1/1 54/1/1 55/1/1
f 57/1/2 58/1/2 59/1/2
f 59/1/2 58/1/2 60/1/2
f 61/1/2 62/1/2 63/1/2
f 63/1/2 62/1/2 64/1/2
f 65/2/2 66/2/2 67/2/2
f 67/2/2 66/2/2 68/2/2
f 69/2/2 70/2/2 71/2/2
f 71/2/2 70/2/2 72/2/2
f 73/2/2 74/2/2 75/2/2
f 75/2/2 74/2/2 76/2/2
f 77/2/2 78/2/2 79/2/2
f 79/2/2 78/2/2 80/2/2
f 81/4/2 82/4/2 83/4/2
f 83/4/2 82/4/2 84/4/2
f 85/4/2 86/4/2 87/4/2
f 87/4/2 86/4/2 88/4/2
f 89/4/2 90/4/2 91/4/2
f 91/4/2 90/4/2 92/4/2
f 93/2/2 94/2/2 95/2/2
f 95/2/2 94/2/2 96/2/2
f 97/2/2 98/2/2 99/2/2
f 99/2/2 98/2/2 100/2/2
f 101/2/2 102/2/2 103/2/2
f 103/2/2 102/2/2 104/2/2
f 105/2/2 106/2/2 107/2/2
f 107/2/2 106/2/2 108/2/2
f 109/1/2 110/1/2 111/1/2
f 111/1/2 110/1/2 112/1/2
f 119/2/3 114/2/3 113/2/3
f 121/2/3 116/2/3 115/2/3
f 122/2/3 116/2/3 121/2/3
f 123/2/3 118/2/3 117/2/3
f 124/2/3 118/2/3 123/2/3
f 125/2/3 120/2/3 119/2/3
f 125/2/3 119/2/3 113/2/3
f 126/2/3 120/2/3 125/2/3
f 127/2/3 116/2/3 122/2/3
f 128/2/3 116/2/3 127/2/3
f 132/2/3 130/2/3 129/2/3
f 137/2/3 132/2/3 131/2/3
f 138/2/3 130/2/3 132/2/3
f 138/2/3 132/2/3 137/2/3
f 139/2/3 134/2/3 133/2/3
f 140/2/3 134/2/3 139/2/3
f 141/2/3 136/2/3 135/2/3
f 142/2/3 136/2/3 141/2/3
f 143/2/3 141/2/3 135/2/3
f 144/2/3 141/2/3 143/2/3
f 147/1/3 146/1/3 145/1/3
f 148/1/3 146/1/3 147/1/3
f 149/1/3 146/1/3 148/1/3
f 150/1/3 146/1/3 149/1/3
f 151/1/3 146/1/3 150/1/3
f 152/1/3 146/1/3 151/1/3
f 153/4/3 152/4/3 151/4/3
f 154/4/3 152/4/3 153/4/3
f 155/4/3 148/4/3 147/4/3
f 156/4/3 148/4/3 155/4/3
f 157/4/3 150/4/3 149/4/3
f 158/4/3 150/4/3 157/4/3
f 159/4/3 152/4/3 154/4/3
f 160/4/3 152/4/3 159/4/3
f 161/4/3 155/4/3 147/4/3
f 163/4/3 157/4/3 149/4/3
f 164/4/3 150/4/3 158/4/3
f 165/4/3 153/4/3 151/4/3
f 166/4/3 152/4/3 160/4/3
f 167/4/3 162/4/3 161/4/3
f 168/4/3 148/4/3 156/4/3
f 169/1/3 147/1/3 145/1/3
f 169/4/3 168/4/3 167/4/3
f 169/4/3 167/4/3 161/4/3
f 169/4/3 161/4/3 147/4/3
f 170/4/3 148/4/3 168/4/3
f 170/4/3 168/4/3 169/4/3
f 171/4/3 163/4/3 149/4/3
f 171/4/3 164/4/3 163/4/3
f 172/4/3 150/4/3 164/4/3
f 172/4/3 164/4/3 171/4/3
f 173/4/3 165/4/3 151/4/3
f 173/4/3 166/4/3 165/4/3
f 174/1/3 146/1/3 152/1/3
f 174/4/3 166/4/3 173/4/3
f 174/4/3 152/4/3 166/4/3
f 175/1/3 169/1/3 145/1/3
f 180/1/3 146/1/3 174/1/3
f 181/4/3 176/4/3 175/4/3
f 182/4/3 176/4/3 181/4/3
f 183/4/3 181/4/3 175/4/3
f 184/4/3 181/4/3 183/4/3
f 185/4/3 178/4/3 177/4/3
f 186/4/3 178/4/3 185/4/3
f 187/4/3 180/4/3 179/4/3
f 188/4/3 180/4/3 187/4/3
f 189/4/3 183/4/3 175/4/3
f 190/4/3 176/4/3 182/4/3
f 191/4/3 185/4/3 177/4/3
f 192/4/3 178/4/3 186/4/3
f 194/4/3 180/4/3 188/4/3
f 195/4/3 187/4/3 179/4/3
f 196/4/3 194/4/3 193/4/3
f 197/1/3 175/1/3 145/1/3
f 197/4/3 189/4/3 175/4/3
f 197/4/3 190/4/3 189/4/3
f 198/4/3 176/4/3 190/4/3
f 198/4/3 190/4/3 197/4/3
f 199/4/3 192/4/3 191/4/3
f 199/4/3 191/4/3 177/4/3
f 200/4/3 178/4/3 192/4/3
f 200/4/3 192/4/3 199/4/3
f 201/4/3 196/4/3 195/4/3
f 201/4/3 195/4/3 179/4/3
f 202/4/3 180/4/3 194/4/3
f 202/1/3 146/1/3 180/1/3
f 202/4/3 196/4/3 201/4/3
f 202/4/3 194/4/3 196/4/3
f 203/1/3 198/1/3 197/1/3
f 203/1/3 200/1/3 199/1/3
f 203/1/3 202/1/3 201/1/3
f 203/1/3 199/1/3 198/1/3
f 203/1/3 201/1/3 200/1/3
f 203/1/3 197/1/3 145/1/3
f 204/1/3 146/1/3 202/1/3
f 204/1/3 202/1/3 203/1/3
f 210/3/3 206/3/3 205/3/3
f 211/3/3 206/3/3 210/3/3
f 212/3/3 208/3/3 207/3/3
f 213/3/3 208/3/3 212/3/3
f 215/3/3 211/3/3 210/3/3
f 215/3/3 214/3/3 213/3/3
f 215/3/3 213/3/3 212/3/3
f 215/3/3 212/3/3 211/3/3
f 215/3/3 210/3/3 209/3/3
f 216/3/3 214/3/3 215/3/3
f 217/3/3 214/3/3 216/3/3
f 218/3/3 214/3/3 217/3/3
f 219/3/3 214/3/3 218/3/3
f 220/3/3 214/3/3 219/3/3
f 221/3/3 217/3/3 216/3/3
f 222/3/3 217/3/3 221/3/3
f 223/3/3 219/3/3 218/3/3
f 224/3/3 219/3/3 223/3/3
f 225/1/4 226/1/4 227/1/4
f 227/1/4 226/1/4 228/1/4
f 231/1/5 230/1/5 229/1/5
f 232/1/5 230/1/5 231/1/5
f 233/1/5 231/1/5 229/1/5
f 233/4/5 232/4/5 231/4/5
f 234/1/5 230/1/5 232/1/5
f 234/4/5 232/4/5 233/4/5
f 235/1/5 233/1/5 229/1/5
f 235/1/5 234/1/5 233/1/5
f 236/1/5 230/1/5 234/1/5
f 236/1/5 234/1/5 235/1/5
f 241/2/5 238/2/5 237/2/5
f 242/2/5 238/2/5 241/2/5
f 243/2/5 240/2/5 239/2/5
f 244/2/5 240/2/5 243/2/5
f 249/2/5 246/2/5 245/2/5
f 250/2/5 246/2/5 249/2/5
f 251/2/5 248/2/5 247/2/5
f 252/2/5 248/2/5 251/2/5
f 257/4/5 254/4/5 253/4/5
f 258/4/5 254/4/5 257/4/5
f 259/4/5 256/4/5 255/4/5
f 260/4/5 256/4/5 259/4/5
f 265/2/5 262/2/5 261/2/5
f 266/2/5 262/2/5 265/2/5
f 267/2/5 264/2/5 263/2/5
f 268/2/5 264/2/5 267/2/5
f 273/4/5 270/4/5 269/4/5
f 274/4/5 270/4/5 273/4/5
f 275/4/5 272/4/5 271/4/5
f 276/4/5 272/4/5 275/4/5
f 281/2/5 278/2/5 277/2/5
f 282/2/5 278/2/5 281/2/5
f 283/2/5 280/2/5 279/2/5
f 284/2/5 280/2/5 283/2/5
f 287/1/5 286/1/5 285/1/5
f 288/1/5 286/1/5 287/1/5
f 289/1/6 290/1/6 291/1/6
f 291/1/6 290/1/6 292/1/6
f 293/2/6 294/2/6 297/2/6
f 297/2/6 294/2/6 298/2/6
f 295/2/6 296/2/6 299/2/6
f 299/2/6 296/2/6 300/2/6
f 301/4/6 302/4/6 305/4/6
f 305/4/6 302/4/6 306/4/6
f 303/4/6 304/4/6 307/4/6
f 307/4/6 304/4/6 308/4/6
f 309/2/6 310/2/6 313/2/6
f 313/2/6 310/2/6 314/2/6
f 311/2/6 312/2/6 315/2/6
f 315/2/6 312/2/6 316/2/6
f 317/4/6 318/4/6 321/4/6
f 321/4/6 318/4/6 322/4/6
f 319/4/6 320/4/6 323/4/6
f 323/4/6 320/4/6 324/4/6
f 325/2/6 326/2/6 329/2/6
f 329/2/6 326/2/6 330/2/6
f 327/2/6 328/2/6 331/2/6
f 331/2/6 328/2/6 332/2/6
f 333/2/6 334/2/6 337/2/6
f 337/2/6 334/2/6 338/2/6
f 335/2/6 336/2/6 339/2/6
f 339/2/6 336/2/6 340/2/6
f 341/1/6 342/1/6 343/1/6
f 343/1/6 342/1/6 344/1/6
