# MagicaVoxel @ Ephtracy

# group
o 

# material
mtllib Arrmoire non bug.mtl
usemtl palette

# normals
vn -1 0 0
vn 1 0 0
vn 0 0 1
vn 0 0 -1
vn 0 -1 0
vn 0 1 0

# texcoords
vt 0.369141 0.5
vt 0.537109 0.5
vt 0.955078 0.5

# verts
v -2.4 0 -0.2
v -2.4 0 -1.4
v -2.4 3.6 -0.2
v -2.4 3.6 -1.4
v -2.2 3.6 -0.2
v -2.2 3.6 -1.4
v -2.2 3.7 -0.2
v -2.2 3.7 -1.4
v -1.7 1.3 -0.1
v -1.7 1.3 -0.2
v -1.7 1.5 0
v -1.7 1.5 -0.1
v -1.7 2.2 0
v -1.7 2.2 -0.1
v -1.7 2.4 -0.1
v -1.7 2.4 -0.2
v -0.8 1.3 -0.1
v -0.8 1.3 -0.2
v -0.8 1.5 0
v -0.8 1.5 -0.1
v -0.8 2.2 0
v -0.8 2.2 -0.1
v -0.8 2.4 -0.1
v -0.8 2.4 -0.2
v -1.6 1.3 -0.1
v -1.6 1.3 -0.2
v -1.6 1.5 0
v -1.6 1.5 -0.1
v -1.6 2.2 0
v -1.6 2.2 -0.1
v -1.6 2.4 -0.1
v -1.6 2.4 -0.2
v -0.7 1.3 -0.1
v -0.7 1.3 -0.2
v -0.7 1.5 0
v -0.7 1.5 -0.1
v -0.7 2.2 0
v -0.7 2.2 -0.1
v -0.7 2.4 -0.1
v -0.7 2.4 -0.2
v -0.2 3.6 -0.2
v -0.2 3.6 -1.4
v -0.2 3.7 -0.2
v -0.2 3.7 -1.4
v 0 0 -0.2
v 0 0 -1.4
v 0 3.6 -0.2
v 0 3.6 -1.4
v -1.7 1.5 0
v -1.7 2.2 0
v -1.6 1.5 0
v -1.6 2.2 0
v -0.8 1.5 0
v -0.8 2.2 0
v -0.7 1.5 0
v -0.7 2.2 0
v -1.7 1.3 -0.1
v -1.7 1.5 -0.1
v -1.7 2.2 -0.1
v -1.7 2.4 -0.1
v -1.6 1.3 -0.1
v -1.6 1.5 -0.1
v -1.6 2.2 -0.1
v -1.6 2.4 -0.1
v -0.8 1.3 -0.1
v -0.8 1.5 -0.1
v -0.8 2.2 -0.1
v -0.8 2.4 -0.1
v -0.7 1.3 -0.1
v -0.7 1.5 -0.1
v -0.7 2.2 -0.1
v -0.7 2.4 -0.1
v -2.4 0 -0.2
v -2.4 3.6 -0.2
v -2.2 0.2 -0.2
v -2.2 3.4 -0.2
v -2.2 3.6 -0.2
v -2.2 3.7 -0.2
v -2.1 3.4 -0.2
v -2.1 3.5 -0.2
v -1.7 1.3 -0.2
v -1.7 2.4 -0.2
v -1.6 1.3 -0.2
v -1.6 2.4 -0.2
v -1.3 0.3 -0.2
v -1.3 3.4 -0.2
v -1.1 0.3 -0.2
v -1.1 3.4 -0.2
v -0.8 1.3 -0.2
v -0.8 2.4 -0.2
v -0.7 1.3 -0.2
v -0.7 2.4 -0.2
v -0.3 3.4 -0.2
v -0.3 3.5 -0.2
v -0.2 0.2 -0.2
v -0.2 3.4 -0.2
v -0.2 3.6 -0.2
v -0.2 3.7 -0.2
v 0 0 -0.2
v 0 3.6 -0.2
v -2.4 0 -1.4
v -2.4 3.6 -1.4
v -2.2 3.6 -1.4
v -2.2 3.7 -1.4
v -0.2 3.6 -1.4
v -0.2 3.7 -1.4
v 0 0 -1.4
v 0 3.6 -1.4
v -2.4 0 -0.2
v 0 0 -0.2
v -2.4 0 -1.4
v 0 0 -1.4
v -1.7 1.3 -0.1
v -1.6 1.3 -0.1
v -0.8 1.3 -0.1
v -0.7 1.3 -0.1
v -1.7 1.3 -0.2
v -1.6 1.3 -0.2
v -0.8 1.3 -0.2
v -0.7 1.3 -0.2
v -1.7 1.5 0
v -1.6 1.5 0
v -0.8 1.5 0
v -0.7 1.5 0
v -1.7 1.5 -0.1
v -1.6 1.5 -0.1
v -0.8 1.5 -0.1
v -0.7 1.5 -0.1
v -1.7 2.2 0
v -1.6 2.2 0
v -0.8 2.2 0
v -0.7 2.2 0
v -1.7 2.2 -0.1
v -1.6 2.2 -0.1
v -0.8 2.2 -0.1
v -0.7 2.2 -0.1
v -1.7 2.4 -0.1
v -1.6 2.4 -0.1
v -0.8 2.4 -0.1
v -0.7 2.4 -0.1
v -1.7 2.4 -0.2
v -1.6 2.4 -0.2
v -0.8 2.4 -0.2
v -0.7 2.4 -0.2
v -2.4 3.6 -0.2
v -2.2 3.6 -0.2
v -0.2 3.6 -0.2
v 0 3.6 -0.2
v -2.4 3.6 -1.4
v -2.2 3.6 -1.4
v -0.2 3.6 -1.4
v 0 3.6 -1.4
v -2.2 3.7 -0.2
v -0.2 3.7 -0.2
v -2.2 3.7 -1.4
v -0.2 3.7 -1.4

# faces
f 3/2/1 2/2/1 1/2/1
f 4/2/1 2/2/1 3/2/1
f 7/2/1 6/2/1 5/2/1
f 8/2/1 6/2/1 7/2/1
f 12/3/1 10/3/1 9/3/1
f 13/3/1 12/3/1 11/3/1
f 14/3/1 10/3/1 12/3/1
f 14/3/1 12/3/1 13/3/1
f 15/3/1 10/3/1 14/3/1
f 16/3/1 10/3/1 15/3/1
f 20/3/1 18/3/1 17/3/1
f 21/3/1 20/3/1 19/3/1
f 22/3/1 18/3/1 20/3/1
f 22/3/1 20/3/1 21/3/1
f 23/3/1 18/3/1 22/3/1
f 24/3/1 18/3/1 23/3/1
f 25/3/2 26/3/2 28/3/2
f 27/3/2 28/3/2 29/3/2
f 28/3/2 26/3/2 30/3/2
f 29/3/2 28/3/2 30/3/2
f 30/3/2 26/3/2 31/3/2
f 31/3/2 26/3/2 32/3/2
f 33/3/2 34/3/2 36/3/2
f 35/3/2 36/3/2 37/3/2
f 36/3/2 34/3/2 38/3/2
f 37/3/2 36/3/2 38/3/2
f 38/3/2 34/3/2 39/3/2
f 39/3/2 34/3/2 40/3/2
f 41/2/2 42/2/2 43/2/2
f 43/2/2 42/2/2 44/2/2
f 45/2/2 46/2/2 47/2/2
f 47/2/2 46/2/2 48/2/2
f 51/3/3 50/3/3 49/3/3
f 52/3/3 50/3/3 51/3/3
f 55/3/3 54/3/3 53/3/3
f 56/3/3 54/3/3 55/3/3
f 61/3/3 58/3/3 57/3/3
f 62/3/3 58/3/3 61/3/3
f 63/3/3 60/3/3 59/3/3
f 64/3/3 60/3/3 63/3/3
f 69/3/3 66/3/3 65/3/3
f 70/3/3 66/3/3 69/3/3
f 71/3/3 68/3/3 67/3/3
f 72/3/3 68/3/3 71/3/3
f 75/2/3 74/2/3 73/2/3
f 76/2/3 74/2/3 75/2/3
f 77/2/3 74/2/3 76/2/3
f 79/1/3 76/1/3 75/1/3
f 79/2/3 78/2/3 77/2/3
f 79/2/3 77/2/3 76/2/3
f 80/2/3 78/2/3 79/2/3
f 81/1/3 79/1/3 75/1/3
f 81/1/3 80/1/3 79/1/3
f 82/1/3 80/1/3 81/1/3
f 83/1/3 81/1/3 75/1/3
f 84/1/3 80/1/3 82/1/3
f 85/1/3 83/1/3 75/1/3
f 85/1/3 84/1/3 83/1/3
f 86/1/3 80/1/3 84/1/3
f 86/1/3 84/1/3 85/1/3
f 87/1/3 85/1/3 75/1/3
f 87/2/3 86/2/3 85/2/3
f 88/1/3 80/1/3 86/1/3
f 88/2/3 86/2/3 87/2/3
f 89/1/3 88/1/3 87/1/3
f 90/1/3 88/1/3 89/1/3
f 91/1/3 89/1/3 87/1/3
f 92/1/3 88/1/3 90/1/3
f 93/1/3 80/1/3 88/1/3
f 93/1/3 92/1/3 91/1/3
f 93/1/3 88/1/3 92/1/3
f 94/2/3 78/2/3 80/2/3
f 94/1/3 80/1/3 93/1/3
f 95/2/3 75/2/3 73/2/3
f 95/1/3 93/1/3 91/1/3
f 95/1/3 87/1/3 75/1/3
f 95/1/3 91/1/3 87/1/3
f 96/2/3 94/2/3 93/2/3
f 96/1/3 93/1/3 95/1/3
f 97/2/3 78/2/3 94/2/3
f 97/2/3 94/2/3 96/2/3
f 98/2/3 78/2/3 97/2/3
f 99/2/3 96/2/3 95/2/3
f 99/2/3 95/2/3 73/2/3
f 99/2/3 97/2/3 96/2/3
f 100/2/3 97/2/3 99/2/3
f 101/2/4 102/2/4 103/2/4
f 101/2/4 103/2/4 105/2/4
f 103/2/4 104/2/4 105/2/4
f 105/2/4 104/2/4 106/2/4
f 101/2/4 105/2/4 107/2/4
f 107/2/4 105/2/4 108/2/4
f 111/2/5 110/2/5 109/2/5
f 112/2/5 110/2/5 111/2/5
f 117/3/5 114/3/5 113/3/5
f 118/3/5 114/3/5 117/3/5
f 119/3/5 116/3/5 115/3/5
f 120/3/5 116/3/5 119/3/5
f 125/3/5 122/3/5 121/3/5
f 126/3/5 122/3/5 125/3/5
f 127/3/5 124/3/5 123/3/5
f 128/3/5 124/3/5 127/3/5
f 129/3/6 130/3/6 133/3/6
f 133/3/6 130/3/6 134/3/6
f 131/3/6 132/3/6 135/3/6
f 135/3/6 132/3/6 136/3/6
f 137/3/6 138/3/6 141/3/6
f 141/3/6 138/3/6 142/3/6
f 139/3/6 140/3/6 143/3/6
f 143/3/6 140/3/6 144/3/6
f 145/2/6 146/2/6 149/2/6
f 149/2/6 146/2/6 150/2/6
f 147/2/6 148/2/6 151/2/6
f 151/2/6 148/2/6 152/2/6
f 153/2/6 154/2/6 155/2/6
f 155/2/6 154/2/6 156/2/6
