# MagicaVoxel @ Ephtracy

# group
o 

# material
mtllib Assiette1(Factory-New).mtl
usemtl palette

# normals
vn -1 0 0
vn 1 0 0
vn 0 0 1
vn 0 0 -1
vn 0 -1 0
vn 0 1 0

# texcoords
vt 0.931641 0.5
vt 0.962891 0.5

# verts
v -1.6 0.1 1
v -1.6 0.1 0.5
v -1.6 0.3 1
v -1.6 0.3 0.5
v -1.5 0.1 1.2
v -1.5 0.1 1
v -1.5 0.1 0.5
v -1.5 0.1 0.3
v -1.5 0.3 1.2
v -1.5 0.3 1
v -1.5 0.3 0.5
v -1.5 0.3 0.3
v -1.4 0.1 1.3
v -1.4 0.1 1.2
v -1.4 0.1 0.3
v -1.4 0.1 0.2
v -1.4 0.2 1.3
v -1.4 0.2 1.2
v -1.4 0.2 0.3
v -1.4 0.2 0.2
v -1.4 0.3 1.3
v -1.4 0.3 1.2
v -1.4 0.3 0.3
v -1.4 0.3 0.2
v -1.3 0 1
v -1.3 0 0.9
v -1.3 0 0.6
v -1.3 0 0.5
v -1.3 0.1 1.4
v -1.3 0.1 1.3
v -1.3 0.1 1
v -1.3 0.1 0.9
v -1.3 0.1 0.6
v -1.3 0.1 0.5
v -1.3 0.1 0.2
v -1.3 0.1 0.1
v -1.3 0.2 1.3
v -1.3 0.2 0.2
v -1.3 0.3 1.4
v -1.3 0.3 1.3
v -1.3 0.3 0.2
v -1.3 0.3 0.1
v -1.2 0 1.1
v -1.2 0 1
v -1.2 0 0.5
v -1.2 0 0.4
v -1.2 0.1 1.1
v -1.2 0.1 1
v -1.2 0.1 0.5
v -1.2 0.1 0.4
v -1.1 0 1.2
v -1.1 0 1.1
v -1.1 0 0.4
v -1.1 0 0.3
v -1.1 0.1 1.5
v -1.1 0.1 1.4
v -1.1 0.1 1.2
v -1.1 0.1 1.1
v -1.1 0.1 0.4
v -1.1 0.1 0.3
v -1.1 0.1 0.1
v -1.1 0.1 0
v -1.1 0.3 1.5
v -1.1 0.3 1.4
v -1.1 0.3 0.1
v -1.1 0.3 0
v -0.6 0.1 1.2
v -0.6 0.1 1.1
v -0.6 0.1 0.4
v -0.6 0.1 0.3
v -0.6 0.2 1.3
v -0.6 0.2 1.2
v -0.6 0.2 1.1
v -0.6 0.2 0.4
v -0.6 0.2 0.3
v -0.6 0.2 0.2
v -0.6 0.3 1.3
v -0.6 0.3 1.2
v -0.6 0.3 0.3
v -0.6 0.3 0.2
v -0.5 0.1 1.1
v -0.5 0.1 1
v -0.5 0.1 0.5
v -0.5 0.1 0.4
v -0.5 0.2 1.2
v -0.5 0.2 1.1
v -0.5 0.2 1
v -0.5 0.2 0.5
v -0.5 0.2 0.4
v -0.5 0.2 0.3
v -0.5 0.3 1.2
v -0.5 0.3 1.1
v -0.5 0.3 0.4
v -0.5 0.3 0.3
v -0.4 0.1 1
v -0.4 0.1 0.9
v -0.4 0.1 0.6
v -0.4 0.1 0.5
v -0.4 0.2 1.1
v -0.4 0.2 1
v -0.4 0.2 0.5
v -0.4 0.2 0.4
v -0.4 0.3 1.1
v -0.4 0.3 1
v -0.4 0.3 0.5
v -0.4 0.3 0.4
v -0.3 0.2 1
v -0.3 0.2 0.5
v -0.3 0.3 1
v -0.3 0.3 0.5
v -1.4 0.2 1
v -1.4 0.2 0.5
v -1.4 0.3 1
v -1.4 0.3 0.5
v -1.3 0.1 1
v -1.3 0.1 0.9
v -1.3 0.1 0.6
v -1.3 0.1 0.5
v -1.3 0.2 1.1
v -1.3 0.2 1
v -1.3 0.2 0.5
v -1.3 0.2 0.4
v -1.3 0.3 1.1
v -1.3 0.3 1
v -1.3 0.3 0.5
v -1.3 0.3 0.4
v -1.2 0.1 1.1
v -1.2 0.1 1
v -1.2 0.1 0.5
v -1.2 0.1 0.4
v -1.2 0.2 1.2
v -1.2 0.2 1.1
v -1.2 0.2 1
v -1.2 0.2 0.5
v -1.2 0.2 0.4
v -1.2 0.2 0.3
v -1.2 0.3 1.2
v -1.2 0.3 1.1
v -1.2 0.3 0.4
v -1.2 0.3 0.3
v -1.1 0.1 1.2
v -1.1 0.1 1.1
v -1.1 0.1 0.4
v -1.1 0.1 0.3
v -1.1 0.2 1.3
v -1.1 0.2 1.2
v -1.1 0.2 1.1
v -1.1 0.2 0.4
v -1.1 0.2 0.3
v -1.1 0.2 0.2
v -1.1 0.3 1.3
v -1.1 0.3 1.2
v -1.1 0.3 0.3
v -1.1 0.3 0.2
v -0.6 0 1.2
v -0.6 0 1.1
v -0.6 0 0.4
v -0.6 0 0.3
v -0.6 0.1 1.5
v -0.6 0.1 1.4
v -0.6 0.1 1.2
v -0.6 0.1 1.1
v -0.6 0.1 0.4
v -0.6 0.1 0.3
v -0.6 0.1 0.1
v -0.6 0.1 0
v -0.6 0.3 1.5
v -0.6 0.3 1.4
v -0.6 0.3 0.1
v -0.6 0.3 0
v -0.5 0 1.1
v -0.5 0 1
v -0.5 0 0.5
v -0.5 0 0.4
v -0.5 0.1 1.1
v -0.5 0.1 1
v -0.5 0.1 0.5
v -0.5 0.1 0.4
v -0.4 0 1
v -0.4 0 0.9
v -0.4 0 0.6
v -0.4 0 0.5
v -0.4 0.1 1.4
v -0.4 0.1 1.3
v -0.4 0.1 1
v -0.4 0.1 0.9
v -0.4 0.1 0.6
v -0.4 0.1 0.5
v -0.4 0.1 0.2
v -0.4 0.1 0.1
v -0.4 0.2 1.3
v -0.4 0.2 0.2
v -0.4 0.3 1.4
v -0.4 0.3 1.3
v -0.4 0.3 0.2
v -0.4 0.3 0.1
v -0.3 0.1 1.3
v -0.3 0.1 1.2
v -0.3 0.1 0.3
v -0.3 0.1 0.2
v -0.3 0.2 1.3
v -0.3 0.2 1.2
v -0.3 0.2 0.3
v -0.3 0.2 0.2
v -0.3 0.3 1.3
v -0.3 0.3 1.2
v -0.3 0.3 0.3
v -0.3 0.3 0.2
v -0.2 0.1 1.2
v -0.2 0.1 1
v -0.2 0.1 0.5
v -0.2 0.1 0.3
v -0.2 0.3 1.2
v -0.2 0.3 1
v -0.2 0.3 0.5
v -0.2 0.3 0.3
v -0.1 0.1 1
v -0.1 0.1 0.5
v -0.1 0.3 1
v -0.1 0.3 0.5
v -1.1 0.1 1.5
v -1.1 0.3 1.5
v -0.6 0.1 1.5
v -0.6 0.3 1.5
v -1.3 0.1 1.4
v -1.3 0.3 1.4
v -1.1 0.1 1.4
v -1.1 0.3 1.4
v -0.6 0.1 1.4
v -0.6 0.3 1.4
v -0.4 0.1 1.4
v -0.4 0.3 1.4
v -1.4 0.1 1.3
v -1.4 0.2 1.3
v -1.4 0.3 1.3
v -1.3 0.1 1.3
v -1.3 0.2 1.3
v -1.3 0.3 1.3
v -0.4 0.1 1.3
v -0.4 0.2 1.3
v -0.4 0.3 1.3
v -0.3 0.1 1.3
v -0.3 0.2 1.3
v -0.3 0.3 1.3
v -1.5 0.1 1.2
v -1.5 0.3 1.2
v -1.4 0.1 1.2
v -1.4 0.2 1.2
v -1.4 0.3 1.2
v -1.1 0 1.2
v -1.1 0.1 1.2
v -1 0 1.2
v -1 0.1 1.2
v -0.7 0 1.2
v -0.7 0.1 1.2
v -0.6 0 1.2
v -0.6 0.1 1.2
v -0.3 0.1 1.2
v -0.3 0.2 1.2
v -0.3 0.3 1.2
v -0.2 0.1 1.2
v -0.2 0.3 1.2
v -1.2 0 1.1
v -1.2 0.1 1.1
v -1.1 0 1.1
v -1.1 0.1 1.1
v -0.6 0 1.1
v -0.6 0.1 1.1
v -0.5 0 1.1
v -0.5 0.1 1.1
v -1.6 0.1 1
v -1.6 0.3 1
v -1.5 0.1 1
v -1.5 0.3 1
v -1.3 0 1
v -1.3 0.1 1
v -1.2 0 1
v -1.2 0.1 1
v -0.5 0 1
v -0.5 0.1 1
v -0.4 0 1
v -0.4 0.1 1
v -0.2 0.1 1
v -0.2 0.3 1
v -0.1 0.1 1
v -0.1 0.3 1
v -1.4 0.2 0.5
v -1.4 0.3 0.5
v -1.3 0.1 0.5
v -1.3 0.2 0.5
v -1.3 0.3 0.5
v -1.2 0.1 0.5
v -1.2 0.2 0.5
v -0.5 0.1 0.5
v -0.5 0.2 0.5
v -0.4 0.1 0.5
v -0.4 0.2 0.5
v -0.4 0.3 0.5
v -0.3 0.2 0.5
v -0.3 0.3 0.5
v -1.3 0.2 0.4
v -1.3 0.3 0.4
v -1.2 0.1 0.4
v -1.2 0.2 0.4
v -1.2 0.3 0.4
v -1.1 0.1 0.4
v -1.1 0.2 0.4
v -0.6 0.1 0.4
v -0.6 0.2 0.4
v -0.5 0.1 0.4
v -0.5 0.2 0.4
v -0.5 0.3 0.4
v -0.4 0.2 0.4
v -0.4 0.3 0.4
v -1.2 0.2 0.3
v -1.2 0.3 0.3
v -1.1 0.1 0.3
v -1.1 0.2 0.3
v -1.1 0.3 0.3
v -1 0.1 0.3
v -0.7 0.1 0.3
v -0.6 0.1 0.3
v -0.6 0.2 0.3
v -0.6 0.3 0.3
v -0.5 0.2 0.3
v -0.5 0.3 0.3
v -1.1 0.2 0.2
v -1.1 0.3 0.2
v -0.6 0.2 0.2
v -0.6 0.3 0.2
v -1.1 0.2 1.3
v -1.1 0.3 1.3
v -0.6 0.2 1.3
v -0.6 0.3 1.3
v -1.2 0.2 1.2
v -1.2 0.3 1.2
v -1.1 0.1 1.2
v -1.1 0.2 1.2
v -1.1 0.3 1.2
v -1 0.1 1.2
v -0.7 0.1 1.2
v -0.6 0.1 1.2
v -0.6 0.2 1.2
v -0.6 0.3 1.2
v -0.5 0.2 1.2
v -0.5 0.3 1.2
v -1.3 0.2 1.1
v -1.3 0.3 1.1
v -1.2 0.1 1.1
v -1.2 0.2 1.1
v -1.2 0.3 1.1
v -1.1 0.1 1.1
v -1.1 0.2 1.1
v -0.6 0.1 1.1
v -0.6 0.2 1.1
v -0.5 0.1 1.1
v -0.5 0.2 1.1
v -0.5 0.3 1.1
v -0.4 0.2 1.1
v -0.4 0.3 1.1
v -1.4 0.2 1
v -1.4 0.3 1
v -1.3 0.1 1
v -1.3 0.2 1
v -1.3 0.3 1
v -1.2 0.1 1
v -1.2 0.2 1
v -0.5 0.1 1
v -0.5 0.2 1
v -0.4 0.1 1
v -0.4 0.2 1
v -0.4 0.3 1
v -0.3 0.2 1
v -0.3 0.3 1
v -1.6 0.1 0.5
v -1.6 0.3 0.5
v -1.5 0.1 0.5
v -1.5 0.3 0.5
v -1.3 0 0.5
v -1.3 0.1 0.5
v -1.2 0 0.5
v -1.2 0.1 0.5
v -0.5 0 0.5
v -0.5 0.1 0.5
v -0.4 0 0.5
v -0.4 0.1 0.5
v -0.2 0.1 0.5
v -0.2 0.3 0.5
v -0.1 0.1 0.5
v -0.1 0.3 0.5
v -1.2 0 0.4
v -1.2 0.1 0.4
v -1.1 0 0.4
v -1.1 0.1 0.4
v -0.6 0 0.4
v -0.6 0.1 0.4
v -0.5 0 0.4
v -0.5 0.1 0.4
v -1.5 0.1 0.3
v -1.5 0.3 0.3
v -1.4 0.1 0.3
v -1.4 0.2 0.3
v -1.4 0.3 0.3
v -1.1 0 0.3
v -1.1 0.1 0.3
v -1 0 0.3
v -1 0.1 0.3
v -0.7 0 0.3
v -0.7 0.1 0.3
v -0.6 0 0.3
v -0.6 0.1 0.3
v -0.3 0.1 0.3
v -0.3 0.2 0.3
v -0.3 0.3 0.3
v -0.2 0.1 0.3
v -0.2 0.3 0.3
v -1.4 0.1 0.2
v -1.4 0.2 0.2
v -1.4 0.3 0.2
v -1.3 0.1 0.2
v -1.3 0.2 0.2
v -1.3 0.3 0.2
v -0.4 0.1 0.2
v -0.4 0.2 0.2
v -0.4 0.3 0.2
v -0.3 0.1 0.2
v -0.3 0.2 0.2
v -0.3 0.3 0.2
v -1.3 0.1 0.1
v -1.3 0.3 0.1
v -1.1 0.1 0.1
v -1.1 0.3 0.1
v -0.6 0.1 0.1
v -0.6 0.3 0.1
v -0.4 0.1 0.1
v -0.4 0.3 0.1
v -1.1 0.1 0
v -1.1 0.3 0
v -0.6 0.1 0
v -0.6 0.3 0
v -1.1 0 1.2
v -1 0 1.2
v -0.7 0 1.2
v -0.6 0 1.2
v -1.2 0 1.1
v -1.1 0 1.1
v -1 0 1.1
v -0.7 0 1.1
v -0.6 0 1.1
v -0.5 0 1.1
v -1.3 0 1
v -1.2 0 1
v -0.5 0 1
v -0.4 0 1
v -1.3 0 0.9
v -1.2 0 0.9
v -0.5 0 0.9
v -0.4 0 0.9
v -1.3 0 0.6
v -1.2 0 0.6
v -0.5 0 0.6
v -0.4 0 0.6
v -1.3 0 0.5
v -1.2 0 0.5
v -0.5 0 0.5
v -0.4 0 0.5
v -1.2 0 0.4
v -1.1 0 0.4
v -1 0 0.4
v -0.7 0 0.4
v -0.6 0 0.4
v -0.5 0 0.4
v -1.1 0 0.3
v -1 0 0.3
v -0.7 0 0.3
v -0.6 0 0.3
v -1.1 0.1 1.5
v -0.6 0.1 1.5
v -1.3 0.1 1.4
v -1.1 0.1 1.4
v -0.6 0.1 1.4
v -0.4 0.1 1.4
v -1.4 0.1 1.3
v -1.3 0.1 1.3
v -0.4 0.1 1.3
v -0.3 0.1 1.3
v -1.5 0.1 1.2
v -1.4 0.1 1.2
v -1.2 0.1 1.2
v -1.1 0.1 1.2
v -1 0.1 1.2
v -0.7 0.1 1.2
v -0.6 0.1 1.2
v -0.5 0.1 1.2
v -0.3 0.1 1.2
v -0.2 0.1 1.2
v -1.3 0.1 1.1
v -1.2 0.1 1.1
v -1.1 0.1 1.1
v -0.6 0.1 1.1
v -0.5 0.1 1.1
v -0.4 0.1 1.1
v -1.6 0.1 1
v -1.5 0.1 1
v -1.3 0.1 1
v -1.2 0.1 1
v -0.5 0.1 1
v -0.4 0.1 1
v -0.2 0.1 1
v -0.1 0.1 1
v -1.3 0.1 0.9
v -0.4 0.1 0.9
v -1.3 0.1 0.6
v -0.4 0.1 0.6
v -1.6 0.1 0.5
v -1.5 0.1 0.5
v -1.3 0.1 0.5
v -1.2 0.1 0.5
v -0.5 0.1 0.5
v -0.4 0.1 0.5
v -0.2 0.1 0.5
v -0.1 0.1 0.5
v -1.3 0.1 0.4
v -1.2 0.1 0.4
v -1.1 0.1 0.4
v -0.6 0.1 0.4
v -0.5 0.1 0.4
v -0.4 0.1 0.4
v -1.5 0.1 0.3
v -1.4 0.1 0.3
v -1.2 0.1 0.3
v -1.1 0.1 0.3
v -1 0.1 0.3
v -0.7 0.1 0.3
v -0.6 0.1 0.3
v -0.5 0.1 0.3
v -0.3 0.1 0.3
v -0.2 0.1 0.3
v -1.4 0.1 0.2
v -1.3 0.1 0.2
v -0.4 0.1 0.2
v -0.3 0.1 0.2
v -1.3 0.1 0.1
v -1.1 0.1 0.1
v -0.6 0.1 0.1
v -0.4 0.1 0.1
v -1.1 0.1 0
v -0.6 0.1 0
v -1.1 0.1 1.2
v -1 0.1 1.2
v -0.7 0.1 1.2
v -0.6 0.1 1.2
v -1.2 0.1 1.1
v -1.1 0.1 1.1
v -1 0.1 1.1
v -0.7 0.1 1.1
v -0.6 0.1 1.1
v -0.5 0.1 1.1
v -1.3 0.1 1
v -1.2 0.1 1
v -0.5 0.1 1
v -0.4 0.1 1
v -1.3 0.1 0.9
v -1.2 0.1 0.9
v -0.5 0.1 0.9
v -0.4 0.1 0.9
v -1.3 0.1 0.6
v -1.2 0.1 0.6
v -0.5 0.1 0.6
v -0.4 0.1 0.6
v -1.3 0.1 0.5
v -1.2 0.1 0.5
v -0.5 0.1 0.5
v -0.4 0.1 0.5
v -1.2 0.1 0.4
v -1.1 0.1 0.4
v -1 0.1 0.4
v -0.7 0.1 0.4
v -0.6 0.1 0.4
v -0.5 0.1 0.4
v -1.1 0.1 0.3
v -1 0.1 0.3
v -0.7 0.1 0.3
v -0.6 0.1 0.3
v -1.1 0.2 1.3
v -0.6 0.2 1.3
v -1.2 0.2 1.2
v -1.1 0.2 1.2
v -0.6 0.2 1.2
v -0.5 0.2 1.2
v -1.3 0.2 1.1
v -1.2 0.2 1.1
v -1.1 0.2 1.1
v -0.6 0.2 1.1
v -0.5 0.2 1.1
v -0.4 0.2 1.1
v -1.4 0.2 1
v -1.3 0.2 1
v -1.2 0.2 1
v -0.5 0.2 1
v -0.4 0.2 1
v -0.3 0.2 1
v -1.4 0.2 0.5
v -1.3 0.2 0.5
v -1.2 0.2 0.5
v -0.5 0.2 0.5
v -0.4 0.2 0.5
v -0.3 0.2 0.5
v -1.3 0.2 0.4
v -1.2 0.2 0.4
v -1.1 0.2 0.4
v -0.6 0.2 0.4
v -0.5 0.2 0.4
v -0.4 0.2 0.4
v -1.2 0.2 0.3
v -1.1 0.2 0.3
v -0.6 0.2 0.3
v -0.5 0.2 0.3
v -1.1 0.2 0.2
v -0.6 0.2 0.2
v -1.1 0.3 1.5
v -0.6 0.3 1.5
v -1.3 0.3 1.4
v -1.1 0.3 1.4
v -0.6 0.3 1.4
v -0.4 0.3 1.4
v -1.4 0.3 1.3
v -1.3 0.3 1.3
v -1.1 0.3 1.3
v -0.6 0.3 1.3
v -0.4 0.3 1.3
v -0.3 0.3 1.3
v -1.5 0.3 1.2
v -1.4 0.3 1.2
v -1.3 0.3 1.2
v -1.2 0.3 1.2
v -1.1 0.3 1.2
v -0.6 0.3 1.2
v -0.5 0.3 1.2
v -0.4 0.3 1.2
v -0.3 0.3 1.2
v -0.2 0.3 1.2
v -1.3 0.3 1.1
v -1.2 0.3 1.1
v -0.5 0.3 1.1
v -0.4 0.3 1.1
v -1.6 0.3 1
v -1.5 0.3 1
v -1.4 0.3 1
v -1.3 0.3 1
v -0.4 0.3 1
v -0.3 0.3 1
v -0.2 0.3 1
v -0.1 0.3 1
v -1.6 0.3 0.5
v -1.5 0.3 0.5
v -1.4 0.3 0.5
v -1.3 0.3 0.5
v -0.4 0.3 0.5
v -0.3 0.3 0.5
v -0.2 0.3 0.5
v -0.1 0.3 0.5
v -1.3 0.3 0.4
v -1.2 0.3 0.4
v -0.5 0.3 0.4
v -0.4 0.3 0.4
v -1.5 0.3 0.3
v -1.4 0.3 0.3
v -1.3 0.3 0.3
v -1.2 0.3 0.3
v -1.1 0.3 0.3
v -0.6 0.3 0.3
v -0.5 0.3 0.3
v -0.4 0.3 0.3
v -0.3 0.3 0.3
v -0.2 0.3 0.3
v -1.4 0.3 0.2
v -1.3 0.3 0.2
v -1.1 0.3 0.2
v -0.6 0.3 0.2
v -0.4 0.3 0.2
v -0.3 0.3 0.2
v -1.3 0.3 0.1
v -1.1 0.3 0.1
v -0.6 0.3 0.1
v -0.4 0.3 0.1
v -1.1 0.3 0
v -0.6 0.3 0

# faces
f 3/2/1 2/2/1 1/2/1
f 4/2/1 2/2/1 3/2/1
f 9/2/1 6/2/1 5/2/1
f 10/2/1 6/2/1 9/2/1
f 11/2/1 8/2/1 7/2/1
f 12/2/1 8/2/1 11/2/1
f 17/2/1 14/2/1 13/2/1
f 18/2/1 14/2/1 17/2/1
f 19/2/1 16/2/1 15/2/1
f 20/2/1 16/2/1 19/2/1
f 21/1/1 18/1/1 17/1/1
f 22/1/1 18/1/1 21/1/1
f 23/1/1 20/1/1 19/1/1
f 24/1/1 20/1/1 23/1/1
f 31/1/1 26/1/1 25/1/1
f 32/2/1 27/2/1 26/2/1
f 32/1/1 26/1/1 31/1/1
f 33/1/1 28/1/1 27/1/1
f 33/2/1 27/2/1 32/2/1
f 34/1/1 28/1/1 33/1/1
f 37/2/1 30/2/1 29/2/1
f 38/2/1 36/2/1 35/2/1
f 39/2/1 37/2/1 29/2/1
f 40/2/1 37/2/1 39/2/1
f 41/2/1 36/2/1 38/2/1
f 42/2/1 36/2/1 41/2/1
f 47/2/1 44/2/1 43/2/1
f 48/2/1 44/2/1 47/2/1
f 49/2/1 46/2/1 45/2/1
f 50/2/1 46/2/1 49/2/1
f 57/1/1 52/1/1 51/1/1
f 58/1/1 52/1/1 57/1/1
f 59/1/1 54/1/1 53/1/1
f 60/1/1 54/1/1 59/1/1
f 63/2/1 56/2/1 55/2/1
f 64/2/1 56/2/1 63/2/1
f 65/2/1 62/2/1 61/2/1
f 66/2/1 62/2/1 65/2/1
f 72/1/1 68/1/1 67/1/1
f 73/1/1 68/1/1 72/1/1
f 74/1/1 70/1/1 69/1/1
f 75/1/1 70/1/1 74/1/1
f 77/2/1 72/2/1 71/2/1
f 78/2/1 72/2/1 77/2/1
f 79/2/1 76/2/1 75/2/1
f 80/2/1 76/2/1 79/2/1
f 86/1/1 82/1/1 81/1/1
f 87/1/1 82/1/1 86/1/1
f 88/1/1 84/1/1 83/1/1
f 89/1/1 84/1/1 88/1/1
f 91/1/1 86/1/1 85/1/1
f 92/1/1 86/1/1 91/1/1
f 93/1/1 90/1/1 89/1/1
f 94/1/1 90/1/1 93/1/1
f 100/2/1 96/2/1 95/2/1
f 100/2/1 98/2/1 97/2/1
f 100/2/1 97/2/1 96/2/1
f 101/2/1 98/2/1 100/2/1
f 103/2/1 100/2/1 99/2/1
f 104/2/1 100/2/1 103/2/1
f 105/2/1 102/2/1 101/2/1
f 106/2/1 102/2/1 105/2/1
f 109/2/1 108/2/1 107/2/1
f 110/2/1 108/2/1 109/2/1
f 111/2/2 112/2/2 113/2/2
f 113/2/2 112/2/2 114/2/2
f 115/2/2 116/2/2 120/2/2
f 117/2/2 118/2/2 120/2/2
f 116/2/2 117/2/2 120/2/2
f 120/2/2 118/2/2 121/2/2
f 119/2/2 120/2/2 123/2/2
f 123/2/2 120/2/2 124/2/2
f 121/2/2 122/2/2 125/2/2
f 125/2/2 122/2/2 126/2/2
f 127/1/2 128/1/2 132/1/2
f 132/1/2 128/1/2 133/1/2
f 129/1/2 130/1/2 134/1/2
f 134/1/2 130/1/2 135/1/2
f 131/1/2 132/1/2 137/1/2
f 137/1/2 132/1/2 138/1/2
f 135/1/2 136/1/2 139/1/2
f 139/1/2 136/1/2 140/1/2
f 141/1/2 142/1/2 146/1/2
f 146/1/2 142/1/2 147/1/2
f 143/1/2 144/1/2 148/1/2
f 148/1/2 144/1/2 149/1/2
f 145/2/2 146/2/2 151/2/2
f 151/2/2 146/2/2 152/2/2
f 149/2/2 150/2/2 153/2/2
f 153/2/2 150/2/2 154/2/2
f 155/1/2 156/1/2 161/1/2
f 161/1/2 156/1/2 162/1/2
f 157/1/2 158/1/2 163/1/2
f 163/1/2 158/1/2 164/1/2
f 159/2/2 160/2/2 167/2/2
f 167/2/2 160/2/2 168/2/2
f 165/2/2 166/2/2 169/2/2
f 169/2/2 166/2/2 170/2/2
f 171/2/2 172/2/2 175/2/2
f 175/2/2 172/2/2 176/2/2
f 173/2/2 174/2/2 177/2/2
f 177/2/2 174/2/2 178/2/2
f 179/1/2 180/1/2 185/1/2
f 180/2/2 181/2/2 186/2/2
f 185/1/2 180/1/2 186/1/2
f 181/1/2 182/1/2 187/1/2
f 186/2/2 181/2/2 187/2/2
f 187/1/2 182/1/2 188/1/2
f 183/2/2 184/2/2 191/2/2
f 189/2/2 190/2/2 192/2/2
f 183/2/2 191/2/2 193/2/2
f 193/2/2 191/2/2 194/2/2
f 192/2/2 190/2/2 195/2/2
f 195/2/2 190/2/2 196/2/2
f 197/2/2 198/2/2 201/2/2
f 201/2/2 198/2/2 202/2/2
f 199/2/2 200/2/2 203/2/2
f 203/2/2 200/2/2 204/2/2
f 201/1/2 202/1/2 205/1/2
f 205/1/2 202/1/2 206/1/2
f 203/1/2 204/1/2 207/1/2
f 207/1/2 204/1/2 208/1/2
f 209/2/2 210/2/2 213/2/2
f 213/2/2 210/2/2 214/2/2
f 211/2/2 212/2/2 215/2/2
f 215/2/2 212/2/2 216/2/2
f 217/2/2 218/2/2 219/2/2
f 219/2/2 218/2/2 220/2/2
f 223/2/3 222/2/3 221/2/3
f 224/2/3 222/2/3 223/2/3
f 227/2/3 226/2/3 225/2/3
f 228/2/3 226/2/3 227/2/3
f 231/2/3 230/2/3 229/2/3
f 232/2/3 230/2/3 231/2/3
f 236/2/3 234/2/3 233/2/3
f 237/1/3 235/1/3 234/1/3
f 237/2/3 234/2/3 236/2/3
f 238/1/3 235/1/3 237/1/3
f 242/2/3 240/2/3 239/2/3
f 243/1/3 241/1/3 240/1/3
f 243/2/3 240/2/3 242/2/3
f 244/1/3 241/1/3 243/1/3
f 247/2/3 246/2/3 245/2/3
f 248/2/3 246/2/3 247/2/3
f 249/2/3 246/2/3 248/2/3
f 252/1/3 251/1/3 250/1/3
f 253/1/3 251/1/3 252/1/3
f 254/2/3 253/2/3 252/2/3
f 255/2/3 253/2/3 254/2/3
f 256/1/3 255/1/3 254/1/3
f 257/1/3 255/1/3 256/1/3
f 261/2/3 259/2/3 258/2/3
f 261/2/3 260/2/3 259/2/3
f 262/2/3 260/2/3 261/2/3
f 265/2/3 264/2/3 263/2/3
f 266/2/3 264/2/3 265/2/3
f 269/2/3 268/2/3 267/2/3
f 270/2/3 268/2/3 269/2/3
f 273/2/3 272/2/3 271/2/3
f 274/2/3 272/2/3 273/2/3
f 277/1/3 276/1/3 275/1/3
f 278/1/3 276/1/3 277/1/3
f 281/1/3 280/1/3 279/1/3
f 282/1/3 280/1/3 281/1/3
f 285/2/3 284/2/3 283/2/3
f 286/2/3 284/2/3 285/2/3
f 290/2/3 288/2/3 287/2/3
f 291/2/3 288/2/3 290/2/3
f 292/1/3 290/1/3 289/1/3
f 293/1/3 290/1/3 292/1/3
f 296/1/3 295/1/3 294/1/3
f 297/1/3 295/1/3 296/1/3
f 299/2/3 298/2/3 297/2/3
f 300/2/3 298/2/3 299/2/3
f 304/1/3 302/1/3 301/1/3
f 305/1/3 302/1/3 304/1/3
f 306/1/3 304/1/3 303/1/3
f 307/1/3 304/1/3 306/1/3
f 310/1/3 309/1/3 308/1/3
f 311/1/3 309/1/3 310/1/3
f 313/1/3 312/1/3 311/1/3
f 314/1/3 312/1/3 313/1/3
f 318/2/3 316/2/3 315/2/3
f 319/2/3 316/2/3 318/2/3
f 320/2/3 318/2/3 317/2/3
f 321/2/3 318/2/3 320/2/3
f 322/2/3 318/2/3 321/2/3
f 323/2/3 318/2/3 322/2/3
f 325/2/3 324/2/3 323/2/3
f 326/2/3 324/2/3 325/2/3
f 329/2/3 328/2/3 327/2/3
f 330/2/3 328/2/3 329/2/3
f 331/2/4 332/2/4 333/2/4
f 333/2/4 332/2/4 334/2/4
f 335/2/4 336/2/4 338/2/4
f 338/2/4 336/2/4 339/2/4
f 337/2/4 338/2/4 340/2/4
f 340/2/4 338/2/4 341/2/4
f 341/2/4 338/2/4 342/2/4
f 342/2/4 338/2/4 343/2/4
f 343/2/4 344/2/4 345/2/4
f 345/2/4 344/2/4 346/2/4
f 347/1/4 348/1/4 350/1/4
f 350/1/4 348/1/4 351/1/4
f 349/1/4 350/1/4 352/1/4
f 352/1/4 350/1/4 353/1/4
f 354/1/4 355/1/4 356/1/4
f 356/1/4 355/1/4 357/1/4
f 357/1/4 358/1/4 359/1/4
f 359/1/4 358/1/4 360/1/4
f 361/2/4 362/2/4 364/2/4
f 364/2/4 362/2/4 365/2/4
f 363/1/4 364/1/4 366/1/4
f 366/1/4 364/1/4 367/1/4
f 368/1/4 369/1/4 370/1/4
f 370/1/4 369/1/4 371/1/4
f 371/2/4 372/2/4 373/2/4
f 373/2/4 372/2/4 374/2/4
f 375/2/4 376/2/4 377/2/4
f 377/2/4 376/2/4 378/2/4
f 379/1/4 380/1/4 381/1/4
f 381/1/4 380/1/4 382/1/4
f 383/1/4 384/1/4 385/1/4
f 385/1/4 384/1/4 386/1/4
f 387/2/4 388/2/4 389/2/4
f 389/2/4 388/2/4 390/2/4
f 391/2/4 392/2/4 393/2/4
f 393/2/4 392/2/4 394/2/4
f 395/2/4 396/2/4 397/2/4
f 397/2/4 396/2/4 398/2/4
f 399/2/4 400/2/4 401/2/4
f 401/2/4 400/2/4 402/2/4
f 402/2/4 400/2/4 403/2/4
f 404/1/4 405/1/4 406/1/4
f 406/1/4 405/1/4 407/1/4
f 406/2/4 407/2/4 408/2/4
f 408/2/4 407/2/4 409/2/4
f 408/1/4 409/1/4 410/1/4
f 410/1/4 409/1/4 411/1/4
f 412/2/4 413/2/4 415/2/4
f 413/2/4 414/2/4 415/2/4
f 415/2/4 414/2/4 416/2/4
f 417/2/4 418/2/4 420/2/4
f 418/1/4 419/1/4 421/1/4
f 420/2/4 418/2/4 421/2/4
f 421/1/4 419/1/4 422/1/4
f 423/2/4 424/2/4 426/2/4
f 424/1/4 425/1/4 427/1/4
f 426/2/4 424/2/4 427/2/4
f 427/1/4 425/1/4 428/1/4
f 429/2/4 430/2/4 431/2/4
f 431/2/4 430/2/4 432/2/4
f 433/2/4 434/2/4 435/2/4
f 435/2/4 434/2/4 436/2/4
f 437/2/4 438/2/4 439/2/4
f 439/2/4 438/2/4 440/2/4
f 446/1/5 442/1/5 441/1/5
f 447/2/5 443/2/5 442/2/5
f 447/1/5 442/1/5 446/1/5
f 448/1/5 444/1/5 443/1/5
f 448/2/5 443/2/5 447/2/5
f 449/1/5 444/1/5 448/1/5
f 452/2/5 447/2/5 446/2/5
f 452/2/5 450/2/5 449/2/5
f 452/2/5 449/2/5 448/2/5
f 452/2/5 448/2/5 447/2/5
f 452/2/5 446/2/5 445/2/5
f 453/2/5 450/2/5 452/2/5
f 455/1/5 452/1/5 451/1/5
f 456/2/5 453/2/5 452/2/5
f 456/1/5 452/1/5 455/1/5
f 457/1/5 454/1/5 453/1/5
f 457/2/5 453/2/5 456/2/5
f 458/1/5 454/1/5 457/1/5
f 459/2/5 456/2/5 455/2/5
f 459/2/5 457/2/5 456/2/5
f 459/2/5 458/2/5 457/2/5
f 460/2/5 458/2/5 459/2/5
f 461/2/5 458/2/5 460/2/5
f 462/2/5 458/2/5 461/2/5
f 463/1/5 460/1/5 459/1/5
f 464/2/5 461/2/5 460/2/5
f 464/1/5 460/1/5 463/1/5
f 465/1/5 462/1/5 461/1/5
f 465/2/5 461/2/5 464/2/5
f 466/1/5 462/1/5 465/1/5
f 467/2/5 465/2/5 464/2/5
f 468/2/5 465/2/5 467/2/5
f 469/2/5 465/2/5 468/2/5
f 470/2/5 465/2/5 469/2/5
f 471/2/5 465/2/5 470/2/5
f 472/2/5 465/2/5 471/2/5
f 473/1/5 469/1/5 468/1/5
f 474/2/5 470/2/5 469/2/5
f 474/1/5 469/1/5 473/1/5
f 475/1/5 471/1/5 470/1/5
f 475/2/5 470/2/5 474/2/5
f 476/1/5 471/1/5 475/1/5
f 480/2/5 478/2/5 477/2/5
f 481/2/5 478/2/5 480/2/5
f 484/2/5 480/2/5 479/2/5
f 484/2/5 482/2/5 481/2/5
f 484/2/5 481/2/5 480/2/5
f 485/2/5 482/2/5 484/2/5
f 488/2/5 484/2/5 483/2/5
f 488/2/5 486/2/5 485/2/5
f 488/2/5 485/2/5 484/2/5
f 489/2/5 486/2/5 488/2/5
f 490/2/5 486/2/5 489/2/5
f 491/2/5 486/2/5 490/2/5
f 492/2/5 486/2/5 491/2/5
f 493/2/5 486/2/5 492/2/5
f 494/2/5 486/2/5 493/2/5
f 495/2/5 486/2/5 494/2/5
f 497/2/5 488/2/5 487/2/5
f 497/2/5 489/2/5 488/2/5
f 498/1/5 490/1/5 489/1/5
f 498/2/5 489/2/5 497/2/5
f 499/1/5 490/1/5 498/1/5
f 500/1/5 494/1/5 493/1/5
f 501/2/5 496/2/5 495/2/5
f 501/1/5 494/1/5 500/1/5
f 501/2/5 495/2/5 494/2/5
f 502/2/5 496/2/5 501/2/5
f 504/2/5 497/2/5 487/2/5
f 505/1/5 498/1/5 497/1/5
f 505/2/5 497/2/5 504/2/5
f 506/1/5 498/1/5 505/1/5
f 507/1/5 502/1/5 501/1/5
f 508/2/5 496/2/5 502/2/5
f 508/1/5 502/1/5 507/1/5
f 509/2/5 496/2/5 508/2/5
f 511/2/5 504/2/5 503/2/5
f 511/2/5 505/2/5 504/2/5
f 512/2/5 510/2/5 509/2/5
f 512/2/5 509/2/5 508/2/5
f 513/2/5 511/2/5 503/2/5
f 514/2/5 510/2/5 512/2/5
f 515/2/5 513/2/5 503/2/5
f 516/2/5 513/2/5 515/2/5
f 517/2/5 513/2/5 516/2/5
f 520/2/5 510/2/5 514/2/5
f 521/2/5 510/2/5 520/2/5
f 522/2/5 510/2/5 521/2/5
f 523/1/5 518/1/5 517/1/5
f 523/2/5 517/2/5 516/2/5
f 524/1/5 518/1/5 523/1/5
f 527/1/5 520/1/5 519/1/5
f 528/2/5 521/2/5 520/2/5
f 528/1/5 520/1/5 527/1/5
f 529/2/5 523/2/5 516/2/5
f 529/2/5 524/2/5 523/2/5
f 530/2/5 524/2/5 529/2/5
f 531/1/5 525/1/5 524/1/5
f 531/2/5 524/2/5 530/2/5
f 532/1/5 525/1/5 531/1/5
f 535/1/5 527/1/5 526/1/5
f 536/2/5 528/2/5 527/2/5
f 536/1/5 527/1/5 535/1/5
f 537/2/5 521/2/5 528/2/5
f 537/2/5 528/2/5 536/2/5
f 538/2/5 521/2/5 537/2/5
f 539/2/5 534/2/5 533/2/5
f 539/2/5 537/2/5 536/2/5
f 539/2/5 536/2/5 535/2/5
f 539/2/5 533/2/5 532/2/5
f 539/2/5 532/2/5 531/2/5
f 539/2/5 531/2/5 530/2/5
f 539/2/5 535/2/5 534/2/5
f 540/2/5 537/2/5 539/2/5
f 541/2/5 537/2/5 540/2/5
f 542/2/5 537/2/5 541/2/5
f 543/2/5 541/2/5 540/2/5
f 544/2/5 541/2/5 543/2/5
f 545/2/5 541/2/5 544/2/5
f 546/2/5 541/2/5 545/2/5
f 547/2/5 545/2/5 544/2/5
f 548/2/5 545/2/5 547/2/5
f 549/1/6 550/1/6 554/1/6
f 550/2/6 551/2/6 555/2/6
f 554/1/6 550/1/6 555/1/6
f 551/1/6 552/1/6 556/1/6
f 555/2/6 551/2/6 556/2/6
f 556/1/6 552/1/6 557/1/6
f 554/2/6 555/2/6 560/2/6
f 557/2/6 558/2/6 560/2/6
f 556/2/6 557/2/6 560/2/6
f 555/2/6 556/2/6 560/2/6
f 553/2/6 554/2/6 560/2/6
f 560/2/6 558/2/6 561/2/6
f 559/1/6 560/1/6 563/1/6
f 560/2/6 561/2/6 564/2/6
f 563/1/6 560/1/6 564/1/6
f 561/1/6 562/1/6 565/1/6
f 564/2/6 561/2/6 565/2/6
f 565/1/6 562/1/6 566/1/6
f 563/2/6 564/2/6 567/2/6
f 564/2/6 565/2/6 567/2/6
f 565/2/6 566/2/6 567/2/6
f 567/2/6 566/2/6 568/2/6
f 568/2/6 566/2/6 569/2/6
f 569/2/6 566/2/6 570/2/6
f 567/1/6 568/1/6 571/1/6
f 568/2/6 569/2/6 572/2/6
f 571/1/6 568/1/6 572/1/6
f 569/1/6 570/1/6 573/1/6
f 572/2/6 569/2/6 573/2/6
f 573/1/6 570/1/6 574/1/6
f 572/2/6 573/2/6 575/2/6
f 575/2/6 573/2/6 576/2/6
f 576/2/6 573/2/6 577/2/6
f 577/2/6 573/2/6 578/2/6
f 578/2/6 573/2/6 579/2/6
f 579/2/6 573/2/6 580/2/6
f 576/1/6 577/1/6 581/1/6
f 577/2/6 578/2/6 582/2/6
f 581/1/6 577/1/6 582/1/6
f 578/1/6 579/1/6 583/1/6
f 582/2/6 578/2/6 583/2/6
f 583/1/6 579/1/6 584/1/6
f 585/2/6 586/2/6 588/2/6
f 588/2/6 586/2/6 589/2/6
f 587/1/6 588/1/6 592/1/6
f 592/1/6 588/1/6 593/1/6
f 589/1/6 590/1/6 594/1/6
f 594/1/6 590/1/6 595/1/6
f 591/1/6 592/1/6 598/1/6
f 598/1/6 592/1/6 599/1/6
f 595/1/6 596/1/6 600/1/6
f 600/1/6 596/1/6 601/1/6
f 597/2/6 598/2/6 603/2/6
f 603/2/6 598/2/6 604/2/6
f 601/2/6 602/2/6 607/2/6
f 607/2/6 602/2/6 608/2/6
f 604/1/6 605/1/6 609/1/6
f 609/1/6 605/1/6 610/1/6
f 606/1/6 607/1/6 613/1/6
f 613/1/6 607/1/6 614/1/6
f 610/1/6 611/1/6 615/1/6
f 615/1/6 611/1/6 616/1/6
f 612/1/6 613/1/6 617/1/6
f 617/1/6 613/1/6 618/1/6
f 616/2/6 617/2/6 619/2/6
f 619/2/6 617/2/6 620/2/6
f 621/2/6 622/2/6 624/2/6
f 624/2/6 622/2/6 625/2/6
f 623/2/6 624/2/6 628/2/6
f 625/2/6 626/2/6 628/2/6
f 624/2/6 625/2/6 628/2/6
f 628/2/6 626/2/6 629/2/6
f 629/2/6 626/2/6 630/2/6
f 630/2/6 626/2/6 631/2/6
f 627/1/6 628/1/6 634/1/6
f 628/2/6 629/2/6 635/2/6
f 634/1/6 628/1/6 635/1/6
f 635/2/6 629/2/6 636/2/6
f 636/2/6 629/2/6 637/2/6
f 630/2/6 631/2/6 638/2/6
f 638/2/6 631/2/6 639/2/6
f 631/1/6 632/1/6 640/1/6
f 639/2/6 631/2/6 640/2/6
f 640/1/6 632/1/6 641/1/6
f 633/2/6 634/2/6 643/2/6
f 634/2/6 635/2/6 643/2/6
f 635/1/6 636/1/6 643/1/6
f 643/1/6 636/1/6 644/1/6
f 639/1/6 640/1/6 645/1/6
f 641/2/6 642/2/6 646/2/6
f 645/1/6 640/1/6 646/1/6
f 640/2/6 641/2/6 646/2/6
f 633/2/6 643/2/6 648/2/6
f 648/2/6 643/2/6 649/2/6
f 649/2/6 643/2/6 650/2/6
f 646/2/6 642/2/6 651/2/6
f 651/2/6 642/2/6 652/2/6
f 652/2/6 642/2/6 653/2/6
f 647/2/6 648/2/6 655/2/6
f 648/2/6 649/2/6 655/2/6
f 655/2/6 649/2/6 656/2/6
f 656/2/6 649/2/6 657/2/6
f 653/2/6 654/2/6 660/2/6
f 652/2/6 653/2/6 660/2/6
f 660/2/6 654/2/6 661/2/6
f 661/2/6 654/2/6 662/2/6
f 657/2/6 658/2/6 663/2/6
f 656/2/6 657/2/6 663/2/6
f 660/2/6 661/2/6 666/2/6
f 659/2/6 660/2/6 666/2/6
f 656/2/6 663/2/6 667/2/6
f 667/2/6 663/2/6 668/2/6
f 663/1/6 664/1/6 669/1/6
f 668/2/6 663/2/6 669/2/6
f 669/1/6 664/1/6 670/1/6
f 665/1/6 666/1/6 673/1/6
f 666/2/6 661/2/6 674/2/6
f 673/1/6 666/1/6 674/1/6
f 674/2/6 661/2/6 675/2/6
f 675/2/6 661/2/6 676/2/6
f 668/1/6 669/1/6 677/1/6
f 670/2/6 671/2/6 678/2/6
f 677/1/6 669/1/6 678/1/6
f 669/2/6 670/2/6 678/2/6
f 678/2/6 671/2/6 679/2/6
f 672/2/6 673/2/6 680/2/6
f 673/2/6 674/2/6 680/2/6
f 674/1/6 675/1/6 681/1/6
f 680/2/6 674/2/6 681/2/6
f 681/1/6 675/1/6 682/1/6
f 678/2/6 679/2/6 683/2/6
f 679/2/6 680/2/6 683/2/6
f 680/2/6 681/2/6 683/2/6
f 683/2/6 681/2/6 684/2/6
f 684/2/6 681/2/6 685/2/6
f 685/2/6 681/2/6 686/2/6
f 684/2/6 685/2/6 687/2/6
f 687/2/6 685/2/6 688/2/6
