# MagicaVoxel @ Ephtracy

# group
o 

# material
mtllib Cannapé2(Factory-New).mtl
usemtl palette

# normals
vn -1 0 0
vn 1 0 0
vn 0 0 1
vn 0 0 -1
vn 0 -1 0
vn 0 1 0

# texcoords
vt 0.986328 0.5
vt 0.990234 0.5
vt 0.994141 0.5

# verts
v -3.4 0.1 0
v -3.4 0.1 -0.1
v -3.4 0.1 -1.3
v -3.4 0.7 -1.2
v -3.4 0.7 -1.3
v -3.4 0.8 0
v -3.4 0.8 -0.1
v -3.4 0.8 -1.2
v -3.3 0 -0.1
v -3.3 0 -0.3
v -3.3 0 -1
v -3.3 0 -1.2
v -3.3 0.1 -0.1
v -3.3 0.1 -0.3
v -3.3 0.1 -1
v -3.3 0.1 -1.2
v -3.2 0.2 -0.2
v -3.2 0.2 -0.4
v -3.2 0.2 -0.9
v -3.2 0.2 -1
v -3.2 0.3 -0.4
v -3.2 0.3 -0.9
v -3.2 0.3 -1
v -3.2 0.4 -0.2
v -3.2 0.4 -0.9
v -3.2 0.4 -1
v -3.2 0.5 -0.9
v -3.2 0.5 -1
v -3.1 0.2 -0.4
v -3.1 0.2 -0.9
v -3.1 0.2 -1
v -3.1 0.2 -1.1
v -3.1 0.3 -0.1
v -3.1 0.3 -0.2
v -3.1 0.3 -0.4
v -3.1 0.3 -0.9
v -3.1 0.3 -1
v -3.1 0.4 -0.2
v -3.1 0.4 -0.9
v -3.1 0.4 -1.1
v -3.1 0.5 -0.1
v -3.1 0.5 -0.9
v -3.1 0.5 -1.1
v -3.1 0.6 -0.1
v -3.1 0.6 -0.9
v -3.1 0.6 -1.1
v -3.1 0.7 -1.2
v -3.1 0.7 -1.3
v -3.1 0.8 -0.9
v -3.1 0.8 -1
v -3.1 0.8 -1.2
v -3.1 1.1 -1.2
v -3.1 1.1 -1.3
v -3.1 1.2 -0.9
v -3.1 1.2 -1
v -3.1 1.2 -1.2
v -3.1 1.2 -1.3
v -3.1 1.3 -1
v -3.1 1.3 -1.2
v -2.4 0.2 -0.1
v -2.4 0.2 -1.1
v -2.4 0.5 -0.1
v -2.4 0.5 -0.9
v -2.4 0.5 -1.1
v -2.4 0.6 -1
v -2.4 0.6 -1.1
v -2.4 1.2 -1
v -2.4 1.2 -1.1
v -2.2 0.5 -0.1
v -2.2 0.5 -0.9
v -2.2 0.5 -1
v -2.2 0.6 -0.1
v -2.2 0.6 -0.9
v -2.2 0.6 -1
v -2.2 0.8 -1.2
v -2.2 0.8 -1.3
v -2.2 1.1 -1.2
v -2.2 1.1 -1.3
v -2.2 1.2 -0.9
v -2.2 1.2 -1
v -2.2 1.2 -1.2
v -2.2 1.2 -1.3
v -2.2 1.3 -1
v -2.2 1.3 -1.2
v -1.1 0.5 -0.1
v -1.1 0.5 -1
v -1.1 0.6 -0.1
v -1.1 0.6 -0.9
v -1.1 0.8 -1.2
v -1.1 0.8 -1.3
v -1.1 1.1 -1.2
v -1.1 1.1 -1.3
v -1.1 1.2 -0.9
v -1.1 1.2 -1
v -1.1 1.2 -1.2
v -1.1 1.2 -1.3
v -1.1 1.3 -1
v -1.1 1.3 -1.2
v -0.3 0 -0.1
v -0.3 0 -0.3
v -0.3 0 -1
v -0.3 0 -1.2
v -0.3 0.1 -0.1
v -0.3 0.1 -0.3
v -0.3 0.1 -1
v -0.3 0.1 -1.2
v -0.3 0.5 0
v -0.3 0.5 -0.1
v -0.3 0.6 -0.1
v -0.3 0.6 -0.9
v -0.3 0.8 0
v -0.3 0.8 -0.1
v -0.3 0.8 -0.9
v -0.0999999 0.2 -0.2
v -0.0999999 0.2 -0.5
v -0.0999999 0.2 -0.9
v -0.0999999 0.2 -1.1
v -0.0999999 0.3 -0.5
v -0.0999999 0.3 -0.9
v -0.0999999 0.4 -0.1
v -0.0999999 0.4 -0.2
v -0.0999999 0.6 -0.2
v -0.0999999 0.6 -1.1
v -0.0999999 0.7 -0.1
v -0.0999999 0.7 -0.2
v -3.3 0.2 -0.2
v -3.3 0.2 -1.1
v -3.3 0.4 -0.1
v -3.3 0.4 -0.2
v -3.3 0.4 -1
v -3.3 0.4 -1.1
v -3.3 0.5 -1
v -3.3 0.5 -1.1
v -3.3 0.6 -0.1
v -3.3 0.6 -1.1
v -3.2 0.3 -0.1
v -3.2 0.3 -0.2
v -3.2 0.4 -0.1
v -3.2 0.4 -0.2
v -3.1 0 -0.1
v -3.1 0 -0.3
v -3.1 0 -1
v -3.1 0 -1.2
v -3.1 0.1 -0.1
v -3.1 0.1 -0.3
v -3.1 0.1 -1
v -3.1 0.1 -1.2
v -3.1 0.5 0
v -3.1 0.5 -0.1
v -3.1 0.6 -0.1
v -3.1 0.6 -0.9
v -3.1 0.8 0
v -3.1 0.8 -0.1
v -3.1 0.8 -0.9
v -3 0.2 -0.1
v -3 0.2 -1.1
v -3 0.3 -1
v -3 0.3 -1.1
v -3 0.5 -0.1
v -3 0.5 -0.9
v -3 0.5 -1
v -3 0.6 -1
v -3 0.6 -1.1
v -3 1.2 -1
v -3 1.2 -1.1
v -2.9 0.3 -1
v -2.9 0.3 -1.1
v -2.9 0.5 -1
v -2.9 0.5 -1.1
v -2.3 0.5 -0.1
v -2.3 0.5 -1
v -2.3 0.6 -0.1
v -2.3 0.6 -0.9
v -2.3 0.8 -1.2
v -2.3 0.8 -1.3
v -2.3 1.1 -1.2
v -2.3 1.1 -1.3
v -2.3 1.2 -0.9
v -2.3 1.2 -1
v -2.3 1.2 -1.2
v -2.3 1.2 -1.3
v -2.3 1.3 -1
v -2.3 1.3 -1.2
v -1.2 0.5 -0.1
v -1.2 0.5 -0.9
v -1.2 0.5 -1
v -1.2 0.6 -0.1
v -1.2 0.6 -0.9
v -1.2 0.6 -1
v -1.2 0.8 -1.2
v -1.2 0.8 -1.3
v -1.2 1.1 -1.2
v -1.2 1.1 -1.3
v -1.2 1.2 -0.9
v -1.2 1.2 -1
v -1.2 1.2 -1.2
v -1.2 1.2 -1.3
v -1.2 1.3 -1
v -1.2 1.3 -1.2
v -0.3 0.7 -1.2
v -0.3 0.7 -1.3
v -0.3 0.8 -0.9
v -0.3 0.8 -1
v -0.3 0.8 -1.2
v -0.3 1.1 -1.2
v -0.3 1.1 -1.3
v -0.3 1.2 -0.9
v -0.3 1.2 -1
v -0.3 1.2 -1.2
v -0.3 1.2 -1.3
v -0.3 1.3 -1
v -0.3 1.3 -1.2
v -0.2 0.2 -0.2
v -0.2 0.2 -0.5
v -0.2 0.2 -0.9
v -0.2 0.2 -1.1
v -0.2 0.3 -0.5
v -0.2 0.3 -0.9
v -0.2 0.4 -0.1
v -0.2 0.4 -0.2
v -0.2 0.6 -0.2
v -0.2 0.6 -1.1
v -0.2 0.7 -0.1
v -0.2 0.7 -0.2
v -0.0999999 0 -0.1
v -0.0999999 0 -0.3
v -0.0999999 0 -1
v -0.0999999 0 -1.2
v -0.0999999 0.1 -0.1
v -0.0999999 0.1 -0.3
v -0.0999999 0.1 -1
v -0.0999999 0.1 -1.2
v 0 0.1 0
v 0 0.1 -0.1
v 0 0.1 -1.3
v 0 0.7 -1.2
v 0 0.7 -1.3
v 0 0.8 0
v 0 0.8 -0.1
v 0 0.8 -1.2
v -3.4 0.1 0
v -3.4 0.8 0
v -3.1 0.5 0
v -3.1 0.8 0
v -2.3 0.4 0
v -2.3 0.5 0
v -2.2 0.4 0
v -2.2 0.5 0
v -1.2 0.4 0
v -1.2 0.5 0
v -1.1 0.4 0
v -1.1 0.5 0
v -0.3 0.5 0
v -0.3 0.8 0
v 0 0.1 0
v 0 0.8 0
v -3.3 0 -0.1
v -3.3 0.1 -0.1
v -3.1 0 -0.1
v -3.1 0.1 -0.1
v -3.1 0.5 -0.1
v -3.1 0.6 -0.1
v -2.3 0.5 -0.1
v -2.3 0.6 -0.1
v -2.2 0.5 -0.1
v -2.2 0.6 -0.1
v -1.2 0.5 -0.1
v -1.2 0.6 -0.1
v -1.1 0.5 -0.1
v -1.1 0.6 -0.1
v -0.3 0 -0.1
v -0.3 0.1 -0.1
v -0.3 0.5 -0.1
v -0.3 0.6 -0.1
v -0.0999999 0 -0.1
v -0.0999999 0.1 -0.1
v -3.2 0.3 -0.2
v -3.2 0.4 -0.2
v -3.1 0.3 -0.2
v -3.1 0.4 -0.2
v -0.2 0.6 -0.2
v -0.2 0.7 -0.2
v -0.0999999 0.6 -0.2
v -0.0999999 0.7 -0.2
v -0.2 0.2 -0.5
v -0.2 0.3 -0.5
v -0.0999999 0.2 -0.5
v -0.0999999 0.3 -0.5
v -3.2 0.2 -0.9
v -3.2 0.3 -0.9
v -3.2 0.4 -0.9
v -3.2 0.5 -0.9
v -3.1 0.2 -0.9
v -3.1 0.3 -0.9
v -3.1 0.4 -0.9
v -3.1 0.5 -0.9
v -3.1 0.6 -0.9
v -3.1 0.8 -0.9
v -3.1 1.2 -0.9
v -2.3 0.6 -0.9
v -2.3 1.2 -0.9
v -2.2 0.6 -0.9
v -2.2 1.2 -0.9
v -1.2 0.6 -0.9
v -1.2 1.2 -0.9
v -1.1 0.6 -0.9
v -1.1 1.2 -0.9
v -0.3 0.6 -0.9
v -0.3 0.8 -0.9
v -0.3 1.2 -0.9
v -3.3 0 -1
v -3.3 0.1 -1
v -3.3 0.4 -1
v -3.3 0.5 -1
v -3.2 0.4 -1
v -3.2 0.5 -1
v -3.1 0 -1
v -3.1 0.1 -1
v -3.1 1.2 -1
v -3.1 1.3 -1
v -3 0.3 -1
v -3 0.5 -1
v -2.9 0.3 -1
v -2.9 0.5 -1
v -2.3 0.5 -1
v -2.3 1.2 -1
v -2.3 1.3 -1
v -2.2 0.5 -1
v -2.2 0.6 -1
v -2.2 1.2 -1
v -2.2 1.3 -1
v -1.2 0.5 -1
v -1.2 0.6 -1
v -1.2 1.2 -1
v -1.2 1.3 -1
v -1.1 0.5 -1
v -1.1 1.2 -1
v -1.1 1.3 -1
v -0.3 0 -1
v -0.3 0.1 -1
v -0.3 1.2 -1
v -0.3 1.3 -1
v -0.0999999 0 -1
v -0.0999999 0.1 -1
v -3.3 0.2 -1.1
v -3.3 0.4 -1.1
v -3.3 0.5 -1.1
v -3.3 0.6 -1.1
v -3.1 0.2 -1.1
v -3.1 0.4 -1.1
v -3.1 0.5 -1.1
v -3.1 0.6 -1.1
v -3 0.2 -1.1
v -3 0.3 -1.1
v -3 0.6 -1.1
v -3 1.2 -1.1
v -2.9 0.3 -1.1
v -2.9 0.5 -1.1
v -2.4 0.2 -1.1
v -2.4 0.5 -1.1
v -2.4 0.6 -1.1
v -2.4 1.2 -1.1
v -0.2 0.2 -1.1
v -0.2 0.6 -1.1
v -0.0999999 0.2 -1.1
v -0.0999999 0.6 -1.1
v -3.3 0.4 -0.1
v -3.3 0.6 -0.1
v -3.2 0.3 -0.1
v -3.2 0.4 -0.1
v -3.1 0.3 -0.1
v -3.1 0.5 -0.1
v -3.1 0.6 -0.1
v -3 0.2 -0.1
v -3 0.5 -0.1
v -2.4 0.2 -0.1
v -2.4 0.5 -0.1
v -0.2 0.4 -0.1
v -0.2 0.7 -0.1
v -0.0999999 0.4 -0.1
v -0.0999999 0.7 -0.1
v -3.3 0.2 -0.2
v -3.3 0.4 -0.2
v -3.2 0.2 -0.2
v -3.2 0.4 -0.2
v -0.2 0.2 -0.2
v -0.2 0.4 -0.2
v -0.0999999 0.2 -0.2
v -0.0999999 0.4 -0.2
v -3.3 0 -0.3
v -3.3 0.1 -0.3
v -3.1 0 -0.3
v -3.1 0.1 -0.3
v -0.3 0 -0.3
v -0.3 0.1 -0.3
v -0.0999999 0 -0.3
v -0.0999999 0.1 -0.3
v -3.2 0.2 -0.4
v -3.2 0.3 -0.4
v -3.1 0.2 -0.4
v -3.1 0.3 -0.4
v -3.2 0.3 -0.9
v -3.2 0.4 -0.9
v -3.1 0.3 -0.9
v -3.1 0.4 -0.9
v -0.2 0.2 -0.9
v -0.2 0.3 -0.9
v -0.0999999 0.2 -0.9
v -0.0999999 0.3 -0.9
v -3.2 0.2 -1
v -3.2 0.3 -1
v -3.1 0.2 -1
v -3.1 0.3 -1
v -3 0.6 -1
v -3 1.2 -1
v -2.4 0.6 -1
v -2.4 1.2 -1
v -3.4 0.7 -1.2
v -3.4 0.8 -1.2
v -3.3 0 -1.2
v -3.3 0.1 -1.2
v -3.1 0 -1.2
v -3.1 0.1 -1.2
v -3.1 0.7 -1.2
v -3.1 0.8 -1.2
v -3.1 1.2 -1.2
v -3.1 1.3 -1.2
v -2.3 0.8 -1.2
v -2.3 1.1 -1.2
v -2.3 1.2 -1.2
v -2.3 1.3 -1.2
v -2.2 0.8 -1.2
v -2.2 1.1 -1.2
v -2.2 1.2 -1.2
v -2.2 1.3 -1.2
v -1.2 0.8 -1.2
v -1.2 1.1 -1.2
v -1.2 1.2 -1.2
v -1.2 1.3 -1.2
v -1.1 0.8 -1.2
v -1.1 1.1 -1.2
v -1.1 1.2 -1.2
v -1.1 1.3 -1.2
v -0.3 0 -1.2
v -0.3 0.1 -1.2
v -0.3 0.7 -1.2
v -0.3 0.8 -1.2
v -0.3 1.2 -1.2
v -0.3 1.3 -1.2
v -0.0999999 0 -1.2
v -0.0999999 0.1 -1.2
v 0 0.7 -1.2
v 0 0.8 -1.2
v -3.4 0.1 -1.3
v -3.4 0.7 -1.3
v -3.1 0.7 -1.3
v -3.1 1.1 -1.3
v -3.1 1.2 -1.3
v -2.3 0.8 -1.3
v -2.3 1.1 -1.3
v -2.3 1.2 -1.3
v -2.2 0.8 -1.3
v -2.2 1.1 -1.3
v -2.2 1.2 -1.3
v -1.2 0.8 -1.3
v -1.2 1.1 -1.3
v -1.2 1.2 -1.3
v -1.1 0.8 -1.3
v -1.1 1.1 -1.3
v -1.1 1.2 -1.3
v -0.3 0.7 -1.3
v -0.3 1.1 -1.3
v -0.3 1.2 -1.3
v 0 0.1 -1.3
v 0 0.7 -1.3
v -3.3 0 -0.1
v -3.1 0 -0.1
v -0.3 0 -0.1
v -0.0999999 0 -0.1
v -3.3 0 -0.3
v -3.1 0 -0.3
v -0.3 0 -0.3
v -0.0999999 0 -0.3
v -3.3 0 -1
v -3.1 0 -1
v -0.3 0 -1
v -0.0999999 0 -1
v -3.3 0 -1.2
v -3.1 0 -1.2
v -0.3 0 -1.2
v -0.0999999 0 -1.2
v -3.4 0.1 0
v 0 0.1 0
v -3.4 0.1 -0.1
v -3.3 0.1 -0.1
v -3.1 0.1 -0.1
v -0.3 0.1 -0.1
v -0.0999999 0.1 -0.1
v 0 0.1 -0.1
v -3.3 0.1 -0.3
v -3.1 0.1 -0.3
v -0.3 0.1 -0.3
v -0.0999999 0.1 -0.3
v -3.3 0.1 -1
v -3.1 0.1 -1
v -0.3 0.1 -1
v -0.0999999 0.1 -1
v -3.3 0.1 -1.2
v -3.1 0.1 -1.2
v -0.3 0.1 -1.2
v -0.0999999 0.1 -1.2
v -3.4 0.1 -1.3
v 0 0.1 -1.3
v -3.2 0.3 -0.4
v -3.1 0.3 -0.4
v -3.2 0.3 -0.9
v -3.1 0.3 -0.9
v -3 0.3 -1
v -2.9 0.3 -1
v -3 0.3 -1.1
v -2.9 0.3 -1.1
v -3.2 0.4 -0.9
v -3.1 0.4 -0.9
v -3.3 0.4 -1
v -3.2 0.4 -1
v -3.3 0.4 -1.1
v -3.1 0.4 -1.1
v -3 0.5 -0.1
v -2.4 0.5 -0.1
v -3 0.5 -0.9
v -2.4 0.5 -0.9
v -3 0.5 -1
v -2.9 0.5 -1
v -2.9 0.5 -1.1
v -2.4 0.5 -1.1
v -3.3 0.6 -0.1
v -3.1 0.6 -0.1
v -0.2 0.6 -0.2
v -0.0999999 0.6 -0.2
v -3.1 0.6 -0.9
v -3.3 0.6 -1.1
v -3.1 0.6 -1.1
v -0.2 0.6 -1.1
v -0.0999999 0.6 -1.1
v -0.2 0.7 -0.1
v -0.0999999 0.7 -0.1
v -0.2 0.7 -0.2
v -0.0999999 0.7 -0.2
v -3 1.2 -1
v -2.4 1.2 -1
v -3 1.2 -1.1
v -2.4 1.2 -1.1
v -3 0.2 -0.1
v -2.4 0.2 -0.1
v -3.3 0.2 -0.2
v -3.2 0.2 -0.2
v -0.2 0.2 -0.2
v -0.0999999 0.2 -0.2
v -3.2 0.2 -0.4
v -3.1 0.2 -0.4
v -0.2 0.2 -0.5
v -0.0999999 0.2 -0.5
v -3.2 0.2 -0.9
v -3.1 0.2 -0.9
v -0.2 0.2 -0.9
v -0.0999999 0.2 -0.9
v -3.2 0.2 -1
v -3.1 0.2 -1
v -3.3 0.2 -1.1
v -3.1 0.2 -1.1
v -3 0.2 -1.1
v -2.4 0.2 -1.1
v -0.2 0.2 -1.1
v -0.0999999 0.2 -1.1
v -3.2 0.3 -0.1
v -3.1 0.3 -0.1
v -3.2 0.3 -0.2
v -3.1 0.3 -0.2
v -0.2 0.3 -0.5
v -0.0999999 0.3 -0.5
v -3.2 0.3 -0.9
v -3.1 0.3 -0.9
v -0.2 0.3 -0.9
v -0.0999999 0.3 -0.9
v -3.2 0.3 -1
v -3.1 0.3 -1
v -3.3 0.4 -0.1
v -3.2 0.4 -0.1
v -0.2 0.4 -0.1
v -0.0999999 0.4 -0.1
v -3.3 0.4 -0.2
v -3.2 0.4 -0.2
v -3.1 0.4 -0.2
v -0.2 0.4 -0.2
v -0.0999999 0.4 -0.2
v -3.2 0.4 -0.9
v -3.1 0.4 -0.9
v -3.1 0.5 0
v -2.3 0.5 0
v -2.2 0.5 0
v -1.2 0.5 0
v -1.1 0.5 0
v -0.3 0.5 0
v -3.1 0.5 -0.1
v -2.3 0.5 -0.1
v -2.2 0.5 -0.1
v -1.2 0.5 -0.1
v -1.1 0.5 -0.1
v -0.3 0.5 -0.1
v -3.2 0.5 -0.9
v -3.1 0.5 -0.9
v -2.2 0.5 -0.9
v -1.2 0.5 -0.9
v -3.3 0.5 -1
v -3.2 0.5 -1
v -2.3 0.5 -1
v -2.2 0.5 -1
v -1.2 0.5 -1
v -1.1 0.5 -1
v -3.3 0.5 -1.1
v -3.1 0.5 -1.1
v -3.1 0.6 -0.1
v -2.3 0.6 -0.1
v -2.2 0.6 -0.1
v -1.2 0.6 -0.1
v -1.1 0.6 -0.1
v -0.3 0.6 -0.1
v -3.1 0.6 -0.9
v -2.3 0.6 -0.9
v -2.2 0.6 -0.9
v -1.2 0.6 -0.9
v -1.1 0.6 -0.9
v -0.3 0.6 -0.9
v -3 0.6 -1
v -2.4 0.6 -1
v -3 0.6 -1.1
v -2.4 0.6 -1.1
v -3.4 0.7 -1.2
v -3.1 0.7 -1.2
v -0.3 0.7 -1.2
v 0 0.7 -1.2
v -3.4 0.7 -1.3
v -3.1 0.7 -1.3
v -0.3 0.7 -1.3
v 0 0.7 -1.3
v -3.4 0.8 0
v -3.1 0.8 0
v -0.3 0.8 0
v 0 0.8 0
v -3.4 0.8 -0.1
v -3.1 0.8 -0.1
v -0.3 0.8 -0.1
v 0 0.8 -0.1
v -3.1 0.8 -0.9
v -0.3 0.8 -0.9
v -3.1 0.8 -1
v -0.3 0.8 -1
v -3.4 0.8 -1.2
v -3.1 0.8 -1.2
v -2.3 0.8 -1.2
v -2.2 0.8 -1.2
v -1.2 0.8 -1.2
v -1.1 0.8 -1.2
v -0.3 0.8 -1.2
v 0 0.8 -1.2
v -2.3 0.8 -1.3
v -2.2 0.8 -1.3
v -1.2 0.8 -1.3
v -1.1 0.8 -1.3
v -3.1 1.2 -0.9
v -2.3 1.2 -0.9
v -2.2 1.2 -0.9
v -1.2 1.2 -0.9
v -1.1 1.2 -0.9
v -0.3 1.2 -0.9
v -3.1 1.2 -1
v -2.3 1.2 -1
v -2.2 1.2 -1
v -1.2 1.2 -1
v -1.1 1.2 -1
v -0.3 1.2 -1
v -3.1 1.2 -1.2
v -2.3 1.2 -1.2
v -2.2 1.2 -1.2
v -1.2 1.2 -1.2
v -1.1 1.2 -1.2
v -0.3 1.2 -1.2
v -3.1 1.2 -1.3
v -2.3 1.2 -1.3
v -2.2 1.2 -1.3
v -1.2 1.2 -1.3
v -1.1 1.2 -1.3
v -0.3 1.2 -1.3
v -3.1 1.3 -1
v -2.3 1.3 -1
v -2.2 1.3 -1
v -1.2 1.3 -1
v -1.1 1.3 -1
v -0.3 1.3 -1
v -3.1 1.3 -1.2
v -2.3 1.3 -1.2
v -2.2 1.3 -1.2
v -1.2 1.3 -1.2
v -1.1 1.3 -1.2
v -0.3 1.3 -1.2

# faces
f 4/2/1 3/2/1 2/2/1
f 5/2/1 3/2/1 4/2/1
f 6/1/1 2/1/1 1/1/1
f 7/2/1 4/2/1 2/2/1
f 7/1/1 2/1/1 6/1/1
f 8/2/1 4/2/1 7/2/1
f 13/3/1 10/3/1 9/3/1
f 14/3/1 10/3/1 13/3/1
f 15/3/1 12/3/1 11/3/1
f 16/3/1 12/3/1 15/3/1
f 21/2/1 18/2/1 17/2/1
f 22/2/1 20/2/1 19/2/1
f 23/2/1 20/2/1 22/2/1
f 24/2/1 21/2/1 17/2/1
f 24/2/1 22/2/1 21/2/1
f 25/2/1 22/2/1 24/2/1
f 27/2/1 26/2/1 25/2/1
f 28/2/1 26/2/1 27/2/1
f 35/2/1 30/2/1 29/2/1
f 36/2/1 30/2/1 35/2/1
f 37/2/1 32/2/1 31/2/1
f 38/2/1 34/2/1 33/2/1
f 39/2/1 37/2/1 36/2/1
f 40/2/1 32/2/1 37/2/1
f 40/2/1 37/2/1 39/2/1
f 41/2/1 38/2/1 33/2/1
f 41/2/1 39/2/1 38/2/1
f 42/2/1 39/2/1 41/2/1
f 44/1/1 42/1/1 41/1/1
f 45/2/1 43/2/1 42/2/1
f 45/1/1 42/1/1 44/1/1
f 46/2/1 43/2/1 45/2/1
f 51/2/1 48/2/1 47/2/1
f 52/2/1 48/2/1 51/2/1
f 52/2/1 51/2/1 50/2/1
f 53/2/1 48/2/1 52/2/1
f 54/1/1 50/1/1 49/1/1
f 55/2/1 52/2/1 50/2/1
f 55/1/1 50/1/1 54/1/1
f 56/1/1 53/1/1 52/1/1
f 56/2/1 52/2/1 55/2/1
f 57/1/1 53/1/1 56/1/1
f 58/1/1 56/1/1 55/1/1
f 59/1/1 56/1/1 58/1/1
f 62/2/1 61/2/1 60/2/1
f 63/2/1 61/2/1 62/2/1
f 64/2/1 61/2/1 63/2/1
f 67/2/1 66/2/1 65/2/1
f 68/2/1 66/2/1 67/2/1
f 72/1/1 70/1/1 69/1/1
f 73/2/1 71/2/1 70/2/1
f 73/1/1 70/1/1 72/1/1
f 74/2/1 71/2/1 73/2/1
f 77/2/1 76/2/1 75/2/1
f 78/2/1 76/2/1 77/2/1
f 79/1/1 74/1/1 73/1/1
f 80/1/1 74/1/1 79/1/1
f 81/1/1 78/1/1 77/1/1
f 82/1/1 78/1/1 81/1/1
f 83/1/1 81/1/1 80/1/1
f 84/1/1 81/1/1 83/1/1
f 87/1/1 86/1/1 85/1/1
f 88/1/1 86/1/1 87/1/1
f 91/2/1 90/2/1 89/2/1
f 92/2/1 90/2/1 91/2/1
f 93/1/1 86/1/1 88/1/1
f 94/1/1 86/1/1 93/1/1
f 95/1/1 92/1/1 91/1/1
f 96/1/1 92/1/1 95/1/1
f 97/1/1 95/1/1 94/1/1
f 98/1/1 95/1/1 97/1/1
f 103/3/1 100/3/1 99/3/1
f 104/3/1 100/3/1 103/3/1
f 105/3/1 102/3/1 101/3/1
f 106/3/1 102/3/1 105/3/1
f 109/1/1 108/1/1 107/1/1
f 111/1/1 109/1/1 107/1/1
f 112/2/1 110/2/1 109/2/1
f 112/1/1 109/1/1 111/1/1
f 113/2/1 110/2/1 112/2/1
f 118/2/1 115/2/1 114/2/1
f 119/2/1 117/2/1 116/2/1
f 121/2/1 118/2/1 114/2/1
f 121/2/1 119/2/1 118/2/1
f 122/2/1 119/2/1 121/2/1
f 122/2/1 121/2/1 120/2/1
f 123/2/1 117/2/1 119/2/1
f 123/2/1 119/2/1 122/2/1
f 124/2/1 122/2/1 120/2/1
f 125/2/1 122/2/1 124/2/1
f 126/2/2 127/2/2 129/2/2
f 129/2/2 127/2/2 130/2/2
f 130/2/2 127/2/2 131/2/2
f 128/2/2 129/2/2 132/2/2
f 129/2/2 130/2/2 132/2/2
f 128/2/2 132/2/2 134/2/2
f 132/2/2 133/2/2 134/2/2
f 134/2/2 133/2/2 135/2/2
f 136/2/2 137/2/2 138/2/2
f 138/2/2 137/2/2 139/2/2
f 140/3/2 141/3/2 144/3/2
f 144/3/2 141/3/2 145/3/2
f 142/3/2 143/3/2 146/3/2
f 146/3/2 143/3/2 147/3/2
f 148/1/2 149/1/2 150/1/2
f 148/1/2 150/1/2 152/1/2
f 150/2/2 151/2/2 153/2/2
f 152/1/2 150/1/2 153/1/2
f 153/2/2 151/2/2 154/2/2
f 155/2/2 156/2/2 157/2/2
f 157/2/2 156/2/2 158/2/2
f 155/2/2 157/2/2 159/2/2
f 159/2/2 157/2/2 160/2/2
f 160/2/2 157/2/2 161/2/2
f 162/2/2 163/2/2 164/2/2
f 164/2/2 163/2/2 165/2/2
f 166/2/2 167/2/2 168/2/2
f 168/2/2 167/2/2 169/2/2
f 170/1/2 171/1/2 172/1/2
f 172/1/2 171/1/2 173/1/2
f 174/2/2 175/2/2 176/2/2
f 176/2/2 175/2/2 177/2/2
f 173/1/2 171/1/2 178/1/2
f 178/1/2 171/1/2 179/1/2
f 176/1/2 177/1/2 180/1/2
f 180/1/2 177/1/2 181/1/2
f 179/1/2 180/1/2 182/1/2
f 182/1/2 180/1/2 183/1/2
f 184/1/2 185/1/2 187/1/2
f 185/2/2 186/2/2 188/2/2
f 187/1/2 185/1/2 188/1/2
f 188/2/2 186/2/2 189/2/2
f 190/2/2 191/2/2 192/2/2
f 192/2/2 191/2/2 193/2/2
f 188/1/2 189/1/2 194/1/2
f 194/1/2 189/1/2 195/1/2
f 192/1/2 193/1/2 196/1/2
f 196/1/2 193/1/2 197/1/2
f 195/1/2 196/1/2 198/1/2
f 198/1/2 196/1/2 199/1/2
f 200/2/2 201/2/2 204/2/2
f 204/2/2 201/2/2 205/2/2
f 203/2/2 204/2/2 205/2/2
f 205/2/2 201/2/2 206/2/2
f 202/1/2 203/1/2 207/1/2
f 203/2/2 205/2/2 208/2/2
f 207/1/2 203/1/2 208/1/2
f 205/1/2 206/1/2 209/1/2
f 208/2/2 205/2/2 209/2/2
f 209/1/2 206/1/2 210/1/2
f 208/1/2 209/1/2 211/1/2
f 211/1/2 209/1/2 212/1/2
f 213/2/2 214/2/2 217/2/2
f 215/2/2 216/2/2 218/2/2
f 213/2/2 217/2/2 220/2/2
f 217/2/2 218/2/2 220/2/2
f 220/2/2 218/2/2 221/2/2
f 219/2/2 220/2/2 221/2/2
f 218/2/2 216/2/2 222/2/2
f 221/2/2 218/2/2 222/2/2
f 219/2/2 221/2/2 223/2/2
f 223/2/2 221/2/2 224/2/2
f 225/3/2 226/3/2 229/3/2
f 229/3/2 226/3/2 230/3/2
f 227/3/2 228/3/2 231/3/2
f 231/3/2 228/3/2 232/3/2
f 234/2/2 235/2/2 236/2/2
f 236/2/2 235/2/2 237/2/2
f 233/1/2 234/1/2 238/1/2
f 234/2/2 236/2/2 239/2/2
f 238/1/2 234/1/2 239/1/2
f 239/2/2 236/2/2 240/2/2
f 243/1/3 242/1/3 241/1/3
f 244/1/3 242/1/3 243/1/3
f 245/1/3 243/1/3 241/1/3
f 246/1/3 243/1/3 245/1/3
f 247/1/3 245/1/3 241/1/3
f 247/2/3 246/2/3 245/2/3
f 248/2/3 246/2/3 247/2/3
f 249/1/3 247/1/3 241/1/3
f 249/1/3 248/1/3 247/1/3
f 250/1/3 248/1/3 249/1/3
f 251/1/3 249/1/3 241/1/3
f 251/2/3 250/2/3 249/2/3
f 252/2/3 250/2/3 251/2/3
f 253/1/3 252/1/3 251/1/3
f 255/1/3 253/1/3 251/1/3
f 255/1/3 254/1/3 253/1/3
f 255/1/3 251/1/3 241/1/3
f 256/1/3 254/1/3 255/1/3
f 259/3/3 258/3/3 257/3/3
f 260/3/3 258/3/3 259/3/3
f 263/1/3 262/1/3 261/1/3
f 264/1/3 262/1/3 263/1/3
f 267/1/3 266/1/3 265/1/3
f 268/1/3 266/1/3 267/1/3
f 273/1/3 270/1/3 269/1/3
f 274/1/3 270/1/3 273/1/3
f 275/3/3 272/3/3 271/3/3
f 276/3/3 272/3/3 275/3/3
f 279/2/3 278/2/3 277/2/3
f 280/2/3 278/2/3 279/2/3
f 283/2/3 282/2/3 281/2/3
f 284/2/3 282/2/3 283/2/3
f 287/2/3 286/2/3 285/2/3
f 288/2/3 286/2/3 287/2/3
f 293/2/3 290/2/3 289/2/3
f 294/2/3 290/2/3 293/2/3
f 295/2/3 292/2/3 291/2/3
f 296/2/3 292/2/3 295/2/3
f 300/1/3 299/1/3 298/1/3
f 300/1/3 298/1/3 297/1/3
f 301/1/3 299/1/3 300/1/3
f 304/1/3 303/1/3 302/1/3
f 305/1/3 303/1/3 304/1/3
f 308/1/3 307/1/3 306/1/3
f 309/1/3 307/1/3 308/1/3
f 310/1/3 307/1/3 309/1/3
f 315/2/3 314/2/3 313/2/3
f 316/2/3 314/2/3 315/2/3
f 317/3/3 312/3/3 311/3/3
f 318/3/3 312/3/3 317/3/3
f 323/2/3 322/2/3 321/2/3
f 324/2/3 322/2/3 323/2/3
f 326/1/3 320/1/3 319/1/3
f 327/1/3 320/1/3 326/1/3
f 328/2/3 326/2/3 325/2/3
f 329/2/3 326/2/3 328/2/3
f 330/2/3 326/2/3 329/2/3
f 334/1/3 331/1/3 330/1/3
f 335/1/3 331/1/3 334/1/3
f 336/2/3 333/2/3 332/2/3
f 336/2/3 334/2/3 333/2/3
f 337/2/3 334/2/3 336/2/3
f 341/1/3 338/1/3 337/1/3
f 342/1/3 338/1/3 341/1/3
f 343/3/3 340/3/3 339/3/3
f 344/3/3 340/3/3 343/3/3
f 349/2/3 346/2/3 345/2/3
f 350/2/3 346/2/3 349/2/3
f 351/2/3 348/2/3 347/2/3
f 352/2/3 348/2/3 351/2/3
f 357/2/3 354/2/3 353/2/3
f 359/2/3 357/2/3 353/2/3
f 359/2/3 358/2/3 357/2/3
f 360/2/3 358/2/3 359/2/3
f 361/2/3 356/2/3 355/2/3
f 362/2/3 356/2/3 361/2/3
f 365/2/3 364/2/3 363/2/3
f 366/2/3 364/2/3 365/2/3
f 367/1/4 368/1/4 370/1/4
f 369/1/4 370/1/4 371/1/4
f 370/1/4 368/1/4 372/1/4
f 371/1/4 370/1/4 372/1/4
f 372/1/4 368/1/4 373/1/4
f 374/1/4 375/1/4 376/1/4
f 376/1/4 375/1/4 377/1/4
f 378/1/4 379/1/4 380/1/4
f 380/1/4 379/1/4 381/1/4
f 382/2/4 383/2/4 384/2/4
f 384/2/4 383/2/4 385/2/4
f 386/2/4 387/2/4 388/2/4
f 388/2/4 387/2/4 389/2/4
f 390/3/4 391/3/4 392/3/4
f 392/3/4 391/3/4 393/3/4
f 394/3/4 395/3/4 396/3/4
f 396/3/4 395/3/4 397/3/4
f 398/2/4 399/2/4 400/2/4
f 400/2/4 399/2/4 401/2/4
f 402/2/4 403/2/4 404/2/4
f 404/2/4 403/2/4 405/2/4
f 406/2/4 407/2/4 408/2/4
f 408/2/4 407/2/4 409/2/4
f 410/2/4 411/2/4 412/2/4
f 412/2/4 411/2/4 413/2/4
f 414/1/4 415/1/4 416/1/4
f 416/1/4 415/1/4 417/1/4
f 420/3/4 421/3/4 422/3/4
f 422/3/4 421/3/4 423/3/4
f 418/2/4 419/2/4 424/2/4
f 424/2/4 419/2/4 425/2/4
f 426/1/4 427/1/4 430/1/4
f 430/1/4 427/1/4 431/1/4
f 428/2/4 429/2/4 432/2/4
f 429/2/4 430/2/4 432/2/4
f 432/2/4 430/2/4 433/2/4
f 433/2/4 430/2/4 434/2/4
f 434/1/4 435/1/4 438/1/4
f 438/1/4 435/1/4 439/1/4
f 436/2/4 437/2/4 440/2/4
f 437/2/4 438/2/4 440/2/4
f 440/2/4 438/2/4 441/2/4
f 441/2/4 438/2/4 442/2/4
f 442/1/4 443/1/4 448/1/4
f 448/1/4 443/1/4 449/1/4
f 444/3/4 445/3/4 450/3/4
f 450/3/4 445/3/4 451/3/4
f 446/2/4 447/2/4 452/2/4
f 452/2/4 447/2/4 453/2/4
f 454/2/4 455/2/4 456/2/4
f 456/2/4 457/2/4 459/2/4
f 457/1/4 458/1/4 460/1/4
f 459/2/4 457/2/4 460/2/4
f 460/1/4 458/1/4 461/1/4
f 456/2/4 459/2/4 462/2/4
f 456/2/4 462/2/4 465/2/4
f 462/2/4 463/2/4 465/2/4
f 463/1/4 464/1/4 466/1/4
f 465/2/4 463/2/4 466/2/4
f 466/1/4 464/1/4 467/1/4
f 456/2/4 465/2/4 468/2/4
f 454/2/4 456/2/4 471/2/4
f 456/2/4 468/2/4 471/2/4
f 468/2/4 469/2/4 471/2/4
f 469/1/4 470/1/4 472/1/4
f 471/2/4 469/2/4 472/2/4
f 472/1/4 470/1/4 473/1/4
f 454/2/4 471/2/4 474/2/4
f 474/2/4 471/2/4 475/2/4
f 480/3/5 477/3/5 476/3/5
f 481/3/5 477/3/5 480/3/5
f 482/3/5 479/3/5 478/3/5
f 483/3/5 479/3/5 482/3/5
f 488/3/5 485/3/5 484/3/5
f 489/3/5 485/3/5 488/3/5
f 490/3/5 487/3/5 486/3/5
f 491/3/5 487/3/5 490/3/5
f 494/1/5 493/1/5 492/1/5
f 495/1/5 493/1/5 494/1/5
f 496/1/5 493/1/5 495/1/5
f 497/1/5 493/1/5 496/1/5
f 498/1/5 493/1/5 497/1/5
f 499/1/5 493/1/5 498/1/5
f 500/2/5 495/2/5 494/2/5
f 501/2/5 497/2/5 496/2/5
f 502/2/5 497/2/5 501/2/5
f 503/2/5 499/2/5 498/2/5
f 504/2/5 502/2/5 501/2/5
f 504/2/5 503/2/5 502/2/5
f 504/2/5 500/2/5 494/2/5
f 504/2/5 501/2/5 500/2/5
f 505/2/5 503/2/5 504/2/5
f 506/2/5 503/2/5 505/2/5
f 507/2/5 499/2/5 503/2/5
f 507/2/5 503/2/5 506/2/5
f 508/2/5 504/2/5 494/2/5
f 509/2/5 506/2/5 505/2/5
f 510/2/5 506/2/5 509/2/5
f 511/2/5 499/2/5 507/2/5
f 512/2/5 508/2/5 494/2/5
f 512/2/5 511/2/5 510/2/5
f 512/2/5 510/2/5 509/2/5
f 512/2/5 509/2/5 508/2/5
f 513/2/5 499/2/5 511/2/5
f 513/2/5 511/2/5 512/2/5
f 516/2/5 515/2/5 514/2/5
f 517/2/5 515/2/5 516/2/5
f 520/2/5 519/2/5 518/2/5
f 521/2/5 519/2/5 520/2/5
f 525/2/5 523/2/5 522/2/5
f 526/2/5 525/2/5 524/2/5
f 527/2/5 523/2/5 525/2/5
f 527/2/5 525/2/5 526/2/5
f 530/1/5 529/1/5 528/1/5
f 531/1/5 529/1/5 530/1/5
f 532/2/5 531/2/5 530/2/5
f 533/2/5 531/2/5 532/2/5
f 534/2/5 531/2/5 533/2/5
f 535/2/5 531/2/5 534/2/5
f 540/2/5 537/2/5 536/2/5
f 541/2/5 540/2/5 536/2/5
f 542/2/5 540/2/5 541/2/5
f 543/2/5 539/2/5 538/2/5
f 544/2/5 539/2/5 543/2/5
f 547/2/5 546/2/5 545/2/5
f 548/2/5 546/2/5 547/2/5
f 551/1/5 550/1/5 549/1/5
f 552/1/5 550/1/5 551/1/5
f 555/2/6 556/2/6 559/2/6
f 557/2/6 558/2/6 561/2/6
f 561/2/6 558/2/6 562/2/6
f 559/2/6 560/2/6 563/2/6
f 555/2/6 559/2/6 563/2/6
f 563/2/6 560/2/6 564/2/6
f 555/2/6 563/2/6 567/2/6
f 555/2/6 567/2/6 569/2/6
f 567/2/6 568/2/6 569/2/6
f 569/2/6 568/2/6 570/2/6
f 553/2/6 554/2/6 571/2/6
f 571/2/6 554/2/6 572/2/6
f 565/2/6 566/2/6 573/2/6
f 573/2/6 566/2/6 574/2/6
f 575/2/6 576/2/6 577/2/6
f 577/2/6 576/2/6 578/2/6
f 579/2/6 580/2/6 583/2/6
f 583/2/6 580/2/6 584/2/6
f 581/2/6 582/2/6 585/2/6
f 585/2/6 582/2/6 586/2/6
f 587/2/6 588/2/6 591/2/6
f 591/2/6 588/2/6 592/2/6
f 589/2/6 590/2/6 594/2/6
f 594/2/6 590/2/6 595/2/6
f 592/2/6 593/2/6 596/2/6
f 596/2/6 593/2/6 597/2/6
f 598/1/6 599/1/6 604/1/6
f 599/2/6 600/2/6 605/2/6
f 604/1/6 599/1/6 605/1/6
f 600/1/6 601/1/6 606/1/6
f 605/2/6 600/2/6 606/2/6
f 601/2/6 602/2/6 607/2/6
f 606/1/6 601/1/6 607/1/6
f 602/1/6 603/1/6 608/1/6
f 607/2/6 602/2/6 608/2/6
f 608/1/6 603/1/6 609/1/6
f 605/2/6 606/2/6 612/2/6
f 607/2/6 608/2/6 613/2/6
f 610/2/6 611/2/6 615/2/6
f 605/2/6 612/2/6 616/2/6
f 616/2/6 612/2/6 617/2/6
f 613/2/6 608/2/6 618/2/6
f 618/2/6 608/2/6 619/2/6
f 614/2/6 615/2/6 620/2/6
f 615/2/6 611/2/6 621/2/6
f 620/2/6 615/2/6 621/2/6
f 622/1/6 623/1/6 628/1/6
f 628/1/6 623/1/6 629/1/6
f 624/1/6 625/1/6 630/1/6
f 630/1/6 625/1/6 631/1/6
f 626/1/6 627/1/6 632/1/6
f 632/1/6 627/1/6 633/1/6
f 634/2/6 635/2/6 636/2/6
f 636/2/6 635/2/6 637/2/6
f 638/2/6 639/2/6 642/2/6
f 642/2/6 639/2/6 643/2/6
f 640/2/6 641/2/6 644/2/6
f 644/2/6 641/2/6 645/2/6
f 646/1/6 647/1/6 650/1/6
f 650/1/6 647/1/6 651/1/6
f 648/1/6 649/1/6 652/1/6
f 652/1/6 649/1/6 653/1/6
f 650/2/6 651/2/6 654/2/6
f 652/2/6 653/2/6 655/2/6
f 650/2/6 654/2/6 656/2/6
f 655/2/6 653/2/6 657/2/6
f 650/2/6 656/2/6 658/2/6
f 658/2/6 656/2/6 659/2/6
f 657/2/6 653/2/6 664/2/6
f 664/2/6 653/2/6 665/2/6
f 660/2/6 661/2/6 666/2/6
f 666/2/6 661/2/6 667/2/6
f 662/2/6 663/2/6 668/2/6
f 668/2/6 663/2/6 669/2/6
f 670/1/6 671/1/6 676/1/6
f 676/1/6 671/1/6 677/1/6
f 672/1/6 673/1/6 678/1/6
f 678/1/6 673/1/6 679/1/6
f 674/1/6 675/1/6 680/1/6
f 680/1/6 675/1/6 681/1/6
f 677/2/6 678/2/6 683/2/6
f 683/2/6 678/2/6 684/2/6
f 679/2/6 680/2/6 685/2/6
f 685/2/6 680/2/6 686/2/6
f 682/1/6 683/1/6 688/1/6
f 688/1/6 683/1/6 689/1/6
f 684/1/6 685/1/6 690/1/6
f 690/1/6 685/1/6 691/1/6
f 686/1/6 687/1/6 692/1/6
f 692/1/6 687/1/6 693/1/6
f 694/1/6 695/1/6 700/1/6
f 700/1/6 695/1/6 701/1/6
f 696/1/6 697/1/6 702/1/6
f 702/1/6 697/1/6 703/1/6
f 698/1/6 699/1/6 704/1/6
f 704/1/6 699/1/6 705/1/6
