# MagicaVoxel @ Ephtracy

# group
o 

# material
mtllib Cannapé(Factory-New).mtl
usemtl palette

# normals
vn -1 0 0
vn 1 0 0
vn 0 0 1
vn 0 0 -1
vn 0 -1 0
vn 0 1 0

# texcoords
vt 0.369141 0.5
vt 0.396484 0.5
vt 0.423828 0.5
vt 0.537109 0.5
vt 0.994141 0.5

# verts
v 0 0 -0.1
v 0 0 -0.4
v 0 0 -1.6
v 0 0 -1.9
v 0 0.1 0
v 0 0.1 -0.1
v 0 0.1 -0.4
v 0 0.1 -1.6
v 0 0.1 -1.9
v 0 0.1 -2
v 0 0.2 -0.1
v 0 0.2 -1.9
v 0 0.5 0
v 0 0.5 -0.1
v 0 0.5 -1.9
v 0 0.5 -2
v 0.1 0.2 -0.1
v 0.1 0.2 -0.6
v 0.1 0.2 -0.7
v 0.1 0.2 -1.3
v 0.1 0.2 -1.4
v 0.1 0.2 -1.9
v 0.1 0.4 -0.1
v 0.1 0.4 -0.6
v 0.1 0.4 -0.7
v 0.1 0.4 -1.3
v 0.1 0.4 -1.4
v 0.1 0.4 -1.9
v 0.1 0.5 0
v 0.1 0.5 -0.1
v 0.1 0.5 -1.9
v 0.1 0.5 -2
v 0.1 0.6 0
v 0.1 0.6 -0.1
v 0.1 0.6 -1.9
v 0.1 0.6 -2
v 0.7 0 -0.1
v 0.7 0 -0.4
v 0.7 0 -1.6
v 0.7 0 -1.9
v 0.7 0.1 -0.1
v 0.7 0.1 -0.4
v 0.7 0.1 -1.6
v 0.7 0.1 -1.9
v 0.7 0.4 -0.1
v 0.7 0.4 -0.6
v 0.7 0.4 -0.7
v 0.7 0.4 -1.3
v 0.7 0.4 -1.4
v 0.7 0.4 -1.9
v 0.7 0.6 -0.1
v 0.7 0.6 -1.9
v 0.7 0.9 -0.1
v 0.7 0.9 -0.6
v 0.7 0.9 -0.7
v 0.7 0.9 -1.3
v 0.7 0.9 -1.4
v 0.7 0.9 -1.9
v 0.8 0.6 0
v 0.8 0.6 -0.1
v 0.8 0.6 -1.9
v 0.8 0.6 -2
v 0.8 0.8 0
v 0.8 0.8 -0.1
v 0.8 0.8 -1.9
v 0.8 0.8 -2
v 0.9 0.2 -0.6
v 0.9 0.2 -0.7
v 0.9 0.2 -1.3
v 0.9 0.2 -1.4
v 0.9 0.8 -0.6
v 0.9 0.8 -0.7
v 0.9 0.8 -1.3
v 0.9 0.8 -1.4
v 0.2 0 -0.1
v 0.2 0 -0.4
v 0.2 0 -1.6
v 0.2 0 -1.9
v 0.2 0.1 -0.1
v 0.2 0.1 -0.4
v 0.2 0.1 -1.6
v 0.2 0.1 -1.9
v 0.9 0 -0.1
v 0.9 0 -0.4
v 0.9 0 -1.6
v 0.9 0 -1.9
v 0.9 0.1 0
v 0.9 0.1 -0.1
v 0.9 0.1 -0.4
v 0.9 0.1 -1.6
v 0.9 0.1 -1.9
v 0.9 0.1 -2
v 0.9 0.3 0
v 0.9 0.3 -0.1
v 0.9 0.3 -1.9
v 0.9 0.3 -2
v 0.9 0.8 -0.1
v 0.9 0.8 -0.6
v 0.9 0.8 -0.7
v 0.9 0.8 -1.3
v 0.9 0.8 -1.4
v 0.9 0.8 -1.9
v 0.9 0.9 -0.1
v 0.9 0.9 -0.6
v 0.9 0.9 -0.7
v 0.9 0.9 -1.3
v 0.9 0.9 -1.4
v 0.9 0.9 -1.9
v 1 0.1 -0.1
v 1 0.1 -1.9
v 1 0.3 0
v 1 0.3 -0.1
v 1 0.3 -1.9
v 1 0.3 -2
v 1 0.8 0
v 1 0.8 -2
v 0 0.1 0
v 0 0.5 0
v 0.1 0.5 0
v 0.1 0.6 0
v 0.8 0.6 0
v 0.8 0.8 0
v 0.9 0.1 0
v 0.9 0.3 0
v 1 0.3 0
v 1 0.8 0
v 0 0 -0.1
v 0 0.1 -0.1
v 0.2 0 -0.1
v 0.2 0.1 -0.1
v 0.7 0 -0.1
v 0.7 0.1 -0.1
v 0.7 0.6 -0.1
v 0.7 0.9 -0.1
v 0.8 0.6 -0.1
v 0.8 0.8 -0.1
v 0.9 0 -0.1
v 0.9 0.1 -0.1
v 0.9 0.3 -0.1
v 0.9 0.8 -0.1
v 0.9 0.9 -0.1
v 1 0.1 -0.1
v 1 0.3 -0.1
v 0.1 0.2 -0.7
v 0.1 0.4 -0.7
v 0.7 0.4 -0.7
v 0.7 0.9 -0.7
v 0.9 0.2 -0.7
v 0.9 0.8 -0.7
v 0.9 0.9 -0.7
v 0.1 0.2 -1.4
v 0.1 0.4 -1.4
v 0.7 0.4 -1.4
v 0.7 0.9 -1.4
v 0.9 0.2 -1.4
v 0.9 0.8 -1.4
v 0.9 0.9 -1.4
v 0 0 -1.6
v 0 0.1 -1.6
v 0.2 0 -1.6
v 0.2 0.1 -1.6
v 0.7 0 -1.6
v 0.7 0.1 -1.6
v 0.9 0 -1.6
v 0.9 0.1 -1.6
v 0 0.2 -1.9
v 0 0.5 -1.9
v 0.1 0.2 -1.9
v 0.1 0.4 -1.9
v 0.1 0.5 -1.9
v 0.1 0.6 -1.9
v 0.7 0.4 -1.9
v 0.7 0.6 -1.9
v 0 0.2 -0.1
v 0 0.5 -0.1
v 0.1 0.2 -0.1
v 0.1 0.4 -0.1
v 0.1 0.5 -0.1
v 0.1 0.6 -0.1
v 0.7 0.4 -0.1
v 0.7 0.6 -0.1
v 0 0 -0.4
v 0 0.1 -0.4
v 0.2 0 -0.4
v 0.2 0.1 -0.4
v 0.7 0 -0.4
v 0.7 0.1 -0.4
v 0.9 0 -0.4
v 0.9 0.1 -0.4
v 0.1 0.2 -0.6
v 0.1 0.4 -0.6
v 0.7 0.4 -0.6
v 0.7 0.9 -0.6
v 0.9 0.2 -0.6
v 0.9 0.8 -0.6
v 0.9 0.9 -0.6
v 0.1 0.2 -1.3
v 0.1 0.4 -1.3
v 0.7 0.4 -1.3
v 0.7 0.9 -1.3
v 0.9 0.2 -1.3
v 0.9 0.8 -1.3
v 0.9 0.9 -1.3
v 0 0 -1.9
v 0 0.1 -1.9
v 0.2 0 -1.9
v 0.2 0.1 -1.9
v 0.7 0 -1.9
v 0.7 0.1 -1.9
v 0.7 0.6 -1.9
v 0.7 0.9 -1.9
v 0.8 0.6 -1.9
v 0.8 0.8 -1.9
v 0.9 0 -1.9
v 0.9 0.1 -1.9
v 0.9 0.3 -1.9
v 0.9 0.8 -1.9
v 0.9 0.9 -1.9
v 1 0.1 -1.9
v 1 0.3 -1.9
v 0 0.1 -2
v 0 0.5 -2
v 0.1 0.5 -2
v 0.1 0.6 -2
v 0.8 0.6 -2
v 0.8 0.8 -2
v 0.9 0.1 -2
v 0.9 0.3 -2
v 1 0.3 -2
v 1 0.8 -2
v 0 0 -0.1
v 0.2 0 -0.1
v 0.7 0 -0.1
v 0.9 0 -0.1
v 0 0 -0.4
v 0.2 0 -0.4
v 0.7 0 -0.4
v 0.9 0 -0.4
v 0 0 -1.6
v 0.2 0 -1.6
v 0.7 0 -1.6
v 0.9 0 -1.6
v 0 0 -1.9
v 0.2 0 -1.9
v 0.7 0 -1.9
v 0.9 0 -1.9
v 0 0.1 0
v 0.9 0.1 0
v 0 0.1 -0.1
v 0.2 0.1 -0.1
v 0.7 0.1 -0.1
v 0.9 0.1 -0.1
v 1 0.1 -0.1
v 0 0.1 -0.4
v 0.2 0.1 -0.4
v 0.7 0.1 -0.4
v 0.9 0.1 -0.4
v 0 0.1 -1.6
v 0.2 0.1 -1.6
v 0.7 0.1 -1.6
v 0.9 0.1 -1.6
v 0 0.1 -1.9
v 0.2 0.1 -1.9
v 0.7 0.1 -1.9
v 0.9 0.1 -1.9
v 1 0.1 -1.9
v 0 0.1 -2
v 0.9 0.1 -2
v 0.9 0.3 0
v 1 0.3 0
v 0.9 0.3 -0.1
v 1 0.3 -0.1
v 0.9 0.3 -1.9
v 1 0.3 -1.9
v 0.9 0.3 -2
v 1 0.3 -2
v 0 0.2 -0.1
v 0.1 0.2 -0.1
v 0.1 0.2 -0.6
v 0.9 0.2 -0.6
v 0.1 0.2 -0.7
v 0.9 0.2 -0.7
v 0.1 0.2 -1.3
v 0.9 0.2 -1.3
v 0.1 0.2 -1.4
v 0.9 0.2 -1.4
v 0 0.2 -1.9
v 0.1 0.2 -1.9
v 0.1 0.4 -0.1
v 0.7 0.4 -0.1
v 0.1 0.4 -0.6
v 0.7 0.4 -0.6
v 0.1 0.4 -0.7
v 0.7 0.4 -0.7
v 0.1 0.4 -1.3
v 0.7 0.4 -1.3
v 0.1 0.4 -1.4
v 0.7 0.4 -1.4
v 0.1 0.4 -1.9
v 0.7 0.4 -1.9
v 0 0.5 0
v 0.1 0.5 0
v 0 0.5 -0.1
v 0.1 0.5 -0.1
v 0 0.5 -1.9
v 0.1 0.5 -1.9
v 0 0.5 -2
v 0.1 0.5 -2
v 0.1 0.6 0
v 0.8 0.6 0
v 0.1 0.6 -0.1
v 0.7 0.6 -0.1
v 0.8 0.6 -0.1
v 0.1 0.6 -1.9
v 0.7 0.6 -1.9
v 0.8 0.6 -1.9
v 0.1 0.6 -2
v 0.8 0.6 -2
v 0.8 0.8 0
v 1 0.8 0
v 0.8 0.8 -0.1
v 0.9 0.8 -0.1
v 0.9 0.8 -0.6
v 0.9 0.8 -0.7
v 0.9 0.8 -1.3
v 0.9 0.8 -1.4
v 0.8 0.8 -1.9
v 0.9 0.8 -1.9
v 0.8 0.8 -2
v 1 0.8 -2
v 0.7 0.9 -0.1
v 0.9 0.9 -0.1
v 0.7 0.9 -0.6
v 0.9 0.9 -0.6
v 0.7 0.9 -0.7
v 0.9 0.9 -0.7
v 0.7 0.9 -1.3
v 0.9 0.9 -1.3
v 0.7 0.9 -1.4
v 0.9 0.9 -1.4
v 0.7 0.9 -1.9
v 0.9 0.9 -1.9

# faces
f 6/2/1 2/2/1 1/2/1
f 7/2/1 2/2/1 6/2/1
f 8/2/1 4/2/1 3/2/1
f 9/2/1 4/2/1 8/2/1
f 11/3/1 7/3/1 6/3/1
f 11/3/1 10/3/1 9/3/1
f 11/3/1 9/3/1 8/3/1
f 11/3/1 8/3/1 7/3/1
f 11/3/1 6/3/1 5/3/1
f 12/3/1 10/3/1 11/3/1
f 13/3/1 11/3/1 5/3/1
f 14/3/1 11/3/1 13/3/1
f 15/3/1 10/3/1 12/3/1
f 16/3/1 10/3/1 15/3/1
f 23/1/1 18/1/1 17/1/1
f 24/1/1 18/1/1 23/1/1
f 25/1/1 20/1/1 19/1/1
f 26/1/1 20/1/1 25/1/1
f 27/1/1 22/1/1 21/1/1
f 28/1/1 22/1/1 27/1/1
f 33/3/1 30/3/1 29/3/1
f 34/3/1 30/3/1 33/3/1
f 35/3/1 32/3/1 31/3/1
f 36/3/1 32/3/1 35/3/1
f 41/2/1 38/2/1 37/2/1
f 42/2/1 38/2/1 41/2/1
f 43/2/1 40/2/1 39/2/1
f 44/2/1 40/2/1 43/2/1
f 51/1/1 46/1/1 45/1/1
f 52/1/1 50/1/1 49/1/1
f 53/1/1 46/1/1 51/1/1
f 54/1/1 46/1/1 53/1/1
f 55/1/1 48/1/1 47/1/1
f 56/1/1 48/1/1 55/1/1
f 57/1/1 52/1/1 49/1/1
f 58/1/1 52/1/1 57/1/1
f 63/3/1 60/3/1 59/3/1
f 64/3/1 60/3/1 63/3/1
f 65/3/1 62/3/1 61/3/1
f 66/3/1 62/3/1 65/3/1
f 71/3/1 68/3/1 67/3/1
f 72/3/1 68/3/1 71/3/1
f 73/3/1 70/3/1 69/3/1
f 74/3/1 70/3/1 73/3/1
f 75/2/2 76/2/2 79/2/2
f 79/2/2 76/2/2 80/2/2
f 77/2/2 78/2/2 81/2/2
f 81/2/2 78/2/2 82/2/2
f 83/2/2 84/2/2 88/2/2
f 88/2/2 84/2/2 89/2/2
f 85/2/2 86/2/2 90/2/2
f 90/2/2 86/2/2 91/2/2
f 87/3/2 88/3/2 93/3/2
f 93/3/2 88/3/2 94/3/2
f 91/3/2 92/3/2 95/3/2
f 95/3/2 92/3/2 96/3/2
f 97/1/2 98/1/2 103/1/2
f 103/1/2 98/1/2 104/1/2
f 99/1/2 100/1/2 105/1/2
f 105/1/2 100/1/2 106/1/2
f 101/1/2 102/1/2 107/1/2
f 107/1/2 102/1/2 108/1/2
f 109/3/2 110/3/2 112/3/2
f 112/3/2 110/3/2 113/3/2
f 111/3/2 112/3/2 115/3/2
f 113/3/2 114/3/2 115/3/2
f 112/3/2 113/3/2 115/3/2
f 115/3/2 114/3/2 116/3/2
f 119/3/3 118/3/3 117/3/3
f 121/3/3 120/3/3 119/3/3
f 123/3/3 119/3/3 117/3/3
f 123/3/3 122/3/3 121/3/3
f 123/3/3 121/3/3 119/3/3
f 124/3/3 122/3/3 123/3/3
f 125/3/3 122/3/3 124/3/3
f 126/3/3 122/3/3 125/3/3
f 129/2/3 128/2/3 127/2/3
f 130/2/3 128/2/3 129/2/3
f 135/1/3 134/1/3 133/1/3
f 136/1/3 134/1/3 135/1/3
f 137/2/3 132/2/3 131/2/3
f 138/2/3 132/2/3 137/2/3
f 140/1/3 134/1/3 136/1/3
f 141/1/3 134/1/3 140/1/3
f 142/3/3 139/3/3 138/3/3
f 143/3/3 139/3/3 142/3/3
f 146/1/3 145/1/3 144/1/3
f 148/1/3 146/1/3 144/1/3
f 148/1/3 147/1/3 146/1/3
f 149/1/3 147/1/3 148/1/3
f 150/1/3 147/1/3 149/1/3
f 153/1/3 152/1/3 151/1/3
f 155/1/3 153/1/3 151/1/3
f 155/1/3 154/1/3 153/1/3
f 156/1/3 154/1/3 155/1/3
f 157/1/3 154/1/3 156/1/3
f 160/2/3 159/2/3 158/2/3
f 161/2/3 159/2/3 160/2/3
f 164/2/3 163/2/3 162/2/3
f 165/2/3 163/2/3 164/2/3
f 168/3/3 167/3/3 166/3/3
f 169/3/3 167/3/3 168/3/3
f 170/3/3 167/3/3 169/3/3
f 172/3/3 171/3/3 170/3/3
f 172/3/3 170/3/3 169/3/3
f 173/3/3 171/3/3 172/3/3
f 174/3/4 175/3/4 176/3/4
f 176/3/4 175/3/4 177/3/4
f 177/3/4 175/3/4 178/3/4
f 178/3/4 179/3/4 180/3/4
f 177/3/4 178/3/4 180/3/4
f 180/3/4 179/3/4 181/3/4
f 182/2/4 183/2/4 184/2/4
f 184/2/4 183/2/4 185/2/4
f 186/2/4 187/2/4 188/2/4
f 188/2/4 187/2/4 189/2/4
f 190/1/4 191/1/4 192/1/4
f 190/1/4 192/1/4 194/1/4
f 192/1/4 193/1/4 194/1/4
f 194/1/4 193/1/4 195/1/4
f 195/1/4 193/1/4 196/1/4
f 197/1/4 198/1/4 199/1/4
f 197/1/4 199/1/4 201/1/4
f 199/1/4 200/1/4 201/1/4
f 201/1/4 200/1/4 202/1/4
f 202/1/4 200/1/4 203/1/4
f 204/2/4 205/2/4 206/2/4
f 206/2/4 205/2/4 207/2/4
f 210/1/4 211/1/4 212/1/4
f 212/1/4 211/1/4 213/1/4
f 208/2/4 209/2/4 214/2/4
f 214/2/4 209/2/4 215/2/4
f 213/1/4 211/1/4 217/1/4
f 217/1/4 211/1/4 218/1/4
f 215/3/4 216/3/4 219/3/4
f 219/3/4 216/3/4 220/3/4
f 221/3/4 222/3/4 223/3/4
f 223/3/4 224/3/4 225/3/4
f 221/3/4 223/3/4 227/3/4
f 225/3/4 226/3/4 227/3/4
f 223/3/4 225/3/4 227/3/4
f 227/3/4 226/3/4 228/3/4
f 228/3/4 226/3/4 229/3/4
f 229/3/4 226/3/4 230/3/4
f 235/2/5 232/2/5 231/2/5
f 236/2/5 232/2/5 235/2/5
f 237/2/5 234/2/5 233/2/5
f 238/2/5 234/2/5 237/2/5
f 243/2/5 240/2/5 239/2/5
f 244/2/5 240/2/5 243/2/5
f 245/2/5 242/2/5 241/2/5
f 246/2/5 242/2/5 245/2/5
f 249/3/5 248/3/5 247/3/5
f 250/3/5 248/3/5 249/3/5
f 251/3/5 248/3/5 250/3/5
f 252/3/5 248/3/5 251/3/5
f 255/3/5 251/3/5 250/3/5
f 256/3/5 251/3/5 255/3/5
f 257/3/5 253/3/5 252/3/5
f 258/3/5 256/3/5 255/3/5
f 258/3/5 257/3/5 256/3/5
f 258/3/5 255/3/5 254/3/5
f 259/3/5 257/3/5 258/3/5
f 260/3/5 257/3/5 259/3/5
f 261/3/5 253/3/5 257/3/5
f 261/3/5 257/3/5 260/3/5
f 263/3/5 260/3/5 259/3/5
f 264/3/5 260/3/5 263/3/5
f 265/3/5 253/3/5 261/3/5
f 266/3/5 253/3/5 265/3/5
f 267/3/5 264/3/5 263/3/5
f 267/3/5 263/3/5 262/3/5
f 267/3/5 265/3/5 264/3/5
f 268/3/5 265/3/5 267/3/5
f 271/3/5 270/3/5 269/3/5
f 272/3/5 270/3/5 271/3/5
f 275/3/5 274/3/5 273/3/5
f 276/3/5 274/3/5 275/3/5
f 277/3/6 278/3/6 279/3/6
f 277/3/6 279/3/6 281/3/6
f 279/3/6 280/3/6 281/3/6
f 281/3/6 280/3/6 282/3/6
f 277/3/6 281/3/6 283/3/6
f 277/3/6 283/3/6 285/3/6
f 283/3/6 284/3/6 285/3/6
f 285/3/6 284/3/6 286/3/6
f 277/3/6 285/3/6 287/3/6
f 287/3/6 285/3/6 288/3/6
f 289/1/6 290/1/6 291/1/6
f 291/1/6 290/1/6 292/1/6
f 293/1/6 294/1/6 295/1/6
f 295/1/6 294/1/6 296/1/6
f 297/1/6 298/1/6 299/1/6
f 299/1/6 298/1/6 300/1/6
f 301/3/6 302/3/6 303/3/6
f 303/3/6 302/3/6 304/3/6
f 305/3/6 306/3/6 307/3/6
f 307/3/6 306/3/6 308/3/6
f 309/3/6 310/3/6 311/3/6
f 311/3/6 310/3/6 312/3/6
f 312/3/6 310/3/6 313/3/6
f 314/3/6 315/3/6 317/3/6
f 315/3/6 316/3/6 317/3/6
f 317/3/6 316/3/6 318/3/6
f 319/3/6 320/3/6 321/3/6
f 321/3/6 320/3/6 322/3/6
f 322/3/6 320/3/6 323/3/6
f 323/3/6 320/3/6 324/3/6
f 324/3/6 320/3/6 325/3/6
f 325/3/6 320/3/6 326/3/6
f 326/3/6 320/3/6 328/3/6
f 327/3/6 328/3/6 329/3/6
f 328/3/6 320/3/6 330/3/6
f 329/3/6 328/3/6 330/3/6
f 331/1/6 332/1/6 333/1/6
f 333/1/6 332/1/6 334/1/6
f 335/1/6 336/1/6 337/1/6
f 337/1/6 336/1/6 338/1/6
f 339/1/6 340/1/6 341/1/6
f 341/1/6 340/1/6 342/1/6
