# MagicaVoxel @ Ephtracy

# group
o 

# material
mtllib Cannapé(Well-Worn).mtl
usemtl palette

# normals
vn -1 0 0
vn 1 0 0
vn 0 0 1
vn 0 0 -1
vn 0 -1 0
vn 0 1 0

# texcoords
vt 0.369141 0.5
vt 0.396484 0.5
vt 0.423828 0.5
vt 0.537109 0.5
vt 0.869141 0.5
vt 0.873047 0.5
vt 0.994141 0.5

# verts
v 0 0 -0.1
v 0 0 -0.4
v 0 0 -1.6
v 0 0 -1.9
v 0 0.1 0
v 0 0.1 -0.1
v 0 0.1 -0.4
v 0 0.1 -0.9
v 0 0.1 -1.4
v 0 0.1 -1.6
v 0 0.1 -1.9
v 0 0.1 -2
v 0 0.2 -0.1
v 0 0.2 -0.9
v 0 0.2 -1.4
v 0 0.2 -1.9
v 0 0.5 0
v 0 0.5 -0.1
v 0 0.5 -1.9
v 0 0.5 -2
v 0.1 0.2 -0.1
v 0.1 0.2 -0.6
v 0.1 0.2 -0.7
v 0.1 0.2 -0.8
v 0.1 0.2 -0.9
v 0.1 0.2 -1
v 0.1 0.2 -1.1
v 0.1 0.2 -1.2
v 0.1 0.2 -1.3
v 0.1 0.2 -1.4
v 0.1 0.2 -1.9
v 0.1 0.3 -0.8
v 0.1 0.3 -0.9
v 0.1 0.3 -1
v 0.1 0.3 -1.1
v 0.1 0.3 -1.2
v 0.1 0.3 -1.3
v 0.1 0.4 -0.1
v 0.1 0.4 -0.6
v 0.1 0.4 -0.7
v 0.1 0.4 -1.3
v 0.1 0.4 -1.4
v 0.1 0.4 -1.9
v 0.1 0.5 0
v 0.1 0.5 -0.1
v 0.1 0.5 -1.9
v 0.1 0.5 -2
v 0.1 0.6 0
v 0.1 0.6 -0.1
v 0.1 0.6 -1.9
v 0.1 0.6 -2
v 0.7 0 -0.1
v 0.7 0 -0.4
v 0.7 0 -1.6
v 0.7 0 -1.9
v 0.7 0.1 -0.1
v 0.7 0.1 -0.4
v 0.7 0.1 -1.6
v 0.7 0.1 -1.9
v 0.7 0.4 -0.1
v 0.7 0.4 -0.6
v 0.7 0.4 -0.7
v 0.7 0.4 -0.9
v 0.7 0.4 -1.1
v 0.7 0.4 -1.3
v 0.7 0.4 -1.4
v 0.7 0.4 -1.9
v 0.7 0.6 -0.1
v 0.7 0.6 -1.9
v 0.7 0.9 -0.1
v 0.7 0.9 -0.6
v 0.7 0.9 -0.7
v 0.7 0.9 -1.3
v 0.7 0.9 -1.4
v 0.7 0.9 -1.9
v 0.8 0.6 0
v 0.8 0.6 -0.1
v 0.8 0.6 -1.9
v 0.8 0.6 -2
v 0.8 0.8 0
v 0.8 0.8 -0.1
v 0.8 0.8 -1.9
v 0.8 0.8 -2
v 0.9 0.2 -0.6
v 0.9 0.2 -0.7
v 0.9 0.2 -1.3
v 0.9 0.2 -1.4
v 0.9 0.8 -0.6
v 0.9 0.8 -0.7
v 0.9 0.8 -1.3
v 0.9 0.8 -1.4
v 0.2 0 -0.1
v 0.2 0 -0.4
v 0.2 0 -1.6
v 0.2 0 -1.9
v 0.2 0.1 -0.1
v 0.2 0.1 -0.4
v 0.2 0.1 -1.6
v 0.2 0.1 -1.9
v 0.9 0 -0.1
v 0.9 0 -0.4
v 0.9 0 -1.6
v 0.9 0 -1.9
v 0.9 0.1 0
v 0.9 0.1 -0.1
v 0.9 0.1 -0.4
v 0.9 0.1 -1.6
v 0.9 0.1 -1.9
v 0.9 0.1 -2
v 0.9 0.3 0
v 0.9 0.3 -0.1
v 0.9 0.3 -1.9
v 0.9 0.3 -2
v 0.9 0.8 -0.1
v 0.9 0.8 -0.6
v 0.9 0.8 -0.7
v 0.9 0.8 -1.3
v 0.9 0.8 -1.4
v 0.9 0.8 -1.9
v 0.9 0.9 -0.1
v 0.9 0.9 -0.6
v 0.9 0.9 -0.7
v 0.9 0.9 -1.3
v 0.9 0.9 -1.4
v 0.9 0.9 -1.9
v 1 0.1 -0.1
v 1 0.1 -1.9
v 1 0.3 0
v 1 0.3 -0.1
v 1 0.3 -1.9
v 1 0.3 -2
v 1 0.8 0
v 1 0.8 -2
v 0 0.1 0
v 0 0.5 0
v 0.1 0.5 0
v 0.1 0.6 0
v 0.8 0.6 0
v 0.8 0.8 0
v 0.9 0.1 0
v 0.9 0.3 0
v 1 0.3 0
v 1 0.8 0
v 0 0 -0.1
v 0 0.1 -0.1
v 0.2 0 -0.1
v 0.2 0.1 -0.1
v 0.7 0 -0.1
v 0.7 0.1 -0.1
v 0.7 0.6 -0.1
v 0.7 0.9 -0.1
v 0.8 0.6 -0.1
v 0.8 0.8 -0.1
v 0.9 0 -0.1
v 0.9 0.1 -0.1
v 0.9 0.3 -0.1
v 0.9 0.8 -0.1
v 0.9 0.9 -0.1
v 1 0.1 -0.1
v 1 0.3 -0.1
v 0.1 0.2 -0.7
v 0.1 0.4 -0.7
v 0.2 0.2 -0.7
v 0.2 0.4 -0.7
v 0.3 0.3 -0.7
v 0.3 0.4 -0.7
v 0.4 0.2 -0.7
v 0.4 0.3 -0.7
v 0.5 0.2 -0.7
v 0.5 0.4 -0.7
v 0.6 0.2 -0.7
v 0.7 0.4 -0.7
v 0.7 0.9 -0.7
v 0.9 0.2 -0.7
v 0.9 0.8 -0.7
v 0.9 0.9 -0.7
v 0.1 0.2 -1.4
v 0.1 0.4 -1.4
v 0.2 0.2 -1.4
v 0.4 0.2 -1.4
v 0.5 0.2 -1.4
v 0.7 0.4 -1.4
v 0.7 0.9 -1.4
v 0.9 0.2 -1.4
v 0.9 0.8 -1.4
v 0.9 0.9 -1.4
v 0 0 -1.6
v 0 0.1 -1.6
v 0.2 0 -1.6
v 0.2 0.1 -1.6
v 0.7 0 -1.6
v 0.7 0.1 -1.6
v 0.9 0 -1.6
v 0.9 0.1 -1.6
v 0 0.2 -1.9
v 0 0.5 -1.9
v 0.1 0.2 -1.9
v 0.1 0.4 -1.9
v 0.1 0.5 -1.9
v 0.1 0.6 -1.9
v 0.7 0.4 -1.9
v 0.7 0.6 -1.9
v 0 0.2 -0.1
v 0 0.5 -0.1
v 0.1 0.2 -0.1
v 0.1 0.4 -0.1
v 0.1 0.5 -0.1
v 0.1 0.6 -0.1
v 0.7 0.4 -0.1
v 0.7 0.6 -0.1
v 0 0 -0.4
v 0 0.1 -0.4
v 0.2 0 -0.4
v 0.2 0.1 -0.4
v 0.7 0 -0.4
v 0.7 0.1 -0.4
v 0.9 0 -0.4
v 0.9 0.1 -0.4
v 0.1 0.2 -0.6
v 0.1 0.4 -0.6
v 0.2 0.2 -0.6
v 0.4 0.2 -0.6
v 0.4 0.4 -0.6
v 0.5 0.2 -0.6
v 0.5 0.3 -0.6
v 0.5 0.4 -0.6
v 0.6 0.2 -0.6
v 0.6 0.3 -0.6
v 0.7 0.4 -0.6
v 0.7 0.9 -0.6
v 0.9 0.2 -0.6
v 0.9 0.8 -0.6
v 0.9 0.9 -0.6
v 0.1 0.2 -1.3
v 0.1 0.3 -1.3
v 0.1 0.4 -1.3
v 0.2 0.2 -1.3
v 0.4 0.2 -1.3
v 0.4 0.3 -1.3
v 0.5 0.2 -1.3
v 0.5 0.4 -1.3
v 0.7 0.4 -1.3
v 0.7 0.9 -1.3
v 0.9 0.2 -1.3
v 0.9 0.8 -1.3
v 0.9 0.9 -1.3
v 0 0 -1.9
v 0 0.1 -1.9
v 0.2 0 -1.9
v 0.2 0.1 -1.9
v 0.7 0 -1.9
v 0.7 0.1 -1.9
v 0.7 0.6 -1.9
v 0.7 0.9 -1.9
v 0.8 0.6 -1.9
v 0.8 0.8 -1.9
v 0.9 0 -1.9
v 0.9 0.1 -1.9
v 0.9 0.3 -1.9
v 0.9 0.8 -1.9
v 0.9 0.9 -1.9
v 1 0.1 -1.9
v 1 0.3 -1.9
v 0 0.1 -2
v 0 0.5 -2
v 0.1 0.5 -2
v 0.1 0.6 -2
v 0.8 0.6 -2
v 0.8 0.8 -2
v 0.9 0.1 -2
v 0.9 0.3 -2
v 1 0.3 -2
v 1 0.8 -2
v 0 0 -0.1
v 0.2 0 -0.1
v 0.7 0 -0.1
v 0.9 0 -0.1
v 0 0 -0.4
v 0.2 0 -0.4
v 0.7 0 -0.4
v 0.9 0 -0.4
v 0 0 -1.6
v 0.2 0 -1.6
v 0.7 0 -1.6
v 0.9 0 -1.6
v 0 0 -1.9
v 0.2 0 -1.9
v 0.7 0 -1.9
v 0.9 0 -1.9
v 0 0.1 0
v 0.9 0.1 0
v 0 0.1 -0.1
v 0.2 0.1 -0.1
v 0.7 0.1 -0.1
v 0.9 0.1 -0.1
v 1 0.1 -0.1
v 0 0.1 -0.4
v 0.2 0.1 -0.4
v 0.7 0.1 -0.4
v 0.9 0.1 -0.4
v 0.1 0.1 -0.6
v 0.2 0.1 -0.6
v 0.5 0.1 -0.6
v 0.6 0.1 -0.6
v 0.1 0.1 -0.7
v 0.2 0.1 -0.7
v 0.5 0.1 -0.7
v 0.6 0.1 -0.7
v 0 0.1 -0.9
v 0.1 0.1 -0.9
v 0.1 0.1 -1.3
v 0.2 0.1 -1.3
v 0.4 0.1 -1.3
v 0.5 0.1 -1.3
v 0 0.1 -1.4
v 0.2 0.1 -1.4
v 0.4 0.1 -1.4
v 0.5 0.1 -1.4
v 0 0.1 -1.6
v 0.2 0.1 -1.6
v 0.7 0.1 -1.6
v 0.9 0.1 -1.6
v 0 0.1 -1.9
v 0.2 0.1 -1.9
v 0.7 0.1 -1.9
v 0.9 0.1 -1.9
v 1 0.1 -1.9
v 0 0.1 -2
v 0.9 0.1 -2
v 0.9 0.3 0
v 1 0.3 0
v 0.9 0.3 -0.1
v 1 0.3 -0.1
v 0.9 0.3 -1.9
v 1 0.3 -1.9
v 0.9 0.3 -2
v 1 0.3 -2
v 0 0.2 -0.1
v 0.1 0.2 -0.1
v 0.1 0.2 -0.6
v 0.2 0.2 -0.6
v 0.4 0.2 -0.6
v 0.5 0.2 -0.6
v 0.6 0.2 -0.6
v 0.9 0.2 -0.6
v 0.1 0.2 -0.7
v 0.2 0.2 -0.7
v 0.4 0.2 -0.7
v 0.5 0.2 -0.7
v 0.6 0.2 -0.7
v 0.9 0.2 -0.7
v 0.1 0.2 -0.8
v 0 0.2 -0.9
v 0.1 0.2 -0.9
v 0.1 0.2 -1
v 0.1 0.2 -1.1
v 0.1 0.2 -1.2
v 0.1 0.2 -1.3
v 0.2 0.2 -1.3
v 0.4 0.2 -1.3
v 0.5 0.2 -1.3
v 0.9 0.2 -1.3
v 0 0.2 -1.4
v 0.1 0.2 -1.4
v 0.2 0.2 -1.4
v 0.4 0.2 -1.4
v 0.5 0.2 -1.4
v 0.9 0.2 -1.4
v 0 0.2 -1.9
v 0.1 0.2 -1.9
v 0.1 0.4 -0.1
v 0.7 0.4 -0.1
v 0.4 0.4 -0.5
v 0.5 0.4 -0.5
v 0.1 0.4 -0.6
v 0.4 0.4 -0.6
v 0.5 0.4 -0.6
v 0.7 0.4 -0.6
v 0.1 0.4 -0.7
v 0.2 0.4 -0.7
v 0.3 0.4 -0.7
v 0.5 0.4 -0.7
v 0.7 0.4 -0.7
v 0.2 0.4 -0.8
v 0.3 0.4 -0.8
v 0.5 0.4 -0.8
v 0.6 0.4 -0.8
v 0.2 0.4 -0.9
v 0.5 0.4 -0.9
v 0.6 0.4 -0.9
v 0.7 0.4 -0.9
v 0.4 0.4 -1
v 0.5 0.4 -1
v 0.2 0.4 -1.1
v 0.3 0.4 -1.1
v 0.5 0.4 -1.1
v 0.7 0.4 -1.1
v 0.3 0.4 -1.2
v 0.4 0.4 -1.2
v 0.1 0.4 -1.3
v 0.5 0.4 -1.3
v 0.7 0.4 -1.3
v 0.1 0.4 -1.4
v 0.7 0.4 -1.4
v 0.1 0.4 -1.9
v 0.7 0.4 -1.9
v 0 0.5 0
v 0.1 0.5 0
v 0 0.5 -0.1
v 0.1 0.5 -0.1
v 0 0.5 -1.9
v 0.1 0.5 -1.9
v 0 0.5 -2
v 0.1 0.5 -2
v 0.1 0.6 0
v 0.8 0.6 0
v 0.1 0.6 -0.1
v 0.7 0.6 -0.1
v 0.8 0.6 -0.1
v 0.1 0.6 -1.9
v 0.7 0.6 -1.9
v 0.8 0.6 -1.9
v 0.1 0.6 -2
v 0.8 0.6 -2
v 0.8 0.8 0
v 1 0.8 0
v 0.8 0.8 -0.1
v 0.9 0.8 -0.1
v 0.9 0.8 -0.6
v 0.9 0.8 -0.7
v 0.9 0.8 -1.3
v 0.9 0.8 -1.4
v 0.8 0.8 -1.9
v 0.9 0.8 -1.9
v 0.8 0.8 -2
v 1 0.8 -2
v 0.7 0.9 -0.1
v 0.9 0.9 -0.1
v 0.7 0.9 -0.6
v 0.9 0.9 -0.6
v 0.7 0.9 -0.7
v 0.9 0.9 -0.7
v 0.7 0.9 -1.3
v 0.9 0.9 -1.3
v 0.7 0.9 -1.4
v 0.9 0.9 -1.4
v 0.7 0.9 -1.9
v 0.9 0.9 -1.9

# faces
f 6/2/1 2/2/1 1/2/1
f 7/2/1 2/2/1 6/2/1
f 10/2/1 4/2/1 3/2/1
f 11/2/1 4/2/1 10/2/1
f 13/3/1 6/3/1 5/3/1
f 13/3/1 7/3/1 6/3/1
f 13/3/1 8/3/1 7/3/1
f 14/5/1 9/5/1 8/5/1
f 14/3/1 8/3/1 13/3/1
f 15/3/1 12/3/1 11/3/1
f 15/5/1 9/5/1 14/5/1
f 15/3/1 11/3/1 10/3/1
f 15/3/1 10/3/1 9/3/1
f 16/3/1 12/3/1 15/3/1
f 17/3/1 13/3/1 5/3/1
f 18/3/1 13/3/1 17/3/1
f 19/3/1 12/3/1 16/3/1
f 20/3/1 12/3/1 19/3/1
f 32/5/1 24/5/1 23/5/1
f 32/1/1 25/1/1 24/1/1
f 33/5/1 26/5/1 25/5/1
f 33/1/1 25/1/1 32/1/1
f 34/1/1 27/1/1 26/1/1
f 34/5/1 26/5/1 33/5/1
f 35/5/1 28/5/1 27/5/1
f 35/1/1 27/1/1 34/1/1
f 36/1/1 29/1/1 28/1/1
f 36/5/1 28/5/1 35/5/1
f 37/1/1 29/1/1 36/1/1
f 38/1/1 22/1/1 21/1/1
f 39/1/1 22/1/1 38/1/1
f 40/5/1 35/5/1 34/5/1
f 40/5/1 32/5/1 23/5/1
f 40/5/1 33/5/1 32/5/1
f 40/5/1 37/5/1 36/5/1
f 40/5/1 36/5/1 35/5/1
f 40/5/1 34/5/1 33/5/1
f 41/5/1 37/5/1 40/5/1
f 42/1/1 31/1/1 30/1/1
f 43/1/1 31/1/1 42/1/1
f 48/3/1 45/3/1 44/3/1
f 49/3/1 45/3/1 48/3/1
f 50/3/1 47/3/1 46/3/1
f 51/3/1 47/3/1 50/3/1
f 56/2/1 53/2/1 52/2/1
f 57/2/1 53/2/1 56/2/1
f 58/2/1 55/2/1 54/2/1
f 59/2/1 55/2/1 58/2/1
f 68/1/1 61/1/1 60/1/1
f 69/1/1 67/1/1 66/1/1
f 70/1/1 61/1/1 68/1/1
f 71/1/1 61/1/1 70/1/1
f 72/1/1 63/1/1 62/1/1
f 72/1/1 64/1/1 63/1/1
f 72/1/1 65/1/1 64/1/1
f 73/1/1 65/1/1 72/1/1
f 74/1/1 69/1/1 66/1/1
f 75/1/1 69/1/1 74/1/1
f 80/3/1 77/3/1 76/3/1
f 81/3/1 77/3/1 80/3/1
f 82/3/1 79/3/1 78/3/1
f 83/3/1 79/3/1 82/3/1
f 88/3/1 85/3/1 84/3/1
f 89/3/1 85/3/1 88/3/1
f 90/3/1 87/3/1 86/3/1
f 91/3/1 87/3/1 90/3/1
f 92/2/2 93/2/2 96/2/2
f 96/2/2 93/2/2 97/2/2
f 94/2/2 95/2/2 98/2/2
f 98/2/2 95/2/2 99/2/2
f 100/2/2 101/2/2 105/2/2
f 105/2/2 101/2/2 106/2/2
f 102/2/2 103/2/2 107/2/2
f 107/2/2 103/2/2 108/2/2
f 104/3/2 105/3/2 110/3/2
f 110/3/2 105/3/2 111/3/2
f 108/3/2 109/3/2 112/3/2
f 112/3/2 109/3/2 113/3/2
f 114/1/2 115/1/2 120/1/2
f 120/1/2 115/1/2 121/1/2
f 116/1/2 117/1/2 122/1/2
f 122/1/2 117/1/2 123/1/2
f 118/1/2 119/1/2 124/1/2
f 124/1/2 119/1/2 125/1/2
f 126/3/2 127/3/2 129/3/2
f 129/3/2 127/3/2 130/3/2
f 128/3/2 129/3/2 132/3/2
f 130/3/2 131/3/2 132/3/2
f 129/3/2 130/3/2 132/3/2
f 132/3/2 131/3/2 133/3/2
f 136/3/3 135/3/3 134/3/3
f 138/3/3 137/3/3 136/3/3
f 140/3/3 136/3/3 134/3/3
f 140/3/3 139/3/3 138/3/3
f 140/3/3 138/3/3 136/3/3
f 141/3/3 139/3/3 140/3/3
f 142/3/3 139/3/3 141/3/3
f 143/3/3 139/3/3 142/3/3
f 146/2/3 145/2/3 144/2/3
f 147/2/3 145/2/3 146/2/3
f 152/1/3 151/1/3 150/1/3
f 153/1/3 151/1/3 152/1/3
f 154/2/3 149/2/3 148/2/3
f 155/2/3 149/2/3 154/2/3
f 157/1/3 151/1/3 153/1/3
f 158/1/3 151/1/3 157/1/3
f 159/3/3 156/3/3 155/3/3
f 160/3/3 156/3/3 159/3/3
f 163/5/3 162/5/3 161/5/3
f 164/5/3 162/5/3 163/5/3
f 165/1/3 164/1/3 163/1/3
f 166/1/3 164/1/3 165/1/3
f 167/1/3 165/1/3 163/1/3
f 168/5/3 166/5/3 165/5/3
f 168/1/3 165/1/3 167/1/3
f 169/5/3 168/5/3 167/5/3
f 170/5/3 166/5/3 168/5/3
f 170/5/3 168/5/3 169/5/3
f 171/1/3 170/1/3 169/1/3
f 172/1/3 170/1/3 171/1/3
f 174/1/3 172/1/3 171/1/3
f 174/1/3 173/1/3 172/1/3
f 175/1/3 173/1/3 174/1/3
f 176/1/3 173/1/3 175/1/3
f 179/1/3 178/1/3 177/1/3
f 180/1/3 178/1/3 179/1/3
f 181/1/3 178/1/3 180/1/3
f 182/1/3 178/1/3 181/1/3
f 184/1/3 182/1/3 181/1/3
f 184/1/3 183/1/3 182/1/3
f 185/1/3 183/1/3 184/1/3
f 186/1/3 183/1/3 185/1/3
f 189/2/3 188/2/3 187/2/3
f 190/2/3 188/2/3 189/2/3
f 193/2/3 192/2/3 191/2/3
f 194/2/3 192/2/3 193/2/3
f 197/3/3 196/3/3 195/3/3
f 198/3/3 196/3/3 197/3/3
f 199/3/3 196/3/3 198/3/3
f 201/3/3 200/3/3 199/3/3
f 201/3/3 199/3/3 198/3/3
f 202/3/3 200/3/3 201/3/3
f 203/3/4 204/3/4 205/3/4
f 205/3/4 204/3/4 206/3/4
f 206/3/4 204/3/4 207/3/4
f 207/3/4 208/3/4 209/3/4
f 206/3/4 207/3/4 209/3/4
f 209/3/4 208/3/4 210/3/4
f 211/2/4 212/2/4 213/2/4
f 213/2/4 212/2/4 214/2/4
f 215/2/4 216/2/4 217/2/4
f 217/2/4 216/2/4 218/2/4
f 219/1/4 220/1/4 221/1/4
f 221/1/4 220/1/4 222/1/4
f 222/1/4 220/1/4 223/1/4
f 222/5/4 223/5/4 224/5/4
f 224/5/4 223/5/4 225/5/4
f 225/5/4 223/5/4 226/5/4
f 224/5/4 225/5/4 227/5/4
f 225/1/4 226/1/4 228/1/4
f 227/5/4 225/5/4 228/5/4
f 227/1/4 228/1/4 229/1/4
f 228/1/4 226/1/4 229/1/4
f 227/1/4 229/1/4 231/1/4
f 229/1/4 230/1/4 231/1/4
f 231/1/4 230/1/4 232/1/4
f 232/1/4 230/1/4 233/1/4
f 234/1/4 235/1/4 237/1/4
f 237/1/4 235/1/4 238/1/4
f 235/5/4 236/5/4 239/5/4
f 238/1/4 235/1/4 239/1/4
f 238/5/4 239/5/4 240/5/4
f 239/5/4 236/5/4 241/5/4
f 240/5/4 239/5/4 241/5/4
f 240/1/4 241/1/4 242/1/4
f 240/1/4 242/1/4 244/1/4
f 242/1/4 243/1/4 244/1/4
f 244/1/4 243/1/4 245/1/4
f 245/1/4 243/1/4 246/1/4
f 247/2/4 248/2/4 249/2/4
f 249/2/4 248/2/4 250/2/4
f 253/1/4 254/1/4 255/1/4
f 255/1/4 254/1/4 256/1/4
f 251/2/4 252/2/4 257/2/4
f 257/2/4 252/2/4 258/2/4
f 256/1/4 254/1/4 260/1/4
f 260/1/4 254/1/4 261/1/4
f 258/3/4 259/3/4 262/3/4
f 262/3/4 259/3/4 263/3/4
f 264/3/4 265/3/4 266/3/4
f 266/3/4 267/3/4 268/3/4
f 264/3/4 266/3/4 270/3/4
f 268/3/4 269/3/4 270/3/4
f 266/3/4 268/3/4 270/3/4
f 270/3/4 269/3/4 271/3/4
f 271/3/4 269/3/4 272/3/4
f 272/3/4 269/3/4 273/3/4
f 278/2/5 275/2/5 274/2/5
f 279/2/5 275/2/5 278/2/5
f 280/2/5 277/2/5 276/2/5
f 281/2/5 277/2/5 280/2/5
f 286/2/5 283/2/5 282/2/5
f 287/2/5 283/2/5 286/2/5
f 288/2/5 285/2/5 284/2/5
f 289/2/5 285/2/5 288/2/5
f 292/3/5 291/3/5 290/3/5
f 293/3/5 291/3/5 292/3/5
f 294/3/5 291/3/5 293/3/5
f 295/3/5 291/3/5 294/3/5
f 298/3/5 294/3/5 293/3/5
f 299/3/5 294/3/5 298/3/5
f 300/3/5 296/3/5 295/3/5
f 301/3/5 299/3/5 298/3/5
f 301/3/5 300/3/5 299/3/5
f 301/3/5 298/3/5 297/3/5
f 302/3/5 300/3/5 301/3/5
f 303/3/5 300/3/5 302/3/5
f 304/3/5 300/3/5 303/3/5
f 305/3/5 301/3/5 297/3/5
f 305/5/5 302/5/5 301/5/5
f 306/3/5 303/3/5 302/3/5
f 306/5/5 302/5/5 305/5/5
f 307/5/5 304/5/5 303/5/5
f 307/3/5 303/3/5 306/3/5
f 308/3/5 300/3/5 304/3/5
f 308/5/5 304/5/5 307/5/5
f 309/3/5 307/3/5 306/3/5
f 309/3/5 306/3/5 305/3/5
f 309/3/5 308/3/5 307/3/5
f 309/3/5 305/3/5 297/3/5
f 310/3/5 308/3/5 309/3/5
f 311/5/5 310/5/5 309/5/5
f 311/3/5 308/3/5 310/3/5
f 312/3/5 308/3/5 311/3/5
f 313/3/5 308/3/5 312/3/5
f 314/3/5 308/3/5 313/3/5
f 315/5/5 311/5/5 309/5/5
f 315/5/5 312/5/5 311/5/5
f 316/3/5 313/3/5 312/3/5
f 316/5/5 312/5/5 315/5/5
f 317/5/5 314/5/5 313/5/5
f 317/3/5 313/3/5 316/3/5
f 318/3/5 308/3/5 314/3/5
f 318/5/5 314/5/5 317/5/5
f 319/3/5 317/3/5 316/3/5
f 319/3/5 316/3/5 315/3/5
f 319/3/5 318/3/5 317/3/5
f 320/3/5 318/3/5 319/3/5
f 321/3/5 300/3/5 308/3/5
f 321/3/5 318/3/5 320/3/5
f 321/3/5 308/3/5 318/3/5
f 322/3/5 296/3/5 300/3/5
f 322/3/5 300/3/5 321/3/5
f 324/3/5 321/3/5 320/3/5
f 325/3/5 321/3/5 324/3/5
f 326/3/5 296/3/5 322/3/5
f 327/3/5 296/3/5 326/3/5
f 328/3/5 325/3/5 324/3/5
f 328/3/5 324/3/5 323/3/5
f 328/3/5 326/3/5 325/3/5
f 329/3/5 326/3/5 328/3/5
f 332/3/5 331/3/5 330/3/5
f 333/3/5 331/3/5 332/3/5
f 336/3/5 335/3/5 334/3/5
f 337/3/5 335/3/5 336/3/5
f 338/3/6 339/3/6 340/3/6
f 338/3/6 340/3/6 346/3/6
f 340/5/6 341/5/6 346/5/6
f 341/3/6 342/3/6 347/3/6
f 346/5/6 341/5/6 347/5/6
f 342/3/6 343/3/6 347/3/6
f 347/3/6 343/3/6 348/3/6
f 343/5/6 344/5/6 349/5/6
f 348/3/6 343/3/6 349/3/6
f 344/3/6 345/3/6 350/3/6
f 349/5/6 344/5/6 350/5/6
f 350/3/6 345/3/6 351/3/6
f 338/3/6 346/3/6 352/3/6
f 338/3/6 352/3/6 353/3/6
f 353/3/6 352/3/6 354/3/6
f 353/5/6 354/5/6 355/5/6
f 353/5/6 355/5/6 356/5/6
f 353/5/6 356/5/6 357/5/6
f 353/5/6 357/5/6 358/5/6
f 353/5/6 358/5/6 363/5/6
f 358/5/6 359/5/6 363/5/6
f 363/5/6 359/5/6 364/5/6
f 359/3/6 360/3/6 365/3/6
f 364/5/6 359/5/6 365/5/6
f 360/5/6 361/5/6 366/5/6
f 365/3/6 360/3/6 366/3/6
f 361/3/6 362/3/6 367/3/6
f 366/5/6 361/5/6 367/5/6
f 367/3/6 362/3/6 368/3/6
f 363/3/6 364/3/6 369/3/6
f 369/3/6 364/3/6 370/3/6
f 371/1/6 372/1/6 373/1/6
f 373/1/6 372/1/6 374/1/6
f 371/1/6 373/1/6 375/1/6
f 373/5/6 374/5/6 376/5/6
f 375/1/6 373/1/6 376/1/6
f 374/1/6 372/1/6 377/1/6
f 376/5/6 374/5/6 377/5/6
f 377/1/6 372/1/6 378/1/6
f 379/5/6 380/5/6 384/5/6
f 380/1/6 381/1/6 384/1/6
f 381/5/6 382/5/6 385/5/6
f 384/1/6 381/1/6 385/1/6
f 382/1/6 383/1/6 386/1/6
f 385/5/6 382/5/6 386/5/6
f 386/1/6 383/1/6 387/1/6
f 384/5/6 385/5/6 388/5/6
f 379/5/6 384/5/6 388/5/6
f 386/5/6 387/5/6 388/5/6
f 385/5/6 386/5/6 388/5/6
f 388/5/6 387/5/6 389/5/6
f 387/1/6 383/1/6 390/1/6
f 389/5/6 387/5/6 390/5/6
f 390/1/6 383/1/6 391/1/6
f 388/6/6 389/6/6 392/6/6
f 389/5/6 390/5/6 393/5/6
f 392/6/6 389/6/6 393/6/6
f 390/5/6 391/5/6 393/5/6
f 379/5/6 388/5/6 394/5/6
f 388/6/6 392/6/6 394/6/6
f 394/6/6 392/6/6 395/6/6
f 393/5/6 391/5/6 396/5/6
f 392/5/6 393/5/6 396/5/6
f 396/5/6 391/5/6 397/5/6
f 395/6/6 392/6/6 398/6/6
f 394/5/6 395/5/6 398/5/6
f 392/5/6 396/5/6 399/5/6
f 398/6/6 392/6/6 399/6/6
f 379/5/6 394/5/6 400/5/6
f 394/5/6 398/5/6 400/5/6
f 398/5/6 399/5/6 400/5/6
f 396/1/6 397/1/6 401/1/6
f 400/5/6 399/5/6 401/5/6
f 399/5/6 396/5/6 401/5/6
f 401/1/6 397/1/6 402/1/6
f 403/1/6 404/1/6 405/1/6
f 405/1/6 404/1/6 406/1/6
f 407/3/6 408/3/6 409/3/6
f 409/3/6 408/3/6 410/3/6
f 411/3/6 412/3/6 413/3/6
f 413/3/6 412/3/6 414/3/6
f 415/3/6 416/3/6 417/3/6
f 417/3/6 416/3/6 418/3/6
f 418/3/6 416/3/6 419/3/6
f 420/3/6 421/3/6 423/3/6
f 421/3/6 422/3/6 423/3/6
f 423/3/6 422/3/6 424/3/6
f 425/3/6 426/3/6 427/3/6
f 427/3/6 426/3/6 428/3/6
f 428/3/6 426/3/6 429/3/6
f 429/3/6 426/3/6 430/3/6
f 430/3/6 426/3/6 431/3/6
f 431/3/6 426/3/6 432/3/6
f 432/3/6 426/3/6 434/3/6
f 433/3/6 434/3/6 435/3/6
f 434/3/6 426/3/6 436/3/6
f 435/3/6 434/3/6 436/3/6
f 437/1/6 438/1/6 439/1/6
f 439/1/6 438/1/6 440/1/6
f 441/1/6 442/1/6 443/1/6
f 443/1/6 442/1/6 444/1/6
f 445/1/6 446/1/6 447/1/6
f 447/1/6 446/1/6 448/1/6
