# MagicaVoxel @ Ephtracy

# group
o 

# material
mtllib Cannapé(Battle-Scarred).mtl
usemtl palette

# normals
vn -1 0 0
vn 1 0 0
vn 0 0 1
vn 0 0 -1
vn 0 -1 0
vn 0 1 0

# texcoords
vt 0.369141 0.5
vt 0.396484 0.5
vt 0.423828 0.5
vt 0.537109 0.5
vt 0.869141 0.5
vt 0.873047 0.5
vt 0.994141 0.5

# verts
v 0 0 -0.1
v 0 0 -0.4
v 0 0 -1.6
v 0 0 -1.9
v 0 0.1 0
v 0 0.1 -0.1
v 0 0.1 -0.4
v 0 0.1 -0.5
v 0 0.1 -1
v 0 0.1 -1.6
v 0 0.1 -1.9
v 0 0.2 -0.1
v 0 0.2 -0.5
v 0 0.2 -1
v 0 0.2 -1.9
v 0 0.5 0
v 0 0.5 -0.1
v 0.1 0.1 -0.5
v 0.1 0.1 -0.7
v 0.1 0.1 -1.9
v 0.1 0.1 -2
v 0.1 0.2 -0.1
v 0.1 0.2 -0.5
v 0.1 0.2 -0.6
v 0.1 0.2 -0.7
v 0.1 0.2 -1
v 0.1 0.2 -1.3
v 0.1 0.2 -1.4
v 0.1 0.2 -1.9
v 0.1 0.3 -1
v 0.1 0.3 -1.2
v 0.1 0.3 -1.5
v 0.1 0.3 -1.9
v 0.1 0.3 -2
v 0.1 0.4 -0.1
v 0.1 0.4 -0.6
v 0.1 0.4 -1.2
v 0.1 0.4 -1.3
v 0.1 0.4 -1.4
v 0.1 0.4 -1.5
v 0.1 0.5 0
v 0.1 0.5 -0.1
v 0.1 0.6 0
v 0.1 0.6 -0.1
v 0.2 0.1 -0.8
v 0.2 0.1 -1
v 0.2 0.2 -0.8
v 0.2 0.2 -1
v 0.2 0.3 -1.1
v 0.2 0.3 -1.2
v 0.2 0.3 -1.5
v 0.2 0.3 -1.6
v 0.2 0.4 -1.1
v 0.2 0.4 -1.2
v 0.2 0.4 -1.5
v 0.2 0.4 -1.6
v 0.3 0.1 -0.6
v 0.3 0.1 -0.8
v 0.3 0.2 -0.6
v 0.3 0.2 -0.7
v 0.3 0.2 -0.8
v 0.3 0.2 -1
v 0.3 0.3 -0.8
v 0.3 0.3 -1
v 0.3 0.3 -1.9
v 0.3 0.3 -2
v 0.3 0.4 -0.7
v 0.3 0.4 -0.8
v 0.3 0.4 -1.9
v 0.3 0.4 -2
v 0.4 0.3 -0.8
v 0.4 0.3 -1.1
v 0.4 0.3 -1.5
v 0.4 0.3 -1.6
v 0.4 0.4 -0.8
v 0.4 0.4 -1.1
v 0.4 0.4 -1.5
v 0.4 0.4 -1.6
v 0.5 0.3 -1.6
v 0.5 0.3 -1.7
v 0.5 0.4 -1.6
v 0.5 0.4 -1.7
v 0.5 0.4 -1.9
v 0.5 0.4 -2
v 0.5 0.5 -1.9
v 0.5 0.5 -2
v 0.6 0.3 -1.7
v 0.6 0.3 -1.9
v 0.6 0.4 -1.7
v 0.6 0.4 -1.9
v 0.6 0.5 -1.9
v 0.6 0.5 -2
v 0.6 0.6 -1.9
v 0.6 0.6 -2
v 0.7 0 -0.1
v 0.7 0 -0.4
v 0.7 0 -1.6
v 0.7 0 -1.9
v 0.7 0.1 -0.1
v 0.7 0.1 -0.4
v 0.7 0.1 -1.6
v 0.7 0.1 -1.9
v 0.7 0.4 -0.1
v 0.7 0.4 -0.2
v 0.7 0.4 -0.6
v 0.7 0.4 -0.7
v 0.7 0.4 -1.3
v 0.7 0.4 -1.4
v 0.7 0.4 -1.9
v 0.7 0.5 -0.1
v 0.7 0.6 -0.1
v 0.7 0.6 -1.9
v 0.7 0.9 -0.1
v 0.7 0.9 -0.6
v 0.7 0.9 -0.7
v 0.7 0.9 -1.3
v 0.7 0.9 -1.4
v 0.7 0.9 -1.9
v 0.8 0.6 0
v 0.8 0.6 -0.1
v 0.8 0.6 -1.9
v 0.8 0.6 -2
v 0.8 0.8 0
v 0.8 0.8 -0.1
v 0.8 0.8 -1.9
v 0.8 0.8 -2
v 0.9 0.2 -0.6
v 0.9 0.2 -0.7
v 0.9 0.2 -1.3
v 0.9 0.2 -1.4
v 0.9 0.8 -0.6
v 0.9 0.8 -0.7
v 0.9 0.8 -1.3
v 0.9 0.8 -1.4
v 0.2 0 -0.1
v 0.2 0 -0.4
v 0.2 0 -1.6
v 0.2 0 -1.9
v 0.2 0.1 -0.1
v 0.2 0.1 -0.4
v 0.2 0.1 -0.6
v 0.2 0.1 -0.7
v 0.2 0.1 -1.6
v 0.2 0.1 -1.9
v 0.2 0.2 -0.6
v 0.2 0.2 -0.7
v 0.3 0.3 -1.5
v 0.3 0.3 -1.6
v 0.3 0.4 -1.5
v 0.3 0.4 -1.6
v 0.9 0 -0.1
v 0.9 0 -0.4
v 0.9 0 -1.6
v 0.9 0 -1.9
v 0.9 0.1 0
v 0.9 0.1 -0.1
v 0.9 0.1 -0.4
v 0.9 0.1 -1.6
v 0.9 0.1 -1.9
v 0.9 0.1 -2
v 0.9 0.3 0
v 0.9 0.3 -0.1
v 0.9 0.3 -1.9
v 0.9 0.3 -2
v 0.9 0.8 -0.1
v 0.9 0.8 -0.6
v 0.9 0.8 -0.7
v 0.9 0.8 -1.3
v 0.9 0.8 -1.4
v 0.9 0.8 -1.9
v 0.9 0.9 -0.1
v 0.9 0.9 -0.6
v 0.9 0.9 -0.7
v 0.9 0.9 -1.3
v 0.9 0.9 -1.4
v 0.9 0.9 -1.9
v 1 0.1 -0.1
v 1 0.1 -1.9
v 1 0.3 0
v 1 0.3 -0.1
v 1 0.3 -1.9
v 1 0.3 -2
v 1 0.8 0
v 1 0.8 -2
v 0 0.1 0
v 0 0.5 0
v 0.1 0.5 0
v 0.1 0.6 0
v 0.3 0.1 0
v 0.3 0.6 0
v 0.4 0.1 0
v 0.4 0.4 0
v 0.5 0.3 0
v 0.5 0.4 0
v 0.6 0.3 0
v 0.6 0.4 0
v 0.6 0.5 0
v 0.6 0.6 0
v 0.7 0.4 0
v 0.7 0.5 0
v 0.8 0.6 0
v 0.8 0.8 0
v 0.9 0.1 0
v 0.9 0.3 0
v 1 0.3 0
v 1 0.8 0
v 0 0 -0.1
v 0 0.1 -0.1
v 0.2 0 -0.1
v 0.2 0.1 -0.1
v 0.7 0 -0.1
v 0.7 0.1 -0.1
v 0.7 0.6 -0.1
v 0.7 0.9 -0.1
v 0.8 0.6 -0.1
v 0.8 0.8 -0.1
v 0.9 0 -0.1
v 0.9 0.1 -0.1
v 0.9 0.3 -0.1
v 0.9 0.8 -0.1
v 0.9 0.9 -0.1
v 1 0.1 -0.1
v 1 0.3 -0.1
v 0.3 0.2 -0.7
v 0.3 0.4 -0.7
v 0.7 0.4 -0.7
v 0.7 0.9 -0.7
v 0.9 0.2 -0.7
v 0.9 0.8 -0.7
v 0.9 0.9 -0.7
v 0.2 0.1 -0.8
v 0.2 0.2 -0.8
v 0.3 0.1 -0.8
v 0.3 0.2 -0.8
v 0 0.1 -1
v 0 0.2 -1
v 0.1 0.2 -1
v 0.1 0.3 -1
v 0.2 0.1 -1
v 0.2 0.2 -1
v 0.3 0.2 -1
v 0.3 0.3 -1
v 0.2 0.3 -1.1
v 0.2 0.4 -1.1
v 0.4 0.3 -1.1
v 0.4 0.4 -1.1
v 0.1 0.3 -1.2
v 0.1 0.4 -1.2
v 0.2 0.3 -1.2
v 0.2 0.4 -1.2
v 0.1 0.2 -1.4
v 0.1 0.4 -1.4
v 0.7 0.4 -1.4
v 0.7 0.9 -1.4
v 0.9 0.2 -1.4
v 0.9 0.8 -1.4
v 0.9 0.9 -1.4
v 0 0 -1.6
v 0 0.1 -1.6
v 0.2 0 -1.6
v 0.2 0.1 -1.6
v 0.7 0 -1.6
v 0.7 0.1 -1.6
v 0.9 0 -1.6
v 0.9 0.1 -1.6
v 0.3 0.3 -1.9
v 0.3 0.4 -1.9
v 0.5 0.4 -1.9
v 0.5 0.5 -1.9
v 0.6 0.3 -1.9
v 0.6 0.4 -1.9
v 0.6 0.5 -1.9
v 0.6 0.6 -1.9
v 0.7 0.4 -1.9
v 0.7 0.6 -1.9
v 0 0.2 -0.1
v 0 0.5 -0.1
v 0.1 0.2 -0.1
v 0.1 0.4 -0.1
v 0.1 0.5 -0.1
v 0.1 0.6 -0.1
v 0.3 0.4 -0.1
v 0.3 0.6 -0.1
v 0.5 0.4 -0.1
v 0.6 0.4 -0.1
v 0.6 0.5 -0.1
v 0.6 0.6 -0.1
v 0.7 0.4 -0.1
v 0.7 0.5 -0.1
v 0.7 0.6 -0.1
v 0 0 -0.4
v 0 0.1 -0.4
v 0.2 0 -0.4
v 0.2 0.1 -0.4
v 0.7 0 -0.4
v 0.7 0.1 -0.4
v 0.9 0 -0.4
v 0.9 0.1 -0.4
v 0 0.1 -0.5
v 0 0.2 -0.5
v 0.1 0.1 -0.5
v 0.1 0.2 -0.5
v 0.1 0.2 -0.6
v 0.1 0.4 -0.6
v 0.2 0.1 -0.6
v 0.2 0.2 -0.6
v 0.3 0.1 -0.6
v 0.3 0.2 -0.6
v 0.7 0.4 -0.6
v 0.7 0.9 -0.6
v 0.9 0.2 -0.6
v 0.9 0.8 -0.6
v 0.9 0.9 -0.6
v 0.1 0.1 -0.7
v 0.1 0.2 -0.7
v 0.2 0.1 -0.7
v 0.2 0.2 -0.7
v 0.3 0.3 -0.8
v 0.3 0.4 -0.8
v 0.4 0.3 -0.8
v 0.4 0.4 -0.8
v 0.1 0.2 -1.3
v 0.1 0.4 -1.3
v 0.7 0.4 -1.3
v 0.7 0.9 -1.3
v 0.9 0.2 -1.3
v 0.9 0.8 -1.3
v 0.9 0.9 -1.3
v 0.1 0.3 -1.5
v 0.1 0.4 -1.5
v 0.2 0.3 -1.5
v 0.2 0.4 -1.5
v 0.3 0.3 -1.5
v 0.3 0.4 -1.5
v 0.4 0.3 -1.5
v 0.4 0.4 -1.5
v 0.2 0.3 -1.6
v 0.2 0.4 -1.6
v 0.3 0.3 -1.6
v 0.3 0.4 -1.6
v 0.4 0.3 -1.6
v 0.4 0.4 -1.6
v 0.5 0.3 -1.6
v 0.5 0.4 -1.6
v 0.5 0.3 -1.7
v 0.5 0.4 -1.7
v 0.6 0.3 -1.7
v 0.6 0.4 -1.7
v 0 0 -1.9
v 0 0.1 -1.9
v 0 0.2 -1.9
v 0.1 0.1 -1.9
v 0.1 0.2 -1.9
v 0.2 0 -1.9
v 0.2 0.1 -1.9
v 0.7 0 -1.9
v 0.7 0.1 -1.9
v 0.7 0.6 -1.9
v 0.7 0.9 -1.9
v 0.8 0.6 -1.9
v 0.8 0.8 -1.9
v 0.9 0 -1.9
v 0.9 0.1 -1.9
v 0.9 0.3 -1.9
v 0.9 0.8 -1.9
v 0.9 0.9 -1.9
v 1 0.1 -1.9
v 1 0.3 -1.9
v 0.1 0.1 -2
v 0.1 0.3 -2
v 0.3 0.3 -2
v 0.3 0.4 -2
v 0.5 0.4 -2
v 0.5 0.5 -2
v 0.6 0.5 -2
v 0.6 0.6 -2
v 0.8 0.6 -2
v 0.8 0.8 -2
v 0.9 0.1 -2
v 0.9 0.3 -2
v 1 0.3 -2
v 1 0.8 -2
v 0 0 -0.1
v 0.2 0 -0.1
v 0.7 0 -0.1
v 0.9 0 -0.1
v 0 0 -0.4
v 0.2 0 -0.4
v 0.7 0 -0.4
v 0.9 0 -0.4
v 0 0 -1.6
v 0.2 0 -1.6
v 0.7 0 -1.6
v 0.9 0 -1.6
v 0 0 -1.9
v 0.2 0 -1.9
v 0.7 0 -1.9
v 0.9 0 -1.9
v 0 0.1 0
v 0.3 0.1 0
v 0.4 0.1 0
v 0.9 0.1 0
v 0 0.1 -0.1
v 0.2 0.1 -0.1
v 0.3 0.1 -0.1
v 0.4 0.1 -0.1
v 0.7 0.1 -0.1
v 0.9 0.1 -0.1
v 1 0.1 -0.1
v 0 0.1 -0.4
v 0.2 0.1 -0.4
v 0.7 0.1 -0.4
v 0.9 0.1 -0.4
v 0 0.1 -0.5
v 0.1 0.1 -0.5
v 0.2 0.1 -0.6
v 0.3 0.1 -0.6
v 0.1 0.1 -0.7
v 0.2 0.1 -0.7
v 0.2 0.1 -0.8
v 0.3 0.1 -0.8
v 0 0.1 -1
v 0.2 0.1 -1
v 0 0.1 -1.6
v 0.2 0.1 -1.6
v 0.7 0.1 -1.6
v 0.9 0.1 -1.6
v 0.1 0.1 -1.9
v 0.2 0.1 -1.9
v 0.7 0.1 -1.9
v 0.9 0.1 -1.9
v 1 0.1 -1.9
v 0.1 0.1 -2
v 0.9 0.1 -2
v 0.9 0.3 0
v 1 0.3 0
v 0.9 0.3 -0.1
v 1 0.3 -0.1
v 0.9 0.3 -1.9
v 1 0.3 -1.9
v 0.9 0.3 -2
v 1 0.3 -2
v 0 0.2 -0.1
v 0.1 0.2 -0.1
v 0 0.2 -0.5
v 0.1 0.2 -0.5
v 0.1 0.2 -0.6
v 0.2 0.2 -0.6
v 0.3 0.2 -0.6
v 0.9 0.2 -0.6
v 0.1 0.2 -0.7
v 0.2 0.2 -0.7
v 0.3 0.2 -0.7
v 0.9 0.2 -0.7
v 0.2 0.2 -0.8
v 0.3 0.2 -0.8
v 0 0.2 -1
v 0.1 0.2 -1
v 0.2 0.2 -1
v 0.3 0.2 -1
v 0.1 0.2 -1.3
v 0.9 0.2 -1.3
v 0.1 0.2 -1.4
v 0.9 0.2 -1.4
v 0 0.2 -1.9
v 0.1 0.2 -1.9
v 0.3 0.3 -0.8
v 0.4 0.3 -0.8
v 0.1 0.3 -1
v 0.3 0.3 -1
v 0.2 0.3 -1.1
v 0.4 0.3 -1.1
v 0.1 0.3 -1.2
v 0.2 0.3 -1.2
v 0.1 0.3 -1.5
v 0.2 0.3 -1.5
v 0.3 0.3 -1.5
v 0.4 0.3 -1.5
v 0.2 0.3 -1.6
v 0.3 0.3 -1.6
v 0.4 0.3 -1.6
v 0.5 0.3 -1.6
v 0.5 0.3 -1.7
v 0.6 0.3 -1.7
v 0.1 0.3 -1.9
v 0.3 0.3 -1.9
v 0.6 0.3 -1.9
v 0.1 0.3 -2
v 0.3 0.3 -2
v 0.1 0.4 -0.1
v 0.3 0.4 -0.1
v 0.5 0.4 -0.1
v 0.6 0.4 -0.1
v 0.7 0.4 -0.1
v 0.2 0.4 -0.2
v 0.3 0.4 -0.2
v 0.4 0.4 -0.2
v 0.5 0.4 -0.2
v 0.6 0.4 -0.2
v 0.7 0.4 -0.2
v 0.2 0.4 -0.3
v 0.3 0.4 -0.3
v 0.4 0.4 -0.3
v 0.6 0.4 -0.3
v 0.1 0.4 -0.6
v 0.7 0.4 -0.6
v 0.3 0.4 -0.7
v 0.7 0.4 -0.7
v 0.3 0.4 -0.8
v 0.4 0.4 -0.8
v 0.2 0.4 -1.1
v 0.4 0.4 -1.1
v 0.1 0.4 -1.2
v 0.2 0.4 -1.2
v 0.1 0.4 -1.3
v 0.7 0.4 -1.3
v 0.1 0.4 -1.4
v 0.7 0.4 -1.4
v 0.1 0.4 -1.5
v 0.2 0.4 -1.5
v 0.3 0.4 -1.5
v 0.4 0.4 -1.5
v 0.2 0.4 -1.6
v 0.3 0.4 -1.6
v 0.4 0.4 -1.6
v 0.5 0.4 -1.6
v 0.5 0.4 -1.7
v 0.6 0.4 -1.7
v 0.3 0.4 -1.9
v 0.5 0.4 -1.9
v 0.6 0.4 -1.9
v 0.7 0.4 -1.9
v 0.3 0.4 -2
v 0.5 0.4 -2
v 0 0.5 0
v 0.1 0.5 0
v 0 0.5 -0.1
v 0.1 0.5 -0.1
v 0.5 0.5 -1.9
v 0.6 0.5 -1.9
v 0.5 0.5 -2
v 0.6 0.5 -2
v 0.1 0.6 0
v 0.3 0.6 0
v 0.6 0.6 0
v 0.8 0.6 0
v 0.1 0.6 -0.1
v 0.3 0.6 -0.1
v 0.6 0.6 -0.1
v 0.7 0.6 -0.1
v 0.8 0.6 -0.1
v 0.6 0.6 -1.9
v 0.7 0.6 -1.9
v 0.8 0.6 -1.9
v 0.6 0.6 -2
v 0.8 0.6 -2
v 0.8 0.8 0
v 1 0.8 0
v 0.8 0.8 -0.1
v 0.9 0.8 -0.1
v 0.9 0.8 -0.6
v 0.9 0.8 -0.7
v 0.9 0.8 -1.3
v 0.9 0.8 -1.4
v 0.8 0.8 -1.9
v 0.9 0.8 -1.9
v 0.8 0.8 -2
v 1 0.8 -2
v 0.7 0.9 -0.1
v 0.9 0.9 -0.1
v 0.7 0.9 -0.6
v 0.9 0.9 -0.6
v 0.7 0.9 -0.7
v 0.9 0.9 -0.7
v 0.7 0.9 -1.3
v 0.9 0.9 -1.3
v 0.7 0.9 -1.4
v 0.9 0.9 -1.4
v 0.7 0.9 -1.9
v 0.9 0.9 -1.9

# faces
f 6/2/1 2/2/1 1/2/1
f 7/2/1 2/2/1 6/2/1
f 10/2/1 4/2/1 3/2/1
f 11/2/1 4/2/1 10/2/1
f 12/3/1 8/3/1 7/3/1
f 12/3/1 6/3/1 5/3/1
f 12/3/1 7/3/1 6/3/1
f 13/3/1 8/3/1 12/3/1
f 14/3/1 11/3/1 10/3/1
f 14/3/1 10/3/1 9/3/1
f 15/3/1 11/3/1 14/3/1
f 16/3/1 12/3/1 5/3/1
f 17/3/1 12/3/1 16/3/1
f 23/3/1 19/3/1 18/3/1
f 24/3/1 19/3/1 23/3/1
f 25/3/1 19/3/1 24/3/1
f 29/3/1 21/3/1 20/3/1
f 30/1/1 27/1/1 26/1/1
f 31/1/1 27/1/1 30/1/1
f 32/1/1 29/1/1 28/1/1
f 33/3/1 21/3/1 29/3/1
f 33/1/1 29/1/1 32/1/1
f 34/3/1 21/3/1 33/3/1
f 35/1/1 23/1/1 22/1/1
f 35/1/1 24/1/1 23/1/1
f 36/1/1 24/1/1 35/1/1
f 37/1/1 27/1/1 31/1/1
f 38/1/1 27/1/1 37/1/1
f 39/1/1 32/1/1 28/1/1
f 40/1/1 32/1/1 39/1/1
f 43/3/1 42/3/1 41/3/1
f 44/3/1 42/3/1 43/3/1
f 47/3/1 46/3/1 45/3/1
f 48/3/1 46/3/1 47/3/1
f 53/1/1 50/1/1 49/1/1
f 54/1/1 50/1/1 53/1/1
f 55/1/1 52/1/1 51/1/1
f 56/1/1 52/1/1 55/1/1
f 59/3/1 58/3/1 57/3/1
f 60/3/1 58/3/1 59/3/1
f 61/3/1 58/3/1 60/3/1
f 63/1/1 62/1/1 61/1/1
f 63/1/1 61/1/1 60/1/1
f 64/1/1 62/1/1 63/1/1
f 67/1/1 63/1/1 60/1/1
f 68/1/1 63/1/1 67/1/1
f 69/3/1 66/3/1 65/3/1
f 70/3/1 66/3/1 69/3/1
f 75/1/1 72/1/1 71/1/1
f 76/1/1 72/1/1 75/1/1
f 77/1/1 74/1/1 73/1/1
f 78/1/1 74/1/1 77/1/1
f 81/1/1 80/1/1 79/1/1
f 82/1/1 80/1/1 81/1/1
f 85/3/1 84/3/1 83/3/1
f 86/3/1 84/3/1 85/3/1
f 89/1/1 88/1/1 87/1/1
f 90/1/1 88/1/1 89/1/1
f 93/3/1 92/3/1 91/3/1
f 94/3/1 92/3/1 93/3/1
f 99/2/1 96/2/1 95/2/1
f 100/2/1 96/2/1 99/2/1
f 101/2/1 98/2/1 97/2/1
f 102/2/1 98/2/1 101/2/1
f 110/1/1 104/1/1 103/1/1
f 110/1/1 105/1/1 104/1/1
f 111/1/1 105/1/1 110/1/1
f 112/1/1 109/1/1 108/1/1
f 113/1/1 105/1/1 111/1/1
f 114/1/1 105/1/1 113/1/1
f 115/1/1 107/1/1 106/1/1
f 116/1/1 107/1/1 115/1/1
f 117/1/1 112/1/1 108/1/1
f 118/1/1 112/1/1 117/1/1
f 123/3/1 120/3/1 119/3/1
f 124/3/1 120/3/1 123/3/1
f 125/3/1 122/3/1 121/3/1
f 126/3/1 122/3/1 125/3/1
f 131/3/1 128/3/1 127/3/1
f 132/3/1 128/3/1 131/3/1
f 133/3/1 130/3/1 129/3/1
f 134/3/1 130/3/1 133/3/1
f 135/2/2 136/2/2 139/2/2
f 139/2/2 136/2/2 140/2/2
f 137/2/2 138/2/2 143/2/2
f 143/2/2 138/2/2 144/2/2
f 141/3/2 142/3/2 145/3/2
f 145/3/2 142/3/2 146/3/2
f 147/1/2 148/1/2 149/1/2
f 149/1/2 148/1/2 150/1/2
f 151/2/2 152/2/2 156/2/2
f 156/2/2 152/2/2 157/2/2
f 153/2/2 154/2/2 158/2/2
f 158/2/2 154/2/2 159/2/2
f 155/3/2 156/3/2 161/3/2
f 161/3/2 156/3/2 162/3/2
f 159/3/2 160/3/2 163/3/2
f 163/3/2 160/3/2 164/3/2
f 165/1/2 166/1/2 171/1/2
f 171/1/2 166/1/2 172/1/2
f 167/1/2 168/1/2 173/1/2
f 173/1/2 168/1/2 174/1/2
f 169/1/2 170/1/2 175/1/2
f 175/1/2 170/1/2 176/1/2
f 177/3/2 178/3/2 180/3/2
f 180/3/2 178/3/2 181/3/2
f 179/3/2 180/3/2 183/3/2
f 181/3/2 182/3/2 183/3/2
f 180/3/2 181/3/2 183/3/2
f 183/3/2 182/3/2 184/3/2
f 187/3/3 186/3/3 185/3/3
f 189/3/3 187/3/3 185/3/3
f 189/3/3 188/3/3 187/3/3
f 190/3/3 188/3/3 189/3/3
f 191/5/3 190/5/3 189/5/3
f 192/5/3 190/5/3 191/5/3
f 193/3/3 192/3/3 191/3/3
f 194/5/3 190/5/3 192/5/3
f 194/3/3 192/3/3 193/3/3
f 195/3/3 193/3/3 191/3/3
f 195/5/3 194/5/3 193/5/3
f 196/5/3 190/5/3 194/5/3
f 196/5/3 194/5/3 195/5/3
f 197/5/3 190/5/3 196/5/3
f 198/5/3 190/5/3 197/5/3
f 199/3/3 196/3/3 195/3/3
f 199/5/3 197/5/3 196/5/3
f 200/3/3 198/3/3 197/3/3
f 200/5/3 197/5/3 199/5/3
f 201/3/3 200/3/3 199/3/3
f 201/3/3 198/3/3 200/3/3
f 203/3/3 201/3/3 199/3/3
f 203/3/3 202/3/3 201/3/3
f 203/3/3 199/3/3 195/3/3
f 203/3/3 195/3/3 191/3/3
f 204/3/3 202/3/3 203/3/3
f 205/3/3 202/3/3 204/3/3
f 206/3/3 202/3/3 205/3/3
f 209/2/3 208/2/3 207/2/3
f 210/2/3 208/2/3 209/2/3
f 215/1/3 214/1/3 213/1/3
f 216/1/3 214/1/3 215/1/3
f 217/2/3 212/2/3 211/2/3
f 218/2/3 212/2/3 217/2/3
f 220/1/3 214/1/3 216/1/3
f 221/1/3 214/1/3 220/1/3
f 222/3/3 219/3/3 218/3/3
f 223/3/3 219/3/3 222/3/3
f 226/1/3 225/1/3 224/1/3
f 228/1/3 226/1/3 224/1/3
f 228/1/3 227/1/3 226/1/3
f 229/1/3 227/1/3 228/1/3
f 230/1/3 227/1/3 229/1/3
f 233/3/3 232/3/3 231/3/3
f 234/3/3 232/3/3 233/3/3
f 237/3/3 236/3/3 235/3/3
f 239/3/3 237/3/3 235/3/3
f 240/1/3 238/1/3 237/1/3
f 240/3/3 237/3/3 239/3/3
f 241/1/3 238/1/3 240/1/3
f 242/1/3 238/1/3 241/1/3
f 245/1/3 244/1/3 243/1/3
f 246/1/3 244/1/3 245/1/3
f 249/1/3 248/1/3 247/1/3
f 250/1/3 248/1/3 249/1/3
f 253/1/3 252/1/3 251/1/3
f 255/1/3 253/1/3 251/1/3
f 255/1/3 254/1/3 253/1/3
f 256/1/3 254/1/3 255/1/3
f 257/1/3 254/1/3 256/1/3
f 260/2/3 259/2/3 258/2/3
f 261/2/3 259/2/3 260/2/3
f 264/2/3 263/2/3 262/2/3
f 265/2/3 263/2/3 264/2/3
f 268/3/3 267/3/3 266/3/3
f 270/3/3 268/3/3 266/3/3
f 270/3/3 269/3/3 268/3/3
f 271/3/3 269/3/3 270/3/3
f 272/3/3 269/3/3 271/3/3
f 274/3/3 273/3/3 272/3/3
f 274/3/3 272/3/3 271/3/3
f 275/3/3 273/3/3 274/3/3
f 276/3/4 277/3/4 278/3/4
f 278/3/4 277/3/4 279/3/4
f 279/3/4 277/3/4 280/3/4
f 280/3/4 281/3/4 282/3/4
f 279/3/4 280/3/4 282/3/4
f 282/3/4 281/3/4 283/3/4
f 282/5/4 283/5/4 284/5/4
f 284/5/4 283/5/4 285/5/4
f 285/5/4 283/5/4 286/5/4
f 286/5/4 283/5/4 287/5/4
f 285/5/4 286/5/4 288/5/4
f 286/3/4 287/3/4 289/3/4
f 288/5/4 286/5/4 289/5/4
f 289/3/4 287/3/4 290/3/4
f 291/2/4 292/2/4 293/2/4
f 293/2/4 292/2/4 294/2/4
f 295/2/4 296/2/4 297/2/4
f 297/2/4 296/2/4 298/2/4
f 299/3/4 300/3/4 301/3/4
f 301/3/4 300/3/4 302/3/4
f 303/1/4 304/1/4 306/1/4
f 305/3/4 306/3/4 307/3/4
f 306/1/4 304/1/4 308/1/4
f 307/3/4 306/3/4 308/3/4
f 308/1/4 304/1/4 309/1/4
f 308/1/4 309/1/4 311/1/4
f 309/1/4 310/1/4 311/1/4
f 311/1/4 310/1/4 312/1/4
f 312/1/4 310/1/4 313/1/4
f 314/3/4 315/3/4 316/3/4
f 316/3/4 315/3/4 317/3/4
f 318/1/4 319/1/4 320/1/4
f 320/1/4 319/1/4 321/1/4
f 322/1/4 323/1/4 324/1/4
f 322/1/4 324/1/4 326/1/4
f 324/1/4 325/1/4 326/1/4
f 326/1/4 325/1/4 327/1/4
f 327/1/4 325/1/4 328/1/4
f 329/1/4 330/1/4 331/1/4
f 331/1/4 330/1/4 332/1/4
f 333/1/4 334/1/4 335/1/4
f 335/1/4 334/1/4 336/1/4
f 337/1/4 338/1/4 339/1/4
f 339/1/4 338/1/4 340/1/4
f 341/1/4 342/1/4 343/1/4
f 343/1/4 342/1/4 344/1/4
f 345/1/4 346/1/4 347/1/4
f 347/1/4 346/1/4 348/1/4
f 349/2/4 350/2/4 352/2/4
f 350/3/4 351/3/4 352/3/4
f 352/3/4 351/3/4 353/3/4
f 349/2/4 352/2/4 354/2/4
f 354/2/4 352/2/4 355/2/4
f 358/1/4 359/1/4 360/1/4
f 360/1/4 359/1/4 361/1/4
f 356/2/4 357/2/4 362/2/4
f 362/2/4 357/2/4 363/2/4
f 361/1/4 359/1/4 365/1/4
f 365/1/4 359/1/4 366/1/4
f 363/3/4 364/3/4 367/3/4
f 367/3/4 364/3/4 368/3/4
f 369/3/4 370/3/4 371/3/4
f 371/3/4 372/3/4 373/3/4
f 373/3/4 374/3/4 375/3/4
f 375/3/4 376/3/4 377/3/4
f 369/3/4 371/3/4 379/3/4
f 377/3/4 378/3/4 379/3/4
f 375/3/4 377/3/4 379/3/4
f 373/3/4 375/3/4 379/3/4
f 371/3/4 373/3/4 379/3/4
f 379/3/4 378/3/4 380/3/4
f 380/3/4 378/3/4 381/3/4
f 381/3/4 378/3/4 382/3/4
f 387/2/5 384/2/5 383/2/5
f 388/2/5 384/2/5 387/2/5
f 389/2/5 386/2/5 385/2/5
f 390/2/5 386/2/5 389/2/5
f 395/2/5 392/2/5 391/2/5
f 396/2/5 392/2/5 395/2/5
f 397/2/5 394/2/5 393/2/5
f 398/2/5 394/2/5 397/2/5
f 403/3/5 400/3/5 399/3/5
f 404/3/5 400/3/5 403/3/5
f 405/5/5 401/5/5 400/5/5
f 405/3/5 400/3/5 404/3/5
f 406/3/5 402/3/5 401/3/5
f 406/5/5 401/5/5 405/5/5
f 407/3/5 402/3/5 406/3/5
f 408/3/5 402/3/5 407/3/5
f 411/3/5 405/3/5 404/3/5
f 411/3/5 407/3/5 406/3/5
f 411/3/5 406/3/5 405/3/5
f 412/3/5 407/3/5 411/3/5
f 413/3/5 409/3/5 408/3/5
f 414/3/5 412/3/5 411/3/5
f 414/3/5 413/3/5 412/3/5
f 414/3/5 411/3/5 410/3/5
f 415/3/5 413/3/5 414/3/5
f 416/3/5 413/3/5 415/3/5
f 417/3/5 413/3/5 416/3/5
f 418/3/5 416/3/5 415/3/5
f 419/3/5 416/3/5 418/3/5
f 421/3/5 413/3/5 417/3/5
f 423/3/5 421/3/5 420/3/5
f 424/3/5 423/3/5 422/3/5
f 425/3/5 421/3/5 423/3/5
f 425/3/5 423/3/5 424/3/5
f 426/3/5 413/3/5 421/3/5
f 426/3/5 421/3/5 425/3/5
f 427/3/5 409/3/5 413/3/5
f 427/3/5 413/3/5 426/3/5
f 429/3/5 426/3/5 425/3/5
f 430/3/5 426/3/5 429/3/5
f 431/3/5 409/3/5 427/3/5
f 432/3/5 409/3/5 431/3/5
f 433/3/5 430/3/5 429/3/5
f 433/3/5 429/3/5 428/3/5
f 433/3/5 431/3/5 430/3/5
f 434/3/5 431/3/5 433/3/5
f 437/3/5 436/3/5 435/3/5
f 438/3/5 436/3/5 437/3/5
f 441/3/5 440/3/5 439/3/5
f 442/3/5 440/3/5 441/3/5
f 443/3/6 444/3/6 445/3/6
f 445/3/6 444/3/6 446/3/6
f 447/3/6 448/3/6 451/3/6
f 451/3/6 448/3/6 452/3/6
f 449/3/6 450/3/6 453/3/6
f 453/3/6 450/3/6 454/3/6
f 455/3/6 456/3/6 459/3/6
f 459/3/6 456/3/6 460/3/6
f 457/3/6 458/3/6 461/3/6
f 457/3/6 461/3/6 463/3/6
f 461/3/6 462/3/6 463/3/6
f 463/3/6 462/3/6 464/3/6
f 457/3/6 463/3/6 465/3/6
f 465/3/6 463/3/6 466/3/6
f 467/1/6 468/1/6 470/1/6
f 469/1/6 470/1/6 471/1/6
f 470/1/6 468/1/6 472/1/6
f 471/1/6 470/1/6 472/1/6
f 469/1/6 471/1/6 473/1/6
f 473/1/6 471/1/6 474/1/6
f 475/1/6 476/1/6 479/1/6
f 477/1/6 478/1/6 480/1/6
f 480/1/6 478/1/6 481/1/6
f 480/1/6 481/1/6 483/1/6
f 481/1/6 482/1/6 483/1/6
f 479/1/6 480/1/6 483/1/6
f 475/1/6 479/1/6 485/1/6
f 483/1/6 484/1/6 485/1/6
f 479/1/6 483/1/6 485/1/6
f 485/1/6 484/1/6 486/1/6
f 486/1/6 484/1/6 487/1/6
f 485/3/6 486/3/6 488/3/6
f 488/3/6 486/3/6 489/3/6
f 490/1/6 491/1/6 495/1/6
f 491/5/6 492/5/6 496/5/6
f 495/1/6 491/1/6 496/1/6
f 496/5/6 492/5/6 497/5/6
f 492/6/6 493/6/6 498/6/6
f 497/5/6 492/5/6 498/5/6
f 493/5/6 494/5/6 499/5/6
f 498/6/6 493/6/6 499/6/6
f 499/5/6 494/5/6 500/5/6
f 490/1/6 495/1/6 501/1/6
f 495/5/6 496/5/6 501/5/6
f 496/1/6 497/1/6 502/1/6
f 501/5/6 496/5/6 502/5/6
f 497/5/6 498/5/6 503/5/6
f 502/1/6 497/1/6 503/1/6
f 498/5/6 499/5/6 503/5/6
f 499/1/6 500/1/6 504/1/6
f 503/5/6 499/5/6 504/5/6
f 501/1/6 502/1/6 505/1/6
f 490/1/6 501/1/6 505/1/6
f 503/1/6 504/1/6 505/1/6
f 502/1/6 503/1/6 505/1/6
f 504/1/6 500/1/6 506/1/6
f 505/1/6 504/1/6 506/1/6
f 507/1/6 508/1/6 509/1/6
f 509/1/6 508/1/6 510/1/6
f 510/1/6 508/1/6 512/1/6
f 511/1/6 512/1/6 514/1/6
f 513/1/6 514/1/6 515/1/6
f 512/1/6 508/1/6 516/1/6
f 515/1/6 514/1/6 516/1/6
f 514/1/6 512/1/6 516/1/6
f 517/1/6 518/1/6 519/1/6
f 519/1/6 518/1/6 520/1/6
f 520/1/6 518/1/6 521/1/6
f 521/1/6 518/1/6 522/1/6
f 520/1/6 521/1/6 523/1/6
f 523/1/6 521/1/6 524/1/6
f 522/1/6 518/1/6 525/1/6
f 525/1/6 518/1/6 526/1/6
f 526/1/6 518/1/6 527/1/6
f 527/1/6 518/1/6 528/1/6
f 528/1/6 518/1/6 531/1/6
f 531/1/6 518/1/6 532/1/6
f 529/3/6 530/3/6 533/3/6
f 533/3/6 530/3/6 534/3/6
f 535/3/6 536/3/6 537/3/6
f 537/3/6 536/3/6 538/3/6
f 539/3/6 540/3/6 541/3/6
f 541/3/6 540/3/6 542/3/6
f 543/3/6 544/3/6 547/3/6
f 544/5/6 545/5/6 548/5/6
f 547/3/6 544/3/6 548/3/6
f 545/3/6 546/3/6 549/3/6
f 548/5/6 545/5/6 549/5/6
f 549/3/6 546/3/6 550/3/6
f 550/3/6 546/3/6 551/3/6
f 552/3/6 553/3/6 555/3/6
f 553/3/6 554/3/6 555/3/6
f 555/3/6 554/3/6 556/3/6
f 557/3/6 558/3/6 559/3/6
f 559/3/6 558/3/6 560/3/6
f 560/3/6 558/3/6 561/3/6
f 561/3/6 558/3/6 562/3/6
f 562/3/6 558/3/6 563/3/6
f 563/3/6 558/3/6 564/3/6
f 564/3/6 558/3/6 566/3/6
f 565/3/6 566/3/6 567/3/6
f 566/3/6 558/3/6 568/3/6
f 567/3/6 566/3/6 568/3/6
f 569/1/6 570/1/6 571/1/6
f 571/1/6 570/1/6 572/1/6
f 573/1/6 574/1/6 575/1/6
f 575/1/6 574/1/6 576/1/6
f 577/1/6 578/1/6 579/1/6
f 579/1/6 578/1/6 580/1/6
