# MagicaVoxel @ Ephtracy

# group
o 

# material
mtllib frigo.mtl
usemtl palette

# normals
vn -1 0 0
vn 1 0 0
vn 0 0 1
vn 0 0 -1
vn 0 -1 0
vn 0 1 0

# texcoords
vt 0.978516 0.5
vt 0.982422 0.5
vt 0.986328 0.5
vt 0.994141 0.5

# verts
v -2 0 -1.1
v -2 0 -2
v -2 3.5 -1.1
v -2 3.5 -2
v -1.2 0.9 -1
v -1.2 0.9 -1.1
v -1.2 2.9 -1
v -1.2 2.9 -1.1
v -0.8 0.9 -1
v -0.8 0.9 -1.1
v -0.8 2.9 -1
v -0.8 2.9 -1.1
v -1.1 0.9 -1
v -1.1 0.9 -1.1
v -1.1 2.9 -1
v -1.1 2.9 -1.1
v -0.7 0.9 -1
v -0.7 0.9 -1.1
v -0.7 2.9 -1
v -0.7 2.9 -1.1
v 0.1 0 -1.1
v 0.1 0 -2
v 0.1 3.5 -1.1
v 0.1 3.5 -2
v -1.2 0.9 -1
v -1.2 2.9 -1
v -1.1 0.9 -1
v -1.1 2.9 -1
v -0.8 0.9 -1
v -0.8 2.9 -1
v -0.7 0.9 -1
v -0.7 2.9 -1
v -2 0 -1.1
v -2 3.5 -1.1
v -1.9 3.2 -1.1
v -1.9 3.3 -1.1
v -1.6 3.2 -1.1
v -1.6 3.3 -1.1
v -1.2 0.9 -1.1
v -1.2 2.9 -1.1
v -1.1 0.9 -1.1
v -1.1 2.9 -1.1
v -1 0 -1.1
v -1 3.5 -1.1
v -0.9 0 -1.1
v -0.9 3.5 -1.1
v -0.8 0.9 -1.1
v -0.8 2.9 -1.1
v -0.7 0.9 -1.1
v -0.7 2.9 -1.1
v 0.1 0 -1.1
v 0.1 3.5 -1.1
v -2 0 -2
v -2 3.5 -2
v 0.1 0 -2
v 0.1 3.5 -2
v -2 0 -1.1
v -1 0 -1.1
v -0.9 0 -1.1
v 0.1 0 -1.1
v -1.9 0 -1.2
v -1 0 -1.2
v -0.9 0 -1.2
v 2.38419e-07 0 -1.2
v -1.9 0 -1.9
v 2.38419e-07 0 -1.9
v -2 0 -2
v 0.1 0 -2
v -1.2 0.9 -1
v -1.1 0.9 -1
v -0.8 0.9 -1
v -0.7 0.9 -1
v -1.2 0.9 -1.1
v -1.1 0.9 -1.1
v -0.8 0.9 -1.1
v -0.7 0.9 -1.1
v -1.2 2.9 -1
v -1.1 2.9 -1
v -0.8 2.9 -1
v -0.7 2.9 -1
v -1.2 2.9 -1.1
v -1.1 2.9 -1.1
v -0.8 2.9 -1.1
v -0.7 2.9 -1.1
v -2 3.5 -1.1
v -1 3.5 -1.1
v -0.9 3.5 -1.1
v 0.1 3.5 -1.1
v -1.1 3.5 -1.4
v -1 3.5 -1.4
v -0.9 3.5 -1.4
v -0.8 3.5 -1.4
v -1.7 3.5 -1.5
v -1.1 3.5 -1.5
v -0.8 3.5 -1.5
v -0.2 3.5 -1.5
v -1.5 3.5 -1.7
v -0.4 3.5 -1.7
v -1.7 3.5 -1.8
v -1.5 3.5 -1.8
v -0.4 3.5 -1.8
v -0.2 3.5 -1.8
v -2 3.5 -2
v 0.1 3.5 -2

# faces
f 3/2/1 2/2/1 1/2/1
f 4/2/1 2/2/1 3/2/1
f 7/1/1 6/1/1 5/1/1
f 8/1/1 6/1/1 7/1/1
f 11/1/1 10/1/1 9/1/1
f 12/1/1 10/1/1 11/1/1
f 13/1/2 14/1/2 15/1/2
f 15/1/2 14/1/2 16/1/2
f 17/1/2 18/1/2 19/1/2
f 19/1/2 18/1/2 20/1/2
f 21/2/2 22/2/2 23/2/2
f 23/2/2 22/2/2 24/2/2
f 27/1/3 26/1/3 25/1/3
f 28/1/3 26/1/3 27/1/3
f 31/1/3 30/1/3 29/1/3
f 32/1/3 30/1/3 31/1/3
f 35/2/3 34/2/3 33/2/3
f 36/2/3 34/2/3 35/2/3
f 37/2/3 35/2/3 33/2/3
f 37/4/3 36/4/3 35/4/3
f 38/2/3 34/2/3 36/2/3
f 38/4/3 36/4/3 37/4/3
f 39/2/3 37/2/3 33/2/3
f 39/2/3 38/2/3 37/2/3
f 40/2/3 38/2/3 39/2/3
f 41/2/3 39/2/3 33/2/3
f 42/2/3 38/2/3 40/2/3
f 43/2/3 41/2/3 33/2/3
f 43/2/3 42/2/3 41/2/3
f 44/2/3 34/2/3 38/2/3
f 44/2/3 42/2/3 43/2/3
f 44/2/3 38/2/3 42/2/3
f 45/3/3 44/3/3 43/3/3
f 46/3/3 44/3/3 45/3/3
f 47/2/3 46/2/3 45/2/3
f 48/2/3 46/2/3 47/2/3
f 49/2/3 47/2/3 45/2/3
f 50/2/3 46/2/3 48/2/3
f 51/2/3 49/2/3 45/2/3
f 51/2/3 50/2/3 49/2/3
f 52/2/3 46/2/3 50/2/3
f 52/2/3 50/2/3 51/2/3
f 53/2/4 54/2/4 55/2/4
f 55/2/4 54/2/4 56/2/4
f 61/2/5 58/2/5 57/2/5
f 62/3/5 59/3/5 58/3/5
f 62/2/5 58/2/5 61/2/5
f 63/2/5 60/2/5 59/2/5
f 63/3/5 59/3/5 62/3/5
f 64/2/5 60/2/5 63/2/5
f 65/3/5 62/3/5 61/3/5
f 65/2/5 61/2/5 57/2/5
f 65/3/5 64/3/5 63/3/5
f 65/3/5 63/3/5 62/3/5
f 66/2/5 60/2/5 64/2/5
f 66/3/5 64/3/5 65/3/5
f 67/2/5 65/2/5 57/2/5
f 67/2/5 66/2/5 65/2/5
f 68/2/5 60/2/5 66/2/5
f 68/2/5 66/2/5 67/2/5
f 73/1/5 70/1/5 69/1/5
f 74/1/5 70/1/5 73/1/5
f 75/1/5 72/1/5 71/1/5
f 76/1/5 72/1/5 75/1/5
f 77/1/6 78/1/6 81/1/6
f 81/1/6 78/1/6 82/1/6
f 79/1/6 80/1/6 83/1/6
f 83/1/6 80/1/6 84/1/6
f 85/2/6 86/2/6 89/2/6
f 86/3/6 87/3/6 90/3/6
f 89/2/6 86/2/6 90/2/6
f 87/2/6 88/2/6 91/2/6
f 90/3/6 87/3/6 91/3/6
f 91/2/6 88/2/6 92/2/6
f 85/2/6 89/2/6 93/2/6
f 89/3/6 90/3/6 94/3/6
f 93/2/6 89/2/6 94/2/6
f 90/3/6 91/3/6 94/3/6
f 91/3/6 92/3/6 94/3/6
f 92/2/6 88/2/6 95/2/6
f 94/3/6 92/3/6 95/3/6
f 95/2/6 88/2/6 96/2/6
f 93/3/6 94/3/6 97/3/6
f 94/3/6 95/3/6 97/3/6
f 95/3/6 96/3/6 97/3/6
f 97/3/6 96/3/6 98/3/6
f 85/2/6 93/2/6 99/2/6
f 93/3/6 97/3/6 99/3/6
f 97/2/6 98/2/6 100/2/6
f 99/3/6 97/3/6 100/3/6
f 98/3/6 96/3/6 101/3/6
f 100/2/6 98/2/6 101/2/6
f 96/2/6 88/2/6 102/2/6
f 101/3/6 96/3/6 102/3/6
f 99/2/6 100/2/6 103/2/6
f 100/2/6 101/2/6 103/2/6
f 101/2/6 102/2/6 103/2/6
f 85/2/6 99/2/6 103/2/6
f 102/2/6 88/2/6 104/2/6
f 103/2/6 102/2/6 104/2/6
