# MagicaVoxel @ Ephtracy

# group
o 

# material
mtllib Lampe(2).mtl
usemtl palette

# normals
vn -1 0 0
vn 1 0 0
vn 0 0 1
vn 0 0 -1
vn 0 -1 0
vn 0 1 0

# texcoords
vt 0.208984 0.5
vt 0.958984 0.5
vt 0.974609 0.5

# verts
v 0 0.8 0.5
v 0 0.8 0.2
v 0 1.1 0.5
v 0 1.1 0.2
v 0.1 0.8 0.6
v 0.1 0.8 0.5
v 0.1 0.8 0.2
v 0.1 0.8 0.1
v 0.1 1.1 0.6
v 0.1 1.1 0.5
v 0.1 1.1 0.2
v 0.1 1.1 0.1
v 0.1 1.2 0.5
v 0.1 1.2 0.2
v 0.2 0 0.5
v 0.2 0 0.2
v 0.2 0.1 0.5
v 0.2 0.1 0.2
v 0.2 0.5 0.4
v 0.2 0.5 0.3
v 0.2 0.6 0.4
v 0.2 0.6 0.3
v 0.2 0.7 0.4
v 0.2 0.7 0.3
v 0.2 0.8 0.7
v 0.2 0.8 0.6
v 0.2 0.8 0.4
v 0.2 0.8 0.3
v 0.2 0.8 0.1
v 0.2 0.8 0
v 0.2 1.1 0.7
v 0.2 1.1 0.6
v 0.2 1.1 0.5
v 0.2 1.1 0.2
v 0.2 1.1 0.1
v 0.2 1.1 0
v 0.2 1.2 0.6
v 0.2 1.2 0.5
v 0.2 1.2 0.2
v 0.2 1.2 0.1
v 0.2 1.3 0.5
v 0.2 1.3 0.2
v 0.3 0.1 0.4
v 0.3 0.1 0.3
v 0.3 0.5 0.5
v 0.3 0.5 0.4
v 0.3 0.5 0.3
v 0.3 0.5 0.2
v 0.3 0.6 0.5
v 0.3 0.6 0.4
v 0.3 0.6 0.3
v 0.3 0.6 0.2
v 0.3 0.7 0.5
v 0.3 0.7 0.4
v 0.3 0.7 0.3
v 0.3 0.7 0.2
v 0.3 0.8 0.6
v 0.3 0.8 0.5
v 0.3 0.8 0.2
v 0.3 0.8 0.1
v 0.3 0.9 0.6
v 0.3 0.9 0.5
v 0.3 0.9 0.4
v 0.3 0.9 0.3
v 0.3 0.9 0.2
v 0.3 0.9 0.1
v 0.5 0.8 0.6
v 0.5 0.8 0.5
v 0.5 0.8 0.2
v 0.5 0.8 0.1
v 0.5 1.1 0.6
v 0.5 1.1 0.5
v 0.5 1.1 0.2
v 0.5 1.1 0.1
v 0.5 1.2 0.5
v 0.5 1.2 0.2
v 0.6 0.8 0.5
v 0.6 0.8 0.4
v 0.6 0.8 0.3
v 0.6 0.8 0.2
v 0.6 0.9 0.4
v 0.6 0.9 0.3
v 0.6 1.1 0.5
v 0.6 1.1 0.2
v 0.1 0.8 0.5
v 0.1 0.8 0.4
v 0.1 0.8 0.3
v 0.1 0.8 0.2
v 0.1 0.9 0.4
v 0.1 0.9 0.3
v 0.1 1.1 0.5
v 0.1 1.1 0.2
v 0.2 0.8 0.6
v 0.2 0.8 0.5
v 0.2 0.8 0.2
v 0.2 0.8 0.1
v 0.2 1.1 0.6
v 0.2 1.1 0.5
v 0.2 1.1 0.2
v 0.2 1.1 0.1
v 0.2 1.2 0.5
v 0.2 1.2 0.2
v 0.4 0.1 0.4
v 0.4 0.1 0.3
v 0.4 0.5 0.5
v 0.4 0.5 0.4
v 0.4 0.5 0.3
v 0.4 0.5 0.2
v 0.4 0.6 0.5
v 0.4 0.6 0.4
v 0.4 0.6 0.3
v 0.4 0.6 0.2
v 0.4 0.7 0.5
v 0.4 0.7 0.4
v 0.4 0.7 0.3
v 0.4 0.7 0.2
v 0.4 0.8 0.6
v 0.4 0.8 0.5
v 0.4 0.8 0.2
v 0.4 0.8 0.1
v 0.4 0.9 0.6
v 0.4 0.9 0.5
v 0.4 0.9 0.4
v 0.4 0.9 0.3
v 0.4 0.9 0.2
v 0.4 0.9 0.1
v 0.5 0 0.5
v 0.5 0 0.2
v 0.5 0.1 0.5
v 0.5 0.1 0.2
v 0.5 0.5 0.4
v 0.5 0.5 0.3
v 0.5 0.6 0.4
v 0.5 0.6 0.3
v 0.5 0.7 0.4
v 0.5 0.7 0.3
v 0.5 0.8 0.7
v 0.5 0.8 0.6
v 0.5 0.8 0.4
v 0.5 0.8 0.3
v 0.5 0.8 0.1
v 0.5 0.8 0
v 0.5 1.1 0.7
v 0.5 1.1 0.6
v 0.5 1.1 0.5
v 0.5 1.1 0.2
v 0.5 1.1 0.1
v 0.5 1.1 0
v 0.5 1.2 0.6
v 0.5 1.2 0.5
v 0.5 1.2 0.2
v 0.5 1.2 0.1
v 0.5 1.3 0.5
v 0.5 1.3 0.2
v 0.6 0.8 0.6
v 0.6 0.8 0.5
v 0.6 0.8 0.2
v 0.6 0.8 0.1
v 0.6 1.1 0.6
v 0.6 1.1 0.5
v 0.6 1.1 0.2
v 0.6 1.1 0.1
v 0.6 1.2 0.5
v 0.6 1.2 0.2
v 0.7 0.8 0.5
v 0.7 0.8 0.2
v 0.7 1.1 0.5
v 0.7 1.1 0.2
v 0.2 0.8 0.7
v 0.2 1.1 0.7
v 0.5 0.8 0.7
v 0.5 1.1 0.7
v 0.1 0.8 0.6
v 0.1 1.1 0.6
v 0.2 0.8 0.6
v 0.2 1.1 0.6
v 0.2 1.2 0.6
v 0.5 0.8 0.6
v 0.5 1.1 0.6
v 0.5 1.2 0.6
v 0.6 0.8 0.6
v 0.6 1.1 0.6
v 0 0.8 0.5
v 0 1.1 0.5
v 0.1 0.8 0.5
v 0.1 1.1 0.5
v 0.1 1.2 0.5
v 0.2 0 0.5
v 0.2 0.1 0.5
v 0.2 1.1 0.5
v 0.2 1.2 0.5
v 0.2 1.3 0.5
v 0.3 0.5 0.5
v 0.3 0.6 0.5
v 0.3 0.7 0.5
v 0.3 0.8 0.5
v 0.4 0.5 0.5
v 0.4 0.6 0.5
v 0.4 0.7 0.5
v 0.4 0.8 0.5
v 0.5 0 0.5
v 0.5 0.1 0.5
v 0.5 1.1 0.5
v 0.5 1.2 0.5
v 0.5 1.3 0.5
v 0.6 0.8 0.5
v 0.6 1.1 0.5
v 0.6 1.2 0.5
v 0.7 0.8 0.5
v 0.7 1.1 0.5
v 0.1 0.8 0.4
v 0.1 0.9 0.4
v 0.2 0.5 0.4
v 0.2 0.6 0.4
v 0.2 0.7 0.4
v 0.2 0.8 0.4
v 0.2 0.9 0.4
v 0.3 0.1 0.4
v 0.3 0.5 0.4
v 0.3 0.6 0.4
v 0.3 0.7 0.4
v 0.3 0.9 0.4
v 0.4 0.1 0.4
v 0.4 0.5 0.4
v 0.4 0.6 0.4
v 0.4 0.7 0.4
v 0.4 0.9 0.4
v 0.5 0.5 0.4
v 0.5 0.6 0.4
v 0.5 0.7 0.4
v 0.5 0.8 0.4
v 0.5 0.9 0.4
v 0.6 0.8 0.4
v 0.6 0.9 0.4
v 0.1 0.8 0.2
v 0.1 1.1 0.2
v 0.2 0.8 0.2
v 0.2 1.1 0.2
v 0.2 1.2 0.2
v 0.5 0.8 0.2
v 0.5 1.1 0.2
v 0.5 1.2 0.2
v 0.6 0.8 0.2
v 0.6 1.1 0.2
v 0.2 0.8 0.1
v 0.2 1.1 0.1
v 0.3 0.8 0.1
v 0.3 0.9 0.1
v 0.4 0.8 0.1
v 0.4 0.9 0.1
v 0.5 0.8 0.1
v 0.5 1.1 0.1
v 0.2 0.8 0.6
v 0.2 1.1 0.6
v 0.3 0.8 0.6
v 0.3 0.9 0.6
v 0.4 0.8 0.6
v 0.4 0.9 0.6
v 0.5 0.8 0.6
v 0.5 1.1 0.6
v 0.1 0.8 0.5
v 0.1 1.1 0.5
v 0.2 0.8 0.5
v 0.2 1.1 0.5
v 0.2 1.2 0.5
v 0.5 0.8 0.5
v 0.5 1.1 0.5
v 0.5 1.2 0.5
v 0.6 0.8 0.5
v 0.6 1.1 0.5
v 0.1 0.8 0.3
v 0.1 0.9 0.3
v 0.2 0.5 0.3
v 0.2 0.6 0.3
v 0.2 0.7 0.3
v 0.2 0.8 0.3
v 0.2 0.9 0.3
v 0.3 0.1 0.3
v 0.3 0.5 0.3
v 0.3 0.6 0.3
v 0.3 0.7 0.3
v 0.3 0.9 0.3
v 0.4 0.1 0.3
v 0.4 0.5 0.3
v 0.4 0.6 0.3
v 0.4 0.7 0.3
v 0.4 0.9 0.3
v 0.5 0.5 0.3
v 0.5 0.6 0.3
v 0.5 0.7 0.3
v 0.5 0.8 0.3
v 0.5 0.9 0.3
v 0.6 0.8 0.3
v 0.6 0.9 0.3
v 0 0.8 0.2
v 0 1.1 0.2
v 0.1 0.8 0.2
v 0.1 1.1 0.2
v 0.1 1.2 0.2
v 0.2 0 0.2
v 0.2 0.1 0.2
v 0.2 1.1 0.2
v 0.2 1.2 0.2
v 0.2 1.3 0.2
v 0.3 0.5 0.2
v 0.3 0.6 0.2
v 0.3 0.7 0.2
v 0.3 0.8 0.2
v 0.4 0.5 0.2
v 0.4 0.6 0.2
v 0.4 0.7 0.2
v 0.4 0.8 0.2
v 0.5 0 0.2
v 0.5 0.1 0.2
v 0.5 1.1 0.2
v 0.5 1.2 0.2
v 0.5 1.3 0.2
v 0.6 0.8 0.2
v 0.6 1.1 0.2
v 0.6 1.2 0.2
v 0.7 0.8 0.2
v 0.7 1.1 0.2
v 0.1 0.8 0.1
v 0.1 1.1 0.1
v 0.2 0.8 0.1
v 0.2 1.1 0.1
v 0.2 1.2 0.1
v 0.5 0.8 0.1
v 0.5 1.1 0.1
v 0.5 1.2 0.1
v 0.6 0.8 0.1
v 0.6 1.1 0.1
v 0.2 0.8 0
v 0.2 1.1 0
v 0.5 0.8 0
v 0.5 1.1 0
v 0.2 0 0.5
v 0.5 0 0.5
v 0.2 0 0.2
v 0.5 0 0.2
v 0.3 0.5 0.5
v 0.4 0.5 0.5
v 0.2 0.5 0.4
v 0.3 0.5 0.4
v 0.4 0.5 0.4
v 0.5 0.5 0.4
v 0.2 0.5 0.3
v 0.3 0.5 0.3
v 0.4 0.5 0.3
v 0.5 0.5 0.3
v 0.3 0.5 0.2
v 0.4 0.5 0.2
v 0.3 0.7 0.5
v 0.4 0.7 0.5
v 0.2 0.7 0.4
v 0.3 0.7 0.4
v 0.4 0.7 0.4
v 0.5 0.7 0.4
v 0.2 0.7 0.3
v 0.3 0.7 0.3
v 0.4 0.7 0.3
v 0.5 0.7 0.3
v 0.3 0.7 0.2
v 0.4 0.7 0.2
v 0.2 0.8 0.7
v 0.5 0.8 0.7
v 0.1 0.8 0.6
v 0.2 0.8 0.6
v 0.3 0.8 0.6
v 0.4 0.8 0.6
v 0.5 0.8 0.6
v 0.6 0.8 0.6
v 0 0.8 0.5
v 0.1 0.8 0.5
v 0.2 0.8 0.5
v 0.3 0.8 0.5
v 0.4 0.8 0.5
v 0.5 0.8 0.5
v 0.6 0.8 0.5
v 0.7 0.8 0.5
v 0.1 0.8 0.4
v 0.2 0.8 0.4
v 0.5 0.8 0.4
v 0.6 0.8 0.4
v 0.1 0.8 0.3
v 0.2 0.8 0.3
v 0.5 0.8 0.3
v 0.6 0.8 0.3
v 0 0.8 0.2
v 0.1 0.8 0.2
v 0.2 0.8 0.2
v 0.3 0.8 0.2
v 0.4 0.8 0.2
v 0.5 0.8 0.2
v 0.6 0.8 0.2
v 0.7 0.8 0.2
v 0.1 0.8 0.1
v 0.2 0.8 0.1
v 0.3 0.8 0.1
v 0.4 0.8 0.1
v 0.5 0.8 0.1
v 0.6 0.8 0.1
v 0.2 0.8 0
v 0.5 0.8 0
v 0.2 1.1 0.6
v 0.5 1.1 0.6
v 0.1 1.1 0.5
v 0.2 1.1 0.5
v 0.5 1.1 0.5
v 0.6 1.1 0.5
v 0.1 1.1 0.2
v 0.2 1.1 0.2
v 0.5 1.1 0.2
v 0.6 1.1 0.2
v 0.2 1.1 0.1
v 0.5 1.1 0.1
v 0.2 1.2 0.5
v 0.5 1.2 0.5
v 0.2 1.2 0.2
v 0.5 1.2 0.2
v 0.2 0.1 0.5
v 0.5 0.1 0.5
v 0.3 0.1 0.4
v 0.4 0.1 0.4
v 0.3 0.1 0.3
v 0.4 0.1 0.3
v 0.2 0.1 0.2
v 0.5 0.1 0.2
v 0.3 0.6 0.5
v 0.4 0.6 0.5
v 0.2 0.6 0.4
v 0.3 0.6 0.4
v 0.4 0.6 0.4
v 0.5 0.6 0.4
v 0.2 0.6 0.3
v 0.3 0.6 0.3
v 0.4 0.6 0.3
v 0.5 0.6 0.3
v 0.3 0.6 0.2
v 0.4 0.6 0.2
v 0.3 0.9 0.6
v 0.4 0.9 0.6
v 0.3 0.9 0.5
v 0.4 0.9 0.5
v 0.1 0.9 0.4
v 0.2 0.9 0.4
v 0.3 0.9 0.4
v 0.4 0.9 0.4
v 0.5 0.9 0.4
v 0.6 0.9 0.4
v 0.1 0.9 0.3
v 0.2 0.9 0.3
v 0.3 0.9 0.3
v 0.4 0.9 0.3
v 0.5 0.9 0.3
v 0.6 0.9 0.3
v 0.3 0.9 0.2
v 0.4 0.9 0.2
v 0.3 0.9 0.1
v 0.4 0.9 0.1
v 0.2 1.1 0.7
v 0.5 1.1 0.7
v 0.1 1.1 0.6
v 0.2 1.1 0.6
v 0.5 1.1 0.6
v 0.6 1.1 0.6
v 0 1.1 0.5
v 0.1 1.1 0.5
v 0.2 1.1 0.5
v 0.5 1.1 0.5
v 0.6 1.1 0.5
v 0.7 1.1 0.5
v 0 1.1 0.2
v 0.1 1.1 0.2
v 0.2 1.1 0.2
v 0.5 1.1 0.2
v 0.6 1.1 0.2
v 0.7 1.1 0.2
v 0.1 1.1 0.1
v 0.2 1.1 0.1
v 0.5 1.1 0.1
v 0.6 1.1 0.1
v 0.2 1.1 0
v 0.5 1.1 0
v 0.2 1.2 0.6
v 0.5 1.2 0.6
v 0.1 1.2 0.5
v 0.2 1.2 0.5
v 0.5 1.2 0.5
v 0.6 1.2 0.5
v 0.1 1.2 0.2
v 0.2 1.2 0.2
v 0.5 1.2 0.2
v 0.6 1.2 0.2
v 0.2 1.2 0.1
v 0.5 1.2 0.1
v 0.2 1.3 0.5
v 0.5 1.3 0.5
v 0.2 1.3 0.2
v 0.5 1.3 0.2

# faces
f 3/2/1 2/2/1 1/2/1
f 4/2/1 2/2/1 3/2/1
f 9/2/1 6/2/1 5/2/1
f 10/2/1 6/2/1 9/2/1
f 11/2/1 8/2/1 7/2/1
f 12/2/1 8/2/1 11/2/1
f 13/2/1 11/2/1 10/2/1
f 14/2/1 11/2/1 13/2/1
f 17/3/1 16/3/1 15/3/1
f 18/3/1 16/3/1 17/3/1
f 21/3/1 20/3/1 19/3/1
f 22/3/1 20/3/1 21/3/1
f 27/1/1 24/1/1 23/1/1
f 28/1/1 24/1/1 27/1/1
f 31/2/1 26/2/1 25/2/1
f 32/2/1 26/2/1 31/2/1
f 35/2/1 30/2/1 29/2/1
f 36/2/1 30/2/1 35/2/1
f 37/2/1 33/2/1 32/2/1
f 38/2/1 33/2/1 37/2/1
f 39/2/1 35/2/1 34/2/1
f 40/2/1 35/2/1 39/2/1
f 41/2/1 39/2/1 38/2/1
f 42/2/1 39/2/1 41/2/1
f 46/3/1 44/3/1 43/3/1
f 47/3/1 44/3/1 46/3/1
f 49/3/1 46/3/1 45/3/1
f 50/3/1 46/3/1 49/3/1
f 51/3/1 48/3/1 47/3/1
f 52/3/1 48/3/1 51/3/1
f 54/2/1 51/2/1 50/2/1
f 55/2/1 51/2/1 54/2/1
f 58/1/1 54/1/1 53/1/1
f 59/1/1 56/1/1 55/1/1
f 61/2/1 58/2/1 57/2/1
f 62/1/1 54/1/1 58/1/1
f 62/2/1 58/2/1 61/2/1
f 63/1/1 54/1/1 62/1/1
f 64/1/1 59/1/1 55/1/1
f 65/2/1 60/2/1 59/2/1
f 65/1/1 59/1/1 64/1/1
f 66/2/1 60/2/1 65/2/1
f 71/2/1 68/2/1 67/2/1
f 72/2/1 68/2/1 71/2/1
f 73/2/1 70/2/1 69/2/1
f 74/2/1 70/2/1 73/2/1
f 75/2/1 73/2/1 72/2/1
f 76/2/1 73/2/1 75/2/1
f 81/2/1 78/2/1 77/2/1
f 82/2/1 80/2/1 79/2/1
f 83/2/1 81/2/1 77/2/1
f 83/2/1 82/2/1 81/2/1
f 84/2/1 80/2/1 82/2/1
f 84/2/1 82/2/1 83/2/1
f 85/2/2 86/2/2 89/2/2
f 87/2/2 88/2/2 90/2/2
f 85/2/2 89/2/2 91/2/2
f 89/2/2 90/2/2 91/2/2
f 90/2/2 88/2/2 92/2/2
f 91/2/2 90/2/2 92/2/2
f 93/2/2 94/2/2 97/2/2
f 97/2/2 94/2/2 98/2/2
f 95/2/2 96/2/2 99/2/2
f 99/2/2 96/2/2 100/2/2
f 98/2/2 99/2/2 101/2/2
f 101/2/2 99/2/2 102/2/2
f 103/3/2 104/3/2 106/3/2
f 106/3/2 104/3/2 107/3/2
f 105/3/2 106/3/2 109/3/2
f 109/3/2 106/3/2 110/3/2
f 107/3/2 108/3/2 111/3/2
f 111/3/2 108/3/2 112/3/2
f 110/2/2 111/2/2 114/2/2
f 114/2/2 111/2/2 115/2/2
f 113/1/2 114/1/2 118/1/2
f 115/1/2 116/1/2 119/1/2
f 117/2/2 118/2/2 121/2/2
f 118/1/2 114/1/2 122/1/2
f 121/2/2 118/2/2 122/2/2
f 122/1/2 114/1/2 123/1/2
f 115/1/2 119/1/2 124/1/2
f 119/2/2 120/2/2 125/2/2
f 124/1/2 119/1/2 125/1/2
f 125/2/2 120/2/2 126/2/2
f 127/3/2 128/3/2 129/3/2
f 129/3/2 128/3/2 130/3/2
f 131/3/2 132/3/2 133/3/2
f 133/3/2 132/3/2 134/3/2
f 135/1/2 136/1/2 139/1/2
f 139/1/2 136/1/2 140/1/2
f 137/2/2 138/2/2 143/2/2
f 143/2/2 138/2/2 144/2/2
f 141/2/2 142/2/2 147/2/2
f 147/2/2 142/2/2 148/2/2
f 144/2/2 145/2/2 149/2/2
f 149/2/2 145/2/2 150/2/2
f 146/2/2 147/2/2 151/2/2
f 151/2/2 147/2/2 152/2/2
f 150/2/2 151/2/2 153/2/2
f 153/2/2 151/2/2 154/2/2
f 155/2/2 156/2/2 159/2/2
f 159/2/2 156/2/2 160/2/2
f 157/2/2 158/2/2 161/2/2
f 161/2/2 158/2/2 162/2/2
f 160/2/2 161/2/2 163/2/2
f 163/2/2 161/2/2 164/2/2
f 165/2/2 166/2/2 167/2/2
f 167/2/2 166/2/2 168/2/2
f 171/2/3 170/2/3 169/2/3
f 172/2/3 170/2/3 171/2/3
f 175/2/3 174/2/3 173/2/3
f 176/2/3 174/2/3 175/2/3
f 179/2/3 177/2/3 176/2/3
f 180/2/3 177/2/3 179/2/3
f 181/2/3 179/2/3 178/2/3
f 182/2/3 179/2/3 181/2/3
f 185/2/3 184/2/3 183/2/3
f 186/2/3 184/2/3 185/2/3
f 190/2/3 187/2/3 186/2/3
f 191/2/3 187/2/3 190/2/3
f 197/3/3 194/3/3 193/3/3
f 198/3/3 194/3/3 197/3/3
f 199/1/3 196/1/3 195/1/3
f 200/1/3 196/1/3 199/1/3
f 201/3/3 189/3/3 188/3/3
f 202/3/3 189/3/3 201/3/3
f 204/2/3 192/2/3 191/2/3
f 205/2/3 192/2/3 204/2/3
f 207/2/3 204/2/3 203/2/3
f 208/2/3 204/2/3 207/2/3
f 209/2/3 207/2/3 206/2/3
f 210/2/3 207/2/3 209/2/3
f 216/2/3 212/2/3 211/2/3
f 217/2/3 212/2/3 216/2/3
f 219/3/3 214/3/3 213/3/3
f 220/3/3 214/3/3 219/3/3
f 221/1/3 216/1/3 215/1/3
f 221/1/3 217/1/3 216/1/3
f 222/1/3 217/1/3 221/1/3
f 223/3/3 219/3/3 218/3/3
f 224/3/3 219/3/3 223/3/3
f 225/2/3 221/2/3 220/2/3
f 226/2/3 221/2/3 225/2/3
f 228/3/3 225/3/3 224/3/3
f 229/3/3 225/3/3 228/3/3
f 230/1/3 227/1/3 226/1/3
f 231/1/3 227/1/3 230/1/3
f 232/1/3 227/1/3 231/1/3
f 233/2/3 232/2/3 231/2/3
f 234/2/3 232/2/3 233/2/3
f 237/2/3 236/2/3 235/2/3
f 238/2/3 236/2/3 237/2/3
f 241/2/3 239/2/3 238/2/3
f 242/2/3 239/2/3 241/2/3
f 243/2/3 241/2/3 240/2/3
f 244/2/3 241/2/3 243/2/3
f 247/2/3 246/2/3 245/2/3
f 248/2/3 246/2/3 247/2/3
f 250/2/3 246/2/3 248/2/3
f 251/2/3 250/2/3 249/2/3
f 252/2/3 246/2/3 250/2/3
f 252/2/3 250/2/3 251/2/3
f 253/2/4 254/2/4 255/2/4
f 255/2/4 254/2/4 256/2/4
f 256/2/4 254/2/4 258/2/4
f 257/2/4 258/2/4 259/2/4
f 258/2/4 254/2/4 260/2/4
f 259/2/4 258/2/4 260/2/4
f 261/2/4 262/2/4 263/2/4
f 263/2/4 262/2/4 264/2/4
f 264/2/4 265/2/4 267/2/4
f 267/2/4 265/2/4 268/2/4
f 266/2/4 267/2/4 269/2/4
f 269/2/4 267/2/4 270/2/4
f 271/2/4 272/2/4 276/2/4
f 276/2/4 272/2/4 277/2/4
f 273/3/4 274/3/4 279/3/4
f 279/3/4 274/3/4 280/3/4
f 275/1/4 276/1/4 281/1/4
f 276/1/4 277/1/4 281/1/4
f 281/1/4 277/1/4 282/1/4
f 278/3/4 279/3/4 283/3/4
f 283/3/4 279/3/4 284/3/4
f 280/2/4 281/2/4 285/2/4
f 285/2/4 281/2/4 286/2/4
f 284/3/4 285/3/4 288/3/4
f 288/3/4 285/3/4 289/3/4
f 286/1/4 287/1/4 290/1/4
f 290/1/4 287/1/4 291/1/4
f 291/1/4 287/1/4 292/1/4
f 291/2/4 292/2/4 293/2/4
f 293/2/4 292/2/4 294/2/4
f 295/2/4 296/2/4 297/2/4
f 297/2/4 296/2/4 298/2/4
f 298/2/4 299/2/4 302/2/4
f 302/2/4 299/2/4 303/2/4
f 305/3/4 306/3/4 309/3/4
f 309/3/4 306/3/4 310/3/4
f 307/1/4 308/1/4 311/1/4
f 311/1/4 308/1/4 312/1/4
f 300/3/4 301/3/4 313/3/4
f 313/3/4 301/3/4 314/3/4
f 303/2/4 304/2/4 316/2/4
f 316/2/4 304/2/4 317/2/4
f 315/2/4 316/2/4 319/2/4
f 319/2/4 316/2/4 320/2/4
f 318/2/4 319/2/4 321/2/4
f 321/2/4 319/2/4 322/2/4
f 323/2/4 324/2/4 325/2/4
f 325/2/4 324/2/4 326/2/4
f 326/2/4 327/2/4 329/2/4
f 329/2/4 327/2/4 330/2/4
f 328/2/4 329/2/4 331/2/4
f 331/2/4 329/2/4 332/2/4
f 333/2/4 334/2/4 335/2/4
f 335/2/4 334/2/4 336/2/4
f 339/3/5 338/3/5 337/3/5
f 340/3/5 338/3/5 339/3/5
f 344/3/5 342/3/5 341/3/5
f 345/3/5 342/3/5 344/3/5
f 347/3/5 344/3/5 343/3/5
f 348/3/5 344/3/5 347/3/5
f 349/3/5 346/3/5 345/3/5
f 350/3/5 346/3/5 349/3/5
f 351/3/5 349/3/5 348/3/5
f 352/3/5 349/3/5 351/3/5
f 356/1/5 354/1/5 353/1/5
f 357/1/5 354/1/5 356/1/5
f 359/1/5 356/1/5 355/1/5
f 360/1/5 356/1/5 359/1/5
f 361/1/5 358/1/5 357/1/5
f 362/1/5 358/1/5 361/1/5
f 363/1/5 361/1/5 360/1/5
f 364/1/5 361/1/5 363/1/5
f 368/2/5 366/2/5 365/2/5
f 369/2/5 366/2/5 368/2/5
f 370/2/5 366/2/5 369/2/5
f 371/2/5 366/2/5 370/2/5
f 374/2/5 368/2/5 367/2/5
f 375/2/5 368/2/5 374/2/5
f 376/2/5 370/2/5 369/2/5
f 377/2/5 370/2/5 376/2/5
f 378/2/5 372/2/5 371/2/5
f 379/2/5 372/2/5 378/2/5
f 381/2/5 374/2/5 373/2/5
f 384/2/5 380/2/5 379/2/5
f 385/2/5 382/2/5 381/2/5
f 385/2/5 381/2/5 373/2/5
f 386/2/5 382/2/5 385/2/5
f 387/2/5 384/2/5 383/2/5
f 388/2/5 380/2/5 384/2/5
f 388/2/5 384/2/5 387/2/5
f 389/2/5 385/2/5 373/2/5
f 390/2/5 385/2/5 389/2/5
f 395/2/5 380/2/5 388/2/5
f 396/2/5 380/2/5 395/2/5
f 397/2/5 391/2/5 390/2/5
f 398/2/5 391/2/5 397/2/5
f 399/2/5 393/2/5 392/2/5
f 400/2/5 393/2/5 399/2/5
f 401/2/5 395/2/5 394/2/5
f 402/2/5 395/2/5 401/2/5
f 403/2/5 400/2/5 399/2/5
f 403/2/5 401/2/5 400/2/5
f 403/2/5 399/2/5 398/2/5
f 404/2/5 401/2/5 403/2/5
f 408/2/5 406/2/5 405/2/5
f 409/2/5 406/2/5 408/2/5
f 411/2/5 408/2/5 407/2/5
f 412/2/5 408/2/5 411/2/5
f 413/2/5 410/2/5 409/2/5
f 414/2/5 410/2/5 413/2/5
f 415/2/5 413/2/5 412/2/5
f 416/2/5 413/2/5 415/2/5
f 419/2/5 418/2/5 417/2/5
f 420/2/5 418/2/5 419/2/5
f 421/3/6 422/3/6 423/3/6
f 423/3/6 422/3/6 424/3/6
f 421/3/6 423/3/6 425/3/6
f 424/3/6 422/3/6 426/3/6
f 421/3/6 425/3/6 427/3/6
f 425/3/6 426/3/6 427/3/6
f 426/3/6 422/3/6 428/3/6
f 427/3/6 426/3/6 428/3/6
f 429/3/6 430/3/6 432/3/6
f 432/3/6 430/3/6 433/3/6
f 431/3/6 432/3/6 435/3/6
f 435/3/6 432/3/6 436/3/6
f 433/3/6 434/3/6 437/3/6
f 437/3/6 434/3/6 438/3/6
f 436/3/6 437/3/6 439/3/6
f 439/3/6 437/3/6 440/3/6
f 441/2/6 442/2/6 443/2/6
f 443/2/6 442/2/6 444/2/6
f 443/1/6 444/1/6 447/1/6
f 447/1/6 444/1/6 448/1/6
f 445/2/6 446/2/6 451/2/6
f 447/1/6 448/1/6 452/1/6
f 451/2/6 446/2/6 452/2/6
f 446/1/6 447/1/6 452/1/6
f 448/1/6 449/1/6 452/1/6
f 452/1/6 449/1/6 453/1/6
f 453/1/6 449/1/6 454/1/6
f 449/2/6 450/2/6 455/2/6
f 454/1/6 449/1/6 455/1/6
f 455/2/6 450/2/6 456/2/6
f 453/1/6 454/1/6 457/1/6
f 457/1/6 454/1/6 458/1/6
f 457/2/6 458/2/6 459/2/6
f 459/2/6 458/2/6 460/2/6
f 461/2/6 462/2/6 464/2/6
f 464/2/6 462/2/6 465/2/6
f 463/2/6 464/2/6 468/2/6
f 468/2/6 464/2/6 469/2/6
f 465/2/6 466/2/6 470/2/6
f 470/2/6 466/2/6 471/2/6
f 467/2/6 468/2/6 473/2/6
f 473/2/6 468/2/6 474/2/6
f 471/2/6 472/2/6 477/2/6
f 477/2/6 472/2/6 478/2/6
f 474/2/6 475/2/6 479/2/6
f 479/2/6 475/2/6 480/2/6
f 476/2/6 477/2/6 481/2/6
f 481/2/6 477/2/6 482/2/6
f 480/2/6 481/2/6 483/2/6
f 483/2/6 481/2/6 484/2/6
f 485/2/6 486/2/6 488/2/6
f 488/2/6 486/2/6 489/2/6
f 487/2/6 488/2/6 491/2/6
f 491/2/6 488/2/6 492/2/6
f 489/2/6 490/2/6 493/2/6
f 493/2/6 490/2/6 494/2/6
f 492/2/6 493/2/6 495/2/6
f 495/2/6 493/2/6 496/2/6
f 497/2/6 498/2/6 499/2/6
f 499/2/6 498/2/6 500/2/6
