# MagicaVoxel @ Ephtracy

# group
o 

# material
mtllib Lit(2).mtl
usemtl palette

# normals
vn -1 0 0
vn 1 0 0
vn 0 0 1
vn 0 0 -1
vn 0 -1 0
vn 0 1 0

# texcoords
vt 0.373047 0.5
vt 0.537109 0.5
vt 0.822266 0.5
vt 0.853516 0.5
vt 0.970703 0.5
vt 0.974609 0.5
vt 0.986328 0.5

# verts
v 0 0.1 -0.2
v 0 0.1 -2.1
v 0 0.2 -0.2
v 0 0.2 -0.3
v 0 0.3 -0.3
v 0 0.3 -2.1
v 0.1 0 -2.6
v 0.1 0 -2.8
v 0.1 0.1 -0.1
v 0.1 0.1 -0.2
v 0.1 0.1 -2.1
v 0.1 0.1 -2.6
v 0.1 0.2 -0.1
v 0.1 0.2 -0.2
v 0.1 0.2 -0.3
v 0.1 0.3 -0.3
v 0.1 0.3 -2.1
v 0.1 0.3 -2.7
v 0.1 0.4 -0.2
v 0.1 0.4 -2.1
v 0.1 0.7 -2.7
v 0.1 0.7 -2.8
v 0.2 0 -0.1
v 0.2 0 -0.3
v 0.2 0.1 0
v 0.2 0.1 -0.1
v 0.2 0.1 -0.2
v 0.2 0.1 -0.3
v 0.2 0.2 -0.1
v 0.2 0.2 -0.2
v 0.2 0.3 0
v 0.2 0.3 -0.2
v 0.4 0.3 -2.2
v 0.4 0.3 -2.4
v 0.4 0.3 -2.5
v 0.4 0.3 -2.7
v 0.4 0.5 -2.2
v 0.4 0.5 -2.4
v 0.4 0.5 -2.5
v 0.4 0.5 -2.7
v 1.4 0 -0.1
v 1.4 0 -0.3
v 1.4 0.1 -0.1
v 1.4 0.1 -0.3
v 1.5 0 -2.6
v 1.5 0 -2.8
v 1.5 0.1 -2.6
v 1.5 0.1 -2.8
v 1.6 0.2 -0.4
v 1.6 0.2 -0.6
v 1.6 0.2 -0.8
v 1.6 0.2 -1
v 1.6 0.2 -1.2
v 1.6 0.2 -1.4
v 1.6 0.2 -1.6
v 1.6 0.2 -1.8
v 1.6 0.3 -0.4
v 1.6 0.3 -0.6
v 1.6 0.3 -0.8
v 1.6 0.3 -1
v 1.6 0.3 -1.2
v 1.6 0.3 -1.4
v 1.6 0.3 -1.6
v 1.6 0.3 -1.8
v 0.2 0.2 -0.4
v 0.2 0.2 -0.6
v 0.2 0.2 -0.8
v 0.2 0.2 -1
v 0.2 0.2 -1.2
v 0.2 0.2 -1.4
v 0.2 0.2 -1.6
v 0.2 0.2 -1.8
v 0.2 0.3 -0.4
v 0.2 0.3 -0.6
v 0.2 0.3 -0.8
v 0.2 0.3 -1
v 0.2 0.3 -1.2
v 0.2 0.3 -1.4
v 0.2 0.3 -1.6
v 0.2 0.3 -1.8
v 0.3 0 -2.6
v 0.3 0 -2.8
v 0.3 0.1 -2.6
v 0.3 0.1 -2.8
v 0.4 0 -0.1
v 0.4 0 -0.3
v 0.4 0.1 -0.1
v 0.4 0.1 -0.3
v 1.4 0.3 -2.2
v 1.4 0.3 -2.4
v 1.4 0.3 -2.5
v 1.4 0.3 -2.7
v 1.4 0.5 -2.2
v 1.4 0.5 -2.4
v 1.4 0.5 -2.5
v 1.4 0.5 -2.7
v 1.6 0 -0.1
v 1.6 0 -0.3
v 1.6 0.1 0
v 1.6 0.1 -0.1
v 1.6 0.1 -0.2
v 1.6 0.1 -0.3
v 1.6 0.2 -0.1
v 1.6 0.2 -0.2
v 1.6 0.3 0
v 1.6 0.3 -0.2
v 1.7 0 -2.6
v 1.7 0 -2.8
v 1.7 0.1 -0.1
v 1.7 0.1 -0.2
v 1.7 0.1 -2.1
v 1.7 0.1 -2.6
v 1.7 0.2 -0.1
v 1.7 0.2 -0.2
v 1.7 0.2 -0.3
v 1.7 0.3 -0.3
v 1.7 0.3 -2.1
v 1.7 0.3 -2.7
v 1.7 0.4 -0.2
v 1.7 0.4 -2.1
v 1.7 0.7 -2.7
v 1.7 0.7 -2.8
v 1.8 0.1 -0.2
v 1.8 0.1 -2.1
v 1.8 0.2 -0.2
v 1.8 0.2 -0.3
v 1.8 0.3 -0.3
v 1.8 0.3 -2.1
v 0.2 0.1 0
v 0.2 0.3 0
v 1.6 0.1 0
v 1.6 0.3 0
v 0.1 0.1 -0.1
v 0.1 0.2 -0.1
v 0.2 0 -0.1
v 0.2 0.1 -0.1
v 0.2 0.2 -0.1
v 0.4 0 -0.1
v 0.4 0.1 -0.1
v 1.4 0 -0.1
v 1.4 0.1 -0.1
v 1.6 0 -0.1
v 1.6 0.1 -0.1
v 1.6 0.2 -0.1
v 1.7 0.1 -0.1
v 1.7 0.2 -0.1
v 0 0.1 -0.2
v 0 0.2 -0.2
v 0.1 0.1 -0.2
v 0.1 0.2 -0.2
v 0.1 0.4 -0.2
v 0.2 0.2 -0.2
v 0.2 0.3 -0.2
v 1.6 0.2 -0.2
v 1.6 0.3 -0.2
v 1.7 0.1 -0.2
v 1.7 0.2 -0.2
v 1.7 0.4 -0.2
v 1.8 0.1 -0.2
v 1.8 0.2 -0.2
v 0 0.2 -0.3
v 0 0.3 -0.3
v 0.1 0.2 -0.3
v 0.1 0.3 -0.3
v 1.7 0.2 -0.3
v 1.7 0.3 -0.3
v 1.8 0.2 -0.3
v 1.8 0.3 -0.3
v 0.2 0.2 -0.6
v 0.2 0.3 -0.6
v 1.6 0.2 -0.6
v 1.6 0.3 -0.6
v 0.2 0.2 -1
v 0.2 0.3 -1
v 1.6 0.2 -1
v 1.6 0.3 -1
v 0.2 0.2 -1.4
v 0.2 0.3 -1.4
v 1.6 0.2 -1.4
v 1.6 0.3 -1.4
v 0.2 0.2 -1.8
v 0.2 0.3 -1.8
v 1.6 0.2 -1.8
v 1.6 0.3 -1.8
v 0.4 0.3 -2.2
v 0.4 0.5 -2.2
v 1.4 0.3 -2.2
v 1.4 0.5 -2.2
v 0.1 0 -2.6
v 0.1 0.1 -2.6
v 0.3 0 -2.6
v 0.3 0.1 -2.6
v 1.5 0 -2.6
v 1.5 0.1 -2.6
v 1.7 0 -2.6
v 1.7 0.1 -2.6
v 0.1 0.3 -2.7
v 0.1 0.7 -2.7
v 0.2 0.3 -2.7
v 0.4 0.3 -2.7
v 0.4 0.5 -2.7
v 1.4 0.3 -2.7
v 1.4 0.5 -2.7
v 1.6 0.3 -2.7
v 1.7 0.3 -2.7
v 1.7 0.7 -2.7
v 0.2 0 -0.3
v 0.2 0.1 -0.3
v 0.4 0 -0.3
v 0.4 0.1 -0.3
v 1.4 0 -0.3
v 1.4 0.1 -0.3
v 1.6 0 -0.3
v 1.6 0.1 -0.3
v 0.2 0.2 -0.4
v 0.2 0.3 -0.4
v 1.6 0.2 -0.4
v 1.6 0.3 -0.4
v 0.2 0.2 -0.8
v 0.2 0.3 -0.8
v 1.6 0.2 -0.8
v 1.6 0.3 -0.8
v 0.2 0.2 -1.2
v 0.2 0.3 -1.2
v 1.6 0.2 -1.2
v 1.6 0.3 -1.2
v 0.2 0.2 -1.6
v 0.2 0.3 -1.6
v 1.6 0.2 -1.6
v 1.6 0.3 -1.6
v 0 0.1 -2.1
v 0 0.3 -2.1
v 0.1 0.1 -2.1
v 0.1 0.3 -2.1
v 0.1 0.4 -2.1
v 0.2 0.3 -2.1
v 1.6 0.3 -2.1
v 1.7 0.1 -2.1
v 1.7 0.3 -2.1
v 1.7 0.4 -2.1
v 1.8 0.1 -2.1
v 1.8 0.3 -2.1
v 0.1 0 -2.8
v 0.1 0.7 -2.8
v 0.3 0 -2.8
v 0.3 0.1 -2.8
v 1.5 0 -2.8
v 1.5 0.1 -2.8
v 1.7 0 -2.8
v 1.7 0.7 -2.8
v 0.2 0 -0.1
v 0.4 0 -0.1
v 1.4 0 -0.1
v 1.6 0 -0.1
v 0.2 0 -0.3
v 0.4 0 -0.3
v 1.4 0 -0.3
v 1.6 0 -0.3
v 0.1 0 -2.6
v 0.3 0 -2.6
v 1.5 0 -2.6
v 1.7 0 -2.6
v 0.1 0 -2.8
v 0.3 0 -2.8
v 1.5 0 -2.8
v 1.7 0 -2.8
v 0.2 0.1 0
v 1.6 0.1 0
v 0.1 0.1 -0.1
v 0.2 0.1 -0.1
v 0.4 0.1 -0.1
v 1.4 0.1 -0.1
v 1.6 0.1 -0.1
v 1.7 0.1 -0.1
v 0 0.1 -0.2
v 0.1 0.1 -0.2
v 0.2 0.1 -0.2
v 1.6 0.1 -0.2
v 1.7 0.1 -0.2
v 1.8 0.1 -0.2
v 0.2 0.1 -0.3
v 0.4 0.1 -0.3
v 1.4 0.1 -0.3
v 1.6 0.1 -0.3
v 0 0.1 -2.1
v 0.1 0.1 -2.1
v 1.7 0.1 -2.1
v 1.8 0.1 -2.1
v 0.1 0.1 -2.6
v 0.3 0.1 -2.6
v 1.5 0.1 -2.6
v 1.7 0.1 -2.6
v 0.3 0.1 -2.8
v 1.5 0.1 -2.8
v 0.2 0.3 -0.4
v 1.6 0.3 -0.4
v 0.2 0.3 -0.6
v 1.6 0.3 -0.6
v 0.2 0.3 -0.8
v 1.6 0.3 -0.8
v 0.2 0.3 -1
v 1.6 0.3 -1
v 0.2 0.3 -1.2
v 1.6 0.3 -1.2
v 0.2 0.3 -1.4
v 1.6 0.3 -1.4
v 0.2 0.3 -1.6
v 1.6 0.3 -1.6
v 0.2 0.3 -1.8
v 1.6 0.3 -1.8
v 0.1 0.2 -0.1
v 0.2 0.2 -0.1
v 1.6 0.2 -0.1
v 1.7 0.2 -0.1
v 0 0.2 -0.2
v 0.1 0.2 -0.2
v 0.2 0.2 -0.2
v 1.6 0.2 -0.2
v 1.7 0.2 -0.2
v 1.8 0.2 -0.2
v 0 0.2 -0.3
v 0.1 0.2 -0.3
v 1.7 0.2 -0.3
v 1.8 0.2 -0.3
v 0.2 0.2 -0.4
v 1.6 0.2 -0.4
v 0.2 0.2 -0.6
v 1.6 0.2 -0.6
v 0.2 0.2 -0.8
v 1.6 0.2 -0.8
v 0.2 0.2 -1
v 1.6 0.2 -1
v 0.2 0.2 -1.2
v 1.6 0.2 -1.2
v 0.2 0.2 -1.4
v 1.6 0.2 -1.4
v 0.2 0.2 -1.6
v 1.6 0.2 -1.6
v 0.2 0.2 -1.8
v 1.6 0.2 -1.8
v 0.2 0.3 0
v 1.6 0.3 0
v 0.2 0.3 -0.2
v 1.6 0.3 -0.2
v 0 0.3 -0.3
v 0.1 0.3 -0.3
v 1.7 0.3 -0.3
v 1.8 0.3 -0.3
v 0 0.3 -2.1
v 0.1 0.3 -2.1
v 0.2 0.3 -2.1
v 1.6 0.3 -2.1
v 1.7 0.3 -2.1
v 1.8 0.3 -2.1
v 0.4 0.3 -2.2
v 1.4 0.3 -2.2
v 0.4 0.3 -2.4
v 1.4 0.3 -2.4
v 0.4 0.3 -2.5
v 1.4 0.3 -2.5
v 0.1 0.3 -2.7
v 0.2 0.3 -2.7
v 0.4 0.3 -2.7
v 1.4 0.3 -2.7
v 1.6 0.3 -2.7
v 1.7 0.3 -2.7
v 0.1 0.4 -0.2
v 1.7 0.4 -0.2
v 0.1 0.4 -2.1
v 1.7 0.4 -2.1
v 0.4 0.5 -2.2
v 1.4 0.5 -2.2
v 0.4 0.5 -2.4
v 1.4 0.5 -2.4
v 0.4 0.5 -2.5
v 1.4 0.5 -2.5
v 0.4 0.5 -2.7
v 1.4 0.5 -2.7
v 0.1 0.7 -2.7
v 1.7 0.7 -2.7
v 0.1 0.7 -2.8
v 1.7 0.7 -2.8

# faces
f 3/3/1 2/3/1 1/3/1
f 4/3/1 2/3/1 3/3/1
f 5/3/1 2/3/1 4/3/1
f 6/3/1 2/3/1 5/3/1
f 12/2/1 8/2/1 7/2/1
f 13/3/1 10/3/1 9/3/1
f 14/3/1 10/3/1 13/3/1
f 16/3/1 15/3/1 14/3/1
f 17/2/1 12/2/1 11/2/1
f 18/2/1 8/2/1 12/2/1
f 18/2/1 12/2/1 17/2/1
f 19/3/1 16/3/1 14/3/1
f 19/3/1 17/3/1 16/3/1
f 20/3/1 17/3/1 19/3/1
f 21/2/1 8/2/1 18/2/1
f 22/2/1 8/2/1 21/2/1
f 26/2/1 24/2/1 23/2/1
f 27/2/1 24/2/1 26/2/1
f 28/2/1 24/2/1 27/2/1
f 29/3/1 26/3/1 25/3/1
f 31/3/1 29/3/1 25/3/1
f 31/3/1 30/3/1 29/3/1
f 32/3/1 30/3/1 31/3/1
f 37/6/1 34/6/1 33/6/1
f 38/5/1 35/5/1 34/5/1
f 38/6/1 34/6/1 37/6/1
f 39/6/1 36/6/1 35/6/1
f 39/5/1 35/5/1 38/5/1
f 40/6/1 36/6/1 39/6/1
f 43/2/1 42/2/1 41/2/1
f 44/2/1 42/2/1 43/2/1
f 47/2/1 46/2/1 45/2/1
f 48/2/1 46/2/1 47/2/1
f 57/3/1 50/3/1 49/3/1
f 58/3/1 50/3/1 57/3/1
f 59/3/1 52/3/1 51/3/1
f 60/3/1 52/3/1 59/3/1
f 61/3/1 54/3/1 53/3/1
f 62/3/1 54/3/1 61/3/1
f 63/3/1 56/3/1 55/3/1
f 64/3/1 56/3/1 63/3/1
f 65/3/2 66/3/2 73/3/2
f 73/3/2 66/3/2 74/3/2
f 67/3/2 68/3/2 75/3/2
f 75/3/2 68/3/2 76/3/2
f 69/3/2 70/3/2 77/3/2
f 77/3/2 70/3/2 78/3/2
f 71/3/2 72/3/2 79/3/2
f 79/3/2 72/3/2 80/3/2
f 81/2/2 82/2/2 83/2/2
f 83/2/2 82/2/2 84/2/2
f 85/2/2 86/2/2 87/2/2
f 87/2/2 86/2/2 88/2/2
f 89/6/2 90/6/2 93/6/2
f 90/5/2 91/5/2 94/5/2
f 93/6/2 90/6/2 94/6/2
f 91/6/2 92/6/2 95/6/2
f 94/5/2 91/5/2 95/5/2
f 95/6/2 92/6/2 96/6/2
f 97/2/2 98/2/2 100/2/2
f 100/2/2 98/2/2 101/2/2
f 101/2/2 98/2/2 102/2/2
f 99/3/2 100/3/2 103/3/2
f 99/3/2 103/3/2 105/3/2
f 103/3/2 104/3/2 105/3/2
f 105/3/2 104/3/2 106/3/2
f 107/2/2 108/2/2 112/2/2
f 109/3/2 110/3/2 113/3/2
f 113/3/2 110/3/2 114/3/2
f 114/3/2 115/3/2 116/3/2
f 111/2/2 112/2/2 117/2/2
f 112/2/2 108/2/2 118/2/2
f 117/2/2 112/2/2 118/2/2
f 114/3/2 116/3/2 119/3/2
f 116/3/2 117/3/2 119/3/2
f 119/3/2 117/3/2 120/3/2
f 118/2/2 108/2/2 121/2/2
f 121/2/2 108/2/2 122/2/2
f 123/3/2 124/3/2 125/3/2
f 125/3/2 124/3/2 126/3/2
f 126/3/2 124/3/2 127/3/2
f 127/3/2 124/3/2 128/3/2
f 131/3/3 130/3/3 129/3/3
f 132/3/3 130/3/3 131/3/3
f 136/3/3 134/3/3 133/3/3
f 137/3/3 134/3/3 136/3/3
f 138/2/3 136/2/3 135/2/3
f 139/2/3 136/2/3 138/2/3
f 142/2/3 141/2/3 140/2/3
f 143/2/3 141/2/3 142/2/3
f 145/3/3 144/3/3 143/3/3
f 146/3/3 144/3/3 145/3/3
f 149/3/3 148/3/3 147/3/3
f 150/3/3 148/3/3 149/3/3
f 152/3/3 151/3/3 150/3/3
f 153/3/3 151/3/3 152/3/3
f 155/3/3 151/3/3 153/3/3
f 157/3/3 155/3/3 154/3/3
f 158/3/3 151/3/3 155/3/3
f 158/3/3 155/3/3 157/3/3
f 159/3/3 157/3/3 156/3/3
f 160/3/3 157/3/3 159/3/3
f 163/3/3 162/3/3 161/3/3
f 164/3/3 162/3/3 163/3/3
f 167/3/3 166/3/3 165/3/3
f 168/3/3 166/3/3 167/3/3
f 171/1/3 170/1/3 169/1/3
f 172/1/3 170/1/3 171/1/3
f 175/1/3 174/1/3 173/1/3
f 176/1/3 174/1/3 175/1/3
f 179/1/3 178/1/3 177/1/3
f 180/1/3 178/1/3 179/1/3
f 183/1/3 182/1/3 181/1/3
f 184/1/3 182/1/3 183/1/3
f 187/6/3 186/6/3 185/6/3
f 188/6/3 186/6/3 187/6/3
f 191/2/3 190/2/3 189/2/3
f 192/2/3 190/2/3 191/2/3
f 195/2/3 194/2/3 193/2/3
f 196/2/3 194/2/3 195/2/3
f 199/2/3 198/2/3 197/2/3
f 200/2/3 198/2/3 199/2/3
f 201/2/3 198/2/3 200/2/3
f 203/2/3 198/2/3 201/2/3
f 204/2/3 203/2/3 202/2/3
f 205/2/3 203/2/3 204/2/3
f 206/2/3 198/2/3 203/2/3
f 206/2/3 203/2/3 205/2/3
f 207/2/4 208/2/4 209/2/4
f 209/2/4 208/2/4 210/2/4
f 211/2/4 212/2/4 213/2/4
f 213/2/4 212/2/4 214/2/4
f 215/1/4 216/1/4 217/1/4
f 217/1/4 216/1/4 218/1/4
f 219/1/4 220/1/4 221/1/4
f 221/1/4 220/1/4 222/1/4
f 223/1/4 224/1/4 225/1/4
f 225/1/4 224/1/4 226/1/4
f 227/1/4 228/1/4 229/1/4
f 229/1/4 228/1/4 230/1/4
f 231/3/4 232/3/4 233/3/4
f 233/3/4 232/3/4 234/3/4
f 234/3/4 235/3/4 236/3/4
f 236/3/4 235/3/4 237/3/4
f 237/3/4 235/3/4 239/3/4
f 239/3/4 235/3/4 240/3/4
f 238/3/4 239/3/4 241/3/4
f 241/3/4 239/3/4 242/3/4
f 243/2/4 244/2/4 245/2/4
f 245/2/4 244/2/4 246/2/4
f 246/2/4 244/2/4 248/2/4
f 247/2/4 248/2/4 249/2/4
f 248/2/4 244/2/4 250/2/4
f 249/2/4 248/2/4 250/2/4
f 255/2/5 252/2/5 251/2/5
f 256/2/5 252/2/5 255/2/5
f 257/2/5 254/2/5 253/2/5
f 258/2/5 254/2/5 257/2/5
f 263/2/5 260/2/5 259/2/5
f 264/2/5 260/2/5 263/2/5
f 265/2/5 262/2/5 261/2/5
f 266/2/5 262/2/5 265/2/5
f 270/3/5 268/3/5 267/3/5
f 271/3/5 268/3/5 270/3/5
f 272/3/5 268/3/5 271/3/5
f 273/3/5 268/3/5 272/3/5
f 276/3/5 270/3/5 269/3/5
f 277/3/5 270/3/5 276/3/5
f 278/3/5 274/3/5 273/3/5
f 279/3/5 274/3/5 278/3/5
f 281/2/5 277/2/5 276/2/5
f 282/2/5 272/2/5 271/2/5
f 283/2/5 272/2/5 282/2/5
f 284/2/5 279/2/5 278/2/5
f 285/3/5 276/3/5 275/3/5
f 286/2/5 281/2/5 276/2/5
f 286/3/5 276/3/5 285/3/5
f 286/2/5 284/2/5 283/2/5
f 286/2/5 283/2/5 282/2/5
f 286/2/5 282/2/5 281/2/5
f 287/3/5 280/3/5 279/3/5
f 287/2/5 284/2/5 286/2/5
f 287/2/5 279/2/5 284/2/5
f 288/3/5 280/3/5 287/3/5
f 289/2/5 287/2/5 286/2/5
f 290/2/5 287/2/5 289/2/5
f 291/2/5 287/2/5 290/2/5
f 292/2/5 287/2/5 291/2/5
f 293/2/5 291/2/5 290/2/5
f 294/2/5 291/2/5 293/2/5
f 297/3/5 296/3/5 295/3/5
f 298/3/5 296/3/5 297/3/5
f 301/3/5 300/3/5 299/3/5
f 302/3/5 300/3/5 301/3/5
f 305/3/5 304/3/5 303/3/5
f 306/3/5 304/3/5 305/3/5
f 309/3/5 308/3/5 307/3/5
f 310/3/5 308/3/5 309/3/5
f 311/3/6 312/3/6 316/3/6
f 316/3/6 312/3/6 317/3/6
f 313/3/6 314/3/6 318/3/6
f 318/3/6 314/3/6 319/3/6
f 315/3/6 316/3/6 321/3/6
f 321/3/6 316/3/6 322/3/6
f 319/3/6 320/3/6 323/3/6
f 323/3/6 320/3/6 324/3/6
f 325/2/6 326/2/6 327/2/6
f 327/2/6 326/2/6 328/2/6
f 329/2/6 330/2/6 331/2/6
f 331/2/6 330/2/6 332/2/6
f 333/2/6 334/2/6 335/2/6
f 335/2/6 334/2/6 336/2/6
f 337/2/6 338/2/6 339/2/6
f 339/2/6 338/2/6 340/2/6
f 341/3/6 342/3/6 343/3/6
f 343/3/6 342/3/6 344/3/6
f 345/3/6 346/3/6 349/3/6
f 349/3/6 346/3/6 350/3/6
f 347/3/6 348/3/6 353/3/6
f 353/3/6 348/3/6 354/3/6
f 351/6/6 352/6/6 355/6/6
f 355/6/6 352/6/6 356/6/6
f 351/6/6 355/6/6 357/6/6
f 356/6/6 352/6/6 358/6/6
f 351/6/6 357/6/6 359/6/6
f 358/6/6 352/6/6 360/6/6
f 350/2/6 351/2/6 361/2/6
f 351/6/6 359/6/6 362/6/6
f 361/2/6 351/2/6 362/2/6
f 362/6/6 359/6/6 363/6/6
f 360/6/6 352/6/6 364/6/6
f 352/2/6 353/2/6 365/2/6
f 364/6/6 352/6/6 365/6/6
f 365/2/6 353/2/6 366/2/6
f 367/3/6 368/3/6 369/3/6
f 369/3/6 368/3/6 370/3/6
f 371/6/6 372/6/6 373/6/6
f 373/6/6 372/6/6 374/6/6
f 373/5/6 374/5/6 375/5/6
f 375/5/6 374/5/6 376/5/6
f 375/6/6 376/6/6 377/6/6
f 377/6/6 376/6/6 378/6/6
f 379/2/6 380/2/6 381/2/6
f 381/2/6 380/2/6 382/2/6
