# MagicaVoxel @ Ephtracy

# group
o 

# material
mtllib Porte(1)(frame1).mtl
usemtl palette

# normals
vn -1 0 0
vn 1 0 0
vn 0 0 1
vn 0 0 -1
vn 0 -1 0
vn 0 1 0

# texcoords
vt 0.958984 0.5
vt 0.978516 0.5
vt 0.986328 0.5
vt 0.994141 0.5

# verts
v -2.1 0 4.8
v -2.1 0 4.6
v -2.1 2.7 4.8
v -2.1 2.7 4.6
v -0.7 1.2 5
v -0.7 1.2 4.9
v -0.7 1.2 4.6
v -0.7 1.2 4.5
v -0.7 1.3 5
v -0.7 1.3 4.9
v -0.7 1.3 4.6
v -0.7 1.3 4.5
v -0.4 1.1 4.9
v -0.4 1.1 4.8
v -0.4 1.1 4.7
v -0.4 1.1 4.6
v -0.4 1.2 4.9
v -0.4 1.2 4.6
v -0.4 1.3 4.9
v -0.4 1.3 4.6
v -0.4 1.4 4.9
v -0.4 1.4 4.8
v -0.4 1.4 4.7
v -0.4 1.4 4.6
v -0.2 0 4.7
v -0.2 0 4.6
v -0.2 2.5 4.7
v -0.2 2.5 4.6
v -1.9 0 4.7
v -1.9 0 4.6
v -1.9 2.5 4.7
v -1.9 2.5 4.6
v -0.3 1.1 4.9
v -0.3 1.1 4.8
v -0.3 1.1 4.7
v -0.3 1.1 4.6
v -0.3 1.2 5
v -0.3 1.2 4.9
v -0.3 1.2 4.6
v -0.3 1.2 4.5
v -0.3 1.3 5
v -0.3 1.3 4.9
v -0.3 1.3 4.6
v -0.3 1.3 4.5
v -0.3 1.4 4.9
v -0.3 1.4 4.8
v -0.3 1.4 4.7
v -0.3 1.4 4.6
v 0 0 4.8
v 0 0 4.6
v 0 2.7 4.8
v 0 2.7 4.6
v -0.7 1.2 5
v -0.7 1.3 5
v -0.3 1.2 5
v -0.3 1.3 5
v -0.4 1.1 4.9
v -0.4 1.2 4.9
v -0.4 1.3 4.9
v -0.4 1.4 4.9
v -0.3 1.1 4.9
v -0.3 1.2 4.9
v -0.3 1.3 4.9
v -0.3 1.4 4.9
v -2.1 0 4.8
v -2.1 2.7 4.8
v -1.9 0 4.8
v -1.9 2.5 4.8
v -1.6 0.3 4.8
v -1.6 0.5 4.8
v -1.6 0.9 4.8
v -1.6 1.1 4.8
v -1.6 1.5 4.8
v -1.6 1.7 4.8
v -1.6 2.1 4.8
v -1.6 2.3 4.8
v -0.5 0.3 4.8
v -0.5 0.5 4.8
v -0.5 0.9 4.8
v -0.5 1.1 4.8
v -0.5 1.5 4.8
v -0.5 1.7 4.8
v -0.5 2.1 4.8
v -0.5 2.3 4.8
v -0.4 1.1 4.8
v -0.4 1.4 4.8
v -0.3 1.1 4.8
v -0.3 1.4 4.8
v -0.2 0 4.8
v -0.2 2.5 4.8
v 0 0 4.8
v 0 2.7 4.8
v -0.7 1.2 4.6
v -0.7 1.3 4.6
v -0.4 1.2 4.6
v -0.4 1.3 4.6
v -0.7 1.2 4.9
v -0.7 1.3 4.9
v -0.4 1.2 4.9
v -0.4 1.3 4.9
v -1.9 0 4.7
v -1.9 2.5 4.7
v -1.6 0.3 4.7
v -1.6 0.5 4.7
v -1.6 0.9 4.7
v -1.6 1.1 4.7
v -1.6 1.5 4.7
v -1.6 1.7 4.7
v -1.6 2.1 4.7
v -1.6 2.3 4.7
v -0.5 0.3 4.7
v -0.5 0.5 4.7
v -0.5 0.9 4.7
v -0.5 1.1 4.7
v -0.5 1.5 4.7
v -0.5 1.7 4.7
v -0.5 2.1 4.7
v -0.5 2.3 4.7
v -0.4 1.1 4.7
v -0.4 1.4 4.7
v -0.3 1.1 4.7
v -0.3 1.4 4.7
v -0.2 0 4.7
v -0.2 2.5 4.7
v -2.1 0 4.6
v -2.1 2.7 4.6
v -1.9 0 4.6
v -1.9 2.5 4.6
v -0.4 1.1 4.6
v -0.4 1.2 4.6
v -0.4 1.3 4.6
v -0.4 1.4 4.6
v -0.3 1.1 4.6
v -0.3 1.2 4.6
v -0.3 1.3 4.6
v -0.3 1.4 4.6
v -0.2 0 4.6
v -0.2 2.5 4.6
v 0 0 4.6
v 0 2.7 4.6
v -0.7 1.2 4.5
v -0.7 1.3 4.5
v -0.3 1.2 4.5
v -0.3 1.3 4.5
v -2.1 0 4.8
v -1.9 0 4.8
v -0.2 0 4.8
v 0 0 4.8
v -1.9 0 4.7
v -0.2 0 4.7
v -2.1 0 4.6
v -1.9 0 4.6
v -0.2 0 4.6
v 0 0 4.6
v -0.4 1.1 4.9
v -0.3 1.1 4.9
v -0.4 1.1 4.8
v -0.3 1.1 4.8
v -0.4 1.1 4.7
v -0.3 1.1 4.7
v -0.4 1.1 4.6
v -0.3 1.1 4.6
v -0.7 1.2 5
v -0.3 1.2 5
v -0.7 1.2 4.9
v -0.4 1.2 4.9
v -0.3 1.2 4.9
v -0.7 1.2 4.6
v -0.4 1.2 4.6
v -0.3 1.2 4.6
v -0.7 1.2 4.5
v -0.3 1.2 4.5
v -1.9 2.5 4.7
v -0.2 2.5 4.7
v -1.9 2.5 4.6
v -0.2 2.5 4.6
v -0.7 1.3 5
v -0.3 1.3 5
v -0.7 1.3 4.9
v -0.4 1.3 4.9
v -0.3 1.3 4.9
v -0.7 1.3 4.6
v -0.4 1.3 4.6
v -0.3 1.3 4.6
v -0.7 1.3 4.5
v -0.3 1.3 4.5
v -0.4 1.4 4.9
v -0.3 1.4 4.9
v -0.4 1.4 4.8
v -0.3 1.4 4.8
v -0.4 1.4 4.7
v -0.3 1.4 4.7
v -0.4 1.4 4.6
v -0.3 1.4 4.6
v -2.1 2.7 4.8
v 0 2.7 4.8
v -2.1 2.7 4.6
v 0 2.7 4.6

# faces
f 3/4/1 2/4/1 1/4/1
f 4/4/1 2/4/1 3/4/1
f 9/2/1 6/2/1 5/2/1
f 10/2/1 6/2/1 9/2/1
f 11/2/1 8/2/1 7/2/1
f 12/2/1 8/2/1 11/2/1
f 17/2/1 14/2/1 13/2/1
f 18/2/1 16/2/1 15/2/1
f 19/2/1 14/2/1 17/2/1
f 20/2/1 18/2/1 15/2/1
f 21/2/1 14/2/1 19/2/1
f 22/2/1 14/2/1 21/2/1
f 23/2/1 20/2/1 15/2/1
f 24/2/1 20/2/1 23/2/1
f 27/4/1 26/4/1 25/4/1
f 28/4/1 26/4/1 27/4/1
f 29/4/2 30/4/2 31/4/2
f 31/4/2 30/4/2 32/4/2
f 33/2/2 34/2/2 38/2/2
f 35/2/2 36/2/2 39/2/2
f 37/2/2 38/2/2 41/2/2
f 38/2/2 34/2/2 42/2/2
f 41/2/2 38/2/2 42/2/2
f 39/2/2 40/2/2 43/2/2
f 35/2/2 39/2/2 43/2/2
f 43/2/2 40/2/2 44/2/2
f 42/2/2 34/2/2 45/2/2
f 45/2/2 34/2/2 46/2/2
f 35/2/2 43/2/2 47/2/2
f 47/2/2 43/2/2 48/2/2
f 49/4/2 50/4/2 51/4/2
f 51/4/2 50/4/2 52/4/2
f 55/2/3 54/2/3 53/2/3
f 56/2/3 54/2/3 55/2/3
f 61/2/3 58/2/3 57/2/3
f 62/2/3 58/2/3 61/2/3
f 63/2/3 60/2/3 59/2/3
f 64/2/3 60/2/3 63/2/3
f 67/4/3 66/4/3 65/4/3
f 68/4/3 66/4/3 67/4/3
f 69/3/3 68/3/3 67/3/3
f 70/3/3 68/3/3 69/3/3
f 71/3/3 68/3/3 70/3/3
f 72/3/3 68/3/3 71/3/3
f 73/3/3 68/3/3 72/3/3
f 74/3/3 68/3/3 73/3/3
f 75/3/3 68/3/3 74/3/3
f 76/3/3 68/3/3 75/3/3
f 77/3/3 69/3/3 67/3/3
f 77/1/3 70/1/3 69/1/3
f 78/3/3 71/3/3 70/3/3
f 78/1/3 70/1/3 77/1/3
f 79/1/3 72/1/3 71/1/3
f 79/3/3 71/3/3 78/3/3
f 80/3/3 73/3/3 72/3/3
f 80/1/3 72/1/3 79/1/3
f 81/1/3 74/1/3 73/1/3
f 81/3/3 73/3/3 80/3/3
f 82/3/3 75/3/3 74/3/3
f 82/1/3 74/1/3 81/1/3
f 83/1/3 76/1/3 75/1/3
f 83/3/3 75/3/3 82/3/3
f 84/3/3 68/3/3 76/3/3
f 84/1/3 76/1/3 83/1/3
f 85/3/3 83/3/3 82/3/3
f 85/3/3 82/3/3 81/3/3
f 85/3/3 84/3/3 83/3/3
f 85/3/3 81/3/3 80/3/3
f 85/3/3 80/3/3 79/3/3
f 85/3/3 79/3/3 78/3/3
f 85/3/3 78/3/3 77/3/3
f 86/3/3 84/3/3 85/3/3
f 87/3/3 85/3/3 77/3/3
f 88/3/3 84/3/3 86/3/3
f 89/3/3 77/3/3 67/3/3
f 89/3/3 88/3/3 87/3/3
f 89/3/3 87/3/3 77/3/3
f 90/4/3 66/4/3 68/4/3
f 90/3/3 88/3/3 89/3/3
f 90/3/3 68/3/3 84/3/3
f 90/3/3 84/3/3 88/3/3
f 91/4/3 90/4/3 89/4/3
f 92/4/3 66/4/3 90/4/3
f 92/4/3 90/4/3 91/4/3
f 95/2/3 94/2/3 93/2/3
f 96/2/3 94/2/3 95/2/3
f 97/2/4 98/2/4 99/2/4
f 99/2/4 98/2/4 100/2/4
f 101/3/4 102/3/4 103/3/4
f 103/3/4 102/3/4 104/3/4
f 104/3/4 102/3/4 105/3/4
f 105/3/4 102/3/4 106/3/4
f 106/3/4 102/3/4 107/3/4
f 107/3/4 102/3/4 108/3/4
f 108/3/4 102/3/4 109/3/4
f 109/3/4 102/3/4 110/3/4
f 101/3/4 103/3/4 111/3/4
f 103/1/4 104/1/4 111/1/4
f 104/3/4 105/3/4 112/3/4
f 111/1/4 104/1/4 112/1/4
f 105/1/4 106/1/4 113/1/4
f 112/3/4 105/3/4 113/3/4
f 106/3/4 107/3/4 114/3/4
f 113/1/4 106/1/4 114/1/4
f 107/1/4 108/1/4 115/1/4
f 114/3/4 107/3/4 115/3/4
f 108/3/4 109/3/4 116/3/4
f 115/1/4 108/1/4 116/1/4
f 109/1/4 110/1/4 117/1/4
f 116/3/4 109/3/4 117/3/4
f 110/3/4 102/3/4 118/3/4
f 117/1/4 110/1/4 118/1/4
f 116/3/4 117/3/4 119/3/4
f 115/3/4 116/3/4 119/3/4
f 117/3/4 118/3/4 119/3/4
f 114/3/4 115/3/4 119/3/4
f 113/3/4 114/3/4 119/3/4
f 112/3/4 113/3/4 119/3/4
f 111/3/4 112/3/4 119/3/4
f 119/3/4 118/3/4 120/3/4
f 111/3/4 119/3/4 121/3/4
f 120/3/4 118/3/4 122/3/4
f 101/3/4 111/3/4 123/3/4
f 121/3/4 122/3/4 123/3/4
f 111/3/4 121/3/4 123/3/4
f 118/3/4 102/3/4 124/3/4
f 123/3/4 122/3/4 124/3/4
f 122/3/4 118/3/4 124/3/4
f 125/4/4 126/4/4 127/4/4
f 127/4/4 126/4/4 128/4/4
f 129/2/4 130/2/4 133/2/4
f 133/2/4 130/2/4 134/2/4
f 131/2/4 132/2/4 135/2/4
f 135/2/4 132/2/4 136/2/4
f 128/4/4 126/4/4 138/4/4
f 137/4/4 138/4/4 139/4/4
f 138/4/4 126/4/4 140/4/4
f 139/4/4 138/4/4 140/4/4
f 141/2/4 142/2/4 143/2/4
f 143/2/4 142/2/4 144/2/4
f 149/4/5 146/4/5 145/4/5
f 149/3/5 147/3/5 146/3/5
f 150/4/5 148/4/5 147/4/5
f 150/3/5 147/3/5 149/3/5
f 151/4/5 149/4/5 145/4/5
f 152/4/5 149/4/5 151/4/5
f 153/4/5 148/4/5 150/4/5
f 154/4/5 148/4/5 153/4/5
f 157/2/5 156/2/5 155/2/5
f 158/2/5 156/2/5 157/2/5
f 161/2/5 160/2/5 159/2/5
f 162/2/5 160/2/5 161/2/5
f 165/2/5 164/2/5 163/2/5
f 166/2/5 164/2/5 165/2/5
f 167/2/5 164/2/5 166/2/5
f 171/2/5 169/2/5 168/2/5
f 171/2/5 170/2/5 169/2/5
f 172/2/5 170/2/5 171/2/5
f 175/4/5 174/4/5 173/4/5
f 176/4/5 174/4/5 175/4/5
f 177/2/6 178/2/6 179/2/6
f 179/2/6 178/2/6 180/2/6
f 180/2/6 178/2/6 181/2/6
f 182/2/6 183/2/6 185/2/6
f 183/2/6 184/2/6 185/2/6
f 185/2/6 184/2/6 186/2/6
f 187/2/6 188/2/6 189/2/6
f 189/2/6 188/2/6 190/2/6
f 191/2/6 192/2/6 193/2/6
f 193/2/6 192/2/6 194/2/6
f 195/4/6 196/4/6 197/4/6
f 197/4/6 196/4/6 198/4/6
