# MagicaVoxel @ Ephtracy

# group
o 

# material
mtllib Table2(Well-Worn).mtl
usemtl palette

# normals
vn -1 0 0
vn 1 0 0
vn 0 0 1
vn 0 0 -1
vn 0 -1 0
vn 0 1 0

# texcoords
vt 0.373047 0.5
vt 0.869141 0.5
vt 0.873047 0.5
vt 0.994141 0.5

# verts
v -2.2 1.9 0
v -2.2 1.9 -0.5
v -2.2 1.9 -0.6
v -2.2 1.9 -3
v -2.2 1.9 -3.1
v -2.2 1.9 -3.2
v -2.2 1.9 -3.3
v -2.2 1.9 -3.8
v -2.2 2.2 0
v -2.2 2.2 -0.5
v -2.2 2.2 -0.6
v -2.2 2.2 -3
v -2.2 2.2 -3.1
v -2.2 2.2 -3.2
v -2.2 2.2 -3.3
v -2.2 2.2 -3.8
v -2.1 0 -0.5
v -2.1 0 -0.8
v -2.1 0 -3
v -2.1 0 -3.3
v -2.1 1.9 -0.5
v -2.1 1.9 -0.6
v -2.1 1.9 -0.8
v -2.1 1.9 -3
v -2.1 1.9 -3.1
v -2.1 1.9 -3.2
v -2.1 1.9 -3.3
v -0.4 0.1 -0.5
v -0.4 0.1 -0.8
v -0.4 0.1 -3
v -0.4 0.1 -3.3
v -0.4 1.9 -0.5
v -0.4 1.9 -0.6
v -0.4 1.9 -0.8
v -0.4 1.9 -3
v -0.4 1.9 -3.1
v -0.4 1.9 -3.2
v -0.4 1.9 -3.3
v -1.8 0.1 -0.5
v -1.8 0.1 -0.8
v -1.8 0.1 -3
v -1.8 0.1 -3.3
v -1.8 1.9 -0.5
v -1.8 1.9 -0.6
v -1.8 1.9 -0.8
v -1.8 1.9 -3
v -1.8 1.9 -3.1
v -1.8 1.9 -3.2
v -1.8 1.9 -3.3
v -0.0999999 0 -0.5
v -0.0999999 0 -0.8
v -0.0999999 0 -3
v -0.0999999 0 -3.3
v -0.0999999 1.9 -0.5
v -0.0999999 1.9 -0.8
v -0.0999999 1.9 -3
v -0.0999999 1.9 -3.1
v -0.0999999 1.9 -3.2
v -0.0999999 1.9 -3.3
v 0 1.9 0
v 0 1.9 -1.6
v 0 1.9 -1.7
v 0 1.9 -2.2
v 0 1.9 -2.5
v 0 1.9 -3
v 0 1.9 -3.1
v 0 1.9 -3.2
v 0 1.9 -3.3
v 0 1.9 -3.8
v 0 2 -1.5
v 0 2 -1.6
v 0 2 -1.7
v 0 2 -1.9
v 0 2 -2
v 0 2 -2.4
v 0 2 -2.5
v 0 2.1 -1.3
v 0 2.1 -1.5
v 0 2.1 -1.7
v 0 2.1 -1.9
v 0 2.1 -2
v 0 2.1 -2.2
v 0 2.1 -2.4
v 0 2.1 -2.6
v 0 2.2 0
v 0 2.2 -1.3
v 0 2.2 -1.6
v 0 2.2 -1.7
v 0 2.2 -2.6
v 0 2.2 -3
v 0 2.2 -3.1
v 0 2.2 -3.2
v 0 2.2 -3.3
v 0 2.2 -3.8
v -2.2 1.9 0
v -2.2 2.2 0
v -0.2 1.9 0
v -0.2 2.2 0
v -0.0999999 1.9 0
v -0.0999999 2.2 0
v 0 1.9 0
v 0 2.2 0
v -2.1 0 -0.5
v -2.1 1.9 -0.5
v -1.8 0.1 -0.5
v -1.8 1.9 -0.5
v -0.4 0.1 -0.5
v -0.4 1.9 -0.5
v -0.2 1.9 -0.5
v -0.0999999 0 -0.5
v -0.0999999 1.9 -0.5
v -2.1 0 -3
v -2.1 1.9 -3
v -2 1.9 -3
v -1.9 1.9 -3
v -1.8 0.1 -3
v -1.8 1.9 -3
v -0.4 0.1 -3
v -0.4 1.9 -3
v -0.0999999 0 -3
v -0.0999999 1.9 -3
v -2.1 0 -0.8
v -2.1 1.9 -0.8
v -1.8 0.1 -0.8
v -1.8 1.9 -0.8
v -0.4 0.1 -0.8
v -0.4 1.9 -0.8
v -0.2 1.9 -0.8
v -0.0999999 0 -0.8
v -0.0999999 1.9 -0.8
v -2.1 0 -3.3
v -2.1 1.9 -3.3
v -2 1.9 -3.3
v -1.9 1.9 -3.3
v -1.8 0.1 -3.3
v -1.8 1.9 -3.3
v -0.4 0.1 -3.3
v -0.4 1.9 -3.3
v -0.0999999 0 -3.3
v -0.0999999 1.9 -3.3
v -2.2 1.9 -3.8
v -2.2 2.2 -3.8
v -2.1 1.9 -3.8
v -2.1 2.2 -3.8
v -2 1.9 -3.8
v -2 2.2 -3.8
v -1.9 1.9 -3.8
v -1.9 2.2 -3.8
v -1.8 1.9 -3.8
v -1.8 2.2 -3.8
v 0 1.9 -3.8
v 0 2.2 -3.8
v -2.1 0 -0.5
v -0.0999999 0 -0.5
v -2.1 0 -0.8
v -0.0999999 0 -0.8
v -2.1 0 -3
v -0.0999999 0 -3
v -2.1 0 -3.3
v -0.0999999 0 -3.3
v -2.2 1.9 0
v -0.2 1.9 0
v -0.0999999 1.9 0
v 0 1.9 0
v -2.2 1.9 -0.5
v -2.1 1.9 -0.5
v -1.8 1.9 -0.5
v -0.4 1.9 -0.5
v -0.2 1.9 -0.5
v -0.0999999 1.9 -0.5
v -2.2 1.9 -0.6
v -2.1 1.9 -0.6
v -1.8 1.9 -0.6
v -0.4 1.9 -0.6
v -2.1 1.9 -0.8
v -1.8 1.9 -0.8
v -0.4 1.9 -0.8
v -0.2 1.9 -0.8
v -0.0999999 1.9 -0.8
v -1.9 1.9 -1.6
v -1.8 1.9 -1.6
v -0.0999999 1.9 -1.6
v 0 1.9 -1.6
v -0.2 1.9 -1.7
v -0.0999999 1.9 -1.7
v 0 1.9 -1.7
v -2.1 1.9 -1.9
v -2 1.9 -1.9
v -0.0999999 1.9 -2.2
v 0 1.9 -2.2
v -0.0999999 1.9 -2.5
v 0 1.9 -2.5
v -2.2 1.9 -3
v -2.1 1.9 -3
v -2 1.9 -3
v -1.9 1.9 -3
v -1.8 1.9 -3
v -0.4 1.9 -3
v -0.0999999 1.9 -3
v 0 1.9 -3
v -2.2 1.9 -3.1
v -2.1 1.9 -3.1
v -1.8 1.9 -3.1
v -0.4 1.9 -3.1
v -0.0999999 1.9 -3.1
v 0 1.9 -3.1
v -2.2 1.9 -3.2
v -2.1 1.9 -3.2
v -1.8 1.9 -3.2
v -0.4 1.9 -3.2
v -0.0999999 1.9 -3.2
v 0 1.9 -3.2
v -2.2 1.9 -3.3
v -2.1 1.9 -3.3
v -2 1.9 -3.3
v -1.9 1.9 -3.3
v -1.8 1.9 -3.3
v -0.4 1.9 -3.3
v -0.0999999 1.9 -3.3
v 0 1.9 -3.3
v -2.2 1.9 -3.8
v -2.1 1.9 -3.8
v -2 1.9 -3.8
v -1.9 1.9 -3.8
v -1.8 1.9 -3.8
v 0 1.9 -3.8
v -1.8 0.1 -0.5
v -0.4 0.1 -0.5
v -1.8 0.1 -0.8
v -0.4 0.1 -0.8
v -1.8 0.1 -3
v -0.4 0.1 -3
v -1.8 0.1 -3.3
v -0.4 0.1 -3.3
v -2.2 2.2 0
v -0.2 2.2 0
v -0.0999999 2.2 0
v 0 2.2 0
v -2.2 2.2 -0.5
v -0.6 2.2 -0.5
v -2.2 2.2 -0.6
v -0.6 2.2 -0.6
v -1.8 2.2 -0.9
v -1.6 2.2 -0.9
v -1.8 2.2 -1.1
v -1.7 2.2 -1.1
v -1.6 2.2 -1.1
v -1.5 2.2 -1.1
v -1.9 2.2 -1.2
v -1.8 2.2 -1.2
v -1.7 2.2 -1.2
v -1.6 2.2 -1.2
v -1.9 2.2 -1.3
v -1.8 2.2 -1.3
v -1.6 2.2 -1.3
v -1.5 2.2 -1.3
v -0.0999999 2.2 -1.3
v 0 2.2 -1.3
v -1.3 2.2 -1.4
v -1.1 2.2 -1.4
v -0.2 2.2 -1.4
v -0.0999999 2.2 -1.4
v -1.6 2.2 -1.5
v -1.5 2.2 -1.5
v -1.3 2.2 -1.5
v -1.2 2.2 -1.5
v -1.1 2.2 -1.5
v -0.6 2.2 -1.5
v -0.3 2.2 -1.5
v -0.2 2.2 -1.5
v -1.9 2.2 -1.6
v -1.8 2.2 -1.6
v -1.2 2.2 -1.6
v -1.1 2.2 -1.6
v -1 2.2 -1.6
v -0.6 2.2 -1.6
v -0.3 2.2 -1.6
v -0.0999999 2.2 -1.6
v 0 2.2 -1.6
v -1.6 2.2 -1.7
v -1.5 2.2 -1.7
v -1.4 2.2 -1.7
v -1.1 2.2 -1.7
v -1 2.2 -1.7
v -0.7 2.2 -1.7
v -0.6 2.2 -1.7
v -0.3 2.2 -1.7
v -0.0999999 2.2 -1.7
v 0 2.2 -1.7
v -0.7 2.2 -1.8
v -0.5 2.2 -1.8
v -0.3 2.2 -1.8
v -0.2 2.2 -1.8
v -2.1 2.2 -1.9
v -2 2.2 -1.9
v -1.4 2.2 -1.9
v -1.2 2.2 -1.9
v -0.5 2.2 -1.9
v -0.4 2.2 -1.9
v -1.7 2.2 -2
v -1.6 2.2 -2
v -0.4 2.2 -2
v -0.2 2.2 -2
v -1.4 2.2 -2.1
v -1.2 2.2 -2.1
v -1.9 2.2 -2.2
v -1.8 2.2 -2.2
v -1.7 2.2 -2.2
v -1.6 2.2 -2.2
v -1.3 2.2 -2.2
v -1.1 2.2 -2.2
v -2 2.2 -2.3
v -1.9 2.2 -2.3
v -1.4 2.2 -2.3
v -1.3 2.2 -2.3
v -1.2 2.2 -2.3
v -1.1 2.2 -2.3
v -0.7 2.2 -2.3
v -0.6 2.2 -2.3
v -2 2.2 -2.4
v -1.9 2.2 -2.4
v -1.8 2.2 -2.4
v -1.3 2.2 -2.4
v -1.2 2.2 -2.4
v -1 2.2 -2.4
v -0.7 2.2 -2.4
v -0.6 2.2 -2.4
v -0.2 2.2 -2.4
v -1.3 2.2 -2.5
v -1 2.2 -2.5
v -0.2 2.2 -2.5
v -0.0999999 2.2 -2.5
v -2 2.2 -2.6
v -1.9 2.2 -2.6
v -1.6 2.2 -2.6
v -1.4 2.2 -2.6
v -0.0999999 2.2 -2.6
v 0 2.2 -2.6
v -2 2.2 -2.7
v -1.9 2.2 -2.7
v -1.6 2.2 -2.7
v -1.4 2.2 -2.7
v -1.7 2.2 -2.8
v -1.6 2.2 -2.8
v -2.2 2.2 -3
v -2.1 2.2 -3
v -2 2.2 -3
v -1.9 2.2 -3
v -1.8 2.2 -3
v -1.7 2.2 -3
v -1.6 2.2 -3
v 0 2.2 -3
v -2.2 2.2 -3.1
v -2.1 2.2 -3.1
v -2 2.2 -3.1
v -1.9 2.2 -3.1
v -1.8 2.2 -3.1
v 0 2.2 -3.1
v -2.2 2.2 -3.2
v -2.1 2.2 -3.2
v -2 2.2 -3.2
v -1.9 2.2 -3.2
v -1.8 2.2 -3.2
v 0 2.2 -3.2
v -2.2 2.2 -3.3
v -2.1 2.2 -3.3
v -2 2.2 -3.3
v -1.9 2.2 -3.3
v -1.8 2.2 -3.3
v 0 2.2 -3.3
v -2.2 2.2 -3.8
v -2.1 2.2 -3.8
v -2 2.2 -3.8
v -1.9 2.2 -3.8
v -1.8 2.2 -3.8
v 0 2.2 -3.8

# faces
f 9/1/1 2/1/1 1/1/1
f 10/4/1 3/4/1 2/4/1
f 10/1/1 2/1/1 9/1/1
f 11/1/1 4/1/1 3/1/1
f 11/4/1 3/4/1 10/4/1
f 12/4/1 5/4/1 4/4/1
f 12/1/1 4/1/1 11/1/1
f 13/1/1 6/1/1 5/1/1
f 13/4/1 5/4/1 12/4/1
f 14/4/1 7/4/1 6/4/1
f 14/1/1 6/1/1 13/1/1
f 15/1/1 8/1/1 7/1/1
f 15/4/1 7/4/1 14/4/1
f 16/1/1 8/1/1 15/1/1
f 21/4/1 18/4/1 17/4/1
f 22/4/1 18/4/1 21/4/1
f 23/4/1 18/4/1 22/4/1
f 24/4/1 20/4/1 19/4/1
f 25/4/1 20/4/1 24/4/1
f 26/4/1 20/4/1 25/4/1
f 27/4/1 20/4/1 26/4/1
f 32/4/1 29/4/1 28/4/1
f 33/4/1 29/4/1 32/4/1
f 34/4/1 29/4/1 33/4/1
f 35/4/1 31/4/1 30/4/1
f 36/4/1 31/4/1 35/4/1
f 37/4/1 31/4/1 36/4/1
f 38/4/1 31/4/1 37/4/1
f 39/4/2 40/4/2 43/4/2
f 43/4/2 40/4/2 44/4/2
f 44/4/2 40/4/2 45/4/2
f 41/4/2 42/4/2 46/4/2
f 46/4/2 42/4/2 47/4/2
f 47/4/2 42/4/2 48/4/2
f 48/4/2 42/4/2 49/4/2
f 50/4/2 51/4/2 54/4/2
f 54/4/2 51/4/2 55/4/2
f 52/4/2 53/4/2 56/4/2
f 56/4/2 53/4/2 57/4/2
f 57/4/2 53/4/2 58/4/2
f 58/4/2 53/4/2 59/4/2
f 60/1/2 61/1/2 70/1/2
f 61/2/2 62/2/2 71/2/2
f 70/1/2 61/1/2 71/1/2
f 62/1/2 63/1/2 72/1/2
f 71/2/2 62/2/2 72/2/2
f 72/1/2 63/1/2 73/1/2
f 73/1/2 63/1/2 74/1/2
f 63/2/2 64/2/2 75/2/2
f 64/1/2 65/1/2 76/1/2
f 75/2/2 64/2/2 76/2/2
f 60/1/2 70/1/2 77/1/2
f 70/2/2 71/2/2 78/2/2
f 77/1/2 70/1/2 78/1/2
f 71/1/2 72/1/2 79/1/2
f 72/1/2 73/1/2 79/1/2
f 73/2/2 74/2/2 80/2/2
f 79/1/2 73/1/2 80/1/2
f 74/1/2 63/1/2 81/1/2
f 80/2/2 74/2/2 81/2/2
f 63/2/2 75/2/2 82/2/2
f 81/1/2 63/1/2 82/1/2
f 75/1/2 76/1/2 83/1/2
f 82/2/2 75/2/2 83/2/2
f 76/1/2 65/1/2 84/1/2
f 83/1/2 76/1/2 84/1/2
f 60/1/2 77/1/2 85/1/2
f 77/2/2 78/2/2 86/2/2
f 85/1/2 77/1/2 86/1/2
f 78/2/2 71/2/2 87/2/2
f 86/2/2 78/2/2 87/2/2
f 71/1/2 79/1/2 87/1/2
f 82/2/2 83/2/2 88/2/2
f 87/1/2 79/1/2 88/1/2
f 79/2/2 80/2/2 88/2/2
f 81/2/2 82/2/2 88/2/2
f 83/2/2 84/2/2 88/2/2
f 80/2/2 81/2/2 88/2/2
f 84/1/2 65/1/2 89/1/2
f 88/2/2 84/2/2 89/2/2
f 65/4/2 66/4/2 90/4/2
f 89/1/2 65/1/2 90/1/2
f 66/1/2 67/1/2 91/1/2
f 90/4/2 66/4/2 91/4/2
f 67/4/2 68/4/2 92/4/2
f 91/1/2 67/1/2 92/1/2
f 68/1/2 69/1/2 93/1/2
f 92/4/2 68/4/2 93/4/2
f 93/1/2 69/1/2 94/1/2
f 97/1/3 96/1/3 95/1/3
f 98/1/3 96/1/3 97/1/3
f 99/4/3 98/4/3 97/4/3
f 100/4/3 98/4/3 99/4/3
f 101/1/3 100/1/3 99/1/3
f 102/1/3 100/1/3 101/1/3
f 105/4/3 104/4/3 103/4/3
f 106/4/3 104/4/3 105/4/3
f 107/4/3 105/4/3 103/4/3
f 109/4/3 108/4/3 107/4/3
f 110/4/3 107/4/3 103/4/3
f 110/4/3 109/4/3 107/4/3
f 111/4/3 109/4/3 110/4/3
f 114/4/3 113/4/3 112/4/3
f 115/4/3 114/4/3 112/4/3
f 116/4/3 115/4/3 112/4/3
f 117/4/3 115/4/3 116/4/3
f 118/4/3 116/4/3 112/4/3
f 120/4/3 118/4/3 112/4/3
f 120/4/3 119/4/3 118/4/3
f 121/4/3 119/4/3 120/4/3
f 122/4/4 123/4/4 124/4/4
f 124/4/4 123/4/4 125/4/4
f 122/4/4 124/4/4 126/4/4
f 126/4/4 127/4/4 128/4/4
f 122/4/4 126/4/4 129/4/4
f 126/4/4 128/4/4 129/4/4
f 129/4/4 128/4/4 130/4/4
f 131/4/4 132/4/4 133/4/4
f 131/4/4 133/4/4 134/4/4
f 131/4/4 134/4/4 135/4/4
f 135/4/4 134/4/4 136/4/4
f 131/4/4 135/4/4 137/4/4
f 131/4/4 137/4/4 139/4/4
f 137/4/4 138/4/4 139/4/4
f 139/4/4 138/4/4 140/4/4
f 141/1/4 142/1/4 143/1/4
f 143/1/4 142/1/4 144/1/4
f 143/4/4 144/4/4 145/4/4
f 145/4/4 144/4/4 146/4/4
f 145/1/4 146/1/4 147/1/4
f 147/1/4 146/1/4 148/1/4
f 147/4/4 148/4/4 149/4/4
f 149/4/4 148/4/4 150/4/4
f 149/1/4 150/1/4 151/1/4
f 151/1/4 150/1/4 152/1/4
f 155/4/5 154/4/5 153/4/5
f 156/4/5 154/4/5 155/4/5
f 159/4/5 158/4/5 157/4/5
f 160/4/5 158/4/5 159/4/5
f 165/1/5 162/1/5 161/1/5
f 166/1/5 162/1/5 165/1/5
f 167/1/5 162/1/5 166/1/5
f 168/1/5 162/1/5 167/1/5
f 169/4/5 163/4/5 162/4/5
f 169/1/5 162/1/5 168/1/5
f 170/1/5 164/1/5 163/1/5
f 170/4/5 163/4/5 169/4/5
f 171/4/5 166/4/5 165/4/5
f 172/4/5 166/4/5 171/4/5
f 173/4/5 168/4/5 167/4/5
f 174/4/5 168/4/5 173/4/5
f 175/1/5 172/1/5 171/1/5
f 176/1/5 174/1/5 173/1/5
f 177/1/5 174/1/5 176/1/5
f 179/1/5 164/1/5 170/1/5
f 180/1/5 178/1/5 177/1/5
f 180/1/5 177/1/5 176/1/5
f 180/1/5 176/1/5 175/1/5
f 181/1/5 178/1/5 180/1/5
f 182/4/5 179/4/5 178/4/5
f 182/1/5 164/1/5 179/1/5
f 183/1/5 164/1/5 182/1/5
f 184/1/5 178/1/5 181/1/5
f 184/4/5 182/4/5 178/4/5
f 185/2/5 183/2/5 182/2/5
f 185/4/5 182/4/5 184/4/5
f 186/2/5 183/2/5 185/2/5
f 187/1/5 175/1/5 171/1/5
f 187/1/5 180/1/5 175/1/5
f 188/1/5 180/1/5 187/1/5
f 189/1/5 186/1/5 185/1/5
f 189/1/5 185/1/5 184/1/5
f 190/1/5 186/1/5 189/1/5
f 191/1/5 189/1/5 184/1/5
f 191/2/5 190/2/5 189/2/5
f 192/2/5 190/2/5 191/2/5
f 193/1/5 187/1/5 171/1/5
f 194/4/5 188/4/5 187/4/5
f 194/1/5 187/1/5 193/1/5
f 195/1/5 180/1/5 188/1/5
f 195/4/5 188/4/5 194/4/5
f 196/4/5 181/4/5 180/4/5
f 196/1/5 180/1/5 195/1/5
f 197/1/5 184/1/5 181/1/5
f 197/4/5 181/4/5 196/4/5
f 197/1/5 191/1/5 184/1/5
f 197/1/5 192/1/5 191/1/5
f 198/1/5 192/1/5 197/1/5
f 199/1/5 192/1/5 198/1/5
f 200/1/5 192/1/5 199/1/5
f 201/4/5 194/4/5 193/4/5
f 202/4/5 194/4/5 201/4/5
f 203/4/5 198/4/5 197/4/5
f 204/4/5 198/4/5 203/4/5
f 205/4/5 200/4/5 199/4/5
f 206/4/5 200/4/5 205/4/5
f 207/1/5 202/1/5 201/1/5
f 208/1/5 202/1/5 207/1/5
f 209/1/5 204/1/5 203/1/5
f 210/1/5 204/1/5 209/1/5
f 211/1/5 206/1/5 205/1/5
f 212/1/5 206/1/5 211/1/5
f 213/4/5 208/4/5 207/4/5
f 214/4/5 208/4/5 213/4/5
f 217/4/5 210/4/5 209/4/5
f 218/4/5 210/4/5 217/4/5
f 219/4/5 212/4/5 211/4/5
f 220/4/5 212/4/5 219/4/5
f 221/1/5 214/1/5 213/1/5
f 222/4/5 215/4/5 214/4/5
f 222/1/5 214/1/5 221/1/5
f 223/1/5 216/1/5 215/1/5
f 223/4/5 215/4/5 222/4/5
f 224/4/5 217/4/5 216/4/5
f 224/1/5 216/1/5 223/1/5
f 225/1/5 218/1/5 217/1/5
f 225/4/5 217/4/5 224/4/5
f 225/1/5 219/1/5 218/1/5
f 225/1/5 220/1/5 219/1/5
f 226/1/5 220/1/5 225/1/5
f 227/4/6 228/4/6 229/4/6
f 229/4/6 228/4/6 230/4/6
f 231/4/6 232/4/6 233/4/6
f 233/4/6 232/4/6 234/4/6
f 235/1/6 236/1/6 239/1/6
f 239/1/6 236/1/6 240/1/6
f 239/4/6 240/4/6 241/4/6
f 240/1/6 236/1/6 242/1/6
f 241/4/6 240/4/6 242/4/6
f 241/1/6 242/1/6 243/1/6
f 243/1/6 242/1/6 244/1/6
f 241/1/6 243/1/6 245/1/6
f 243/2/6 244/2/6 245/2/6
f 245/2/6 244/2/6 246/2/6
f 244/1/6 242/1/6 247/1/6
f 246/2/6 244/2/6 247/2/6
f 247/1/6 242/1/6 248/1/6
f 245/1/6 246/1/6 249/1/6
f 241/1/6 245/1/6 249/1/6
f 249/1/6 246/1/6 250/1/6
f 247/2/6 248/2/6 251/2/6
f 250/1/6 246/1/6 251/1/6
f 246/2/6 247/2/6 251/2/6
f 251/2/6 248/2/6 252/2/6
f 249/2/6 250/2/6 253/2/6
f 241/1/6 249/1/6 253/1/6
f 251/1/6 252/1/6 254/1/6
f 253/2/6 250/2/6 254/2/6
f 250/1/6 251/1/6 254/1/6
f 252/2/6 248/2/6 255/2/6
f 254/1/6 252/1/6 255/1/6
f 248/1/6 242/1/6 256/1/6
f 255/2/6 248/2/6 256/2/6
f 237/1/6 238/1/6 257/1/6
f 236/4/6 237/4/6 257/4/6
f 257/1/6 238/1/6 258/1/6
f 256/1/6 242/1/6 259/1/6
f 255/1/6 256/1/6 259/1/6
f 254/1/6 255/1/6 259/1/6
f 253/1/6 254/1/6 259/1/6
f 259/1/6 242/1/6 260/1/6
f 242/1/6 236/1/6 261/1/6
f 260/1/6 242/1/6 261/1/6
f 236/4/6 257/4/6 261/4/6
f 257/2/6 258/2/6 262/2/6
f 261/4/6 257/4/6 262/4/6
f 253/1/6 259/1/6 263/1/6
f 263/1/6 259/1/6 264/1/6
f 259/2/6 260/2/6 265/2/6
f 264/1/6 259/1/6 265/1/6
f 265/2/6 260/2/6 266/2/6
f 260/1/6 261/1/6 267/1/6
f 266/2/6 260/2/6 267/2/6
f 267/1/6 261/1/6 268/1/6
f 268/1/6 261/1/6 269/1/6
f 261/2/6 262/2/6 270/2/6
f 269/1/6 261/1/6 270/1/6
f 241/1/6 253/1/6 271/1/6
f 253/1/6 263/1/6 271/1/6
f 271/1/6 263/1/6 272/1/6
f 265/1/6 266/1/6 273/1/6
f 264/1/6 265/1/6 273/1/6
f 266/2/6 267/2/6 273/2/6
f 267/2/6 268/2/6 273/2/6
f 273/2/6 268/2/6 274/2/6
f 274/2/6 268/2/6 275/2/6
f 268/1/6 269/1/6 276/1/6
f 275/2/6 268/2/6 276/2/6
f 269/2/6 270/2/6 277/2/6
f 276/1/6 269/1/6 277/1/6
f 262/2/6 258/2/6 278/2/6
f 277/2/6 270/2/6 278/2/6
f 270/2/6 262/2/6 278/2/6
f 278/2/6 258/2/6 279/2/6
f 272/1/6 263/1/6 280/1/6
f 263/2/6 264/2/6 280/2/6
f 273/1/6 274/1/6 281/1/6
f 280/2/6 264/2/6 281/2/6
f 264/1/6 273/1/6 281/1/6
f 281/1/6 274/1/6 282/1/6
f 274/2/6 275/2/6 283/2/6
f 282/1/6 274/1/6 283/1/6
f 275/3/6 276/3/6 284/3/6
f 283/2/6 275/2/6 284/2/6
f 284/3/6 276/3/6 285/3/6
f 276/2/6 277/2/6 286/2/6
f 285/3/6 276/3/6 286/3/6
f 277/2/6 278/2/6 286/2/6
f 286/2/6 278/2/6 287/2/6
f 278/1/6 279/1/6 288/1/6
f 287/2/6 278/2/6 288/2/6
f 288/1/6 279/1/6 289/1/6
f 286/3/6 287/3/6 290/3/6
f 284/2/6 285/2/6 290/2/6
f 282/2/6 283/2/6 290/2/6
f 283/2/6 284/2/6 290/2/6
f 285/3/6 286/3/6 290/3/6
f 290/3/6 287/3/6 291/3/6
f 288/2/6 289/2/6 292/2/6
f 291/3/6 287/3/6 292/3/6
f 287/2/6 288/2/6 292/2/6
f 292/2/6 289/2/6 293/2/6
f 241/1/6 271/1/6 294/1/6
f 294/1/6 271/1/6 295/1/6
f 290/2/6 291/2/6 296/2/6
f 281/1/6 282/1/6 296/1/6
f 282/2/6 290/2/6 296/2/6
f 280/1/6 281/1/6 296/1/6
f 296/2/6 291/2/6 297/2/6
f 292/3/6 293/3/6 298/3/6
f 297/2/6 291/2/6 298/2/6
f 291/3/6 292/3/6 298/3/6
f 298/3/6 293/3/6 299/3/6
f 272/1/6 280/1/6 300/1/6
f 296/1/6 297/1/6 300/1/6
f 280/1/6 296/1/6 300/1/6
f 300/1/6 297/1/6 301/1/6
f 299/3/6 293/3/6 302/3/6
f 298/2/6 299/2/6 302/2/6
f 297/2/6 298/2/6 302/2/6
f 293/2/6 289/2/6 303/2/6
f 302/3/6 293/3/6 303/3/6
f 301/1/6 297/1/6 304/1/6
f 297/2/6 302/2/6 305/2/6
f 304/1/6 297/1/6 305/1/6
f 302/2/6 303/2/6 305/2/6
f 295/1/6 271/1/6 306/1/6
f 271/4/6 272/4/6 306/4/6
f 272/1/6 300/1/6 307/1/6
f 306/4/6 272/4/6 307/4/6
f 300/2/6 301/2/6 308/2/6
f 307/1/6 300/1/6 308/1/6
f 301/1/6 304/1/6 309/1/6
f 308/2/6 301/2/6 309/2/6
f 304/2/6 305/2/6 310/2/6
f 305/2/6 303/2/6 311/2/6
f 310/2/6 305/2/6 311/2/6
f 294/4/6 295/4/6 312/4/6
f 295/1/6 306/1/6 312/1/6
f 306/2/6 307/2/6 313/2/6
f 312/1/6 306/1/6 313/1/6
f 304/2/6 310/2/6 314/2/6
f 309/1/6 304/1/6 314/1/6
f 307/1/6 308/1/6 314/1/6
f 308/1/6 309/1/6 314/1/6
f 310/1/6 311/1/6 315/1/6
f 314/2/6 310/2/6 315/2/6
f 315/1/6 311/1/6 316/1/6
f 311/2/6 303/2/6 317/2/6
f 316/1/6 311/1/6 317/1/6
f 317/2/6 303/2/6 318/2/6
f 318/2/6 303/2/6 319/2/6
f 312/2/6 313/2/6 320/2/6
f 294/4/6 312/4/6 320/4/6
f 313/2/6 307/2/6 321/2/6
f 320/2/6 313/2/6 321/2/6
f 315/1/6 316/1/6 322/1/6
f 321/2/6 307/2/6 322/2/6
f 307/1/6 314/1/6 322/1/6
f 314/1/6 315/1/6 322/1/6
f 322/1/6 316/1/6 323/1/6
f 317/2/6 318/2/6 324/2/6
f 323/1/6 316/1/6 324/1/6
f 316/2/6 317/2/6 324/2/6
f 324/2/6 318/2/6 325/2/6
f 318/1/6 319/1/6 326/1/6
f 325/2/6 318/2/6 326/2/6
f 319/2/6 303/2/6 327/2/6
f 326/1/6 319/1/6 327/1/6
f 303/2/6 289/2/6 328/2/6
f 327/2/6 303/2/6 328/2/6
f 322/1/6 323/1/6 329/1/6
f 324/2/6 325/2/6 329/2/6
f 323/2/6 324/2/6 329/2/6
f 326/1/6 327/1/6 330/1/6
f 329/2/6 325/2/6 330/2/6
f 325/1/6 326/1/6 330/1/6
f 327/1/6 328/1/6 330/1/6
f 328/2/6 289/2/6 331/2/6
f 330/1/6 328/1/6 331/1/6
f 331/2/6 289/2/6 332/2/6
f 294/4/6 320/4/6 333/4/6
f 320/1/6 321/1/6 333/1/6
f 321/4/6 322/4/6 334/4/6
f 333/1/6 321/1/6 334/1/6
f 322/1/6 329/1/6 335/1/6
f 331/1/6 332/1/6 335/1/6
f 329/1/6 330/1/6 335/1/6
f 330/1/6 331/1/6 335/1/6
f 335/1/6 332/1/6 336/1/6
f 332/2/6 289/2/6 337/2/6
f 336/1/6 332/1/6 337/1/6
f 337/2/6 289/2/6 338/2/6
f 333/2/6 334/2/6 339/2/6
f 294/4/6 333/4/6 339/4/6
f 334/4/6 322/4/6 340/4/6
f 339/2/6 334/2/6 340/2/6
f 335/2/6 336/2/6 341/2/6
f 322/1/6 335/1/6 341/1/6
f 337/1/6 338/1/6 342/1/6
f 341/2/6 336/2/6 342/2/6
f 336/1/6 337/1/6 342/1/6
f 322/1/6 341/1/6 343/1/6
f 341/1/6 342/1/6 343/1/6
f 343/1/6 342/1/6 344/1/6
f 241/1/6 294/1/6 345/1/6
f 294/4/6 339/4/6 346/4/6
f 345/1/6 294/1/6 346/1/6
f 339/1/6 340/1/6 347/1/6
f 346/4/6 339/4/6 347/4/6
f 340/4/6 322/4/6 348/4/6
f 347/1/6 340/1/6 348/1/6
f 322/1/6 343/1/6 349/1/6
f 348/4/6 322/4/6 349/4/6
f 343/2/6 344/2/6 350/2/6
f 349/1/6 343/1/6 350/1/6
f 344/1/6 342/1/6 351/1/6
f 350/2/6 344/2/6 351/2/6
f 342/1/6 338/1/6 352/1/6
f 351/1/6 342/1/6 352/1/6
f 346/4/6 347/4/6 353/4/6
f 349/4/6 350/4/6 353/4/6
f 351/4/6 352/4/6 353/4/6
f 348/4/6 349/4/6 353/4/6
f 347/4/6 348/4/6 353/4/6
f 345/4/6 346/4/6 353/4/6
f 350/4/6 351/4/6 353/4/6
f 353/4/6 352/4/6 354/4/6
f 354/4/6 352/4/6 355/4/6
f 355/4/6 352/4/6 356/4/6
f 356/4/6 352/4/6 357/4/6
f 357/4/6 352/4/6 358/4/6
f 353/1/6 354/1/6 359/1/6
f 354/4/6 355/4/6 360/4/6
f 359/1/6 354/1/6 360/1/6
f 355/1/6 356/1/6 361/1/6
f 360/4/6 355/4/6 361/4/6
f 356/4/6 357/4/6 362/4/6
f 361/1/6 356/1/6 362/1/6
f 357/1/6 358/1/6 363/1/6
f 362/4/6 357/4/6 363/4/6
f 363/1/6 358/1/6 364/1/6
f 359/4/6 360/4/6 365/4/6
f 360/4/6 361/4/6 365/4/6
f 363/4/6 364/4/6 365/4/6
f 362/4/6 363/4/6 365/4/6
f 361/4/6 362/4/6 365/4/6
f 365/4/6 364/4/6 366/4/6
f 366/4/6 364/4/6 367/4/6
f 367/4/6 364/4/6 368/4/6
f 368/4/6 364/4/6 369/4/6
f 369/4/6 364/4/6 370/4/6
f 365/1/6 366/1/6 371/1/6
f 366/4/6 367/4/6 372/4/6
f 371/1/6 366/1/6 372/1/6
f 367/1/6 368/1/6 373/1/6
f 372/4/6 367/4/6 373/4/6
f 368/4/6 369/4/6 374/4/6
f 373/1/6 368/1/6 374/1/6
f 369/1/6 370/1/6 375/1/6
f 374/4/6 369/4/6 375/4/6
f 375/1/6 370/1/6 376/1/6
