# MagicaVoxel @ Ephtracy

# group
o 

# material
mtllib Tableau_carre.mtl
usemtl palette

# normals
vn -1 0 0
vn 1 0 0
vn 0 0 1
vn 0 0 -1
vn 0 -1 0
vn 0 1 0

# texcoords
vt 0.0410156 0.5
vt 0.587891 0.5
vt 0.857422 0.5
vt 0.962891 0.5
vt 0.990234 0.5
vt 0.994141 0.5

# verts
v -0.6 0.6 -0.2
v -0.6 0.6 -0.4
v -0.6 1.5 -0.2
v -0.6 1.5 -0.4
v 0.7 0.7 -0.2
v 0.7 0.7 -0.3
v 0.7 1 -0.3
v 0.7 1.1 -0.3
v 0.7 1.4 -0.2
v 0.7 1.4 -0.3
v -0.5 0.7 -0.2
v -0.5 0.7 -0.3
v -0.5 0.8 -0.3
v -0.5 0.9 -0.3
v -0.5 1 -0.3
v -0.5 1.1 -0.3
v -0.5 1.4 -0.2
v -0.5 1.4 -0.3
v 0.8 0.6 -0.2
v 0.8 0.6 -0.4
v 0.8 1.5 -0.2
v 0.8 1.5 -0.4
v -0.6 0.6 -0.2
v -0.6 1.5 -0.2
v -0.5 0.7 -0.2
v -0.5 1.4 -0.2
v 0.7 0.7 -0.2
v 0.7 1.4 -0.2
v 0.8 0.6 -0.2
v 0.8 1.5 -0.2
v -0.5 0.7 -0.3
v -0.5 0.8 -0.3
v -0.5 0.9 -0.3
v -0.5 1 -0.3
v -0.5 1.1 -0.3
v -0.5 1.4 -0.3
v -0.2 0.7 -0.3
v -0.2 0.8 -0.3
v -0.2 0.9 -0.3
v -0.2 1 -0.3
v -0.2 1.1 -0.3
v -0.2 1.4 -0.3
v -0.0999999 0.7 -0.3
v -0.0999999 1 -0.3
v -0.0999999 1.1 -0.3
v -0.0999999 1.4 -0.3
v 0.2 1.1 -0.3
v 0.2 1.4 -0.3
v 0.3 0.7 -0.3
v 0.3 1 -0.3
v 0.3 1.1 -0.3
v 0.3 1.4 -0.3
v 0.4 0.7 -0.3
v 0.4 1 -0.3
v 0.5 1.1 -0.3
v 0.5 1.4 -0.3
v 0.6 1.1 -0.3
v 0.6 1.4 -0.3
v 0.7 0.7 -0.3
v 0.7 1 -0.3
v 0.7 1.1 -0.3
v 0.7 1.4 -0.3
v -0.6 0.6 -0.4
v -0.6 1.5 -0.4
v -0.5 0.7 -0.4
v -0.5 0.8 -0.4
v -0.5 0.9 -0.4
v -0.5 1 -0.4
v -0.5 1.1 -0.4
v -0.5 1.4 -0.4
v -0.2 0.7 -0.4
v -0.2 0.8 -0.4
v -0.2 0.9 -0.4
v -0.2 1 -0.4
v -0.2 1.1 -0.4
v -0.2 1.4 -0.4
v -0.0999999 0.7 -0.4
v -0.0999999 1 -0.4
v -0.0999999 1.1 -0.4
v -0.0999999 1.4 -0.4
v 0.2 1.1 -0.4
v 0.2 1.4 -0.4
v 0.3 0.7 -0.4
v 0.3 1 -0.4
v 0.3 1.1 -0.4
v 0.3 1.4 -0.4
v 0.4 0.7 -0.4
v 0.4 1 -0.4
v 0.5 1.1 -0.4
v 0.5 1.4 -0.4
v 0.6 1.1 -0.4
v 0.6 1.4 -0.4
v 0.7 0.7 -0.4
v 0.7 1 -0.4
v 0.7 1.1 -0.4
v 0.7 1.4 -0.4
v 0.8 0.6 -0.4
v 0.8 1.5 -0.4
v -0.6 0.6 -0.2
v 0.8 0.6 -0.2
v -0.6 0.6 -0.4
v 0.8 0.6 -0.4
v -0.5 1.4 -0.2
v 0.7 1.4 -0.2
v -0.5 1.4 -0.3
v -0.2 1.4 -0.3
v -0.0999999 1.4 -0.3
v 0.2 1.4 -0.3
v 0.3 1.4 -0.3
v 0.5 1.4 -0.3
v 0.6 1.4 -0.3
v 0.7 1.4 -0.3
v -0.5 0.7 -0.2
v 0.7 0.7 -0.2
v -0.5 0.7 -0.3
v -0.2 0.7 -0.3
v -0.0999999 0.7 -0.3
v 0.3 0.7 -0.3
v 0.4 0.7 -0.3
v 0.7 0.7 -0.3
v -0.6 1.5 -0.2
v 0.8 1.5 -0.2
v -0.6 1.5 -0.4
v 0.8 1.5 -0.4

# faces
f 3/6/1 2/6/1 1/6/1
f 4/6/1 2/6/1 3/6/1
f 7/6/1 6/6/1 5/6/1
f 8/6/1 7/6/1 5/6/1
f 9/6/1 8/6/1 5/6/1
f 10/6/1 8/6/1 9/6/1
f 11/6/2 12/6/2 13/6/2
f 11/6/2 13/6/2 14/6/2
f 11/6/2 14/6/2 15/6/2
f 11/6/2 15/6/2 16/6/2
f 11/6/2 16/6/2 17/6/2
f 17/6/2 16/6/2 18/6/2
f 19/6/2 20/6/2 21/6/2
f 21/6/2 20/6/2 22/6/2
f 25/6/3 24/6/3 23/6/3
f 26/6/3 24/6/3 25/6/3
f 27/6/3 25/6/3 23/6/3
f 28/6/3 24/6/3 26/6/3
f 29/6/3 27/6/3 23/6/3
f 29/6/3 28/6/3 27/6/3
f 30/6/3 24/6/3 28/6/3
f 30/6/3 28/6/3 29/6/3
f 37/4/3 32/4/3 31/4/3
f 38/5/3 33/5/3 32/5/3
f 38/4/3 32/4/3 37/4/3
f 39/2/3 34/2/3 33/2/3
f 39/5/3 33/5/3 38/5/3
f 40/5/3 35/5/3 34/5/3
f 40/2/3 34/2/3 39/2/3
f 41/3/3 36/3/3 35/3/3
f 41/5/3 35/5/3 40/5/3
f 42/3/3 36/3/3 41/3/3
f 43/5/3 40/5/3 39/5/3
f 43/5/3 38/5/3 37/5/3
f 43/5/3 42/5/3 41/5/3
f 43/5/3 41/5/3 40/5/3
f 43/5/3 39/5/3 38/5/3
f 44/5/3 42/5/3 43/5/3
f 45/5/3 42/5/3 44/5/3
f 46/5/3 42/5/3 45/5/3
f 47/5/3 45/5/3 44/5/3
f 47/4/3 46/4/3 45/4/3
f 48/4/3 46/4/3 47/4/3
f 49/1/3 44/1/3 43/1/3
f 50/5/3 47/5/3 44/5/3
f 50/1/3 44/1/3 49/1/3
f 50/5/3 48/5/3 47/5/3
f 51/5/3 48/5/3 50/5/3
f 52/5/3 48/5/3 51/5/3
f 53/5/3 50/5/3 49/5/3
f 53/5/3 51/5/3 50/5/3
f 54/5/3 51/5/3 53/5/3
f 55/2/3 52/2/3 51/2/3
f 55/5/3 51/5/3 54/5/3
f 56/2/3 52/2/3 55/2/3
f 57/5/3 55/5/3 54/5/3
f 57/5/3 56/5/3 55/5/3
f 58/5/3 56/5/3 57/5/3
f 59/4/3 54/4/3 53/4/3
f 60/5/3 57/5/3 54/5/3
f 60/4/3 54/4/3 59/4/3
f 61/1/3 58/1/3 57/1/3
f 61/5/3 57/5/3 60/5/3
f 62/1/3 58/1/3 61/1/3
f 63/6/4 64/6/4 65/6/4
f 65/6/4 64/6/4 66/6/4
f 66/6/4 64/6/4 67/6/4
f 67/6/4 64/6/4 68/6/4
f 68/6/4 64/6/4 69/6/4
f 69/6/4 64/6/4 70/6/4
f 63/6/4 65/6/4 71/6/4
f 65/4/4 66/4/4 71/4/4
f 66/5/4 67/5/4 72/5/4
f 71/4/4 66/4/4 72/4/4
f 67/2/4 68/2/4 73/2/4
f 72/5/4 67/5/4 73/5/4
f 68/5/4 69/5/4 74/5/4
f 73/2/4 68/2/4 74/2/4
f 69/3/4 70/3/4 75/3/4
f 74/5/4 69/5/4 75/5/4
f 70/6/4 64/6/4 76/6/4
f 75/3/4 70/3/4 76/3/4
f 74/5/4 75/5/4 77/5/4
f 73/5/4 74/5/4 77/5/4
f 75/5/4 76/5/4 77/5/4
f 72/5/4 73/5/4 77/5/4
f 71/5/4 72/5/4 77/5/4
f 63/6/4 71/6/4 77/6/4
f 77/5/4 76/5/4 78/5/4
f 78/5/4 76/5/4 79/5/4
f 76/6/4 64/6/4 80/6/4
f 79/5/4 76/5/4 80/5/4
f 78/5/4 79/5/4 81/5/4
f 79/4/4 80/4/4 81/4/4
f 80/6/4 64/6/4 82/6/4
f 81/4/4 80/4/4 82/4/4
f 63/6/4 77/6/4 83/6/4
f 77/1/4 78/1/4 83/1/4
f 78/5/4 81/5/4 84/5/4
f 83/1/4 78/1/4 84/1/4
f 81/5/4 82/5/4 84/5/4
f 84/5/4 82/5/4 85/5/4
f 82/6/4 64/6/4 86/6/4
f 85/5/4 82/5/4 86/5/4
f 63/6/4 83/6/4 87/6/4
f 84/5/4 85/5/4 87/5/4
f 83/5/4 84/5/4 87/5/4
f 87/5/4 85/5/4 88/5/4
f 85/2/4 86/2/4 89/2/4
f 88/5/4 85/5/4 89/5/4
f 86/6/4 64/6/4 90/6/4
f 89/2/4 86/2/4 90/2/4
f 88/5/4 89/5/4 91/5/4
f 89/5/4 90/5/4 91/5/4
f 90/6/4 64/6/4 92/6/4
f 91/5/4 90/5/4 92/5/4
f 87/4/4 88/4/4 93/4/4
f 63/6/4 87/6/4 93/6/4
f 88/5/4 91/5/4 94/5/4
f 93/4/4 88/4/4 94/4/4
f 91/1/4 92/1/4 95/1/4
f 94/5/4 91/5/4 95/5/4
f 92/6/4 64/6/4 96/6/4
f 95/1/4 92/1/4 96/1/4
f 63/6/4 93/6/4 97/6/4
f 94/6/4 95/6/4 97/6/4
f 95/6/4 96/6/4 97/6/4
f 93/6/4 94/6/4 97/6/4
f 96/6/4 64/6/4 98/6/4
f 97/6/4 96/6/4 98/6/4
f 101/6/5 100/6/5 99/6/5
f 102/6/5 100/6/5 101/6/5
f 105/6/5 104/6/5 103/6/5
f 106/6/5 104/6/5 105/6/5
f 107/6/5 104/6/5 106/6/5
f 108/6/5 104/6/5 107/6/5
f 109/6/5 104/6/5 108/6/5
f 110/6/5 104/6/5 109/6/5
f 111/6/5 104/6/5 110/6/5
f 112/6/5 104/6/5 111/6/5
f 113/6/6 114/6/6 115/6/6
f 115/6/6 114/6/6 116/6/6
f 116/6/6 114/6/6 117/6/6
f 117/6/6 114/6/6 118/6/6
f 118/6/6 114/6/6 119/6/6
f 119/6/6 114/6/6 120/6/6
f 121/6/6 122/6/6 123/6/6
f 123/6/6 122/6/6 124/6/6
