# MagicaVoxel @ Ephtracy

# group
o 

# material
mtllib Tasse(Battle-Scarred).mtl
usemtl palette

# normals
vn -1 0 0
vn 1 0 0
vn 0 0 1
vn 0 0 -1
vn 0 -1 0
vn 0 1 0

# texcoords
vt 0.958984 0.5
vt 0.978516 0.5
vt 0.994141 0.5

# verts
v -0.5 0.1 -0.1
v -0.5 0.1 -0.4
v -0.5 0.2 -0.2
v -0.5 0.2 -0.3
v -0.5 0.3 -0.2
v -0.5 0.3 -0.3
v -0.5 0.3 -0.4
v -0.5 0.4 -0.2
v -0.5 0.4 -0.3
v -0.5 0.4 -0.4
v -0.5 0.5 -0.1
v -0.5 0.5 -0.2
v -0.5 0.5 -0.3
v -0.5 0.6 -0.1
v -0.5 0.6 -0.2
v -0.5 0.6 -0.3
v -0.5 0.7 -0.2
v -0.5 0.7 -0.3
v -0.5 0.8 -0.2
v -0.5 0.8 -0.3
v -0.5 0.9 -0.1
v -0.5 0.9 -0.4
v -0.4 0 -0.1
v -0.4 0 -0.3
v -0.4 0 -0.4
v -0.4 0.1 0
v -0.4 0.1 -0.1
v -0.4 0.1 -0.3
v -0.4 0.1 -0.4
v -0.4 0.1 -0.5
v -0.4 0.3 -0.4
v -0.4 0.3 -0.5
v -0.4 0.4 -0.4
v -0.4 0.4 -0.5
v -0.4 0.5 -0.1
v -0.4 0.6 -0.1
v -0.4 0.9 0
v -0.4 0.9 -0.1
v -0.4 0.9 -0.4
v -0.4 0.9 -0.5
v -0.3 0.4 -0.5
v -0.3 0.4 -0.6
v -0.3 0.5 -0.5
v -0.3 0.5 -0.6
v -0.3 0.5 -0.7
v -0.3 0.7 -0.6
v -0.3 0.7 -0.7
v -0.1 0.2 -0.1
v -0.1 0.2 -0.2
v -0.1 0.2 -0.3
v -0.1 0.2 -0.4
v -0.1 0.3 -0.2
v -0.1 0.3 -0.3
v -0.1 0.4 -0.2
v -0.1 0.4 -0.3
v -0.1 0.5 -0.1
v -0.1 0.5 -0.2
v -0.1 0.6 -0.2
v -0.1 0.6 -0.3
v -0.1 0.9 -0.3
v -0.1 0.9 -0.4
v -0.4 0.2 -0.1
v -0.4 0.2 -0.2
v -0.4 0.2 -0.3
v -0.4 0.2 -0.4
v -0.4 0.3 -0.2
v -0.4 0.3 -0.3
v -0.4 0.3 -0.4
v -0.4 0.4 -0.2
v -0.4 0.4 -0.3
v -0.4 0.4 -0.4
v -0.4 0.5 -0.1
v -0.4 0.5 -0.2
v -0.4 0.5 -0.3
v -0.4 0.6 -0.1
v -0.4 0.6 -0.2
v -0.4 0.6 -0.3
v -0.4 0.7 -0.2
v -0.4 0.7 -0.3
v -0.4 0.8 -0.2
v -0.4 0.8 -0.3
v -0.4 0.9 -0.1
v -0.4 0.9 -0.4
v -0.3 0.7 0
v -0.3 0.7 -0.1
v -0.3 0.9 0
v -0.3 0.9 -0.1
v -0.2 0.4 -0.5
v -0.2 0.4 -0.6
v -0.2 0.5 0
v -0.2 0.5 -0.1
v -0.2 0.5 -0.5
v -0.2 0.5 -0.6
v -0.2 0.5 -0.7
v -0.2 0.7 0
v -0.2 0.7 -0.1
v -0.2 0.7 -0.6
v -0.2 0.7 -0.7
v -0.1 0 -0.1
v -0.1 0 -0.4
v -0.1 0.1 0
v -0.1 0.1 -0.1
v -0.1 0.1 -0.4
v -0.1 0.1 -0.5
v -0.1 0.5 0
v -0.1 0.5 -0.1
v -0.1 0.9 -0.4
v -0.1 0.9 -0.5
v 0 0.1 -0.1
v 0 0.1 -0.4
v 0 0.2 -0.2
v 0 0.2 -0.3
v 0 0.3 -0.2
v 0 0.3 -0.3
v 0 0.4 -0.2
v 0 0.4 -0.3
v 0 0.5 -0.1
v 0 0.5 -0.2
v 0 0.6 -0.2
v 0 0.6 -0.3
v 0 0.9 -0.3
v 0 0.9 -0.4
v -0.4 0.1 0
v -0.4 0.9 0
v -0.3 0.7 0
v -0.3 0.9 0
v -0.2 0.5 0
v -0.2 0.7 0
v -0.1 0.1 0
v -0.1 0.5 0
v -0.5 0.1 -0.1
v -0.5 0.5 -0.1
v -0.5 0.6 -0.1
v -0.5 0.9 -0.1
v -0.4 0 -0.1
v -0.4 0.1 -0.1
v -0.4 0.5 -0.1
v -0.4 0.6 -0.1
v -0.4 0.9 -0.1
v -0.1 0 -0.1
v -0.1 0.1 -0.1
v -0.1 0.5 -0.1
v 0 0.1 -0.1
v 0 0.5 -0.1
v -0.1 0.5 -0.2
v -0.1 0.6 -0.2
v 0 0.5 -0.2
v 0 0.6 -0.2
v -0.1 0.6 -0.3
v -0.1 0.9 -0.3
v 0 0.6 -0.3
v 0 0.9 -0.3
v -0.4 0.2 -0.4
v -0.4 0.3 -0.4
v -0.4 0.4 -0.4
v -0.4 0.9 -0.4
v -0.3 0.3 -0.4
v -0.3 0.4 -0.4
v -0.1 0.2 -0.4
v -0.1 0.9 -0.4
v -0.3 0.5 -0.6
v -0.3 0.7 -0.6
v -0.2 0.5 -0.6
v -0.2 0.7 -0.6
v -0.4 0.2 -0.1
v -0.4 0.5 -0.1
v -0.4 0.6 -0.1
v -0.4 0.9 -0.1
v -0.3 0.7 -0.1
v -0.3 0.9 -0.1
v -0.2 0.5 -0.1
v -0.2 0.7 -0.1
v -0.1 0.2 -0.1
v -0.1 0.5 -0.1
v -0.5 0.1 -0.4
v -0.5 0.3 -0.4
v -0.5 0.4 -0.4
v -0.5 0.9 -0.4
v -0.4 0 -0.4
v -0.4 0.1 -0.4
v -0.4 0.3 -0.4
v -0.4 0.4 -0.4
v -0.4 0.9 -0.4
v -0.3 0 -0.4
v -0.3 0.1 -0.4
v -0.1 0 -0.4
v -0.1 0.1 -0.4
v -0.1 0.9 -0.4
v 0 0.1 -0.4
v 0 0.9 -0.4
v -0.4 0.1 -0.5
v -0.4 0.3 -0.5
v -0.4 0.4 -0.5
v -0.4 0.9 -0.5
v -0.3 0.3 -0.5
v -0.3 0.4 -0.5
v -0.3 0.5 -0.5
v -0.2 0.4 -0.5
v -0.2 0.5 -0.5
v -0.1 0.1 -0.5
v -0.1 0.9 -0.5
v -0.3 0.4 -0.6
v -0.3 0.5 -0.6
v -0.2 0.4 -0.6
v -0.2 0.5 -0.6
v -0.3 0.5 -0.7
v -0.3 0.7 -0.7
v -0.2 0.5 -0.7
v -0.2 0.7 -0.7
v -0.4 0 -0.1
v -0.1 0 -0.1
v -0.3 0 -0.2
v -0.2 0 -0.2
v -0.4 0 -0.3
v -0.3 0 -0.3
v -0.2 0 -0.3
v -0.4 0 -0.4
v -0.3 0 -0.4
v -0.1 0 -0.4
v -0.4 0.1 0
v -0.1 0.1 0
v -0.5 0.1 -0.1
v -0.4 0.1 -0.1
v -0.1 0.1 -0.1
v 0 0.1 -0.1
v -0.4 0.1 -0.3
v -0.5 0.1 -0.4
v -0.4 0.1 -0.4
v -0.3 0.1 -0.4
v -0.1 0.1 -0.4
v 0 0.1 -0.4
v -0.4 0.1 -0.5
v -0.1 0.1 -0.5
v -0.3 0.4 -0.5
v -0.2 0.4 -0.5
v -0.3 0.4 -0.6
v -0.2 0.4 -0.6
v -0.3 0.5 -0.6
v -0.2 0.5 -0.6
v -0.3 0.5 -0.7
v -0.2 0.5 -0.7
v -0.4 0.2 -0.1
v -0.1 0.2 -0.1
v -0.4 0.2 -0.2
v -0.1 0.2 -0.2
v -0.4 0.2 -0.3
v -0.1 0.2 -0.3
v -0.4 0.2 -0.4
v -0.1 0.2 -0.4
v -0.2 0.5 0
v -0.1 0.5 0
v -0.2 0.5 -0.1
v -0.1 0.5 -0.1
v 0 0.5 -0.1
v -0.1 0.5 -0.2
v 0 0.5 -0.2
v -0.3 0.5 -0.5
v -0.2 0.5 -0.5
v -0.3 0.5 -0.6
v -0.2 0.5 -0.6
v -0.1 0.6 -0.2
v 0 0.6 -0.2
v -0.1 0.6 -0.3
v 0 0.6 -0.3
v -0.3 0.7 0
v -0.2 0.7 0
v -0.3 0.7 -0.1
v -0.2 0.7 -0.1
v -0.3 0.7 -0.6
v -0.2 0.7 -0.6
v -0.3 0.7 -0.7
v -0.2 0.7 -0.7
v -0.4 0.9 0
v -0.3 0.9 0
v -0.5 0.9 -0.1
v -0.4 0.9 -0.1
v -0.3 0.9 -0.1
v -0.1 0.9 -0.3
v 0 0.9 -0.3
v -0.5 0.9 -0.4
v -0.4 0.9 -0.4
v -0.1 0.9 -0.4
v 0 0.9 -0.4
v -0.4 0.9 -0.5
v -0.1 0.9 -0.5

# faces
f 3/1/1 2/1/1 1/1/1
f 4/1/1 2/1/1 3/1/1
f 5/1/1 3/1/1 1/1/1
f 5/3/1 4/3/1 3/3/1
f 6/1/1 2/1/1 4/1/1
f 6/3/1 4/3/1 5/3/1
f 7/1/1 2/1/1 6/1/1
f 8/1/1 5/1/1 1/1/1
f 8/1/1 6/1/1 5/1/1
f 9/2/1 7/2/1 6/2/1
f 9/1/1 6/1/1 8/1/1
f 10/2/1 7/2/1 9/2/1
f 11/1/1 8/1/1 1/1/1
f 12/2/1 9/2/1 8/2/1
f 12/1/1 8/1/1 11/1/1
f 13/1/1 10/1/1 9/1/1
f 13/2/1 9/2/1 12/2/1
f 14/2/1 12/2/1 11/2/1
f 15/3/1 13/3/1 12/3/1
f 15/2/1 12/2/1 14/2/1
f 16/1/1 10/1/1 13/1/1
f 16/3/1 13/3/1 15/3/1
f 17/1/1 15/1/1 14/1/1
f 17/1/1 16/1/1 15/1/1
f 18/1/1 10/1/1 16/1/1
f 18/1/1 16/1/1 17/1/1
f 19/1/1 17/1/1 14/1/1
f 19/3/1 18/3/1 17/3/1
f 20/1/1 10/1/1 18/1/1
f 20/3/1 18/3/1 19/3/1
f 21/1/1 19/1/1 14/1/1
f 21/1/1 20/1/1 19/1/1
f 22/1/1 10/1/1 20/1/1
f 22/1/1 20/1/1 21/1/1
f 27/1/1 24/1/1 23/1/1
f 28/2/1 25/2/1 24/2/1
f 28/1/1 24/1/1 27/1/1
f 29/2/1 25/2/1 28/2/1
f 31/1/1 30/1/1 29/1/1
f 32/1/1 30/1/1 31/1/1
f 33/2/1 32/2/1 31/2/1
f 34/2/1 32/2/1 33/2/1
f 35/1/1 27/1/1 26/1/1
f 36/1/1 35/1/1 26/1/1
f 37/1/1 36/1/1 26/1/1
f 38/1/1 36/1/1 37/1/1
f 39/1/1 34/1/1 33/1/1
f 40/1/1 34/1/1 39/1/1
f 43/1/1 42/1/1 41/1/1
f 44/1/1 42/1/1 43/1/1
f 46/1/1 45/1/1 44/1/1
f 47/1/1 45/1/1 46/1/1
f 52/1/1 49/1/1 48/1/1
f 52/3/1 50/3/1 49/3/1
f 53/1/1 51/1/1 50/1/1
f 53/3/1 50/3/1 52/3/1
f 54/1/1 52/1/1 48/1/1
f 54/1/1 53/1/1 52/1/1
f 55/1/1 51/1/1 53/1/1
f 55/1/1 53/1/1 54/1/1
f 56/1/1 54/1/1 48/1/1
f 57/3/1 55/3/1 54/3/1
f 57/1/1 54/1/1 56/1/1
f 58/3/1 55/3/1 57/3/1
f 59/1/1 51/1/1 55/1/1
f 59/3/1 55/3/1 58/3/1
f 60/1/1 51/1/1 59/1/1
f 61/1/1 51/1/1 60/1/1
f 62/1/2 63/1/2 66/1/2
f 63/3/2 64/3/2 66/3/2
f 64/1/2 65/1/2 67/1/2
f 66/3/2 64/3/2 67/3/2
f 67/1/2 65/1/2 68/1/2
f 62/1/2 66/1/2 69/1/2
f 66/1/2 67/1/2 69/1/2
f 67/2/2 68/2/2 70/2/2
f 69/1/2 67/1/2 70/1/2
f 70/2/2 68/2/2 71/2/2
f 62/1/2 69/1/2 72/1/2
f 69/2/2 70/2/2 73/2/2
f 72/1/2 69/1/2 73/1/2
f 70/1/2 71/1/2 74/1/2
f 73/2/2 70/2/2 74/2/2
f 72/2/2 73/2/2 75/2/2
f 73/3/2 74/3/2 76/3/2
f 75/2/2 73/2/2 76/2/2
f 74/1/2 71/1/2 77/1/2
f 76/3/2 74/3/2 77/3/2
f 75/1/2 76/1/2 78/1/2
f 76/1/2 77/1/2 78/1/2
f 77/1/2 71/1/2 79/1/2
f 78/1/2 77/1/2 79/1/2
f 75/1/2 78/1/2 80/1/2
f 78/3/2 79/3/2 80/3/2
f 79/1/2 71/1/2 81/1/2
f 80/3/2 79/3/2 81/3/2
f 75/1/2 80/1/2 82/1/2
f 80/1/2 81/1/2 82/1/2
f 81/1/2 71/1/2 83/1/2
f 82/1/2 81/1/2 83/1/2
f 84/1/2 85/1/2 86/1/2
f 86/1/2 85/1/2 87/1/2
f 88/1/2 89/1/2 92/1/2
f 92/1/2 89/1/2 93/1/2
f 90/1/2 91/1/2 95/1/2
f 95/1/2 91/1/2 96/1/2
f 93/1/2 94/1/2 97/1/2
f 97/1/2 94/1/2 98/1/2
f 99/1/2 100/1/2 102/1/2
f 102/1/2 100/1/2 103/1/2
f 101/1/2 102/1/2 105/1/2
f 105/1/2 102/1/2 106/1/2
f 103/1/2 104/1/2 107/1/2
f 107/1/2 104/1/2 108/1/2
f 109/1/2 110/1/2 111/1/2
f 111/1/2 110/1/2 112/1/2
f 109/1/2 111/1/2 113/1/2
f 111/3/2 112/3/2 113/3/2
f 112/1/2 110/1/2 114/1/2
f 113/3/2 112/3/2 114/3/2
f 109/1/2 113/1/2 115/1/2
f 113/1/2 114/1/2 115/1/2
f 114/1/2 110/1/2 116/1/2
f 115/1/2 114/1/2 116/1/2
f 109/1/2 115/1/2 117/1/2
f 115/3/2 116/3/2 118/3/2
f 117/1/2 115/1/2 118/1/2
f 118/3/2 116/3/2 119/3/2
f 116/1/2 110/1/2 120/1/2
f 119/3/2 116/3/2 120/3/2
f 120/1/2 110/1/2 121/1/2
f 121/1/2 110/1/2 122/1/2
f 125/1/3 124/1/3 123/1/3
f 126/1/3 124/1/3 125/1/3
f 127/1/3 125/1/3 123/1/3
f 128/1/3 125/1/3 127/1/3
f 129/1/3 127/1/3 123/1/3
f 130/1/3 127/1/3 129/1/3
f 136/1/3 132/1/3 131/1/3
f 137/2/3 133/2/3 132/2/3
f 137/1/3 132/1/3 136/1/3
f 138/1/3 134/1/3 133/1/3
f 138/2/3 133/2/3 137/2/3
f 139/1/3 134/1/3 138/1/3
f 140/1/3 136/1/3 135/1/3
f 141/1/3 136/1/3 140/1/3
f 143/1/3 142/1/3 141/1/3
f 144/1/3 142/1/3 143/1/3
f 147/3/3 146/3/3 145/3/3
f 148/3/3 146/3/3 147/3/3
f 151/1/3 150/1/3 149/1/3
f 152/1/3 150/1/3 151/1/3
f 157/1/3 154/1/3 153/1/3
f 157/2/3 155/2/3 154/2/3
f 158/1/3 156/1/3 155/1/3
f 158/2/3 155/2/3 157/2/3
f 159/1/3 157/1/3 153/1/3
f 159/1/3 158/1/3 157/1/3
f 160/1/3 156/1/3 158/1/3
f 160/1/3 158/1/3 159/1/3
f 163/1/3 162/1/3 161/1/3
f 164/1/3 162/1/3 163/1/3
f 165/1/4 166/1/4 169/1/4
f 167/1/4 168/1/4 169/1/4
f 166/1/4 167/1/4 169/1/4
f 169/1/4 168/1/4 170/1/4
f 165/1/4 169/1/4 171/1/4
f 171/1/4 169/1/4 172/1/4
f 165/1/4 171/1/4 173/1/4
f 173/1/4 171/1/4 174/1/4
f 175/1/4 176/1/4 180/1/4
f 176/2/4 177/2/4 181/2/4
f 180/1/4 176/1/4 181/1/4
f 177/1/4 178/1/4 182/1/4
f 181/2/4 177/2/4 182/2/4
f 182/1/4 178/1/4 183/1/4
f 179/2/4 180/2/4 184/2/4
f 184/2/4 180/2/4 185/2/4
f 184/1/4 185/1/4 186/1/4
f 186/1/4 185/1/4 187/1/4
f 187/1/4 188/1/4 189/1/4
f 189/1/4 188/1/4 190/1/4
f 191/1/4 192/1/4 195/1/4
f 192/2/4 193/2/4 195/2/4
f 193/1/4 194/1/4 196/1/4
f 195/2/4 193/2/4 196/2/4
f 196/1/4 194/1/4 197/1/4
f 195/1/4 196/1/4 198/1/4
f 197/1/4 194/1/4 199/1/4
f 191/1/4 195/1/4 200/1/4
f 198/1/4 199/1/4 200/1/4
f 195/1/4 198/1/4 200/1/4
f 199/1/4 194/1/4 201/1/4
f 200/1/4 199/1/4 201/1/4
f 202/1/4 203/1/4 204/1/4
f 204/1/4 203/1/4 205/1/4
f 206/1/4 207/1/4 208/1/4
f 208/1/4 207/1/4 209/1/4
f 212/1/5 211/1/5 210/1/5
f 213/1/5 211/1/5 212/1/5
f 214/1/5 212/1/5 210/1/5
f 215/2/5 213/2/5 212/2/5
f 215/1/5 212/1/5 214/1/5
f 216/1/5 211/1/5 213/1/5
f 216/2/5 213/2/5 215/2/5
f 217/2/5 215/2/5 214/2/5
f 218/1/5 216/1/5 215/1/5
f 218/2/5 215/2/5 217/2/5
f 219/1/5 211/1/5 216/1/5
f 219/1/5 216/1/5 218/1/5
f 223/1/5 221/1/5 220/1/5
f 224/1/5 221/1/5 223/1/5
f 226/1/5 223/1/5 222/1/5
f 227/1/5 226/1/5 222/1/5
f 228/1/5 226/1/5 227/1/5
f 230/1/5 225/1/5 224/1/5
f 231/1/5 225/1/5 230/1/5
f 232/1/5 229/1/5 228/1/5
f 232/1/5 230/1/5 229/1/5
f 233/1/5 230/1/5 232/1/5
f 236/1/5 235/1/5 234/1/5
f 237/1/5 235/1/5 236/1/5
f 240/1/5 239/1/5 238/1/5
f 241/1/5 239/1/5 240/1/5
f 242/1/6 243/1/6 244/1/6
f 244/1/6 243/1/6 245/1/6
f 244/1/6 245/1/6 246/1/6
f 246/1/6 245/1/6 247/1/6
f 246/1/6 247/1/6 248/1/6
f 248/1/6 247/1/6 249/1/6
f 250/1/6 251/1/6 252/1/6
f 252/1/6 251/1/6 253/1/6
f 253/1/6 254/1/6 255/1/6
f 255/1/6 254/1/6 256/1/6
f 257/1/6 258/1/6 259/1/6
f 259/1/6 258/1/6 260/1/6
f 261/3/6 262/3/6 263/3/6
f 263/3/6 262/3/6 264/3/6
f 265/1/6 266/1/6 267/1/6
f 267/1/6 266/1/6 268/1/6
f 269/1/6 270/1/6 271/1/6
f 271/1/6 270/1/6 272/1/6
f 273/1/6 274/1/6 276/1/6
f 276/1/6 274/1/6 277/1/6
f 275/1/6 276/1/6 280/1/6
f 280/1/6 276/1/6 281/1/6
f 278/1/6 279/1/6 282/1/6
f 282/1/6 279/1/6 283/1/6
f 281/1/6 282/1/6 284/1/6
f 284/1/6 282/1/6 285/1/6
