# MagicaVoxel @ Ephtracy

# group
o 

# material
mtllib Couteau(arme).mtl
usemtl palette

# normals
vn -1 0 0
vn 1 0 0
vn 0 0 1
vn 0 0 -1
vn 0 -1 0
vn 0 1 0

# texcoords
vt 0.205078 0.5
vt 0.232422 0.5
vt 0.908203 0.5
vt 0.927734 0.5
vt 0.986328 0.5

# verts
v 0.5 0 0.4
v 0.5 0 0.3
v 0.5 0.1 0.4
v 0.5 0.1 0.3
v 0.6 0.1 0.4
v 0.6 0.1 0.3
v 0.6 0.2 0.4
v 0.6 0.2 0.3
v 0.7 0 1.7
v 0.7 0 1.3
v 0.7 0 0.4
v 0.7 0 0.3
v 0.7 0 0.2
v 0.7 0 0.1
v 0.7 0 0
v 0.7 0 -0.0999999
v 0.7 0 -0.2
v 0.7 0 -0.3
v 0.7 0 -0.4
v 0.7 0.1 0.3
v 0.7 0.1 0.2
v 0.7 0.1 0.1
v 0.7 0.1 0
v 0.7 0.1 -0.0999999
v 0.7 0.1 -0.2
v 0.7 0.1 -0.3
v 0.7 0.1 -0.4
v 0.7 0.1 -0.5
v 0.7 0.2 1.7
v 0.7 0.2 1.3
v 0.7 0.2 0.4
v 0.7 0.2 0.3
v 0.7 0.2 0.2
v 0.7 0.2 0.1
v 0.7 0.2 0
v 0.7 0.2 -0.0999999
v 0.7 0.2 -0.2
v 0.7 0.2 -0.3
v 0.7 0.2 -0.4
v 0.7 0.2 -0.5
v 0.8 0 -0.4
v 0.8 0 -0.5
v 0.8 0.1 -0.4
v 0.8 0.1 -0.5
v 0.8 0 1.7
v 0.8 0 1.5
v 0.8 0.1 -0.4
v 0.8 0.1 -0.5
v 0.8 0.2 1.7
v 0.8 0.2 1.5
v 0.8 0.2 -0.4
v 0.8 0.2 -0.5
v 0.9 0 1.5
v 0.9 0 0.8
v 0.9 0 0.4
v 0.9 0 0.3
v 0.9 0 0.2
v 0.9 0 0.1
v 0.9 0 0
v 0.9 0 -0.0999999
v 0.9 0 -0.2
v 0.9 0 -0.3
v 0.9 0 -0.4
v 0.9 0 -0.5
v 0.9 0.1 0.3
v 0.9 0.1 0.2
v 0.9 0.1 0.1
v 0.9 0.1 0
v 0.9 0.1 -0.0999999
v 0.9 0.1 -0.2
v 0.9 0.1 -0.3
v 0.9 0.1 -0.4
v 0.9 0.1 -0.5
v 0.9 0.2 1.5
v 0.9 0.2 0.8
v 0.9 0.2 0.4
v 0.9 0.2 0.3
v 0.9 0.2 0.2
v 0.9 0.2 0.1
v 0.9 0.2 0
v 0.9 0.2 -0.0999999
v 0.9 0.2 -0.2
v 0.9 0.2 -0.3
v 0.9 0.2 -0.4
v 1 0 0.4
v 1 0 0.3
v 1 0.1 0.4
v 1 0.1 0.3
v 1.1 0.1 0.4
v 1.1 0.1 0.3
v 1.1 0.2 0.4
v 1.1 0.2 0.3
v 0.7 0 1.7
v 0.7 0.2 1.7
v 0.8 0 1.7
v 0.8 0.2 1.7
v 0.8 0 1.5
v 0.8 0.2 1.5
v 0.9 0 1.5
v 0.9 0.2 1.5
v 0.5 0 0.4
v 0.5 0.1 0.4
v 0.6 0.1 0.4
v 0.6 0.2 0.4
v 0.7 0 0.4
v 0.7 0.2 0.4
v 0.9 0 0.4
v 0.9 0.2 0.4
v 1 0 0.4
v 1 0.1 0.4
v 1.1 0.1 0.4
v 1.1 0.2 0.4
v 0.5 0 0.3
v 0.5 0.1 0.3
v 0.6 0.1 0.3
v 0.6 0.2 0.3
v 0.7 0 0.3
v 0.7 0.1 0.3
v 0.7 0.2 0.3
v 0.9 0 0.3
v 0.9 0.1 0.3
v 0.9 0.2 0.3
v 1 0 0.3
v 1 0.1 0.3
v 1.1 0.1 0.3
v 1.1 0.2 0.3
v 0.7 0 -0.4
v 0.7 0.1 -0.4
v 0.8 0 -0.4
v 0.8 0.1 -0.4
v 0.8 0.2 -0.4
v 0.9 0.1 -0.4
v 0.9 0.2 -0.4
v 0.7 0.1 -0.5
v 0.7 0.2 -0.5
v 0.8 0 -0.5
v 0.8 0.1 -0.5
v 0.8 0.2 -0.5
v 0.9 0 -0.5
v 0.9 0.1 -0.5
v 0.7 0 1.7
v 0.8 0 1.7
v 0.8 0 1.5
v 0.9 0 1.5
v 0.7 0 1.3
v 0.8 0 1.3
v 0.8 0 0.8
v 0.9 0 0.8
v 0.5 0 0.4
v 0.7 0 0.4
v 0.9 0 0.4
v 1 0 0.4
v 0.5 0 0.3
v 0.7 0 0.3
v 0.8 0 0.3
v 0.9 0 0.3
v 1 0 0.3
v 0.7 0 0.2
v 0.8 0 0.2
v 0.9 0 0.2
v 0.7 0 0.1
v 0.8 0 0.1
v 0.9 0 0.1
v 0.7 0 0
v 0.8 0 0
v 0.9 0 0
v 0.7 0 -0.0999999
v 0.8 0 -0.0999999
v 0.9 0 -0.0999999
v 0.7 0 -0.2
v 0.8 0 -0.2
v 0.9 0 -0.2
v 0.7 0 -0.3
v 0.8 0 -0.3
v 0.9 0 -0.3
v 0.7 0 -0.4
v 0.8 0 -0.4
v 0.9 0 -0.4
v 0.8 0 -0.5
v 0.9 0 -0.5
v 1 0.1 0.4
v 1.1 0.1 0.4
v 1 0.1 0.3
v 1.1 0.1 0.3
v 0.7 0.1 -0.4
v 0.8 0.1 -0.4
v 0.7 0.1 -0.5
v 0.8 0.1 -0.5
v 0.5 0.1 0.4
v 0.6 0.1 0.4
v 0.5 0.1 0.3
v 0.6 0.1 0.3
v 0.8 0.1 -0.4
v 0.9 0.1 -0.4
v 0.8 0.1 -0.5
v 0.9 0.1 -0.5
v 0.7 0.2 1.7
v 0.8 0.2 1.7
v 0.8 0.2 1.5
v 0.9 0.2 1.5
v 0.7 0.2 1.3
v 0.8 0.2 1.3
v 0.8 0.2 0.8
v 0.9 0.2 0.8
v 0.6 0.2 0.4
v 0.7 0.2 0.4
v 0.9 0.2 0.4
v 1.1 0.2 0.4
v 0.6 0.2 0.3
v 0.7 0.2 0.3
v 0.8 0.2 0.3
v 0.9 0.2 0.3
v 1.1 0.2 0.3
v 0.7 0.2 0.2
v 0.8 0.2 0.2
v 0.9 0.2 0.2
v 0.7 0.2 0.1
v 0.8 0.2 0.1
v 0.9 0.2 0.1
v 0.7 0.2 0
v 0.8 0.2 0
v 0.9 0.2 0
v 0.7 0.2 -0.0999999
v 0.8 0.2 -0.0999999
v 0.9 0.2 -0.0999999
v 0.7 0.2 -0.2
v 0.8 0.2 -0.2
v 0.9 0.2 -0.2
v 0.7 0.2 -0.3
v 0.8 0.2 -0.3
v 0.9 0.2 -0.3
v 0.7 0.2 -0.4
v 0.8 0.2 -0.4
v 0.9 0.2 -0.4
v 0.7 0.2 -0.5
v 0.8 0.2 -0.5

# faces
f 3/5/1 2/5/1 1/5/1
f 4/5/1 2/5/1 3/5/1
f 7/5/1 6/5/1 5/5/1
f 8/5/1 6/5/1 7/5/1
f 20/3/1 13/3/1 12/3/1
f 21/4/1 14/4/1 13/4/1
f 21/3/1 13/3/1 20/3/1
f 22/3/1 15/3/1 14/3/1
f 22/4/1 14/4/1 21/4/1
f 23/4/1 16/4/1 15/4/1
f 23/3/1 15/3/1 22/3/1
f 24/3/1 17/3/1 16/3/1
f 24/4/1 16/4/1 23/4/1
f 25/4/1 18/4/1 17/4/1
f 25/3/1 17/3/1 24/3/1
f 26/3/1 19/3/1 18/3/1
f 26/4/1 18/4/1 25/4/1
f 27/3/1 19/3/1 26/3/1
f 29/1/1 10/1/1 9/1/1
f 30/2/1 11/2/1 10/2/1
f 30/1/1 10/1/1 29/1/1
f 31/2/1 11/2/1 30/2/1
f 32/4/1 21/4/1 20/4/1
f 33/3/1 22/3/1 21/3/1
f 33/4/1 21/4/1 32/4/1
f 34/4/1 23/4/1 22/4/1
f 34/3/1 22/3/1 33/3/1
f 35/3/1 24/3/1 23/3/1
f 35/4/1 23/4/1 34/4/1
f 36/4/1 25/4/1 24/4/1
f 36/3/1 24/3/1 35/3/1
f 37/3/1 26/3/1 25/3/1
f 37/4/1 25/4/1 36/4/1
f 38/4/1 27/4/1 26/4/1
f 38/3/1 26/3/1 37/3/1
f 39/3/1 28/3/1 27/3/1
f 39/4/1 27/4/1 38/4/1
f 40/3/1 28/3/1 39/3/1
f 43/3/1 42/3/1 41/3/1
f 44/3/1 42/3/1 43/3/1
f 45/1/2 46/1/2 49/1/2
f 49/1/2 46/1/2 50/1/2
f 47/3/2 48/3/2 51/3/2
f 51/3/2 48/3/2 52/3/2
f 56/4/2 57/4/2 65/4/2
f 57/3/2 58/3/2 66/3/2
f 65/4/2 57/4/2 66/4/2
f 58/4/2 59/4/2 67/4/2
f 66/3/2 58/3/2 67/3/2
f 59/3/2 60/3/2 68/3/2
f 67/4/2 59/4/2 68/4/2
f 60/4/2 61/4/2 69/4/2
f 68/3/2 60/3/2 69/3/2
f 61/3/2 62/3/2 70/3/2
f 69/4/2 61/4/2 70/4/2
f 62/4/2 63/4/2 71/4/2
f 70/3/2 62/3/2 71/3/2
f 63/3/2 64/3/2 72/3/2
f 71/4/2 63/4/2 72/4/2
f 72/3/2 64/3/2 73/3/2
f 53/1/2 54/1/2 74/1/2
f 54/2/2 55/2/2 75/2/2
f 74/1/2 54/1/2 75/1/2
f 75/2/2 55/2/2 76/2/2
f 65/3/2 66/3/2 77/3/2
f 66/4/2 67/4/2 78/4/2
f 77/3/2 66/3/2 78/3/2
f 67/3/2 68/3/2 79/3/2
f 78/4/2 67/4/2 79/4/2
f 68/4/2 69/4/2 80/4/2
f 79/3/2 68/3/2 80/3/2
f 69/3/2 70/3/2 81/3/2
f 80/4/2 69/4/2 81/4/2
f 70/4/2 71/4/2 82/4/2
f 81/3/2 70/3/2 82/3/2
f 71/3/2 72/3/2 83/3/2
f 82/4/2 71/4/2 83/4/2
f 83/3/2 72/3/2 84/3/2
f 85/5/2 86/5/2 87/5/2
f 87/5/2 86/5/2 88/5/2
f 89/5/2 90/5/2 91/5/2
f 91/5/2 90/5/2 92/5/2
f 95/1/3 94/1/3 93/1/3
f 96/1/3 94/1/3 95/1/3
f 99/1/3 98/1/3 97/1/3
f 100/1/3 98/1/3 99/1/3
f 103/5/3 102/5/3 101/5/3
f 105/5/3 103/5/3 101/5/3
f 105/5/3 104/5/3 103/5/3
f 106/5/3 104/5/3 105/5/3
f 109/5/3 108/5/3 107/5/3
f 110/5/3 108/5/3 109/5/3
f 111/5/3 108/5/3 110/5/3
f 112/5/3 108/5/3 111/5/3
f 113/5/4 114/5/4 115/5/4
f 113/5/4 115/5/4 117/5/4
f 115/5/4 116/5/4 117/5/4
f 117/5/4 116/5/4 118/5/4
f 118/5/4 116/5/4 119/5/4
f 120/5/4 121/5/4 123/5/4
f 121/5/4 122/5/4 123/5/4
f 123/5/4 122/5/4 124/5/4
f 124/5/4 122/5/4 125/5/4
f 125/5/4 122/5/4 126/5/4
f 127/3/4 128/3/4 129/3/4
f 129/3/4 128/3/4 130/3/4
f 130/3/4 131/3/4 132/3/4
f 132/3/4 131/3/4 133/3/4
f 134/3/4 135/3/4 137/3/4
f 137/3/4 135/3/4 138/3/4
f 136/3/4 137/3/4 139/3/4
f 139/3/4 137/3/4 140/3/4
f 143/1/5 142/1/5 141/1/5
f 145/1/5 143/1/5 141/1/5
f 145/1/5 144/1/5 143/1/5
f 146/1/5 144/1/5 145/1/5
f 147/2/5 146/2/5 145/2/5
f 147/1/5 144/1/5 146/1/5
f 148/1/5 144/1/5 147/1/5
f 150/2/5 147/2/5 145/2/5
f 150/2/5 148/2/5 147/2/5
f 151/2/5 148/2/5 150/2/5
f 153/5/5 151/5/5 150/5/5
f 153/5/5 152/5/5 151/5/5
f 153/5/5 150/5/5 149/5/5
f 154/5/5 152/5/5 153/5/5
f 155/5/5 152/5/5 154/5/5
f 156/5/5 152/5/5 155/5/5
f 157/5/5 152/5/5 156/5/5
f 158/3/5 155/3/5 154/3/5
f 159/4/5 156/4/5 155/4/5
f 159/3/5 155/3/5 158/3/5
f 160/4/5 156/4/5 159/4/5
f 161/4/5 159/4/5 158/4/5
f 162/3/5 160/3/5 159/3/5
f 162/4/5 159/4/5 161/4/5
f 163/3/5 160/3/5 162/3/5
f 164/3/5 162/3/5 161/3/5
f 165/4/5 163/4/5 162/4/5
f 165/3/5 162/3/5 164/3/5
f 166/4/5 163/4/5 165/4/5
f 167/4/5 165/4/5 164/4/5
f 168/3/5 166/3/5 165/3/5
f 168/4/5 165/4/5 167/4/5
f 169/3/5 166/3/5 168/3/5
f 170/3/5 168/3/5 167/3/5
f 171/4/5 169/4/5 168/4/5
f 171/3/5 168/3/5 170/3/5
f 172/4/5 169/4/5 171/4/5
f 173/4/5 171/4/5 170/4/5
f 174/3/5 172/3/5 171/3/5
f 174/4/5 171/4/5 173/4/5
f 175/3/5 172/3/5 174/3/5
f 176/3/5 174/3/5 173/3/5
f 177/4/5 175/4/5 174/4/5
f 177/3/5 174/3/5 176/3/5
f 178/4/5 175/4/5 177/4/5
f 179/3/5 178/3/5 177/3/5
f 180/3/5 178/3/5 179/3/5
f 183/5/5 182/5/5 181/5/5
f 184/5/5 182/5/5 183/5/5
f 187/3/5 186/3/5 185/3/5
f 188/3/5 186/3/5 187/3/5
f 189/5/6 190/5/6 191/5/6
f 191/5/6 190/5/6 192/5/6
f 193/3/6 194/3/6 195/3/6
f 195/3/6 194/3/6 196/3/6
f 197/1/6 198/1/6 199/1/6
f 197/1/6 199/1/6 201/1/6
f 199/1/6 200/1/6 201/1/6
f 201/1/6 200/1/6 202/1/6
f 201/2/6 202/2/6 203/2/6
f 202/1/6 200/1/6 203/1/6
f 203/1/6 200/1/6 204/1/6
f 201/2/6 203/2/6 206/2/6
f 203/2/6 204/2/6 206/2/6
f 206/2/6 204/2/6 207/2/6
f 206/5/6 207/5/6 209/5/6
f 207/5/6 208/5/6 209/5/6
f 205/5/6 206/5/6 209/5/6
f 209/5/6 208/5/6 210/5/6
f 210/5/6 208/5/6 211/5/6
f 211/5/6 208/5/6 212/5/6
f 212/5/6 208/5/6 213/5/6
f 210/4/6 211/4/6 214/4/6
f 211/3/6 212/3/6 215/3/6
f 214/4/6 211/4/6 215/4/6
f 215/3/6 212/3/6 216/3/6
f 214/3/6 215/3/6 217/3/6
f 215/4/6 216/4/6 218/4/6
f 217/3/6 215/3/6 218/3/6
f 218/4/6 216/4/6 219/4/6
f 217/4/6 218/4/6 220/4/6
f 218/3/6 219/3/6 221/3/6
f 220/4/6 218/4/6 221/4/6
f 221/3/6 219/3/6 222/3/6
f 220/3/6 221/3/6 223/3/6
f 221/4/6 222/4/6 224/4/6
f 223/3/6 221/3/6 224/3/6
f 224/4/6 222/4/6 225/4/6
f 223/4/6 224/4/6 226/4/6
f 224/3/6 225/3/6 227/3/6
f 226/4/6 224/4/6 227/4/6
f 227/3/6 225/3/6 228/3/6
f 226/3/6 227/3/6 229/3/6
f 227/4/6 228/4/6 230/4/6
f 229/3/6 227/3/6 230/3/6
f 230/4/6 228/4/6 231/4/6
f 229/4/6 230/4/6 232/4/6
f 230/3/6 231/3/6 233/3/6
f 232/4/6 230/4/6 233/4/6
f 233/3/6 231/3/6 234/3/6
f 232/3/6 233/3/6 235/3/6
f 235/3/6 233/3/6 236/3/6
