# MagicaVoxel @ Ephtracy

# group
o 

# material
mtllib coin.mtl
usemtl palette

# normals
vn -1 0 0
vn 1 0 0
vn 0 0 1
vn 0 0 -1
vn 0 -1 0
vn 0 1 0

# texcoords
vt 0.0175781 0.5
vt 0.0410156 0.5

# verts
v 0 0 -0.6
v 0 0 -1.3
v 0 0.2 -0.6
v 0 0.2 -1.3
v 0.1 0 -0.4
v 0.1 0 -0.6
v 0.1 0 -1.3
v 0.1 0 -1.5
v 0.1 0.2 -0.4
v 0.1 0.2 -0.6
v 0.1 0.2 -1.3
v 0.1 0.2 -1.5
v 0.2 0 -0.3
v 0.2 0 -0.4
v 0.2 0 -1.5
v 0.2 0 -1.6
v 0.2 0.2 -0.3
v 0.2 0.2 -0.4
v 0.2 0.2 -1.5
v 0.2 0.2 -1.6
v 0.3 0 -0.2
v 0.3 0 -0.3
v 0.3 0 -1.6
v 0.3 0 -1.7
v 0.3 0.2 -0.2
v 0.3 0.2 -0.3
v 0.3 0.2 -1.6
v 0.3 0.2 -1.7
v 0.4 0 -0.1
v 0.4 0 -0.2
v 0.4 0 -1.7
v 0.4 0 -1.8
v 0.4 0.2 -0.1
v 0.4 0.2 -0.2
v 0.4 0.2 -1.7
v 0.4 0.2 -1.8
v 0.6 0 0
v 0.6 0 -0.1
v 0.6 0 -1.8
v 0.6 0 -1.9
v 0.6 0.2 0
v 0.6 0.2 -0.1
v 0.6 0.2 -1.8
v 0.6 0.2 -1.9
v 1.3 0 0
v 1.3 0 -0.1
v 1.3 0 -1.8
v 1.3 0 -1.9
v 1.3 0.2 0
v 1.3 0.2 -0.1
v 1.3 0.2 -1.8
v 1.3 0.2 -1.9
v 1.5 0 -0.1
v 1.5 0 -0.2
v 1.5 0 -1.7
v 1.5 0 -1.8
v 1.5 0.2 -0.1
v 1.5 0.2 -0.2
v 1.5 0.2 -1.7
v 1.5 0.2 -1.8
v 1.6 0 -0.2
v 1.6 0 -0.3
v 1.6 0 -1.6
v 1.6 0 -1.7
v 1.6 0.2 -0.2
v 1.6 0.2 -0.3
v 1.6 0.2 -1.6
v 1.6 0.2 -1.7
v 1.7 0 -0.3
v 1.7 0 -0.4
v 1.7 0 -1.5
v 1.7 0 -1.6
v 1.7 0.2 -0.3
v 1.7 0.2 -0.4
v 1.7 0.2 -1.5
v 1.7 0.2 -1.6
v 1.8 0 -0.4
v 1.8 0 -0.6
v 1.8 0 -1.3
v 1.8 0 -1.5
v 1.8 0.2 -0.4
v 1.8 0.2 -0.6
v 1.8 0.2 -1.3
v 1.8 0.2 -1.5
v 1.9 0 -0.6
v 1.9 0 -1.3
v 1.9 0.2 -0.6
v 1.9 0.2 -1.3
v 0.6 0 0
v 0.6 0.2 0
v 1.3 0 0
v 1.3 0.2 0
v 0.4 0 -0.1
v 0.4 0.2 -0.1
v 0.6 0 -0.1
v 0.6 0.2 -0.1
v 1.3 0 -0.1
v 1.3 0.2 -0.1
v 1.5 0 -0.1
v 1.5 0.2 -0.1
v 0.3 0 -0.2
v 0.3 0.2 -0.2
v 0.4 0 -0.2
v 0.4 0.2 -0.2
v 1.5 0 -0.2
v 1.5 0.2 -0.2
v 1.6 0 -0.2
v 1.6 0.2 -0.2
v 0.2 0 -0.3
v 0.2 0.2 -0.3
v 0.3 0 -0.3
v 0.3 0.2 -0.3
v 1.6 0 -0.3
v 1.6 0.2 -0.3
v 1.7 0 -0.3
v 1.7 0.2 -0.3
v 0.1 0 -0.4
v 0.1 0.2 -0.4
v 0.2 0 -0.4
v 0.2 0.2 -0.4
v 1.7 0 -0.4
v 1.7 0.2 -0.4
v 1.8 0 -0.4
v 1.8 0.2 -0.4
v 0 0 -0.6
v 0 0.2 -0.6
v 0.1 0 -0.6
v 0.1 0.2 -0.6
v 1.8 0 -0.6
v 1.8 0.2 -0.6
v 1.9 0 -0.6
v 1.9 0.2 -0.6
v 0 0 -1.3
v 0 0.2 -1.3
v 0.1 0 -1.3
v 0.1 0.2 -1.3
v 1.8 0 -1.3
v 1.8 0.2 -1.3
v 1.9 0 -1.3
v 1.9 0.2 -1.3
v 0.1 0 -1.5
v 0.1 0.2 -1.5
v 0.2 0 -1.5
v 0.2 0.2 -1.5
v 1.7 0 -1.5
v 1.7 0.2 -1.5
v 1.8 0 -1.5
v 1.8 0.2 -1.5
v 0.2 0 -1.6
v 0.2 0.2 -1.6
v 0.3 0 -1.6
v 0.3 0.2 -1.6
v 1.6 0 -1.6
v 1.6 0.2 -1.6
v 1.7 0 -1.6
v 1.7 0.2 -1.6
v 0.3 0 -1.7
v 0.3 0.2 -1.7
v 0.4 0 -1.7
v 0.4 0.2 -1.7
v 1.5 0 -1.7
v 1.5 0.2 -1.7
v 1.6 0 -1.7
v 1.6 0.2 -1.7
v 0.4 0 -1.8
v 0.4 0.2 -1.8
v 0.6 0 -1.8
v 0.6 0.2 -1.8
v 1.3 0 -1.8
v 1.3 0.2 -1.8
v 1.5 0 -1.8
v 1.5 0.2 -1.8
v 0.6 0 -1.9
v 0.6 0.2 -1.9
v 1.3 0 -1.9
v 1.3 0.2 -1.9
v 0.6 0 0
v 1.3 0 0
v 0.4 0 -0.1
v 0.6 0 -0.1
v 1.3 0 -0.1
v 1.5 0 -0.1
v 0.3 0 -0.2
v 0.4 0 -0.2
v 0.6 0 -0.2
v 1.3 0 -0.2
v 1.5 0 -0.2
v 1.6 0 -0.2
v 0.2 0 -0.3
v 0.3 0 -0.3
v 0.4 0 -0.3
v 0.9 0 -0.3
v 1 0 -0.3
v 1.5 0 -0.3
v 1.6 0 -0.3
v 1.7 0 -0.3
v 0.1 0 -0.4
v 0.2 0 -0.4
v 0.3 0 -0.4
v 1.6 0 -0.4
v 1.7 0 -0.4
v 1.8 0 -0.4
v 0.8 0 -0.5
v 0.9 0 -0.5
v 1 0 -0.5
v 1.1 0 -0.5
v 0 0 -0.6
v 0.1 0 -0.6
v 0.2 0 -0.6
v 0.7 0 -0.6
v 0.8 0 -0.6
v 0.9 0 -0.6
v 1 0 -0.6
v 1.1 0 -0.6
v 1.2 0 -0.6
v 1.7 0 -0.6
v 1.8 0 -0.6
v 1.9 0 -0.6
v 1.1 0 -0.7
v 1.2 0 -0.7
v 0.7 0 -0.9
v 0.8 0 -0.9
v 0.9 0 -0.9
v 1 0 -0.9
v 1.1 0 -0.9
v 0.8 0 -1
v 0.9 0 -1
v 1 0 -1
v 1.1 0 -1
v 1.2 0 -1
v 0.7 0 -1.2
v 0.8 0 -1.2
v 0 0 -1.3
v 0.1 0 -1.3
v 0.2 0 -1.3
v 0.7 0 -1.3
v 0.8 0 -1.3
v 0.9 0 -1.3
v 1 0 -1.3
v 1.1 0 -1.3
v 1.2 0 -1.3
v 1.7 0 -1.3
v 1.8 0 -1.3
v 1.9 0 -1.3
v 0.8 0 -1.4
v 0.9 0 -1.4
v 1 0 -1.4
v 1.1 0 -1.4
v 0.1 0 -1.5
v 0.2 0 -1.5
v 0.3 0 -1.5
v 1.6 0 -1.5
v 1.7 0 -1.5
v 1.8 0 -1.5
v 0.2 0 -1.6
v 0.3 0 -1.6
v 0.4 0 -1.6
v 0.9 0 -1.6
v 1 0 -1.6
v 1.5 0 -1.6
v 1.6 0 -1.6
v 1.7 0 -1.6
v 0.3 0 -1.7
v 0.4 0 -1.7
v 0.6 0 -1.7
v 1.3 0 -1.7
v 1.5 0 -1.7
v 1.6 0 -1.7
v 0.4 0 -1.8
v 0.6 0 -1.8
v 1.3 0 -1.8
v 1.5 0 -1.8
v 0.6 0 -1.9
v 1.3 0 -1.9
v 0.6 0.2 0
v 1.3 0.2 0
v 0.4 0.2 -0.1
v 0.6 0.2 -0.1
v 1.3 0.2 -0.1
v 1.5 0.2 -0.1
v 0.3 0.2 -0.2
v 0.4 0.2 -0.2
v 0.6 0.2 -0.2
v 1.3 0.2 -0.2
v 1.5 0.2 -0.2
v 1.6 0.2 -0.2
v 0.2 0.2 -0.3
v 0.3 0.2 -0.3
v 0.4 0.2 -0.3
v 0.9 0.2 -0.3
v 1 0.2 -0.3
v 1.5 0.2 -0.3
v 1.6 0.2 -0.3
v 1.7 0.2 -0.3
v 0.1 0.2 -0.4
v 0.2 0.2 -0.4
v 0.3 0.2 -0.4
v 1.6 0.2 -0.4
v 1.7 0.2 -0.4
v 1.8 0.2 -0.4
v 0.8 0.2 -0.5
v 0.9 0.2 -0.5
v 1 0.2 -0.5
v 1.1 0.2 -0.5
v 0 0.2 -0.6
v 0.1 0.2 -0.6
v 0.2 0.2 -0.6
v 0.7 0.2 -0.6
v 0.8 0.2 -0.6
v 0.9 0.2 -0.6
v 1 0.2 -0.6
v 1.1 0.2 -0.6
v 1.2 0.2 -0.6
v 1.7 0.2 -0.6
v 1.8 0.2 -0.6
v 1.9 0.2 -0.6
v 0.7 0.2 -0.7
v 0.8 0.2 -0.7
v 0.8 0.2 -0.9
v 0.9 0.2 -0.9
v 1 0.2 -0.9
v 1.1 0.2 -0.9
v 1.2 0.2 -0.9
v 0.7 0.2 -1
v 0.8 0.2 -1
v 0.9 0.2 -1
v 1 0.2 -1
v 1.1 0.2 -1
v 1.1 0.2 -1.2
v 1.2 0.2 -1.2
v 0 0.2 -1.3
v 0.1 0.2 -1.3
v 0.2 0.2 -1.3
v 0.7 0.2 -1.3
v 0.8 0.2 -1.3
v 0.9 0.2 -1.3
v 1 0.2 -1.3
v 1.1 0.2 -1.3
v 1.2 0.2 -1.3
v 1.7 0.2 -1.3
v 1.8 0.2 -1.3
v 1.9 0.2 -1.3
v 0.8 0.2 -1.4
v 0.9 0.2 -1.4
v 1 0.2 -1.4
v 1.1 0.2 -1.4
v 0.1 0.2 -1.5
v 0.2 0.2 -1.5
v 0.3 0.2 -1.5
v 1.6 0.2 -1.5
v 1.7 0.2 -1.5
v 1.8 0.2 -1.5
v 0.2 0.2 -1.6
v 0.3 0.2 -1.6
v 0.4 0.2 -1.6
v 0.9 0.2 -1.6
v 1 0.2 -1.6
v 1.5 0.2 -1.6
v 1.6 0.2 -1.6
v 1.7 0.2 -1.6
v 0.3 0.2 -1.7
v 0.4 0.2 -1.7
v 0.6 0.2 -1.7
v 1.3 0.2 -1.7
v 1.5 0.2 -1.7
v 1.6 0.2 -1.7
v 0.4 0.2 -1.8
v 0.6 0.2 -1.8
v 1.3 0.2 -1.8
v 1.5 0.2 -1.8
v 0.6 0.2 -1.9
v 1.3 0.2 -1.9

# faces
f 3/2/1 2/2/1 1/2/1
f 4/2/1 2/2/1 3/2/1
f 9/2/1 6/2/1 5/2/1
f 10/2/1 6/2/1 9/2/1
f 11/2/1 8/2/1 7/2/1
f 12/2/1 8/2/1 11/2/1
f 17/2/1 14/2/1 13/2/1
f 18/2/1 14/2/1 17/2/1
f 19/2/1 16/2/1 15/2/1
f 20/2/1 16/2/1 19/2/1
f 25/2/1 22/2/1 21/2/1
f 26/2/1 22/2/1 25/2/1
f 27/2/1 24/2/1 23/2/1
f 28/2/1 24/2/1 27/2/1
f 33/2/1 30/2/1 29/2/1
f 34/2/1 30/2/1 33/2/1
f 35/2/1 32/2/1 31/2/1
f 36/2/1 32/2/1 35/2/1
f 41/2/1 38/2/1 37/2/1
f 42/2/1 38/2/1 41/2/1
f 43/2/1 40/2/1 39/2/1
f 44/2/1 40/2/1 43/2/1
f 45/2/2 46/2/2 49/2/2
f 49/2/2 46/2/2 50/2/2
f 47/2/2 48/2/2 51/2/2
f 51/2/2 48/2/2 52/2/2
f 53/2/2 54/2/2 57/2/2
f 57/2/2 54/2/2 58/2/2
f 55/2/2 56/2/2 59/2/2
f 59/2/2 56/2/2 60/2/2
f 61/2/2 62/2/2 65/2/2
f 65/2/2 62/2/2 66/2/2
f 63/2/2 64/2/2 67/2/2
f 67/2/2 64/2/2 68/2/2
f 69/2/2 70/2/2 73/2/2
f 73/2/2 70/2/2 74/2/2
f 71/2/2 72/2/2 75/2/2
f 75/2/2 72/2/2 76/2/2
f 77/2/2 78/2/2 81/2/2
f 81/2/2 78/2/2 82/2/2
f 79/2/2 80/2/2 83/2/2
f 83/2/2 80/2/2 84/2/2
f 85/2/2 86/2/2 87/2/2
f 87/2/2 86/2/2 88/2/2
f 91/2/3 90/2/3 89/2/3
f 92/2/3 90/2/3 91/2/3
f 95/2/3 94/2/3 93/2/3
f 96/2/3 94/2/3 95/2/3
f 99/2/3 98/2/3 97/2/3
f 100/2/3 98/2/3 99/2/3
f 103/2/3 102/2/3 101/2/3
f 104/2/3 102/2/3 103/2/3
f 107/2/3 106/2/3 105/2/3
f 108/2/3 106/2/3 107/2/3
f 111/2/3 110/2/3 109/2/3
f 112/2/3 110/2/3 111/2/3
f 115/2/3 114/2/3 113/2/3
f 116/2/3 114/2/3 115/2/3
f 119/2/3 118/2/3 117/2/3
f 120/2/3 118/2/3 119/2/3
f 123/2/3 122/2/3 121/2/3
f 124/2/3 122/2/3 123/2/3
f 127/2/3 126/2/3 125/2/3
f 128/2/3 126/2/3 127/2/3
f 131/2/3 130/2/3 129/2/3
f 132/2/3 130/2/3 131/2/3
f 133/2/4 134/2/4 135/2/4
f 135/2/4 134/2/4 136/2/4
f 137/2/4 138/2/4 139/2/4
f 139/2/4 138/2/4 140/2/4
f 141/2/4 142/2/4 143/2/4
f 143/2/4 142/2/4 144/2/4
f 145/2/4 146/2/4 147/2/4
f 147/2/4 146/2/4 148/2/4
f 149/2/4 150/2/4 151/2/4
f 151/2/4 150/2/4 152/2/4
f 153/2/4 154/2/4 155/2/4
f 155/2/4 154/2/4 156/2/4
f 157/2/4 158/2/4 159/2/4
f 159/2/4 158/2/4 160/2/4
f 161/2/4 162/2/4 163/2/4
f 163/2/4 162/2/4 164/2/4
f 165/2/4 166/2/4 167/2/4
f 167/2/4 166/2/4 168/2/4
f 169/2/4 170/2/4 171/2/4
f 171/2/4 170/2/4 172/2/4
f 173/2/4 174/2/4 175/2/4
f 175/2/4 174/2/4 176/2/4
f 180/2/5 178/2/5 177/2/5
f 181/2/5 178/2/5 180/2/5
f 184/2/5 180/2/5 179/2/5
f 185/1/5 181/1/5 180/1/5
f 185/2/5 180/2/5 184/2/5
f 186/2/5 182/2/5 181/2/5
f 186/1/5 181/1/5 185/1/5
f 187/2/5 182/2/5 186/2/5
f 190/2/5 184/2/5 183/2/5
f 191/1/5 185/1/5 184/1/5
f 191/1/5 186/1/5 185/1/5
f 191/2/5 184/2/5 190/2/5
f 191/1/5 187/1/5 186/1/5
f 192/1/5 187/1/5 191/1/5
f 193/1/5 187/1/5 192/1/5
f 194/2/5 188/2/5 187/2/5
f 194/1/5 187/1/5 193/1/5
f 195/2/5 188/2/5 194/2/5
f 198/2/5 190/2/5 189/2/5
f 199/1/5 191/1/5 190/1/5
f 199/1/5 192/1/5 191/1/5
f 199/2/5 190/2/5 198/2/5
f 200/2/5 196/2/5 195/2/5
f 200/1/5 194/1/5 193/1/5
f 200/1/5 195/1/5 194/1/5
f 201/2/5 196/2/5 200/2/5
f 203/1/5 192/1/5 199/1/5
f 203/1/5 199/1/5 198/1/5
f 204/2/5 193/2/5 192/2/5
f 204/1/5 192/1/5 203/1/5
f 205/1/5 201/1/5 200/1/5
f 205/2/5 193/2/5 204/2/5
f 205/1/5 200/1/5 193/1/5
f 206/1/5 201/1/5 205/1/5
f 208/2/5 198/2/5 197/2/5
f 209/1/5 203/1/5 198/1/5
f 209/2/5 198/2/5 208/2/5
f 210/1/5 203/1/5 209/1/5
f 211/2/5 204/2/5 203/2/5
f 211/1/5 203/1/5 210/1/5
f 211/2/5 205/2/5 204/2/5
f 211/2/5 206/2/5 205/2/5
f 212/2/5 206/2/5 211/2/5
f 213/2/5 206/2/5 212/2/5
f 214/1/5 201/1/5 206/1/5
f 214/2/5 206/2/5 213/2/5
f 215/1/5 201/1/5 214/1/5
f 216/2/5 202/2/5 201/2/5
f 216/1/5 201/1/5 215/1/5
f 217/2/5 202/2/5 216/2/5
f 219/2/5 215/2/5 214/2/5
f 219/1/5 214/1/5 213/1/5
f 220/1/5 217/1/5 216/1/5
f 220/2/5 215/2/5 219/2/5
f 220/1/5 216/1/5 215/1/5
f 221/1/5 210/1/5 209/1/5
f 221/1/5 209/1/5 208/1/5
f 221/2/5 211/2/5 210/2/5
f 222/1/5 212/1/5 211/1/5
f 222/2/5 211/2/5 221/2/5
f 223/2/5 213/2/5 212/2/5
f 223/1/5 212/1/5 222/1/5
f 224/1/5 220/1/5 219/1/5
f 224/2/5 213/2/5 223/2/5
f 224/1/5 219/1/5 213/1/5
f 225/1/5 220/1/5 224/1/5
f 226/1/5 222/1/5 221/1/5
f 226/2/5 223/2/5 222/2/5
f 226/2/5 225/2/5 224/2/5
f 226/2/5 224/2/5 223/2/5
f 227/2/5 225/2/5 226/2/5
f 228/2/5 225/2/5 227/2/5
f 229/1/5 220/1/5 225/1/5
f 229/2/5 225/2/5 228/2/5
f 230/1/5 217/1/5 220/1/5
f 230/1/5 220/1/5 229/1/5
f 231/1/5 221/1/5 208/1/5
f 231/1/5 226/1/5 221/1/5
f 231/1/5 227/1/5 226/1/5
f 232/1/5 227/1/5 231/1/5
f 233/2/5 208/2/5 207/2/5
f 234/1/5 231/1/5 208/1/5
f 234/2/5 208/2/5 233/2/5
f 235/1/5 231/1/5 234/1/5
f 236/2/5 232/2/5 231/2/5
f 236/1/5 231/1/5 235/1/5
f 237/1/5 227/1/5 232/1/5
f 237/2/5 232/2/5 236/2/5
f 238/2/5 228/2/5 227/2/5
f 238/1/5 227/1/5 237/1/5
f 239/1/5 229/1/5 228/1/5
f 239/2/5 228/2/5 238/2/5
f 240/2/5 230/2/5 229/2/5
f 240/1/5 229/1/5 239/1/5
f 241/1/5 217/1/5 230/1/5
f 241/2/5 230/2/5 240/2/5
f 242/1/5 217/1/5 241/1/5
f 243/2/5 218/2/5 217/2/5
f 243/1/5 217/1/5 242/1/5
f 244/2/5 218/2/5 243/2/5
f 245/1/5 236/1/5 235/1/5
f 245/1/5 237/1/5 236/1/5
f 245/2/5 238/2/5 237/2/5
f 245/2/5 240/2/5 239/2/5
f 245/2/5 239/2/5 238/2/5
f 246/2/5 240/2/5 245/2/5
f 247/2/5 240/2/5 246/2/5
f 248/1/5 242/1/5 241/1/5
f 248/2/5 240/2/5 247/2/5
f 248/1/5 241/1/5 240/1/5
f 249/2/5 235/2/5 234/2/5
f 250/1/5 246/1/5 245/1/5
f 250/2/5 235/2/5 249/2/5
f 250/1/5 245/1/5 235/1/5
f 251/1/5 246/1/5 250/1/5
f 252/1/5 242/1/5 248/1/5
f 252/1/5 248/1/5 247/1/5
f 253/2/5 243/2/5 242/2/5
f 253/1/5 242/1/5 252/1/5
f 254/2/5 243/2/5 253/2/5
f 255/2/5 251/2/5 250/2/5
f 256/1/5 246/1/5 251/1/5
f 256/2/5 251/2/5 255/2/5
f 257/1/5 246/1/5 256/1/5
f 258/2/5 247/2/5 246/2/5
f 258/1/5 246/1/5 257/1/5
f 259/1/5 252/1/5 247/1/5
f 259/2/5 247/2/5 258/2/5
f 260/1/5 252/1/5 259/1/5
f 261/2/5 253/2/5 252/2/5
f 261/1/5 252/1/5 260/1/5
f 262/2/5 253/2/5 261/2/5
f 263/2/5 257/2/5 256/2/5
f 264/1/5 258/1/5 257/1/5
f 264/2/5 257/2/5 263/2/5
f 264/1/5 260/1/5 259/1/5
f 264/1/5 259/1/5 258/1/5
f 265/1/5 260/1/5 264/1/5
f 266/1/5 260/1/5 265/1/5
f 267/2/5 261/2/5 260/2/5
f 267/1/5 260/1/5 266/1/5
f 268/2/5 261/2/5 267/2/5
f 269/2/5 265/2/5 264/2/5
f 270/1/5 266/1/5 265/1/5
f 270/2/5 265/2/5 269/2/5
f 271/2/5 267/2/5 266/2/5
f 271/1/5 266/1/5 270/1/5
f 272/2/5 267/2/5 271/2/5
f 273/2/5 271/2/5 270/2/5
f 274/2/5 271/2/5 273/2/5
f 275/2/6 276/2/6 278/2/6
f 278/2/6 276/2/6 279/2/6
f 277/2/6 278/2/6 282/2/6
f 278/1/6 279/1/6 283/1/6
f 282/2/6 278/2/6 283/2/6
f 279/2/6 280/2/6 284/2/6
f 283/1/6 279/1/6 284/1/6
f 284/2/6 280/2/6 285/2/6
f 281/2/6 282/2/6 288/2/6
f 282/1/6 283/1/6 289/1/6
f 283/1/6 284/1/6 289/1/6
f 288/2/6 282/2/6 289/2/6
f 284/1/6 285/1/6 289/1/6
f 289/1/6 285/1/6 290/1/6
f 290/1/6 285/1/6 291/1/6
f 285/2/6 286/2/6 292/2/6
f 291/1/6 285/1/6 292/1/6
f 292/2/6 286/2/6 293/2/6
f 287/2/6 288/2/6 296/2/6
f 288/1/6 289/1/6 297/1/6
f 289/1/6 290/1/6 297/1/6
f 296/2/6 288/2/6 297/2/6
f 293/2/6 294/2/6 298/2/6
f 291/1/6 292/1/6 298/1/6
f 292/1/6 293/1/6 298/1/6
f 298/2/6 294/2/6 299/2/6
f 297/1/6 290/1/6 301/1/6
f 296/1/6 297/1/6 301/1/6
f 290/2/6 291/2/6 302/2/6
f 301/1/6 290/1/6 302/1/6
f 298/1/6 299/1/6 303/1/6
f 302/2/6 291/2/6 303/2/6
f 291/1/6 298/1/6 303/1/6
f 303/1/6 299/1/6 304/1/6
f 295/2/6 296/2/6 306/2/6
f 296/1/6 301/1/6 307/1/6
f 306/2/6 296/2/6 307/2/6
f 307/1/6 301/1/6 308/1/6
f 301/2/6 302/2/6 309/2/6
f 308/1/6 301/1/6 309/1/6
f 302/2/6 303/2/6 309/2/6
f 303/2/6 304/2/6 309/2/6
f 309/2/6 304/2/6 310/2/6
f 310/2/6 304/2/6 311/2/6
f 304/1/6 299/1/6 312/1/6
f 311/2/6 304/2/6 312/2/6
f 312/1/6 299/1/6 313/1/6
f 299/2/6 300/2/6 314/2/6
f 313/1/6 299/1/6 314/1/6
f 314/2/6 300/2/6 315/2/6
f 307/1/6 308/1/6 317/1/6
f 306/1/6 307/1/6 317/1/6
f 308/2/6 309/2/6 317/2/6
f 309/1/6 310/1/6 318/1/6
f 317/2/6 309/2/6 318/2/6
f 317/1/6 318/1/6 319/1/6
f 318/1/6 310/1/6 319/1/6
f 310/2/6 311/2/6 320/2/6
f 319/1/6 310/1/6 320/1/6
f 311/1/6 312/1/6 321/1/6
f 320/2/6 311/2/6 321/2/6
f 312/2/6 313/2/6 322/2/6
f 321/1/6 312/1/6 322/1/6
f 314/1/6 315/1/6 323/1/6
f 322/2/6 313/2/6 323/2/6
f 313/1/6 314/1/6 323/1/6
f 317/1/6 319/1/6 324/1/6
f 306/1/6 317/1/6 324/1/6
f 320/2/6 321/2/6 325/2/6
f 324/1/6 319/1/6 325/1/6
f 321/2/6 322/2/6 325/2/6
f 319/2/6 320/2/6 325/2/6
f 325/2/6 322/2/6 326/2/6
f 326/2/6 322/2/6 327/2/6
f 322/1/6 323/1/6 328/1/6
f 327/2/6 322/2/6 328/2/6
f 327/1/6 328/1/6 329/1/6
f 328/1/6 323/1/6 329/1/6
f 323/1/6 315/1/6 330/1/6
f 329/1/6 323/1/6 330/1/6
f 305/2/6 306/2/6 331/2/6
f 306/1/6 324/1/6 332/1/6
f 331/2/6 306/2/6 332/2/6
f 332/1/6 324/1/6 333/1/6
f 324/2/6 325/2/6 334/2/6
f 333/1/6 324/1/6 334/1/6
f 325/1/6 326/1/6 335/1/6
f 334/2/6 325/2/6 335/2/6
f 326/2/6 327/2/6 336/2/6
f 335/1/6 326/1/6 336/1/6
f 327/1/6 329/1/6 337/1/6
f 336/2/6 327/2/6 337/2/6
f 329/2/6 330/2/6 338/2/6
f 337/1/6 329/1/6 338/1/6
f 330/1/6 315/1/6 339/1/6
f 338/2/6 330/2/6 339/2/6
f 339/1/6 315/1/6 340/1/6
f 315/2/6 316/2/6 341/2/6
f 340/1/6 315/1/6 341/1/6
f 341/2/6 316/2/6 342/2/6
f 337/2/6 338/2/6 343/2/6
f 335/2/6 336/2/6 343/2/6
f 334/1/6 335/1/6 343/1/6
f 333/1/6 334/1/6 343/1/6
f 336/2/6 337/2/6 343/2/6
f 343/2/6 338/2/6 344/2/6
f 344/2/6 338/2/6 345/2/6
f 339/1/6 340/1/6 346/1/6
f 345/2/6 338/2/6 346/2/6
f 338/1/6 339/1/6 346/1/6
f 332/2/6 333/2/6 347/2/6
f 343/1/6 344/1/6 348/1/6
f 347/2/6 333/2/6 348/2/6
f 333/1/6 343/1/6 348/1/6
f 348/1/6 344/1/6 349/1/6
f 346/1/6 340/1/6 350/1/6
f 345/1/6 346/1/6 350/1/6
f 340/2/6 341/2/6 351/2/6
f 350/1/6 340/1/6 351/1/6
f 351/2/6 341/2/6 352/2/6
f 348/2/6 349/2/6 353/2/6
f 349/1/6 344/1/6 354/1/6
f 353/2/6 349/2/6 354/2/6
f 354/1/6 344/1/6 355/1/6
f 344/2/6 345/2/6 356/2/6
f 355/1/6 344/1/6 356/1/6
f 345/1/6 350/1/6 357/1/6
f 356/2/6 345/2/6 357/2/6
f 357/1/6 350/1/6 358/1/6
f 350/2/6 351/2/6 359/2/6
f 358/1/6 350/1/6 359/1/6
f 359/2/6 351/2/6 360/2/6
f 354/2/6 355/2/6 361/2/6
f 355/1/6 356/1/6 362/1/6
f 361/2/6 355/2/6 362/2/6
f 357/1/6 358/1/6 362/1/6
f 356/1/6 357/1/6 362/1/6
f 362/1/6 358/1/6 363/1/6
f 363/1/6 358/1/6 364/1/6
f 358/2/6 359/2/6 365/2/6
f 364/1/6 358/1/6 365/1/6
f 365/2/6 359/2/6 366/2/6
f 362/2/6 363/2/6 367/2/6
f 363/1/6 364/1/6 368/1/6
f 367/2/6 363/2/6 368/2/6
f 364/2/6 365/2/6 369/2/6
f 368/1/6 364/1/6 369/1/6
f 369/2/6 365/2/6 370/2/6
f 368/2/6 369/2/6 371/2/6
f 371/2/6 369/2/6 372/2/6
