# MagicaVoxel @ Ephtracy

# group
o 

# material
mtllib Medkit(voxel).mtl
usemtl palette

# normals
vn -1 0 0
vn 1 0 0
vn 0 0 1
vn 0 0 -1
vn 0 -1 0
vn 0 1 0

# texcoords
vt 0.845703 0.5
vt 0.958984 0.5
vt 0.982422 0.5
vt 0.986328 0.5
vt 0.990234 0.5
vt 0.994141 0.5

# verts
v -3.8 0 -0.2
v -3.8 0 -2.1
v -3.8 0.8 -0.2
v -3.8 0.8 -2.1
v -3.8 0.9 -0.2
v -3.8 0.9 -2.1
v -3.8 1.7 -0.2
v -3.8 1.7 -2.1
v -3.7 0 -0.1
v -3.7 0 -0.2
v -3.7 0 -2.1
v -3.7 0 -2.2
v -3.7 0.8 -0.1
v -3.7 0.8 -0.2
v -3.7 0.8 -2.1
v -3.7 0.9 -0.1
v -3.7 0.9 -0.2
v -3.7 0.9 -2.1
v -3.7 1.7 -0.1
v -3.7 1.7 -0.2
v -3.7 1.7 -0.3
v -3.7 1.7 -2
v -3.7 1.7 -2.1
v -3.7 1.7 -2.2
v -3.7 1.8 -0.3
v -3.7 1.8 -2
v -3.6 1.7 -0.2
v -3.6 1.7 -0.3
v -3.6 1.7 -2
v -3.6 1.7 -2.1
v -3.6 1.8 -0.2
v -3.6 1.8 -0.3
v -3.6 1.8 -2
v -3.6 1.8 -2.1
v -2.6 0.6 0
v -2.6 0.6 -0.1
v -2.6 0.8 -0.1
v -2.6 0.8 -0.2
v -2.6 0.9 -0.1
v -2.6 0.9 -0.2
v -2.6 1.1 0
v -2.6 1.1 -0.1
v -1.5 0.6 0
v -1.5 0.6 -0.1
v -1.5 0.8 -0.1
v -1.5 0.8 -0.2
v -1.5 0.9 -0.1
v -1.5 0.9 -0.2
v -1.5 1.1 0
v -1.5 1.1 -0.1
v -0.7 0.1 -2.1
v -0.7 0.1 -2.2
v -0.7 0.2 -2.1
v -0.7 0.2 -2.2
v -0.7 1.5 -2.1
v -0.7 1.5 -2.2
v -0.7 1.6 -2.1
v -0.7 1.6 -2.2
v -0.6 0.2 -2.1
v -0.6 0.2 -2.2
v -0.6 1.5 -2.1
v -0.6 1.5 -2.2
v -3.3 0.2 -2.1
v -3.3 0.2 -2.2
v -3.3 1.5 -2.1
v -3.3 1.5 -2.2
v -3.2 0.1 -2.1
v -3.2 0.1 -2.2
v -3.2 0.2 -2.1
v -3.2 0.2 -2.2
v -3.2 1.5 -2.1
v -3.2 1.5 -2.2
v -3.2 1.6 -2.1
v -3.2 1.6 -2.2
v -2.3 0.6 0
v -2.3 0.6 -0.1
v -2.3 0.8 -0.1
v -2.3 0.8 -0.2
v -2.3 0.9 -0.1
v -2.3 0.9 -0.2
v -2.3 1.1 0
v -2.3 1.1 -0.1
v -1.2 0.6 0
v -1.2 0.6 -0.1
v -1.2 0.8 -0.1
v -1.2 0.8 -0.2
v -1.2 0.9 -0.1
v -1.2 0.9 -0.2
v -1.2 1.1 0
v -1.2 1.1 -0.1
v -0.2 1.7 -0.2
v -0.2 1.7 -0.3
v -0.2 1.7 -2
v -0.2 1.7 -2.1
v -0.2 1.8 -0.2
v -0.2 1.8 -0.3
v -0.2 1.8 -2
v -0.2 1.8 -2.1
v -0.0999999 0 -0.1
v -0.0999999 0 -0.2
v -0.0999999 0 -2.1
v -0.0999999 0 -2.2
v -0.0999999 0.8 -0.1
v -0.0999999 0.8 -0.2
v -0.0999999 0.8 -2.1
v -0.0999999 0.9 -0.1
v -0.0999999 0.9 -0.2
v -0.0999999 0.9 -2.1
v -0.0999999 1.7 -0.1
v -0.0999999 1.7 -0.2
v -0.0999999 1.7 -0.3
v -0.0999999 1.7 -2
v -0.0999999 1.7 -2.1
v -0.0999999 1.7 -2.2
v -0.0999999 1.8 -0.3
v -0.0999999 1.8 -2
v 2.38419e-07 0 -0.2
v 2.38419e-07 0 -2.1
v 2.38419e-07 0.8 -0.2
v 2.38419e-07 0.8 -2.1
v 2.38419e-07 0.9 -0.2
v 2.38419e-07 0.9 -2.1
v 2.38419e-07 1.7 -0.2
v 2.38419e-07 1.7 -2.1
v -2.6 0.6 0
v -2.6 1.1 0
v -2.3 0.6 0
v -2.3 1.1 0
v -1.5 0.6 0
v -1.5 1.1 0
v -1.2 0.6 0
v -1.2 1.1 0
v -3.7 0 -0.1
v -3.7 0.8 -0.1
v -3.7 0.9 -0.1
v -3.7 1.7 -0.1
v -2.6 0.6 -0.1
v -2.6 0.8 -0.1
v -2.6 0.9 -0.1
v -2.6 1.1 -0.1
v -2.3 0.6 -0.1
v -2.3 0.8 -0.1
v -2.3 0.9 -0.1
v -2.3 1.1 -0.1
v -1.5 0.6 -0.1
v -1.5 0.8 -0.1
v -1.5 0.9 -0.1
v -1.5 1.1 -0.1
v -1.2 0.6 -0.1
v -1.2 0.8 -0.1
v -1.2 0.9 -0.1
v -1.2 1.1 -0.1
v -0.0999999 0 -0.1
v -0.0999999 0.8 -0.1
v -0.0999999 0.9 -0.1
v -0.0999999 1.7 -0.1
v -3.8 0 -0.2
v -3.8 0.8 -0.2
v -3.8 0.9 -0.2
v -3.8 1.7 -0.2
v -3.7 0 -0.2
v -3.7 0.8 -0.2
v -3.7 0.9 -0.2
v -3.7 1.7 -0.2
v -3.6 1.7 -0.2
v -3.6 1.8 -0.2
v -2.6 0.8 -0.2
v -2.6 0.9 -0.2
v -2.3 0.8 -0.2
v -2.3 0.9 -0.2
v -1.5 0.8 -0.2
v -1.5 0.9 -0.2
v -1.2 0.8 -0.2
v -1.2 0.9 -0.2
v -0.2 1.7 -0.2
v -0.2 1.8 -0.2
v -0.0999999 0 -0.2
v -0.0999999 0.8 -0.2
v -0.0999999 0.9 -0.2
v -0.0999999 1.7 -0.2
v 2.38419e-07 0 -0.2
v 2.38419e-07 0.8 -0.2
v 2.38419e-07 0.9 -0.2
v 2.38419e-07 1.7 -0.2
v -3.7 1.7 -0.3
v -3.7 1.8 -0.3
v -3.6 1.7 -0.3
v -3.6 1.8 -0.3
v -0.2 1.7 -0.3
v -0.2 1.8 -0.3
v -0.0999999 1.7 -0.3
v -0.0999999 1.8 -0.3
v -3.7 1.7 -2
v -3.7 1.8 -2
v -3.6 1.7 -2
v -3.6 1.8 -2
v -0.2 1.7 -2
v -0.2 1.8 -2
v -0.0999999 1.7 -2
v -0.0999999 1.8 -2
v -3.8 0 -2.1
v -3.8 0.8 -2.1
v -3.8 0.9 -2.1
v -3.8 1.7 -2.1
v -3.7 0 -2.1
v -3.7 0.8 -2.1
v -3.7 0.9 -2.1
v -3.7 1.7 -2.1
v -3.6 1.7 -2.1
v -3.6 1.8 -2.1
v -3.3 0.2 -2.1
v -3.3 1.5 -2.1
v -3.2 0.1 -2.1
v -3.2 0.2 -2.1
v -3.2 1.4 -2.1
v -3.2 1.5 -2.1
v -3.2 1.6 -2.1
v -3 1 -2.1
v -3 1.4 -2.1
v -2.9 1 -2.1
v -2.9 1.4 -2.1
v -2.7 1.4 -2.1
v -2.7 1.5 -2.1
v -2.6 0.3 -2.1
v -2.6 0.7 -2.1
v -2.5 0.2 -2.1
v -2.5 0.3 -2.1
v -2.5 0.7 -2.1
v -2.5 0.8 -2.1
v -2.5 1 -2.1
v -2.5 1.2 -2.1
v -2.5 1.4 -2.1
v -2.5 1.5 -2.1
v -2.4 1.1 -2.1
v -2.4 1.2 -2.1
v -2.4 1.3 -2.1
v -2.3 0.3 -2.1
v -2.3 0.7 -2.1
v -2.3 1.2 -2.1
v -2.3 1.3 -2.1
v -2.3 1.4 -2.1
v -2.2 0.2 -2.1
v -2.2 0.8 -2.1
v -2.2 1 -2.1
v -2.2 1.1 -2.1
v -2.2 1.3 -2.1
v -2.2 1.5 -2.1
v -2.1 1 -2.1
v -2.1 1.1 -2.1
v -2 0.2 -2.1
v -2 0.8 -2.1
v -2 1 -2.1
v -2 1.1 -2.1
v -2 1.2 -2.1
v -2 1.3 -2.1
v -2 1.5 -2.1
v -1.9 0.2 -2.1
v -1.9 0.8 -2.1
v -1.9 1.1 -2.1
v -1.9 1.2 -2.1
v -1.9 1.3 -2.1
v -1.9 1.4 -2.1
v -1.7 0.2 -2.1
v -1.7 0.6 -2.1
v -1.7 1 -2.1
v -1.7 1.2 -2.1
v -1.7 1.3 -2.1
v -1.7 1.4 -2.1
v -1.6 0.2 -2.1
v -1.6 0.4 -2.1
v -1.6 0.5 -2.1
v -1.6 0.6 -2.1
v -1.6 0.7 -2.1
v -1.6 1 -2.1
v -1.6 1.5 -2.1
v -1.5 0.6 -2.1
v -1.5 0.7 -2.1
v -1.5 0.8 -2.1
v -1.4 0.6 -2.1
v -1.4 0.7 -2.1
v -1.4 0.8 -2.1
v -1.4 1 -2.1
v -1.4 1.5 -2.1
v -1.3 0.2 -2.1
v -1.3 0.4 -2.1
v -1.3 0.5 -2.1
v -1.3 0.6 -2.1
v -1.3 0.7 -2.1
v -1.3 1 -2.1
v -1.3 1.5 -2.1
v -1.2 0.2 -2.1
v -1.2 0.6 -2.1
v -1.2 1.4 -2.1
v -1.2 1.5 -2.1
v -1 1.2 -2.1
v -1 1.3 -2.1
v -0.8 1 -2.1
v -0.8 1.2 -2.1
v -0.8 1.3 -2.1
v -0.8 1.4 -2.1
v -0.7 0.1 -2.1
v -0.7 0.2 -2.1
v -0.7 1 -2.1
v -0.7 1.5 -2.1
v -0.7 1.6 -2.1
v -0.6 0.2 -2.1
v -0.6 1.5 -2.1
v -0.2 1.7 -2.1
v -0.2 1.8 -2.1
v -0.0999999 0 -2.1
v -0.0999999 0.8 -2.1
v -0.0999999 0.9 -2.1
v -0.0999999 1.7 -2.1
v 2.38419e-07 0 -2.1
v 2.38419e-07 0.8 -2.1
v 2.38419e-07 0.9 -2.1
v 2.38419e-07 1.7 -2.1
v -3.7 0 -2.2
v -3.7 1.7 -2.2
v -3.3 0.2 -2.2
v -3.3 1.5 -2.2
v -3.2 0.1 -2.2
v -3.2 0.2 -2.2
v -3.2 1.5 -2.2
v -3.2 1.6 -2.2
v -0.7 0.1 -2.2
v -0.7 0.2 -2.2
v -0.7 1.5 -2.2
v -0.7 1.6 -2.2
v -0.6 0.2 -2.2
v -0.6 1.5 -2.2
v -0.0999999 0 -2.2
v -0.0999999 1.7 -2.2
v -3.7 0 -0.1
v -0.0999999 0 -0.1
v -3.8 0 -0.2
v -3.7 0 -0.2
v -0.0999999 0 -0.2
v 2.38419e-07 0 -0.2
v -3.8 0 -2.1
v -3.7 0 -2.1
v -0.0999999 0 -2.1
v 2.38419e-07 0 -2.1
v -3.7 0 -2.2
v -0.0999999 0 -2.2
v -2.6 0.6 0
v -2.3 0.6 0
v -1.5 0.6 0
v -1.2 0.6 0
v -2.6 0.6 -0.1
v -2.3 0.6 -0.1
v -1.5 0.6 -0.1
v -1.2 0.6 -0.1
v -3.7 0.9 -0.1
v -2.6 0.9 -0.1
v -2.3 0.9 -0.1
v -1.5 0.9 -0.1
v -1.2 0.9 -0.1
v -0.0999999 0.9 -0.1
v -3.8 0.9 -0.2
v -3.7 0.9 -0.2
v -2.6 0.9 -0.2
v -2.3 0.9 -0.2
v -1.5 0.9 -0.2
v -1.2 0.9 -0.2
v -0.0999999 0.9 -0.2
v 2.38419e-07 0.9 -0.2
v -3.8 0.9 -2.1
v -3.7 0.9 -2.1
v -0.0999999 0.9 -2.1
v 2.38419e-07 0.9 -2.1
v -3.3 1.5 -2.1
v -3.2 1.5 -2.1
v -0.7 1.5 -2.1
v -0.6 1.5 -2.1
v -3.3 1.5 -2.2
v -3.2 1.5 -2.2
v -0.7 1.5 -2.2
v -0.6 1.5 -2.2
v -3.2 1.6 -2.1
v -0.7 1.6 -2.1
v -3.2 1.6 -2.2
v -0.7 1.6 -2.2
v -3.2 0.1 -2.1
v -0.7 0.1 -2.1
v -3.2 0.1 -2.2
v -0.7 0.1 -2.2
v -3.3 0.2 -2.1
v -3.2 0.2 -2.1
v -0.7 0.2 -2.1
v -0.6 0.2 -2.1
v -3.3 0.2 -2.2
v -3.2 0.2 -2.2
v -0.7 0.2 -2.2
v -0.6 0.2 -2.2
v -3.7 0.8 -0.1
v -2.6 0.8 -0.1
v -2.3 0.8 -0.1
v -1.5 0.8 -0.1
v -1.2 0.8 -0.1
v -0.0999999 0.8 -0.1
v -3.8 0.8 -0.2
v -3.7 0.8 -0.2
v -2.6 0.8 -0.2
v -2.3 0.8 -0.2
v -1.5 0.8 -0.2
v -1.2 0.8 -0.2
v -0.0999999 0.8 -0.2
v 2.38419e-07 0.8 -0.2
v -3.8 0.8 -2.1
v -3.7 0.8 -2.1
v -0.0999999 0.8 -2.1
v 2.38419e-07 0.8 -2.1
v -2.6 1.1 0
v -2.3 1.1 0
v -1.5 1.1 0
v -1.2 1.1 0
v -2.6 1.1 -0.1
v -2.3 1.1 -0.1
v -1.5 1.1 -0.1
v -1.2 1.1 -0.1
v -3.7 1.7 -0.1
v -0.0999999 1.7 -0.1
v -3.8 1.7 -0.2
v -3.7 1.7 -0.2
v -3.6 1.7 -0.2
v -0.2 1.7 -0.2
v -0.0999999 1.7 -0.2
v 2.38419e-07 1.7 -0.2
v -3.7 1.7 -0.3
v -3.6 1.7 -0.3
v -0.2 1.7 -0.3
v -0.0999999 1.7 -0.3
v -3.7 1.7 -2
v -3.6 1.7 -2
v -0.2 1.7 -2
v -0.0999999 1.7 -2
v -3.8 1.7 -2.1
v -3.7 1.7 -2.1
v -3.6 1.7 -2.1
v -0.2 1.7 -2.1
v -0.0999999 1.7 -2.1
v 2.38419e-07 1.7 -2.1
v -3.7 1.7 -2.2
v -0.0999999 1.7 -2.2
v -3.6 1.8 -0.2
v -0.2 1.8 -0.2
v -3.7 1.8 -0.3
v -3.6 1.8 -0.3
v -0.2 1.8 -0.3
v -0.0999999 1.8 -0.3
v -2 1.8 -0.5
v -1.8 1.8 -0.5
v -2.6 1.8 -1
v -2 1.8 -1
v -1.8 1.8 -1
v -1.2 1.8 -1
v -2.6 1.8 -1.2
v -2 1.8 -1.2
v -1.8 1.8 -1.2
v -1.2 1.8 -1.2
v -2 1.8 -1.8
v -1.8 1.8 -1.8
v -3.7 1.8 -2
v -3.6 1.8 -2
v -0.2 1.8 -2
v -0.0999999 1.8 -2
v -3.6 1.8 -2.1
v -0.2 1.8 -2.1

# faces
f 3/2/1 2/2/1 1/2/1
f 4/2/1 2/2/1 3/2/1
f 7/2/1 6/2/1 5/2/1
f 8/2/1 6/2/1 7/2/1
f 13/2/1 10/2/1 9/2/1
f 14/2/1 10/2/1 13/2/1
f 15/2/1 12/2/1 11/2/1
f 17/3/1 15/3/1 14/3/1
f 18/2/1 12/2/1 15/2/1
f 18/3/1 15/3/1 17/3/1
f 19/2/1 17/2/1 16/2/1
f 20/2/1 17/2/1 19/2/1
f 23/2/1 12/2/1 18/2/1
f 24/2/1 12/2/1 23/2/1
f 25/2/1 22/2/1 21/2/1
f 26/2/1 22/2/1 25/2/1
f 31/2/1 28/2/1 27/2/1
f 32/2/1 28/2/1 31/2/1
f 33/2/1 30/2/1 29/2/1
f 34/2/1 30/2/1 33/2/1
f 37/5/1 36/5/1 35/5/1
f 39/5/1 37/5/1 35/5/1
f 39/6/1 38/6/1 37/6/1
f 40/6/1 38/6/1 39/6/1
f 41/5/1 39/5/1 35/5/1
f 42/5/1 39/5/1 41/5/1
f 45/5/1 44/5/1 43/5/1
f 47/5/1 45/5/1 43/5/1
f 47/6/1 46/6/1 45/6/1
f 48/6/1 46/6/1 47/6/1
f 49/5/1 47/5/1 43/5/1
f 50/5/1 47/5/1 49/5/1
f 53/2/1 52/2/1 51/2/1
f 54/2/1 52/2/1 53/2/1
f 57/2/1 56/2/1 55/2/1
f 58/2/1 56/2/1 57/2/1
f 61/2/1 60/2/1 59/2/1
f 62/2/1 60/2/1 61/2/1
f 63/2/2 64/2/2 65/2/2
f 65/2/2 64/2/2 66/2/2
f 67/2/2 68/2/2 69/2/2
f 69/2/2 68/2/2 70/2/2
f 71/2/2 72/2/2 73/2/2
f 73/2/2 72/2/2 74/2/2
f 75/5/2 76/5/2 77/5/2
f 75/5/2 77/5/2 79/5/2
f 77/6/2 78/6/2 79/6/2
f 79/6/2 78/6/2 80/6/2
f 75/5/2 79/5/2 81/5/2
f 81/5/2 79/5/2 82/5/2
f 83/5/2 84/5/2 85/5/2
f 83/5/2 85/5/2 87/5/2
f 85/6/2 86/6/2 87/6/2
f 87/6/2 86/6/2 88/6/2
f 83/5/2 87/5/2 89/5/2
f 89/5/2 87/5/2 90/5/2
f 91/2/2 92/2/2 95/2/2
f 95/2/2 92/2/2 96/2/2
f 93/2/2 94/2/2 97/2/2
f 97/2/2 94/2/2 98/2/2
f 99/2/2 100/2/2 103/2/2
f 103/2/2 100/2/2 104/2/2
f 101/2/2 102/2/2 105/2/2
f 104/3/2 105/3/2 107/3/2
f 105/2/2 102/2/2 108/2/2
f 107/3/2 105/3/2 108/3/2
f 106/2/2 107/2/2 109/2/2
f 109/2/2 107/2/2 110/2/2
f 108/2/2 102/2/2 113/2/2
f 113/2/2 102/2/2 114/2/2
f 111/2/2 112/2/2 115/2/2
f 115/2/2 112/2/2 116/2/2
f 117/2/2 118/2/2 119/2/2
f 119/2/2 118/2/2 120/2/2
f 121/2/2 122/2/2 123/2/2
f 123/2/2 122/2/2 124/2/2
f 127/5/3 126/5/3 125/5/3
f 128/5/3 126/5/3 127/5/3
f 131/5/3 130/5/3 129/5/3
f 132/5/3 130/5/3 131/5/3
f 137/2/3 134/2/3 133/2/3
f 138/2/3 134/2/3 137/2/3
f 139/2/3 136/2/3 135/2/3
f 140/2/3 136/2/3 139/2/3
f 141/2/3 137/2/3 133/2/3
f 144/2/3 136/2/3 140/2/3
f 145/2/3 142/2/3 141/2/3
f 145/2/3 141/2/3 133/2/3
f 146/2/3 142/2/3 145/2/3
f 147/2/3 144/2/3 143/2/3
f 148/2/3 136/2/3 144/2/3
f 148/2/3 144/2/3 147/2/3
f 149/2/3 145/2/3 133/2/3
f 152/2/3 136/2/3 148/2/3
f 153/2/3 150/2/3 149/2/3
f 153/2/3 149/2/3 133/2/3
f 154/2/3 150/2/3 153/2/3
f 155/2/3 152/2/3 151/2/3
f 156/2/3 136/2/3 152/2/3
f 156/2/3 152/2/3 155/2/3
f 161/2/3 158/2/3 157/2/3
f 162/2/3 158/2/3 161/2/3
f 163/2/3 160/2/3 159/2/3
f 164/2/3 160/2/3 163/2/3
f 167/3/3 163/3/3 162/3/3
f 168/3/3 163/3/3 167/3/3
f 171/3/3 170/3/3 169/3/3
f 172/3/3 170/3/3 171/3/3
f 175/2/3 166/2/3 165/2/3
f 176/2/3 166/2/3 175/2/3
f 178/3/3 174/3/3 173/3/3
f 179/3/3 174/3/3 178/3/3
f 181/2/3 178/2/3 177/2/3
f 182/2/3 178/2/3 181/2/3
f 183/2/3 180/2/3 179/2/3
f 184/2/3 180/2/3 183/2/3
f 187/2/3 186/2/3 185/2/3
f 188/2/3 186/2/3 187/2/3
f 191/2/3 190/2/3 189/2/3
f 192/2/3 190/2/3 191/2/3
f 193/2/4 194/2/4 195/2/4
f 195/2/4 194/2/4 196/2/4
f 197/2/4 198/2/4 199/2/4
f 199/2/4 198/2/4 200/2/4
f 201/2/4 202/2/4 205/2/4
f 205/2/4 202/2/4 206/2/4
f 203/2/4 204/2/4 207/2/4
f 207/2/4 204/2/4 208/2/4
f 211/4/4 212/4/4 214/4/4
f 214/4/4 212/4/4 215/4/4
f 215/4/4 212/4/4 216/4/4
f 213/4/4 214/4/4 218/4/4
f 214/4/4 215/4/4 218/4/4
f 215/6/4 216/6/4 219/6/4
f 218/4/4 215/4/4 219/4/4
f 213/4/4 218/4/4 220/4/4
f 218/6/4 219/6/4 220/6/4
f 219/6/4 216/6/4 221/6/4
f 220/6/4 219/6/4 221/6/4
f 220/4/4 221/4/4 222/4/4
f 221/6/4 216/6/4 222/6/4
f 216/4/4 217/4/4 223/4/4
f 222/6/4 216/6/4 223/6/4
f 220/4/4 222/4/4 224/4/4
f 213/4/4 220/4/4 224/4/4
f 222/4/4 223/4/4 224/4/4
f 224/4/4 223/4/4 225/4/4
f 213/4/4 224/4/4 226/4/4
f 224/6/4 225/6/4 227/6/4
f 226/4/4 224/4/4 227/4/4
f 225/4/4 223/4/4 228/4/4
f 227/6/4 225/6/4 228/6/4
f 228/4/4 223/4/4 229/4/4
f 229/4/4 223/4/4 230/4/4
f 230/4/4 223/4/4 231/4/4
f 231/4/4 223/4/4 232/4/4
f 223/4/4 217/4/4 233/4/4
f 232/4/4 223/4/4 233/4/4
f 230/6/4 231/6/4 234/6/4
f 231/4/4 232/4/4 235/4/4
f 234/6/4 231/6/4 235/6/4
f 235/4/4 232/4/4 236/4/4
f 226/6/4 227/6/4 237/6/4
f 227/4/4 228/4/4 237/4/4
f 228/6/4 229/6/4 238/6/4
f 237/4/4 228/4/4 238/4/4
f 235/6/4 236/6/4 239/6/4
f 234/4/4 235/4/4 239/4/4
f 236/4/4 232/4/4 240/4/4
f 239/6/4 236/6/4 240/6/4
f 232/6/4 233/6/4 241/6/4
f 240/4/4 232/4/4 241/4/4
f 213/4/4 226/4/4 242/4/4
f 226/6/4 237/6/4 242/6/4
f 237/6/4 238/6/4 242/6/4
f 238/6/4 229/6/4 243/6/4
f 242/6/4 238/6/4 243/6/4
f 229/4/4 230/4/4 243/4/4
f 230/6/4 234/6/4 244/6/4
f 243/4/4 230/4/4 244/4/4
f 234/4/4 239/4/4 245/4/4
f 244/6/4 234/6/4 245/6/4
f 239/4/4 240/4/4 245/4/4
f 240/6/4 241/6/4 246/6/4
f 245/4/4 240/4/4 246/4/4
f 241/6/4 233/6/4 247/6/4
f 246/6/4 241/6/4 247/6/4
f 233/4/4 217/4/4 247/4/4
f 242/4/4 243/4/4 248/4/4
f 243/4/4 244/4/4 248/4/4
f 246/4/4 247/4/4 248/4/4
f 244/4/4 245/4/4 248/4/4
f 245/4/4 246/4/4 248/4/4
f 248/4/4 247/4/4 249/4/4
f 213/4/4 242/4/4 250/4/4
f 242/4/4 248/4/4 250/4/4
f 250/4/4 248/4/4 251/4/4
f 248/6/4 249/6/4 252/6/4
f 251/4/4 248/4/4 252/4/4
f 249/4/4 247/4/4 253/4/4
f 252/6/4 249/6/4 253/6/4
f 253/4/4 247/4/4 254/4/4
f 254/4/4 247/4/4 255/4/4
f 247/4/4 217/4/4 256/4/4
f 255/4/4 247/4/4 256/4/4
f 250/6/4 251/6/4 257/6/4
f 213/4/4 250/4/4 257/4/4
f 251/4/4 252/4/4 258/4/4
f 257/6/4 251/6/4 258/6/4
f 252/4/4 253/4/4 258/4/4
f 253/6/4 254/6/4 259/6/4
f 258/4/4 253/4/4 259/4/4
f 254/4/4 255/4/4 260/4/4
f 259/6/4 254/6/4 260/6/4
f 255/6/4 256/6/4 261/6/4
f 260/4/4 255/4/4 261/4/4
f 261/6/4 256/6/4 262/6/4
f 258/4/4 259/4/4 263/4/4
f 213/4/4 257/4/4 263/4/4
f 259/4/4 260/4/4 263/4/4
f 257/4/4 258/4/4 263/4/4
f 263/4/4 260/4/4 264/4/4
f 264/4/4 260/4/4 265/4/4
f 260/6/4 261/6/4 266/6/4
f 265/4/4 260/4/4 266/4/4
f 261/4/4 262/4/4 267/4/4
f 266/6/4 261/6/4 267/6/4
f 262/6/4 256/6/4 268/6/4
f 267/4/4 262/4/4 268/4/4
f 213/4/4 263/4/4 269/4/4
f 263/6/4 264/6/4 269/6/4
f 269/6/4 264/6/4 270/6/4
f 270/6/4 264/6/4 271/6/4
f 264/4/4 265/4/4 272/4/4
f 271/6/4 264/6/4 272/6/4
f 272/4/4 265/4/4 273/4/4
f 266/6/4 267/6/4 274/6/4
f 273/4/4 265/4/4 274/4/4
f 265/6/4 266/6/4 274/6/4
f 267/6/4 268/6/4 274/6/4
f 256/4/4 217/4/4 275/4/4
f 274/6/4 268/6/4 275/6/4
f 268/6/4 256/6/4 275/6/4
f 272/6/4 273/6/4 276/6/4
f 271/4/4 272/4/4 276/4/4
f 274/4/4 275/4/4 277/4/4
f 276/6/4 273/6/4 277/6/4
f 273/4/4 274/4/4 277/4/4
f 277/4/4 275/4/4 278/4/4
f 271/4/4 276/4/4 279/4/4
f 276/4/4 277/4/4 279/4/4
f 277/6/4 278/6/4 280/6/4
f 279/4/4 277/4/4 280/4/4
f 278/4/4 275/4/4 281/4/4
f 280/6/4 278/6/4 281/6/4
f 281/4/4 275/4/4 282/4/4
f 275/4/4 217/4/4 283/4/4
f 282/4/4 275/4/4 283/4/4
f 269/4/4 270/4/4 284/4/4
f 213/4/4 269/4/4 284/4/4
f 270/6/4 271/6/4 285/6/4
f 284/4/4 270/4/4 285/4/4
f 271/4/4 279/4/4 286/4/4
f 285/6/4 271/6/4 286/6/4
f 279/6/4 280/6/4 287/6/4
f 286/4/4 279/4/4 287/4/4
f 281/4/4 282/4/4 288/4/4
f 287/6/4 280/6/4 288/6/4
f 280/4/4 281/4/4 288/4/4
f 282/6/4 283/6/4 289/6/4
f 288/4/4 282/4/4 289/4/4
f 283/4/4 217/4/4 290/4/4
f 289/6/4 283/6/4 290/6/4
f 286/6/4 287/6/4 291/6/4
f 285/6/4 286/6/4 291/6/4
f 213/4/4 284/4/4 291/4/4
f 284/6/4 285/6/4 291/6/4
f 289/4/4 290/4/4 292/4/4
f 291/6/4 287/6/4 292/6/4
f 288/4/4 289/4/4 292/4/4
f 287/4/4 288/4/4 292/4/4
f 292/4/4 290/4/4 293/4/4
f 290/4/4 217/4/4 294/4/4
f 293/4/4 290/4/4 294/4/4
f 292/4/4 293/4/4 295/4/4
f 291/4/4 292/4/4 295/4/4
f 295/4/4 293/4/4 296/4/4
f 291/4/4 295/4/4 297/4/4
f 295/6/4 296/6/4 298/6/4
f 297/4/4 295/4/4 298/4/4
f 296/4/4 293/4/4 299/4/4
f 298/6/4 296/6/4 299/6/4
f 293/6/4 294/6/4 300/6/4
f 299/4/4 293/4/4 300/4/4
f 213/4/4 291/4/4 301/4/4
f 291/4/4 297/4/4 301/4/4
f 301/4/4 297/4/4 302/4/4
f 298/6/4 299/6/4 303/6/4
f 302/4/4 297/4/4 303/4/4
f 297/6/4 298/6/4 303/6/4
f 299/6/4 300/6/4 303/6/4
f 294/4/4 217/4/4 304/4/4
f 303/6/4 300/6/4 304/6/4
f 300/6/4 294/6/4 304/6/4
f 304/4/4 217/4/4 305/4/4
f 302/4/4 303/4/4 306/4/4
f 303/4/4 304/4/4 306/4/4
f 306/4/4 304/4/4 307/4/4
f 209/2/4 210/2/4 308/2/4
f 308/2/4 210/2/4 309/2/4
f 310/2/4 311/2/4 314/2/4
f 314/2/4 311/2/4 315/2/4
f 312/2/4 313/2/4 316/2/4
f 316/2/4 313/2/4 317/2/4
f 318/2/4 319/2/4 320/2/4
f 320/2/4 319/2/4 321/2/4
f 318/2/4 320/2/4 322/2/4
f 322/2/4 320/2/4 323/2/4
f 321/2/4 319/2/4 324/2/4
f 324/2/4 319/2/4 325/2/4
f 318/2/4 322/2/4 326/2/4
f 325/2/4 319/2/4 329/2/4
f 326/2/4 327/2/4 330/2/4
f 328/2/4 329/2/4 331/2/4
f 326/2/4 330/2/4 332/2/4
f 330/2/4 331/2/4 332/2/4
f 318/2/4 326/2/4 332/2/4
f 331/2/4 329/2/4 333/2/4
f 332/2/4 331/2/4 333/2/4
f 329/2/4 319/2/4 333/2/4
f 337/2/5 335/2/5 334/2/5
f 338/2/5 335/2/5 337/2/5
f 340/2/5 337/2/5 336/2/5
f 340/2/5 339/2/5 338/2/5
f 340/2/5 338/2/5 337/2/5
f 341/2/5 339/2/5 340/2/5
f 342/2/5 339/2/5 341/2/5
f 343/2/5 339/2/5 342/2/5
f 344/2/5 342/2/5 341/2/5
f 345/2/5 342/2/5 344/2/5
f 350/5/5 347/5/5 346/5/5
f 351/5/5 347/5/5 350/5/5
f 352/5/5 349/5/5 348/5/5
f 353/5/5 349/5/5 352/5/5
f 361/2/5 355/2/5 354/2/5
f 362/2/5 355/2/5 361/2/5
f 363/2/5 357/2/5 356/2/5
f 364/2/5 357/2/5 363/2/5
f 365/2/5 359/2/5 358/2/5
f 366/2/5 359/2/5 365/2/5
f 368/2/5 361/2/5 360/2/5
f 369/2/5 361/2/5 368/2/5
f 370/2/5 367/2/5 366/2/5
f 371/2/5 367/2/5 370/2/5
f 376/2/5 373/2/5 372/2/5
f 377/2/5 373/2/5 376/2/5
f 378/2/5 375/2/5 374/2/5
f 379/2/5 375/2/5 378/2/5
f 382/2/5 381/2/5 380/2/5
f 383/2/5 381/2/5 382/2/5
f 384/2/6 385/2/6 386/2/6
f 386/2/6 385/2/6 387/2/6
f 388/2/6 389/2/6 392/2/6
f 392/2/6 389/2/6 393/2/6
f 390/2/6 391/2/6 394/2/6
f 394/2/6 391/2/6 395/2/6
f 396/2/6 397/2/6 403/2/6
f 403/2/6 397/2/6 404/2/6
f 398/2/6 399/2/6 405/2/6
f 405/2/6 399/2/6 406/2/6
f 400/2/6 401/2/6 407/2/6
f 407/2/6 401/2/6 408/2/6
f 402/2/6 403/2/6 410/2/6
f 410/2/6 403/2/6 411/2/6
f 408/2/6 409/2/6 412/2/6
f 412/2/6 409/2/6 413/2/6
f 414/5/6 415/5/6 418/5/6
f 418/5/6 415/5/6 419/5/6
f 416/5/6 417/5/6 420/5/6
f 420/5/6 417/5/6 421/5/6
f 422/2/6 423/2/6 425/2/6
f 425/2/6 423/2/6 426/2/6
f 426/2/6 423/2/6 427/2/6
f 427/2/6 423/2/6 428/2/6
f 424/2/6 425/2/6 430/2/6
f 425/2/6 426/2/6 430/2/6
f 430/2/6 426/2/6 431/2/6
f 428/2/6 429/2/6 432/2/6
f 427/2/6 428/2/6 432/2/6
f 432/2/6 429/2/6 433/2/6
f 424/2/6 430/2/6 434/2/6
f 433/2/6 429/2/6 437/2/6
f 434/2/6 435/2/6 438/2/6
f 424/2/6 434/2/6 438/2/6
f 438/2/6 435/2/6 439/2/6
f 439/2/6 435/2/6 440/2/6
f 436/2/6 437/2/6 441/2/6
f 437/2/6 429/2/6 442/2/6
f 441/2/6 437/2/6 442/2/6
f 442/2/6 429/2/6 443/2/6
f 439/2/6 440/2/6 444/2/6
f 440/2/6 441/2/6 444/2/6
f 441/2/6 442/2/6 444/2/6
f 444/2/6 442/2/6 445/2/6
f 446/2/6 447/2/6 449/2/6
f 449/2/6 447/2/6 450/2/6
f 448/2/6 449/2/6 452/2/6
f 450/2/6 451/2/6 452/2/6
f 449/2/6 450/2/6 452/2/6
f 452/2/6 451/2/6 453/2/6
f 448/2/6 452/2/6 454/2/6
f 452/1/6 453/1/6 455/1/6
f 454/2/6 452/2/6 455/2/6
f 453/2/6 451/2/6 456/2/6
f 455/1/6 453/1/6 456/1/6
f 456/2/6 451/2/6 457/2/6
f 454/1/6 455/1/6 458/1/6
f 448/2/6 454/2/6 458/2/6
f 456/1/6 457/1/6 458/1/6
f 455/1/6 456/1/6 458/1/6
f 458/1/6 457/1/6 459/1/6
f 459/1/6 457/1/6 460/1/6
f 457/2/6 451/2/6 461/2/6
f 460/1/6 457/1/6 461/1/6
f 459/1/6 460/1/6 462/1/6
f 458/2/6 459/2/6 462/2/6
f 460/2/6 461/2/6 463/2/6
f 462/1/6 460/1/6 463/1/6
f 448/2/6 458/2/6 464/2/6
f 458/2/6 462/2/6 464/2/6
f 462/2/6 463/2/6 464/2/6
f 464/2/6 463/2/6 465/2/6
f 461/2/6 451/2/6 466/2/6
f 465/2/6 463/2/6 466/2/6
f 463/2/6 461/2/6 466/2/6
f 466/2/6 451/2/6 467/2/6
f 465/2/6 466/2/6 468/2/6
f 468/2/6 466/2/6 469/2/6
