# MagicaVoxel @ Ephtracy

# group
o 

# material
mtllib Pistol(tire plus vite).mtl
usemtl palette

# normals
vn -1 0 0
vn 1 0 0
vn 0 0 1
vn 0 0 -1
vn 0 -1 0
vn 0 1 0

# texcoords
vt 0.205078 0.5
vt 0.208984 0.5
vt 0.833984 0.5
vt 0.919922 0.5
vt 0.935547 0.5
vt 0.947266 0.5
vt 0.978516 0.5
vt 0.994141 0.5

# verts
v -0.2 0 -0.9
v -0.2 0 -1
v -0.2 0 -1.1
v -0.2 0.2 -0.9
v -0.2 0.2 -1
v -0.2 0.2 -1.1
v -0.1 0 -0.8
v -0.1 0 -0.9
v -0.1 0.2 -0.8
v -0.1 0.2 -0.9
v 0.4 0 -0.7
v 0.4 0 -0.8
v 0.4 0.2 -0.7
v 0.4 0.2 -0.8
v 0.8 0 -0.6
v 0.8 0 -0.7
v 0.8 0.2 -0.6
v 0.8 0.2 -0.7
v 0.9 0 -0.5
v 0.9 0 -0.6
v 0.9 0.2 -0.5
v 0.9 0.2 -0.6
v 1 0 -0.4
v 1 0 -0.5
v 1 0 -0.6
v 1 0 -0.7
v 1 0.2 -0.4
v 1 0.2 -0.5
v 1 0.2 -0.6
v 1 0.2 -0.7
v 1.1 0 -0.5
v 1.1 0 -0.6
v 1.1 0.2 -0.5
v 1.1 0.2 -0.6
v 1.2 0 0.1
v 1.2 0 -0.4
v 1.2 0.2 0.1
v 1.2 0.2 -0.4
v 0.9 0 -0.6
v 0.9 0 -0.7
v 0.9 0.2 -0.6
v 0.9 0.2 -0.7
v 1 0 -0.5
v 1 0 -0.6
v 1 0.2 -0.5
v 1 0.2 -0.6
v 1.4 0 -1
v 1.4 0 -1.1
v 1.4 0.2 -1
v 1.4 0.2 -1.1
v 1.5 0 -0.9
v 1.5 0 -1
v 1.5 0.2 -0.9
v 1.5 0.2 -1
v 1.6 0 0.1
v 1.6 0 -0.9
v 1.6 0.2 0.1
v 1.6 0.2 -0.9
v 1.2 0 0.1
v 1.2 0.2 0.1
v 1.5 0 0.1
v 1.5 0.2 0.1
v 1.6 0 0.1
v 1.6 0.2 0.1
v 1 0 -0.4
v 1 0.2 -0.4
v 1.2 0 -0.4
v 1.2 0.2 -0.4
v 0.9 0 -0.5
v 0.9 0.2 -0.5
v 1 0 -0.5
v 1 0.2 -0.5
v 0.8 0 -0.6
v 0.8 0.2 -0.6
v 0.9 0 -0.6
v 0.9 0.2 -0.6
v 1 0 -0.6
v 1 0.2 -0.6
v 1.1 0 -0.6
v 1.1 0.2 -0.6
v 0.4 0 -0.7
v 0.4 0.2 -0.7
v 0.8 0 -0.7
v 0.8 0.2 -0.7
v 0.9 0 -0.7
v 0.9 0.2 -0.7
v 1 0 -0.7
v 1 0.2 -0.7
v -0.1 0 -0.8
v -0.1 0.2 -0.8
v 0 0 -0.8
v 0 0.2 -0.8
v 0.1 0 -0.8
v 0.1 0.2 -0.8
v 0.2 0 -0.8
v 0.2 0.2 -0.8
v 0.3 0 -0.8
v 0.3 0.2 -0.8
v 0.4 0 -0.8
v 0.4 0.2 -0.8
v -0.2 0 -0.9
v -0.2 0.2 -0.9
v -0.1 0 -0.9
v -0.1 0.2 -0.9
v 1 0 -0.5
v 1 0.2 -0.5
v 1.1 0 -0.5
v 1.1 0.2 -0.5
v 0.9 0 -0.6
v 0.9 0.2 -0.6
v 1 0 -0.6
v 1 0.2 -0.6
v 1.5 0 -0.9
v 1.5 0.2 -0.9
v 1.6 0 -0.9
v 1.6 0.2 -0.9
v 1.4 0 -1
v 1.4 0.2 -1
v 1.5 0 -1
v 1.5 0.2 -1
v -0.2 0 -1.1
v -0.2 0.2 -1.1
v 1.4 0 -1.1
v 1.4 0.2 -1.1
v 1.2 0 0.1
v 1.5 0 0.1
v 1.6 0 0.1
v 1 0 -0.4
v 1.2 0 -0.4
v 0.9 0 -0.5
v 1 0 -0.5
v 1.1 0 -0.5
v 0.8 0 -0.6
v 0.9 0 -0.6
v 1 0 -0.6
v 1.1 0 -0.6
v 1.2 0 -0.6
v 1.3 0 -0.6
v 0.4 0 -0.7
v 0.8 0 -0.7
v 0.9 0 -0.7
v 1 0 -0.7
v 1.1 0 -0.7
v -0.1 0 -0.8
v 0 0 -0.8
v 0.1 0 -0.8
v 0.2 0 -0.8
v 0.3 0 -0.8
v 0.4 0 -0.8
v 0.5 0 -0.8
v 1.3 0 -0.8
v 1.4 0 -0.8
v 1.5 0 -0.8
v -0.2 0 -0.9
v -0.1 0 -0.9
v 0 0 -0.9
v 0.1 0 -0.9
v 0.2 0 -0.9
v 0.3 0 -0.9
v 0.4 0 -0.9
v 0.5 0 -0.9
v 1 0 -0.9
v 1.3 0 -0.9
v 1.4 0 -0.9
v 1.5 0 -0.9
v 1.6 0 -0.9
v -0.2 0 -1
v 1 0 -1
v 1.3 0 -1
v 1.4 0 -1
v 1.5 0 -1
v -0.2 0 -1.1
v 1.4 0 -1.1
v 1.2 0.2 0.1
v 1.5 0.2 0.1
v 1.6 0.2 0.1
v 1 0.2 -0.4
v 1.2 0.2 -0.4
v 0.9 0.2 -0.5
v 1 0.2 -0.5
v 1.1 0.2 -0.5
v 0.8 0.2 -0.6
v 0.9 0.2 -0.6
v 1 0.2 -0.6
v 1.1 0.2 -0.6
v 1.2 0.2 -0.6
v 1.3 0.2 -0.6
v 0.4 0.2 -0.7
v 0.8 0.2 -0.7
v 0.9 0.2 -0.7
v 1 0.2 -0.7
v 1.1 0.2 -0.7
v -0.1 0.2 -0.8
v 0 0.2 -0.8
v 0.1 0.2 -0.8
v 0.2 0.2 -0.8
v 0.3 0.2 -0.8
v 0.4 0.2 -0.8
v 0.5 0.2 -0.8
v 1.3 0.2 -0.8
v 1.4 0.2 -0.8
v 1.5 0.2 -0.8
v -0.2 0.2 -0.9
v -0.1 0.2 -0.9
v 0 0.2 -0.9
v 0.1 0.2 -0.9
v 0.2 0.2 -0.9
v 0.3 0.2 -0.9
v 0.4 0.2 -0.9
v 0.5 0.2 -0.9
v 1 0.2 -0.9
v 1.3 0.2 -0.9
v 1.4 0.2 -0.9
v 1.5 0.2 -0.9
v 1.6 0.2 -0.9
v -0.2 0.2 -1
v 1 0.2 -1
v 1.3 0.2 -1
v 1.4 0.2 -1
v 1.5 0.2 -1
v -0.2 0.2 -1.1
v 1.4 0.2 -1.1

# faces
f 4/3/1 2/3/1 1/3/1
f 5/7/1 3/7/1 2/7/1
f 5/3/1 2/3/1 4/3/1
f 6/7/1 3/7/1 5/7/1
f 9/3/1 8/3/1 7/3/1
f 10/3/1 8/3/1 9/3/1
f 13/3/1 12/3/1 11/3/1
f 14/3/1 12/3/1 13/3/1
f 17/3/1 16/3/1 15/3/1
f 18/3/1 16/3/1 17/3/1
f 21/3/1 20/3/1 19/3/1
f 22/3/1 20/3/1 21/3/1
f 27/3/1 24/3/1 23/3/1
f 28/3/1 24/3/1 27/3/1
f 29/8/1 26/8/1 25/8/1
f 30/8/1 26/8/1 29/8/1
f 33/3/1 32/3/1 31/3/1
f 34/3/1 32/3/1 33/3/1
f 37/1/1 36/1/1 35/1/1
f 38/1/1 36/1/1 37/1/1
f 39/3/2 40/3/2 41/3/2
f 41/3/2 40/3/2 42/3/2
f 43/3/2 44/3/2 45/3/2
f 45/3/2 44/3/2 46/3/2
f 47/7/2 48/7/2 49/7/2
f 49/7/2 48/7/2 50/7/2
f 51/3/2 52/3/2 53/3/2
f 53/3/2 52/3/2 54/3/2
f 55/2/2 56/2/2 57/2/2
f 57/2/2 56/2/2 58/2/2
f 61/1/3 60/1/3 59/1/3
f 62/1/3 60/1/3 61/1/3
f 63/2/3 62/2/3 61/2/3
f 64/2/3 62/2/3 63/2/3
f 67/3/3 66/3/3 65/3/3
f 68/3/3 66/3/3 67/3/3
f 71/3/3 70/3/3 69/3/3
f 72/3/3 70/3/3 71/3/3
f 75/3/3 74/3/3 73/3/3
f 76/3/3 74/3/3 75/3/3
f 79/8/3 78/8/3 77/8/3
f 80/8/3 78/8/3 79/8/3
f 83/3/3 82/3/3 81/3/3
f 84/3/3 82/3/3 83/3/3
f 87/3/3 86/3/3 85/3/3
f 88/3/3 86/3/3 87/3/3
f 91/3/3 90/3/3 89/3/3
f 92/3/3 90/3/3 91/3/3
f 93/6/3 92/6/3 91/6/3
f 94/6/3 92/6/3 93/6/3
f 95/3/3 94/3/3 93/3/3
f 96/3/3 94/3/3 95/3/3
f 97/5/3 96/5/3 95/5/3
f 98/5/3 96/5/3 97/5/3
f 99/3/3 98/3/3 97/3/3
f 100/3/3 98/3/3 99/3/3
f 103/3/3 102/3/3 101/3/3
f 104/3/3 102/3/3 103/3/3
f 105/3/4 106/3/4 107/3/4
f 107/3/4 106/3/4 108/3/4
f 109/3/4 110/3/4 111/3/4
f 111/3/4 110/3/4 112/3/4
f 113/2/4 114/2/4 115/2/4
f 115/2/4 114/2/4 116/2/4
f 117/3/4 118/3/4 119/3/4
f 119/3/4 118/3/4 120/3/4
f 121/7/4 122/7/4 123/7/4
f 123/7/4 122/7/4 124/7/4
f 129/1/5 126/1/5 125/1/5
f 131/3/5 129/3/5 128/3/5
f 132/3/5 129/3/5 131/3/5
f 134/3/5 131/3/5 130/3/5
f 135/3/5 131/3/5 134/3/5
f 136/3/5 129/3/5 132/3/5
f 137/1/5 126/1/5 129/1/5
f 137/3/5 129/3/5 136/3/5
f 138/1/5 126/1/5 137/1/5
f 140/3/5 134/3/5 133/3/5
f 141/3/5 134/3/5 140/3/5
f 142/8/5 136/8/5 135/8/5
f 143/3/5 138/3/5 137/3/5
f 143/3/5 137/3/5 136/3/5
f 143/8/5 136/8/5 142/8/5
f 149/3/5 141/3/5 140/3/5
f 149/3/5 142/3/5 141/3/5
f 149/3/5 140/3/5 139/3/5
f 149/3/5 143/3/5 142/3/5
f 150/3/5 143/3/5 149/3/5
f 151/1/5 126/1/5 138/1/5
f 151/3/5 143/3/5 150/3/5
f 151/3/5 138/3/5 143/3/5
f 152/1/5 126/1/5 151/1/5
f 153/2/5 127/2/5 126/2/5
f 153/1/5 126/1/5 152/1/5
f 155/3/5 145/3/5 144/3/5
f 156/6/5 146/6/5 145/6/5
f 156/3/5 145/3/5 155/3/5
f 157/3/5 147/3/5 146/3/5
f 157/6/5 146/6/5 156/6/5
f 158/5/5 148/5/5 147/5/5
f 158/3/5 147/3/5 157/3/5
f 159/3/5 149/3/5 148/3/5
f 159/5/5 148/5/5 158/5/5
f 160/4/5 150/4/5 149/4/5
f 160/3/5 149/3/5 159/3/5
f 161/3/5 152/3/5 151/3/5
f 161/4/5 150/4/5 160/4/5
f 161/3/5 151/3/5 150/3/5
f 162/3/5 152/3/5 161/3/5
f 163/3/5 152/3/5 162/3/5
f 164/2/5 153/2/5 152/2/5
f 164/3/5 152/3/5 163/3/5
f 165/2/5 127/2/5 153/2/5
f 165/2/5 153/2/5 164/2/5
f 166/2/5 127/2/5 165/2/5
f 167/3/5 160/3/5 159/3/5
f 167/3/5 157/3/5 156/3/5
f 167/3/5 159/3/5 158/3/5
f 167/3/5 162/3/5 161/3/5
f 167/3/5 161/3/5 160/3/5
f 167/3/5 156/3/5 155/3/5
f 167/3/5 155/3/5 154/3/5
f 167/3/5 158/3/5 157/3/5
f 168/8/5 163/8/5 162/8/5
f 168/3/5 162/3/5 167/3/5
f 169/3/5 165/3/5 164/3/5
f 169/8/5 163/8/5 168/8/5
f 169/3/5 164/3/5 163/3/5
f 170/3/5 165/3/5 169/3/5
f 171/3/5 165/3/5 170/3/5
f 172/7/5 168/7/5 167/7/5
f 172/7/5 169/7/5 168/7/5
f 172/7/5 170/7/5 169/7/5
f 173/7/5 170/7/5 172/7/5
f 174/1/6 175/1/6 178/1/6
f 177/3/6 178/3/6 180/3/6
f 180/3/6 178/3/6 181/3/6
f 179/3/6 180/3/6 183/3/6
f 183/3/6 180/3/6 184/3/6
f 181/3/6 178/3/6 185/3/6
f 178/1/6 175/1/6 186/1/6
f 185/3/6 178/3/6 186/3/6
f 186/1/6 175/1/6 187/1/6
f 182/3/6 183/3/6 189/3/6
f 189/3/6 183/3/6 190/3/6
f 184/8/6 185/8/6 191/8/6
f 186/3/6 187/3/6 192/3/6
f 185/3/6 186/3/6 192/3/6
f 191/8/6 185/8/6 192/8/6
f 189/3/6 190/3/6 198/3/6
f 190/3/6 191/3/6 198/3/6
f 188/3/6 189/3/6 198/3/6
f 191/3/6 192/3/6 198/3/6
f 198/3/6 192/3/6 199/3/6
f 187/1/6 175/1/6 200/1/6
f 199/3/6 192/3/6 200/3/6
f 192/3/6 187/3/6 200/3/6
f 200/1/6 175/1/6 201/1/6
f 175/2/6 176/2/6 202/2/6
f 201/1/6 175/1/6 202/1/6
f 193/3/6 194/3/6 204/3/6
f 194/6/6 195/6/6 205/6/6
f 204/3/6 194/3/6 205/3/6
f 195/3/6 196/3/6 206/3/6
f 205/6/6 195/6/6 206/6/6
f 196/5/6 197/5/6 207/5/6
f 206/3/6 196/3/6 207/3/6
f 197/3/6 198/3/6 208/3/6
f 207/5/6 197/5/6 208/5/6
f 198/4/6 199/4/6 209/4/6
f 208/3/6 198/3/6 209/3/6
f 200/3/6 201/3/6 210/3/6
f 209/4/6 199/4/6 210/4/6
f 199/3/6 200/3/6 210/3/6
f 210/3/6 201/3/6 211/3/6
f 211/3/6 201/3/6 212/3/6
f 201/2/6 202/2/6 213/2/6
f 212/3/6 201/3/6 213/3/6
f 202/2/6 176/2/6 214/2/6
f 213/2/6 202/2/6 214/2/6
f 214/2/6 176/2/6 215/2/6
f 208/3/6 209/3/6 216/3/6
f 205/3/6 206/3/6 216/3/6
f 207/3/6 208/3/6 216/3/6
f 210/3/6 211/3/6 216/3/6
f 209/3/6 210/3/6 216/3/6
f 204/3/6 205/3/6 216/3/6
f 203/3/6 204/3/6 216/3/6
f 206/3/6 207/3/6 216/3/6
f 211/8/6 212/8/6 217/8/6
f 216/3/6 211/3/6 217/3/6
f 213/3/6 214/3/6 218/3/6
f 217/8/6 212/8/6 218/8/6
f 212/3/6 213/3/6 218/3/6
f 218/3/6 214/3/6 219/3/6
f 219/3/6 214/3/6 220/3/6
f 216/7/6 217/7/6 221/7/6
f 217/7/6 218/7/6 221/7/6
f 218/7/6 219/7/6 221/7/6
f 221/7/6 219/7/6 222/7/6
