# MagicaVoxel @ Ephtracy

# group
o 

# material
mtllib chien.mtl
usemtl palette

# normals
vn -1 0 0
vn 1 0 0
vn 0 0 1
vn 0 0 -1
vn 0 -1 0
vn 0 1 0

# texcoords
vt 0.0566406 0.5
vt 0.0839844 0.5
vt 0.201172 0.5
vt 0.205078 0.5
vt 0.208984 0.5
vt 0.228516 0.5
vt 0.232422 0.5
vt 0.369141 0.5
vt 0.724609 0.5
vt 0.794922 0.5
vt 0.853516 0.5
vt 0.861328 0.5
vt 0.865234 0.5
vt 0.962891 0.5
vt 0.982422 0.5
vt 0.994141 0.5

# verts
v -0.5 0 -0.3
v -0.5 0 -0.4
v -0.5 0 -1.1
v -0.5 0 -1.2
v -0.5 0 -1.3
v -0.5 0.1 -0.3
v -0.5 0.1 -0.4
v -0.5 0.1 -1
v -0.5 0.1 -1.1
v -0.5 0.1 -1.2
v -0.5 0.1 -1.3
v -0.5 0.3 -0.3
v -0.5 0.3 -0.4
v -0.5 0.3 -0.8
v -0.5 0.3 -1
v -0.5 0.3 -1.1
v -0.5 0.4 -0.8
v -0.5 0.4 -0.9
v -0.5 0.4 -1
v -0.5 0.5 -0.3
v -0.5 0.5 -0.4
v -0.5 0.5 -0.5
v -0.5 0.5 -0.9
v -0.5 0.5 -1
v -0.5 0.5 -1.1
v -0.5 0.6 -0.3
v -0.5 0.6 -0.4
v -0.5 0.6 -1
v -0.5 0.6 -1.1
v -0.5 0.7 -0.2
v -0.5 0.7 -0.3
v -0.5 0.7 -0.4
v -0.5 0.7 -0.5
v -0.5 0.7 -0.6
v -0.5 0.7 -0.8
v -0.5 0.7 -1.1
v -0.5 0.8 -0.2
v -0.5 0.8 -0.4
v -0.5 0.9 -0.2
v -0.5 0.9 -0.3
v -0.5 0.9 -0.5
v -0.5 0.9 -0.6
v -0.5 1 -0.2
v -0.5 1 -0.3
v -0.5 1.1 -0.2
v -0.5 1.1 -0.3
v -0.5 1.1 -0.4
v -0.5 1.1 -0.5
v -0.5 1.3 -0.3
v -0.5 1.3 -0.4
v -0.4 0.2 -1.2
v -0.4 0.2 -1.4
v -0.4 0.3 -1.1
v -0.4 0.3 -1.2
v -0.4 0.3 -1.3
v -0.4 0.3 -1.4
v -0.4 0.4 -1.2
v -0.4 0.4 -1.3
v -0.4 0.5 -0.2
v -0.4 0.5 -0.3
v -0.4 0.5 -1.1
v -0.4 0.5 -1.2
v -0.4 0.6 -0.2
v -0.4 0.6 -0.3
v -0.4 0.6 -1.1
v -0.4 0.7 -0.1
v -0.4 0.7 -0.2
v -0.4 0.7 -0.3
v -0.4 0.7 -1.1
v -0.4 0.7 -1.2
v -0.4 0.8 0
v -0.4 0.8 -0.1
v -0.4 0.8 -0.2
v -0.4 0.9 0
v -0.4 0.9 -0.2
v -0.3 1.1 -0.2
v -0.3 1.1 -0.3
v -0.3 1.2 -0.2
v -0.3 1.2 -0.3
v -0.3 1.2 -0.4
v -0.3 1.3 -0.3
v -0.3 1.3 -0.4
v -0.2 0 -0.3
v -0.2 0 -0.4
v -0.2 0 -1
v -0.2 0 -1.1
v -0.2 0.2 -0.3
v -0.2 0.2 -0.4
v -0.2 0.3 -0.3
v -0.2 0.3 -0.4
v -0.2 0.3 -1.1
v -0.2 0.4 -1
v -0.2 0.4 -1.1
v -0.2 1.1 -0.4
v -0.2 1.1 -0.5
v -0.2 1.2 -0.4
v -0.2 1.2 -0.5
v -0.4 0 -0.3
v -0.4 0 -0.4
v -0.4 0 -1.1
v -0.4 0 -1.2
v -0.4 0 -1.3
v -0.4 0.1 -0.3
v -0.4 0.1 -0.4
v -0.4 0.1 -1
v -0.4 0.1 -1.1
v -0.4 0.1 -1.2
v -0.4 0.1 -1.3
v -0.4 0.3 -0.3
v -0.4 0.3 -0.4
v -0.4 0.3 -1
v -0.4 0.3 -1.1
v -0.4 0.4 -1
v -0.4 0.4 -1.1
v -0.4 1.2 -0.3
v -0.4 1.2 -0.4
v -0.4 1.3 -0.3
v -0.4 1.3 -0.4
v -0.2 0.2 -1.2
v -0.2 0.2 -1.3
v -0.2 0.2 -1.4
v -0.2 0.3 -1.1
v -0.2 0.3 -1.2
v -0.2 0.3 -1.3
v -0.2 0.3 -1.4
v -0.2 0.4 -1.1
v -0.2 0.4 -1.2
v -0.2 0.4 -1.3
v -0.2 0.5 -0.2
v -0.2 0.5 -0.3
v -0.2 0.6 -0.2
v -0.2 0.6 -0.3
v -0.2 0.6 -1.1
v -0.2 0.6 -1.2
v -0.2 0.7 -0.1
v -0.2 0.7 -0.2
v -0.2 0.7 -0.3
v -0.2 0.7 -1.1
v -0.2 0.7 -1.2
v -0.2 0.8 0
v -0.2 0.8 -0.1
v -0.2 0.9 0
v -0.2 0.9 -0.1
v -0.2 0.9 -0.2
v -0.1 0 -0.3
v -0.1 0 -0.4
v -0.1 0 -1
v -0.1 0 -1.1
v -0.1 0.2 -0.3
v -0.1 0.2 -0.4
v -0.1 0.3 -0.3
v -0.1 0.3 -0.4
v -0.1 0.3 -0.6
v -0.1 0.3 -0.8
v -0.1 0.4 -0.6
v -0.1 0.4 -0.7
v -0.1 0.4 -0.8
v -0.1 0.4 -1
v -0.1 0.4 -1.1
v -0.1 0.5 -0.3
v -0.1 0.5 -0.4
v -0.1 0.5 -0.5
v -0.1 0.5 -0.6
v -0.1 0.5 -0.7
v -0.1 0.6 -0.3
v -0.1 0.6 -0.4
v -0.1 0.6 -0.6
v -0.1 0.6 -0.7
v -0.1 0.7 -0.2
v -0.1 0.7 -0.3
v -0.1 0.7 -0.4
v -0.1 0.7 -0.5
v -0.1 0.7 -0.6
v -0.1 0.7 -0.7
v -0.1 0.7 -0.8
v -0.1 0.7 -1
v -0.1 0.7 -1.1
v -0.1 0.8 -0.3
v -0.1 0.8 -0.4
v -0.1 0.9 -0.2
v -0.1 0.9 -0.3
v -0.1 0.9 -0.4
v -0.1 0.9 -0.5
v -0.1 0.9 -0.6
v -0.1 1 -0.2
v -0.1 1 -0.3
v -0.1 1 -0.4
v -0.1 1.1 -0.2
v -0.1 1.1 -0.3
v -0.1 1.1 -0.4
v -0.1 1.1 -0.5
v -0.1 1.2 -0.2
v -0.1 1.2 -0.3
v -0.1 1.2 -0.4
v -0.1 1.2 -0.5
v -0.1 1.3 -0.3
v -0.1 1.3 -0.4
v 0 0.9 -0.4
v 0 0.9 -0.5
v 0 1 -0.3
v 0 1 -0.4
v 0 1 -0.5
v 0 1.1 -0.3
v 0 1.1 -0.4
v 0 1.1 -0.5
v 0 1.2 -0.3
v 0 1.2 -0.4
v -0.4 0.8 0
v -0.4 0.9 0
v -0.3 0.8 0
v -0.3 0.9 0
v -0.2 0.8 0
v -0.2 0.9 0
v -0.4 0.7 -0.1
v -0.4 0.8 -0.1
v -0.3 0.8 -0.1
v -0.2 0.7 -0.1
v -0.2 0.8 -0.1
v -0.5 0.7 -0.2
v -0.5 0.8 -0.2
v -0.5 0.9 -0.2
v -0.5 1 -0.2
v -0.5 1.1 -0.2
v -0.4 0.5 -0.2
v -0.4 0.6 -0.2
v -0.4 0.7 -0.2
v -0.4 0.8 -0.2
v -0.4 0.9 -0.2
v -0.4 1 -0.2
v -0.3 1 -0.2
v -0.3 1.1 -0.2
v -0.3 1.2 -0.2
v -0.2 0.5 -0.2
v -0.2 0.6 -0.2
v -0.2 0.7 -0.2
v -0.2 0.9 -0.2
v -0.2 1 -0.2
v -0.2 1.1 -0.2
v -0.2 1.2 -0.2
v -0.1 0.7 -0.2
v -0.1 0.9 -0.2
v -0.1 1 -0.2
v -0.1 1.1 -0.2
v -0.1 1.2 -0.2
v -0.5 0 -0.3
v -0.5 0.1 -0.3
v -0.5 0.3 -0.3
v -0.5 0.5 -0.3
v -0.5 0.6 -0.3
v -0.5 0.7 -0.3
v -0.5 1.1 -0.3
v -0.5 1.3 -0.3
v -0.4 0 -0.3
v -0.4 0.1 -0.3
v -0.4 0.3 -0.3
v -0.4 0.4 -0.3
v -0.4 0.5 -0.3
v -0.4 0.6 -0.3
v -0.4 0.7 -0.3
v -0.4 1.1 -0.3
v -0.4 1.2 -0.3
v -0.4 1.3 -0.3
v -0.3 1.1 -0.3
v -0.3 1.2 -0.3
v -0.3 1.3 -0.3
v -0.2 0 -0.3
v -0.2 0.2 -0.3
v -0.2 0.3 -0.3
v -0.2 0.4 -0.3
v -0.2 0.5 -0.3
v -0.2 0.6 -0.3
v -0.2 0.7 -0.3
v -0.2 1.2 -0.3
v -0.2 1.3 -0.3
v -0.1 0 -0.3
v -0.1 0.2 -0.3
v -0.1 0.3 -0.3
v -0.1 0.5 -0.3
v -0.1 0.6 -0.3
v -0.1 0.7 -0.3
v -0.1 1 -0.3
v -0.1 1.1 -0.3
v -0.1 1.2 -0.3
v -0.1 1.3 -0.3
v 0 1 -0.3
v 0 1.1 -0.3
v 0 1.2 -0.3
v -0.1 0.9 -0.4
v -0.1 1 -0.4
v 0 0.9 -0.4
v 0 1 -0.4
v -0.5 0.1 -1
v -0.5 0.3 -1
v -0.5 0.4 -1
v -0.4 0.1 -1
v -0.4 0.3 -1
v -0.4 0.4 -1
v -0.2 0 -1
v -0.2 0.4 -1
v -0.1 0 -1
v -0.1 0.4 -1
v -0.5 0 -1.1
v -0.5 0.1 -1.1
v -0.4 0 -1.1
v -0.4 0.1 -1.1
v -0.4 0.3 -1.1
v -0.4 0.4 -1.1
v -0.3 0.3 -1.1
v -0.3 0.4 -1.1
v -0.2 0.3 -1.1
v -0.2 0.4 -1.1
v -0.4 0.2 -1.2
v -0.4 0.3 -1.2
v -0.3 0.2 -1.2
v -0.3 0.3 -1.2
v -0.2 0.2 -1.2
v -0.2 0.3 -1.2
v -0.5 0 -0.4
v -0.5 0.1 -0.4
v -0.5 0.3 -0.4
v -0.5 1.1 -0.4
v -0.5 1.3 -0.4
v -0.4 0 -0.4
v -0.4 0.1 -0.4
v -0.4 0.3 -0.4
v -0.4 1.1 -0.4
v -0.4 1.2 -0.4
v -0.4 1.3 -0.4
v -0.3 1.1 -0.4
v -0.3 1.2 -0.4
v -0.3 1.3 -0.4
v -0.2 0 -0.4
v -0.2 0.2 -0.4
v -0.2 0.3 -0.4
v -0.2 1.1 -0.4
v -0.2 1.2 -0.4
v -0.2 1.3 -0.4
v -0.1 0 -0.4
v -0.1 0.2 -0.4
v -0.1 0.3 -0.4
v -0.1 1.1 -0.4
v -0.1 1.2 -0.4
v -0.1 1.3 -0.4
v 0 1.1 -0.4
v 0 1.2 -0.4
v -0.5 0.9 -0.5
v -0.5 1.1 -0.5
v -0.4 0.9 -0.5
v -0.4 1.1 -0.5
v -0.3 0.9 -0.5
v -0.3 1 -0.5
v -0.3 1.1 -0.5
v -0.2 0.9 -0.5
v -0.2 1 -0.5
v -0.2 1.1 -0.5
v -0.2 1.2 -0.5
v -0.1 0.9 -0.5
v -0.1 1 -0.5
v -0.1 1.1 -0.5
v -0.1 1.2 -0.5
v 0 0.9 -0.5
v 0 1 -0.5
v 0 1.1 -0.5
v -0.5 0.7 -0.6
v -0.5 0.9 -0.6
v -0.3 0.8 -0.6
v -0.3 0.9 -0.6
v -0.2 0.7 -0.6
v -0.2 0.8 -0.6
v -0.2 0.9 -0.6
v -0.1 0.7 -0.6
v -0.1 0.9 -0.6
v -0.5 0.3 -0.8
v -0.5 0.4 -0.8
v -0.1 0.3 -0.8
v -0.1 0.4 -0.8
v -0.5 0.1 -1.1
v -0.5 0.3 -1.1
v -0.5 0.5 -1.1
v -0.5 0.6 -1.1
v -0.5 0.7 -1.1
v -0.4 0.1 -1.1
v -0.4 0.3 -1.1
v -0.4 0.5 -1.1
v -0.4 0.6 -1.1
v -0.4 0.7 -1.1
v -0.2 0 -1.1
v -0.2 0.3 -1.1
v -0.2 0.4 -1.1
v -0.2 0.6 -1.1
v -0.2 0.7 -1.1
v -0.1 0 -1.1
v -0.1 0.4 -1.1
v -0.1 0.7 -1.1
v -0.4 0.4 -1.2
v -0.4 0.5 -1.2
v -0.4 0.7 -1.2
v -0.3 0.4 -1.2
v -0.3 0.5 -1.2
v -0.3 0.6 -1.2
v -0.2 0.4 -1.2
v -0.2 0.6 -1.2
v -0.2 0.7 -1.2
v -0.5 0 -1.3
v -0.5 0.1 -1.3
v -0.4 0 -1.3
v -0.4 0.1 -1.3
v -0.4 0.3 -1.3
v -0.4 0.4 -1.3
v -0.3 0.3 -1.3
v -0.3 0.4 -1.3
v -0.2 0.3 -1.3
v -0.2 0.4 -1.3
v -0.4 0.2 -1.4
v -0.4 0.3 -1.4
v -0.2 0.2 -1.4
v -0.2 0.3 -1.4
v -0.5 0 -0.3
v -0.4 0 -0.3
v -0.2 0 -0.3
v -0.1 0 -0.3
v -0.5 0 -0.4
v -0.4 0 -0.4
v -0.2 0 -0.4
v -0.1 0 -0.4
v -0.2 0 -1
v -0.1 0 -1
v -0.5 0 -1.1
v -0.4 0 -1.1
v -0.2 0 -1.1
v -0.1 0 -1.1
v -0.5 0 -1.2
v -0.4 0 -1.2
v -0.5 0 -1.3
v -0.4 0 -1.3
v -0.5 0.1 -1
v -0.4 0.1 -1
v -0.5 0.1 -1.1
v -0.4 0.1 -1.1
v -0.4 0.2 -1.2
v -0.3 0.2 -1.2
v -0.2 0.2 -1.2
v -0.3 0.2 -1.3
v -0.2 0.2 -1.3
v -0.4 0.2 -1.4
v -0.2 0.2 -1.4
v -0.4 0.3 -0.3
v -0.2 0.3 -0.3
v -0.5 0.3 -0.4
v -0.4 0.3 -0.4
v -0.2 0.3 -0.4
v -0.1 0.3 -0.4
v -0.2 0.3 -0.6
v -0.1 0.3 -0.6
v -0.5 0.3 -0.8
v -0.1 0.3 -0.8
v -0.4 0.3 -1.1
v -0.3 0.3 -1.1
v -0.2 0.3 -1.1
v -0.4 0.3 -1.2
v -0.3 0.3 -1.2
v -0.2 0.3 -1.2
v -0.5 0.4 -0.8
v -0.1 0.4 -0.8
v -0.5 0.4 -0.9
v -0.4 0.4 -0.9
v -0.5 0.4 -1
v -0.4 0.4 -1
v -0.3 0.4 -1
v -0.2 0.4 -1
v -0.1 0.4 -1
v -0.4 0.4 -1.1
v -0.3 0.4 -1.1
v -0.2 0.4 -1.1
v -0.4 0.5 -0.2
v -0.2 0.5 -0.2
v -0.4 0.5 -0.3
v -0.2 0.5 -0.3
v -0.4 0.7 -0.1
v -0.2 0.7 -0.1
v -0.5 0.7 -0.2
v -0.4 0.7 -0.2
v -0.2 0.7 -0.2
v -0.1 0.7 -0.2
v -0.5 0.7 -0.3
v -0.4 0.7 -0.3
v -0.2 0.7 -0.3
v -0.1 0.7 -0.3
v -0.4 0.8 0
v -0.3 0.8 0
v -0.2 0.8 0
v -0.4 0.8 -0.1
v -0.3 0.8 -0.1
v -0.2 0.8 -0.1
v -0.1 0.9 -0.4
v 0 0.9 -0.4
v -0.1 0.9 -0.5
v 0 0.9 -0.5
v -0.1 1 -0.3
v 0 1 -0.3
v -0.1 1 -0.4
v 0 1 -0.4
v -0.5 0.1 -1.1
v -0.4 0.1 -1.1
v -0.5 0.1 -1.2
v -0.4 0.1 -1.2
v -0.5 0.1 -1.3
v -0.4 0.1 -1.3
v -0.4 0.3 -1.3
v -0.3 0.3 -1.3
v -0.2 0.3 -1.3
v -0.4 0.3 -1.4
v -0.2 0.3 -1.4
v -0.4 0.4 -1.2
v -0.3 0.4 -1.2
v -0.2 0.4 -1.2
v -0.4 0.4 -1.3
v -0.3 0.4 -1.3
v -0.2 0.4 -1.3
v -0.5 0.7 -0.6
v -0.2 0.7 -0.6
v -0.1 0.7 -0.6
v -0.2 0.7 -0.7
v -0.1 0.7 -0.7
v -0.5 0.7 -0.8
v -0.1 0.7 -0.8
v -0.2 0.7 -1
v -0.1 0.7 -1
v -0.5 0.7 -1.1
v -0.4 0.7 -1.1
v -0.2 0.7 -1.1
v -0.1 0.7 -1.1
v -0.4 0.7 -1.2
v -0.2 0.7 -1.2
v -0.4 0.9 0
v -0.3 0.9 0
v -0.2 0.9 0
v -0.3 0.9 -0.1
v -0.2 0.9 -0.1
v -0.4 0.9 -0.2
v -0.2 0.9 -0.2
v -0.5 0.9 -0.5
v -0.4 0.9 -0.5
v -0.3 0.9 -0.5
v -0.2 0.9 -0.5
v -0.1 0.9 -0.5
v -0.5 0.9 -0.6
v -0.3 0.9 -0.6
v -0.2 0.9 -0.6
v -0.1 0.9 -0.6
v -0.5 1.1 -0.2
v -0.3 1.1 -0.2
v -0.5 1.1 -0.3
v -0.4 1.1 -0.3
v -0.3 1.1 -0.3
v -0.5 1.1 -0.4
v -0.4 1.1 -0.4
v -0.3 1.1 -0.4
v -0.2 1.1 -0.4
v -0.1 1.1 -0.4
v 0 1.1 -0.4
v -0.5 1.1 -0.5
v -0.4 1.1 -0.5
v -0.3 1.1 -0.5
v -0.2 1.1 -0.5
v -0.1 1.1 -0.5
v 0 1.1 -0.5
v -0.3 1.2 -0.2
v -0.2 1.2 -0.2
v -0.1 1.2 -0.2
v -0.4 1.2 -0.3
v -0.3 1.2 -0.3
v -0.2 1.2 -0.3
v -0.1 1.2 -0.3
v 0 1.2 -0.3
v -0.4 1.2 -0.4
v -0.3 1.2 -0.4
v -0.2 1.2 -0.4
v -0.1 1.2 -0.4
v 0 1.2 -0.4
v -0.2 1.2 -0.5
v -0.1 1.2 -0.5
v -0.5 1.3 -0.3
v -0.4 1.3 -0.3
v -0.3 1.3 -0.3
v -0.2 1.3 -0.3
v -0.1 1.3 -0.3
v -0.5 1.3 -0.4
v -0.4 1.3 -0.4
v -0.3 1.3 -0.4
v -0.2 1.3 -0.4
v -0.1 1.3 -0.4

# faces
f 6/12/1 2/12/1 1/12/1
f 7/12/1 2/12/1 6/12/1
f 9/12/1 4/12/1 3/12/1
f 10/7/1 5/7/1 4/7/1
f 10/12/1 4/12/1 9/12/1
f 11/7/1 5/7/1 10/7/1
f 12/7/1 7/7/1 6/7/1
f 13/7/1 7/7/1 12/7/1
f 15/12/1 9/12/1 8/12/1
f 16/12/1 9/12/1 15/12/1
f 17/8/1 14/8/1 13/8/1
f 17/8/1 13/8/1 12/8/1
f 19/14/1 16/14/1 15/14/1
f 20/8/1 17/8/1 12/8/1
f 21/8/1 17/8/1 20/8/1
f 22/8/1 17/8/1 21/8/1
f 23/7/1 18/7/1 17/7/1
f 23/12/1 19/12/1 18/12/1
f 24/14/1 16/14/1 19/14/1
f 24/12/1 19/12/1 23/12/1
f 25/14/1 16/14/1 24/14/1
f 26/3/1 21/3/1 20/3/1
f 27/10/1 22/10/1 21/10/1
f 27/3/1 21/3/1 26/3/1
f 28/7/1 24/7/1 23/7/1
f 28/12/1 25/12/1 24/12/1
f 29/12/1 25/12/1 28/12/1
f 31/10/1 27/10/1 26/10/1
f 32/10/1 22/10/1 27/10/1
f 32/10/1 27/10/1 31/10/1
f 33/8/1 17/8/1 22/8/1
f 33/10/1 22/10/1 32/10/1
f 34/8/1 17/8/1 33/8/1
f 35/7/1 23/7/1 17/7/1
f 35/8/1 17/8/1 34/8/1
f 35/7/1 28/7/1 23/7/1
f 35/7/1 29/7/1 28/7/1
f 36/7/1 29/7/1 35/7/1
f 37/10/1 32/10/1 31/10/1
f 37/10/1 31/10/1 30/10/1
f 38/8/1 34/8/1 33/8/1
f 38/10/1 32/10/1 37/10/1
f 38/8/1 33/8/1 32/8/1
f 39/8/1 38/8/1 37/8/1
f 40/8/1 38/8/1 39/8/1
f 41/8/1 34/8/1 38/8/1
f 41/8/1 38/8/1 40/8/1
f 42/8/1 34/8/1 41/8/1
f 43/11/1 40/11/1 39/11/1
f 44/8/1 41/8/1 40/8/1
f 44/11/1 40/11/1 43/11/1
f 45/8/1 44/8/1 43/8/1
f 46/8/1 41/8/1 44/8/1
f 46/8/1 44/8/1 45/8/1
f 47/8/1 41/8/1 46/8/1
f 48/8/1 41/8/1 47/8/1
f 49/7/1 47/7/1 46/7/1
f 50/7/1 47/7/1 49/7/1
f 54/12/1 52/12/1 51/12/1
f 55/12/1 52/12/1 54/12/1
f 56/12/1 52/12/1 55/12/1
f 57/12/1 54/12/1 53/12/1
f 57/12/1 55/12/1 54/12/1
f 58/12/1 55/12/1 57/12/1
f 61/12/1 57/12/1 53/12/1
f 62/12/1 57/12/1 61/12/1
f 63/3/1 60/3/1 59/3/1
f 64/3/1 60/3/1 63/3/1
f 65/7/1 62/7/1 61/7/1
f 67/6/1 64/6/1 63/6/1
f 68/6/1 64/6/1 67/6/1
f 69/7/1 62/7/1 65/7/1
f 70/7/1 62/7/1 69/7/1
f 72/16/1 67/16/1 66/16/1
f 73/16/1 67/16/1 72/16/1
f 74/16/1 72/16/1 71/16/1
f 74/16/1 73/16/1 72/16/1
f 75/16/1 73/16/1 74/16/1
f 78/1/1 77/1/1 76/1/1
f 79/1/1 77/1/1 78/1/1
f 81/2/1 80/2/1 79/2/1
f 82/2/1 80/2/1 81/2/1
f 87/12/1 84/12/1 83/12/1
f 88/12/1 84/12/1 87/12/1
f 89/7/1 88/7/1 87/7/1
f 90/7/1 88/7/1 89/7/1
f 91/7/1 86/7/1 85/7/1
f 92/7/1 91/7/1 85/7/1
f 93/7/1 91/7/1 92/7/1
f 96/1/1 95/1/1 94/1/1
f 97/1/1 95/1/1 96/1/1
f 98/12/2 99/12/2 103/12/2
f 103/12/2 99/12/2 104/12/2
f 100/12/2 101/12/2 106/12/2
f 101/7/2 102/7/2 107/7/2
f 106/12/2 101/12/2 107/12/2
f 107/7/2 102/7/2 108/7/2
f 103/7/2 104/7/2 109/7/2
f 109/7/2 104/7/2 110/7/2
f 105/12/2 106/12/2 111/12/2
f 111/12/2 106/12/2 112/12/2
f 111/14/2 112/14/2 113/14/2
f 113/14/2 112/14/2 114/14/2
f 115/7/2 116/7/2 117/7/2
f 117/7/2 116/7/2 118/7/2
f 119/7/2 120/7/2 123/7/2
f 120/12/2 121/12/2 124/12/2
f 123/7/2 120/7/2 124/7/2
f 124/12/2 121/12/2 125/12/2
f 122/7/2 123/7/2 126/7/2
f 123/7/2 124/7/2 126/7/2
f 126/7/2 124/7/2 127/7/2
f 127/7/2 124/7/2 128/7/2
f 129/3/2 130/3/2 131/3/2
f 131/3/2 130/3/2 132/3/2
f 126/12/2 127/12/2 133/12/2
f 133/12/2 127/12/2 134/12/2
f 131/6/2 132/6/2 136/6/2
f 136/6/2 132/6/2 137/6/2
f 133/7/2 134/7/2 138/7/2
f 138/7/2 134/7/2 139/7/2
f 135/16/2 136/16/2 141/16/2
f 140/15/2 141/15/2 142/15/2
f 141/16/2 136/16/2 143/16/2
f 142/15/2 141/15/2 143/15/2
f 143/16/2 136/16/2 144/16/2
f 145/12/2 146/12/2 149/12/2
f 149/12/2 146/12/2 150/12/2
f 149/7/2 150/7/2 151/7/2
f 151/7/2 150/7/2 152/7/2
f 152/10/2 153/10/2 155/10/2
f 153/8/2 154/8/2 155/8/2
f 155/8/2 154/8/2 156/8/2
f 156/8/2 154/8/2 157/8/2
f 147/7/2 148/7/2 158/7/2
f 158/7/2 148/7/2 159/7/2
f 151/8/2 152/8/2 160/8/2
f 152/10/2 155/10/2 161/10/2
f 160/8/2 152/8/2 161/8/2
f 155/10/2 156/10/2 161/10/2
f 161/10/2 156/10/2 162/10/2
f 162/10/2 156/10/2 163/10/2
f 156/8/2 157/8/2 164/8/2
f 163/10/2 156/10/2 164/10/2
f 160/3/2 161/3/2 165/3/2
f 161/8/2 162/8/2 166/8/2
f 165/3/2 161/3/2 166/3/2
f 162/10/2 163/10/2 167/10/2
f 163/8/2 164/8/2 167/8/2
f 164/8/2 157/8/2 168/8/2
f 167/8/2 164/8/2 168/8/2
f 165/6/2 166/6/2 170/6/2
f 166/8/2 162/8/2 171/8/2
f 170/6/2 166/6/2 171/6/2
f 162/10/2 167/10/2 172/10/2
f 171/8/2 162/8/2 172/8/2
f 167/10/2 168/10/2 172/10/2
f 172/10/2 168/10/2 173/10/2
f 168/8/2 157/8/2 174/8/2
f 173/10/2 168/10/2 174/10/2
f 157/7/2 158/7/2 175/7/2
f 174/8/2 157/8/2 175/8/2
f 158/10/2 159/10/2 176/10/2
f 175/7/2 158/7/2 176/7/2
f 176/10/2 159/10/2 177/10/2
f 169/8/2 170/8/2 178/8/2
f 171/13/2 172/13/2 178/13/2
f 170/13/2 171/13/2 178/13/2
f 178/13/2 172/13/2 179/13/2
f 169/8/2 178/8/2 180/8/2
f 178/8/2 179/8/2 180/8/2
f 180/8/2 179/8/2 181/8/2
f 179/13/2 172/13/2 182/13/2
f 181/8/2 179/8/2 182/8/2
f 172/8/2 173/8/2 183/8/2
f 182/13/2 172/13/2 183/13/2
f 183/8/2 173/8/2 184/8/2
f 180/11/2 181/11/2 185/11/2
f 181/13/2 182/13/2 186/13/2
f 185/11/2 181/11/2 186/11/2
f 186/13/2 182/13/2 187/13/2
f 185/8/2 186/8/2 188/8/2
f 188/8/2 186/8/2 189/8/2
f 188/2/2 189/2/2 192/2/2
f 192/2/2 189/2/2 193/2/2
f 190/1/2 191/1/2 194/1/2
f 194/1/2 191/1/2 195/1/2
f 193/13/2 194/13/2 196/13/2
f 196/13/2 194/13/2 197/13/2
f 198/13/2 199/13/2 201/13/2
f 201/13/2 199/13/2 202/13/2
f 200/2/2 201/2/2 203/2/2
f 201/1/2 202/1/2 204/1/2
f 203/2/2 201/2/2 204/2/2
f 204/1/2 202/1/2 205/1/2
f 203/1/2 204/1/2 206/1/2
f 206/1/2 204/1/2 207/1/2
f 210/16/3 209/16/3 208/16/3
f 211/16/3 209/16/3 210/16/3
f 212/15/3 211/15/3 210/15/3
f 213/15/3 211/15/3 212/15/3
f 216/16/3 215/16/3 214/16/3
f 217/16/3 216/16/3 214/16/3
f 218/16/3 216/16/3 217/16/3
f 226/10/3 220/10/3 219/10/3
f 227/8/3 221/8/3 220/8/3
f 227/10/3 220/10/3 226/10/3
f 228/11/3 222/11/3 221/11/3
f 228/8/3 221/8/3 227/8/3
f 229/8/3 223/8/3 222/8/3
f 229/11/3 222/11/3 228/11/3
f 230/8/3 223/8/3 229/8/3
f 230/8/3 229/8/3 228/8/3
f 231/8/3 223/8/3 230/8/3
f 233/3/3 225/3/3 224/3/3
f 234/6/3 226/6/3 225/6/3
f 234/3/3 225/3/3 233/3/3
f 235/6/3 226/6/3 234/6/3
f 236/8/3 230/8/3 228/8/3
f 237/13/3 231/13/3 230/13/3
f 237/8/3 230/8/3 236/8/3
f 238/1/3 232/1/3 231/1/3
f 238/13/3 231/13/3 237/13/3
f 239/1/3 232/1/3 238/1/3
f 240/8/3 236/8/3 235/8/3
f 241/11/3 237/11/3 236/11/3
f 241/8/3 236/8/3 240/8/3
f 242/8/3 238/8/3 237/8/3
f 242/11/3 237/11/3 241/11/3
f 243/2/3 239/2/3 238/2/3
f 243/8/3 238/8/3 242/8/3
f 244/2/3 239/2/3 243/2/3
f 253/12/3 246/12/3 245/12/3
f 254/7/3 247/7/3 246/7/3
f 254/12/3 246/12/3 253/12/3
f 255/8/3 248/8/3 247/8/3
f 255/7/3 247/7/3 254/7/3
f 256/8/3 248/8/3 255/8/3
f 257/3/3 249/3/3 248/3/3
f 257/8/3 248/8/3 256/8/3
f 258/10/3 250/10/3 249/10/3
f 258/3/3 249/3/3 257/3/3
f 259/10/3 250/10/3 258/10/3
f 260/7/3 252/7/3 251/7/3
f 261/7/3 252/7/3 260/7/3
f 262/7/3 252/7/3 261/7/3
f 263/2/3 261/2/3 260/2/3
f 264/2/3 261/2/3 263/2/3
f 268/8/3 256/8/3 255/8/3
f 269/4/3 257/4/3 256/4/3
f 269/8/3 256/8/3 268/8/3
f 270/4/3 257/4/3 269/4/3
f 273/2/3 265/2/3 264/2/3
f 274/2/3 265/2/3 273/2/3
f 275/12/3 267/12/3 266/12/3
f 276/7/3 268/7/3 267/7/3
f 276/12/3 267/12/3 275/12/3
f 277/8/3 269/8/3 268/8/3
f 277/7/3 268/7/3 276/7/3
f 277/8/3 270/8/3 269/8/3
f 278/3/3 271/3/3 270/3/3
f 278/8/3 270/8/3 277/8/3
f 279/6/3 272/6/3 271/6/3
f 279/3/3 271/3/3 278/3/3
f 280/6/3 272/6/3 279/6/3
f 283/13/3 274/13/3 273/13/3
f 284/13/3 274/13/3 283/13/3
f 285/2/3 282/2/3 281/2/3
f 286/1/3 283/1/3 282/1/3
f 286/2/3 282/2/3 285/2/3
f 287/1/3 283/1/3 286/1/3
f 290/13/3 289/13/3 288/13/3
f 291/13/3 289/13/3 290/13/3
f 295/12/3 293/12/3 292/12/3
f 296/14/3 294/14/3 293/14/3
f 296/12/3 293/12/3 295/12/3
f 297/14/3 294/14/3 296/14/3
f 300/7/3 299/7/3 298/7/3
f 301/7/3 299/7/3 300/7/3
f 304/12/3 303/12/3 302/12/3
f 305/12/3 303/12/3 304/12/3
f 308/12/3 307/12/3 306/12/3
f 309/12/3 307/12/3 308/12/3
f 310/7/3 309/7/3 308/7/3
f 311/7/3 309/7/3 310/7/3
f 314/12/3 313/12/3 312/12/3
f 315/12/3 313/12/3 314/12/3
f 316/7/3 315/7/3 314/7/3
f 317/7/3 315/7/3 316/7/3
f 318/12/4 319/12/4 323/12/4
f 319/7/4 320/7/4 324/7/4
f 323/12/4 319/12/4 324/12/4
f 324/7/4 320/7/4 325/7/4
f 321/7/4 322/7/4 326/7/4
f 326/7/4 322/7/4 327/7/4
f 327/7/4 322/7/4 328/7/4
f 326/2/4 327/2/4 329/2/4
f 329/2/4 327/2/4 330/2/4
f 329/1/4 330/1/4 335/1/4
f 330/2/4 331/2/4 336/2/4
f 335/1/4 330/1/4 336/1/4
f 336/2/4 331/2/4 337/2/4
f 332/12/4 333/12/4 338/12/4
f 333/7/4 334/7/4 339/7/4
f 338/12/4 333/12/4 339/12/4
f 339/7/4 334/7/4 340/7/4
f 336/13/4 337/13/4 342/13/4
f 342/13/4 337/13/4 343/13/4
f 341/1/4 342/1/4 344/1/4
f 344/1/4 342/1/4 345/1/4
f 346/8/4 347/8/4 348/8/4
f 348/8/4 347/8/4 349/8/4
f 348/13/4 349/13/4 350/13/4
f 350/13/4 349/13/4 351/13/4
f 351/13/4 349/13/4 352/13/4
f 350/2/4 351/2/4 353/2/4
f 351/1/4 352/1/4 354/1/4
f 353/2/4 351/2/4 354/2/4
f 354/1/4 352/1/4 355/1/4
f 353/13/4 354/13/4 357/13/4
f 354/2/4 355/2/4 358/2/4
f 357/13/4 354/13/4 358/13/4
f 355/1/4 356/1/4 359/1/4
f 358/2/4 355/2/4 359/2/4
f 359/1/4 356/1/4 360/1/4
f 357/13/4 358/13/4 361/13/4
f 358/1/4 359/1/4 362/1/4
f 361/13/4 358/13/4 362/13/4
f 362/1/4 359/1/4 363/1/4
f 364/8/4 365/8/4 366/8/4
f 366/8/4 365/8/4 367/8/4
f 364/8/4 366/8/4 368/8/4
f 366/13/4 367/13/4 369/13/4
f 368/8/4 366/8/4 369/8/4
f 369/13/4 367/13/4 370/13/4
f 368/8/4 369/8/4 371/8/4
f 369/8/4 370/8/4 371/8/4
f 371/8/4 370/8/4 372/8/4
f 373/8/4 374/8/4 375/8/4
f 375/8/4 374/8/4 376/8/4
f 377/12/4 378/12/4 382/12/4
f 378/14/4 379/14/4 383/14/4
f 382/12/4 378/12/4 383/12/4
f 379/12/4 380/12/4 384/12/4
f 383/14/4 379/14/4 384/14/4
f 380/7/4 381/7/4 385/7/4
f 384/12/4 380/12/4 385/12/4
f 385/7/4 381/7/4 386/7/4
f 387/7/4 388/7/4 392/7/4
f 388/7/4 389/7/4 392/7/4
f 390/10/4 391/10/4 393/10/4
f 392/7/4 389/7/4 393/7/4
f 389/10/4 390/10/4 393/10/4
f 393/10/4 391/10/4 394/10/4
f 395/12/4 396/12/4 398/12/4
f 396/7/4 397/7/4 399/7/4
f 398/12/4 396/12/4 399/12/4
f 399/7/4 397/7/4 400/7/4
f 398/12/4 399/12/4 401/12/4
f 399/12/4 400/12/4 401/12/4
f 400/7/4 397/7/4 402/7/4
f 401/12/4 400/12/4 402/12/4
f 402/7/4 397/7/4 403/7/4
f 404/7/4 405/7/4 406/7/4
f 406/7/4 405/7/4 407/7/4
f 408/12/4 409/12/4 410/12/4
f 410/12/4 409/12/4 411/12/4
f 410/7/4 411/7/4 412/7/4
f 412/7/4 411/7/4 413/7/4
f 414/12/4 415/12/4 416/12/4
f 416/12/4 415/12/4 417/12/4
f 422/12/5 419/12/5 418/12/5
f 423/12/5 419/12/5 422/12/5
f 424/12/5 421/12/5 420/12/5
f 425/12/5 421/12/5 424/12/5
f 430/7/5 427/7/5 426/7/5
f 431/7/5 427/7/5 430/7/5
f 432/12/5 429/12/5 428/12/5
f 433/12/5 429/12/5 432/12/5
f 434/7/5 433/7/5 432/7/5
f 435/7/5 433/7/5 434/7/5
f 438/12/5 437/12/5 436/12/5
f 439/12/5 437/12/5 438/12/5
f 443/12/5 441/12/5 440/12/5
f 443/7/5 442/7/5 441/7/5
f 444/7/5 442/7/5 443/7/5
f 445/12/5 443/12/5 440/12/5
f 445/12/5 444/12/5 443/12/5
f 446/12/5 444/12/5 445/12/5
f 450/8/5 448/8/5 447/8/5
f 451/8/5 448/8/5 450/8/5
f 453/8/5 450/8/5 449/8/5
f 453/10/5 452/10/5 451/10/5
f 453/8/5 451/8/5 450/8/5
f 454/10/5 452/10/5 453/10/5
f 455/8/5 453/8/5 449/8/5
f 455/8/5 454/8/5 453/8/5
f 456/8/5 454/8/5 455/8/5
f 460/12/5 458/12/5 457/12/5
f 461/7/5 459/7/5 458/7/5
f 461/12/5 458/12/5 460/12/5
f 462/7/5 459/7/5 461/7/5
f 465/7/5 464/7/5 463/7/5
f 466/7/5 464/7/5 465/7/5
f 467/12/5 466/12/5 465/12/5
f 468/7/5 464/7/5 466/7/5
f 468/12/5 466/12/5 467/12/5
f 469/7/5 464/7/5 468/7/5
f 470/7/5 464/7/5 469/7/5
f 471/7/5 464/7/5 470/7/5
f 472/12/5 469/12/5 468/12/5
f 473/7/5 470/7/5 469/7/5
f 473/12/5 469/12/5 472/12/5
f 474/7/5 470/7/5 473/7/5
f 477/3/5 476/3/5 475/3/5
f 478/3/5 476/3/5 477/3/5
f 482/16/5 480/16/5 479/16/5
f 483/16/5 480/16/5 482/16/5
f 485/10/5 482/10/5 481/10/5
f 486/10/5 482/10/5 485/10/5
f 487/8/5 484/8/5 483/8/5
f 488/8/5 484/8/5 487/8/5
f 492/16/5 490/16/5 489/16/5
f 493/15/5 491/15/5 490/15/5
f 493/16/5 490/16/5 492/16/5
f 494/15/5 491/15/5 493/15/5
f 497/13/5 496/13/5 495/13/5
f 498/13/5 496/13/5 497/13/5
f 501/2/5 500/2/5 499/2/5
f 502/2/5 500/2/5 501/2/5
f 503/12/6 504/12/6 505/12/6
f 505/12/6 504/12/6 506/12/6
f 505/7/6 506/7/6 507/7/6
f 507/7/6 506/7/6 508/7/6
f 509/12/6 510/12/6 512/12/6
f 510/12/6 511/12/6 512/12/6
f 512/12/6 511/12/6 513/12/6
f 514/12/6 515/12/6 517/12/6
f 515/7/6 516/7/6 518/7/6
f 517/12/6 515/12/6 518/12/6
f 518/7/6 516/7/6 519/7/6
f 520/8/6 521/8/6 523/8/6
f 521/10/6 522/10/6 523/10/6
f 523/10/6 522/10/6 524/10/6
f 520/8/6 523/8/6 525/8/6
f 523/8/6 524/8/6 525/8/6
f 525/8/6 524/8/6 526/8/6
f 525/7/6 526/7/6 527/7/6
f 527/7/6 526/7/6 528/7/6
f 525/7/6 527/7/6 529/7/6
f 529/7/6 527/7/6 530/7/6
f 527/10/6 528/10/6 531/10/6
f 530/7/6 527/7/6 531/7/6
f 531/10/6 528/10/6 532/10/6
f 530/7/6 531/7/6 533/7/6
f 533/7/6 531/7/6 534/7/6
f 535/16/6 536/16/6 538/16/6
f 536/15/6 537/15/6 538/15/6
f 538/15/6 537/15/6 539/15/6
f 535/16/6 538/16/6 540/16/6
f 538/16/6 539/16/6 540/16/6
f 540/16/6 539/16/6 541/16/6
f 543/8/6 544/8/6 547/8/6
f 542/8/6 543/8/6 547/8/6
f 544/13/6 545/13/6 548/13/6
f 547/8/6 544/8/6 548/8/6
f 545/8/6 546/8/6 549/8/6
f 548/13/6 545/13/6 549/13/6
f 549/8/6 546/8/6 550/8/6
f 551/8/6 552/8/6 553/8/6
f 553/8/6 552/8/6 554/8/6
f 554/8/6 552/8/6 555/8/6
f 556/8/6 557/8/6 562/8/6
f 557/13/6 558/13/6 563/13/6
f 562/8/6 557/8/6 563/8/6
f 558/1/6 559/1/6 564/1/6
f 563/13/6 558/13/6 564/13/6
f 564/1/6 559/1/6 565/1/6
f 560/1/6 561/1/6 566/1/6
f 566/1/6 561/1/6 567/1/6
f 568/1/6 569/1/6 572/1/6
f 569/2/6 570/2/6 573/2/6
f 572/1/6 569/1/6 573/1/6
f 573/2/6 570/2/6 574/2/6
f 571/2/6 572/2/6 576/2/6
f 576/2/6 572/2/6 577/2/6
f 574/1/6 575/1/6 579/1/6
f 579/1/6 575/1/6 580/1/6
f 578/1/6 579/1/6 581/1/6
f 581/1/6 579/1/6 582/1/6
f 583/7/6 584/7/6 588/7/6
f 588/7/6 584/7/6 589/7/6
f 585/2/6 586/2/6 590/2/6
f 586/13/6 587/13/6 591/13/6
f 590/2/6 586/2/6 591/2/6
f 591/13/6 587/13/6 592/13/6
