# MagicaVoxel @ Ephtracy

# group
o 

# material
mtllib Pistol(tire éclaire).mtl
usemtl palette

# normals
vn -1 0 0
vn 1 0 0
vn 0 0 1
vn 0 0 -1
vn 0 -1 0
vn 0 1 0

# texcoords
vt 0.205078 0.5
vt 0.208984 0.5
vt 0.833984 0.5
vt 0.919922 0.5
vt 0.935547 0.5
vt 0.947266 0.5
vt 0.978516 0.5
vt 0.994141 0.5

# verts
v -0.3 0 -0.7
v -0.3 0 -0.8
v -0.3 0 -0.9
v -0.3 0 -1
v -0.3 0 -1.1
v -0.3 0.2 -0.7
v -0.3 0.2 -0.8
v -0.3 0.2 -0.9
v -0.3 0.2 -1
v -0.3 0.2 -1.1
v -0.1 0 -0.8
v -0.1 0 -0.9
v -0.1 0.2 -0.8
v -0.1 0.2 -0.9
v 0.3 0 -0.7
v 0.3 0 -0.8
v 0.3 0.2 -0.7
v 0.3 0.2 -0.8
v 0.7 0 -0.9
v 0.7 0 -1
v 0.7 0.2 -0.9
v 0.7 0.2 -1
v 0.8 0 -0.6
v 0.8 0 -0.7
v 0.8 0 -1
v 0.8 0 -1.1
v 0.8 0.2 -0.6
v 0.8 0.2 -0.7
v 0.8 0.2 -1
v 0.8 0.2 -1.1
v 0.9 0 -0.5
v 0.9 0 -0.6
v 0.9 0.2 -0.5
v 0.9 0.2 -0.6
v 1 0 -0.4
v 1 0 -0.5
v 1 0 -0.6
v 1 0 -0.7
v 1 0.2 -0.4
v 1 0.2 -0.5
v 1 0.2 -0.6
v 1 0.2 -0.7
v 1.1 0 -0.5
v 1.1 0 -0.6
v 1.1 0.2 -0.5
v 1.1 0.2 -0.6
v 1.2 0 0.1
v 1.2 0 -0.4
v 1.2 0.2 0.1
v 1.2 0.2 -0.4
v 0.1 0 -0.7
v 0.1 0 -0.8
v 0.1 0.2 -0.7
v 0.1 0.2 -0.8
v 0.3 0 -1
v 0.3 0 -1.1
v 0.3 0.2 -1
v 0.3 0.2 -1.1
v 0.5 0 -0.9
v 0.5 0 -1
v 0.5 0.2 -0.9
v 0.5 0.2 -1
v 0.9 0 -0.6
v 0.9 0 -0.7
v 0.9 0.2 -0.6
v 0.9 0.2 -0.7
v 1 0 -0.5
v 1 0 -0.6
v 1 0.2 -0.5
v 1 0.2 -0.6
v 1.4 0 -1
v 1.4 0 -1.1
v 1.4 0.2 -1
v 1.4 0.2 -1.1
v 1.5 0 -0.9
v 1.5 0 -1
v 1.5 0.2 -0.9
v 1.5 0.2 -1
v 1.6 0 0.1
v 1.6 0 -0.9
v 1.6 0.2 0.1
v 1.6 0.2 -0.9
v 1.2 0 0.1
v 1.2 0.2 0.1
v 1.5 0 0.1
v 1.5 0.2 0.1
v 1.6 0 0.1
v 1.6 0.2 0.1
v 1 0 -0.4
v 1 0.2 -0.4
v 1.2 0 -0.4
v 1.2 0.2 -0.4
v 0.9 0 -0.5
v 0.9 0.2 -0.5
v 1 0 -0.5
v 1 0.2 -0.5
v 0.8 0 -0.6
v 0.8 0.2 -0.6
v 0.9 0 -0.6
v 0.9 0.2 -0.6
v 1 0 -0.6
v 1 0.2 -0.6
v 1.1 0 -0.6
v 1.1 0.2 -0.6
v -0.3 0 -0.7
v -0.3 0.2 -0.7
v 0 0 -0.7
v 0 0.2 -0.7
v 0.1 0 -0.7
v 0.1 0.2 -0.7
v 0.3 0 -0.7
v 0.3 0.2 -0.7
v 0.4 0 -0.7
v 0.4 0.2 -0.7
v 0.8 0 -0.7
v 0.8 0.2 -0.7
v 0.9 0 -0.7
v 0.9 0.2 -0.7
v 1 0 -0.7
v 1 0.2 -0.7
v 0.1 0 -0.8
v 0.1 0.2 -0.8
v 0.2 0 -0.8
v 0.2 0.2 -0.8
v 0.3 0 -0.8
v 0.3 0.2 -0.8
v -0.3 0 -0.9
v -0.3 0.2 -0.9
v -0.1 0 -0.9
v -0.1 0.2 -0.9
v 1 0 -0.5
v 1 0.2 -0.5
v 1.1 0 -0.5
v 1.1 0.2 -0.5
v 0.9 0 -0.6
v 0.9 0.2 -0.6
v 1 0 -0.6
v 1 0.2 -0.6
v -0.3 0 -0.8
v -0.3 0.2 -0.8
v -0.1 0 -0.8
v -0.1 0.2 -0.8
v 0.5 0 -0.9
v 0.5 0.2 -0.9
v 0.7 0 -0.9
v 0.7 0.2 -0.9
v 1.5 0 -0.9
v 1.5 0.2 -0.9
v 1.6 0 -0.9
v 1.6 0.2 -0.9
v 0.3 0 -1
v 0.3 0.2 -1
v 0.5 0 -1
v 0.5 0.2 -1
v 0.7 0 -1
v 0.7 0.2 -1
v 0.8 0 -1
v 0.8 0.2 -1
v 1.4 0 -1
v 1.4 0.2 -1
v 1.5 0 -1
v 1.5 0.2 -1
v -0.3 0 -1.1
v -0.3 0.2 -1.1
v 0.3 0 -1.1
v 0.3 0.2 -1.1
v 0.8 0 -1.1
v 0.8 0.2 -1.1
v 1.4 0 -1.1
v 1.4 0.2 -1.1
v 1.2 0 0.1
v 1.5 0 0.1
v 1.6 0 0.1
v 1 0 -0.4
v 1.2 0 -0.4
v 0.9 0 -0.5
v 1 0 -0.5
v 1.1 0 -0.5
v 0.8 0 -0.6
v 0.9 0 -0.6
v 1 0 -0.6
v 1.1 0 -0.6
v 1.2 0 -0.6
v 1.3 0 -0.6
v -0.3 0 -0.7
v 0 0 -0.7
v 0.1 0 -0.7
v 0.3 0 -0.7
v 0.4 0 -0.7
v 0.8 0 -0.7
v 0.9 0 -0.7
v 1 0 -0.7
v 1.1 0 -0.7
v -0.3 0 -0.8
v -0.1 0 -0.8
v 0 0 -0.8
v 0.1 0 -0.8
v 0.2 0 -0.8
v 0.3 0 -0.8
v 0.4 0 -0.8
v 0.5 0 -0.8
v 1.3 0 -0.8
v 1.4 0 -0.8
v 1.5 0 -0.8
v -0.3 0 -0.9
v -0.1 0 -0.9
v 0 0 -0.9
v 0.1 0 -0.9
v 0.2 0 -0.9
v 0.3 0 -0.9
v 0.4 0 -0.9
v 0.5 0 -0.9
v 0.7 0 -0.9
v 0.8 0 -0.9
v 1 0 -0.9
v 1.3 0 -0.9
v 1.4 0 -0.9
v 1.5 0 -0.9
v 1.6 0 -0.9
v -0.3 0 -1
v 0.3 0 -1
v 0.5 0 -1
v 0.7 0 -1
v 0.8 0 -1
v 1 0 -1
v 1.3 0 -1
v 1.4 0 -1
v 1.5 0 -1
v -0.3 0 -1.1
v 0.3 0 -1.1
v 0.8 0 -1.1
v 1.4 0 -1.1
v 1.2 0.2 0.1
v 1.5 0.2 0.1
v 1.6 0.2 0.1
v 1 0.2 -0.4
v 1.2 0.2 -0.4
v 0.9 0.2 -0.5
v 1 0.2 -0.5
v 1.1 0.2 -0.5
v 0.8 0.2 -0.6
v 0.9 0.2 -0.6
v 1 0.2 -0.6
v 1.1 0.2 -0.6
v 1.2 0.2 -0.6
v 1.3 0.2 -0.6
v -0.3 0.2 -0.7
v 0 0.2 -0.7
v 0.1 0.2 -0.7
v 0.3 0.2 -0.7
v 0.4 0.2 -0.7
v 0.8 0.2 -0.7
v 0.9 0.2 -0.7
v 1 0.2 -0.7
v 1.1 0.2 -0.7
v -0.3 0.2 -0.8
v -0.1 0.2 -0.8
v 0 0.2 -0.8
v 0.1 0.2 -0.8
v 0.2 0.2 -0.8
v 0.3 0.2 -0.8
v 0.4 0.2 -0.8
v 0.5 0.2 -0.8
v 1.3 0.2 -0.8
v 1.4 0.2 -0.8
v 1.5 0.2 -0.8
v -0.3 0.2 -0.9
v -0.1 0.2 -0.9
v 0 0.2 -0.9
v 0.1 0.2 -0.9
v 0.2 0.2 -0.9
v 0.3 0.2 -0.9
v 0.4 0.2 -0.9
v 0.5 0.2 -0.9
v 0.7 0.2 -0.9
v 0.8 0.2 -0.9
v 1 0.2 -0.9
v 1.3 0.2 -0.9
v 1.4 0.2 -0.9
v 1.5 0.2 -0.9
v 1.6 0.2 -0.9
v -0.3 0.2 -1
v 0.3 0.2 -1
v 0.5 0.2 -1
v 0.7 0.2 -1
v 0.8 0.2 -1
v 1 0.2 -1
v 1.3 0.2 -1
v 1.4 0.2 -1
v 1.5 0.2 -1
v -0.3 0.2 -1.1
v 0.3 0.2 -1.1
v 0.8 0.2 -1.1
v 1.4 0.2 -1.1

# faces
f 6/3/1 2/3/1 1/3/1
f 7/3/1 2/3/1 6/3/1
f 8/3/1 4/3/1 3/3/1
f 9/7/1 5/7/1 4/7/1
f 9/3/1 4/3/1 8/3/1
f 10/7/1 5/7/1 9/7/1
f 13/3/1 12/3/1 11/3/1
f 14/3/1 12/3/1 13/3/1
f 17/7/1 16/7/1 15/7/1
f 18/7/1 16/7/1 17/7/1
f 21/7/1 20/7/1 19/7/1
f 22/7/1 20/7/1 21/7/1
f 27/3/1 24/3/1 23/3/1
f 28/3/1 24/3/1 27/3/1
f 29/7/1 26/7/1 25/7/1
f 30/7/1 26/7/1 29/7/1
f 33/3/1 32/3/1 31/3/1
f 34/3/1 32/3/1 33/3/1
f 39/3/1 36/3/1 35/3/1
f 40/3/1 36/3/1 39/3/1
f 41/8/1 38/8/1 37/8/1
f 42/8/1 38/8/1 41/8/1
f 45/3/1 44/3/1 43/3/1
f 46/3/1 44/3/1 45/3/1
f 49/1/1 48/1/1 47/1/1
f 50/1/1 48/1/1 49/1/1
f 51/7/2 52/7/2 53/7/2
f 53/7/2 52/7/2 54/7/2
f 55/7/2 56/7/2 57/7/2
f 57/7/2 56/7/2 58/7/2
f 59/7/2 60/7/2 61/7/2
f 61/7/2 60/7/2 62/7/2
f 63/3/2 64/3/2 65/3/2
f 65/3/2 64/3/2 66/3/2
f 67/3/2 68/3/2 69/3/2
f 69/3/2 68/3/2 70/3/2
f 71/7/2 72/7/2 73/7/2
f 73/7/2 72/7/2 74/7/2
f 75/3/2 76/3/2 77/3/2
f 77/3/2 76/3/2 78/3/2
f 79/2/2 80/2/2 81/2/2
f 81/2/2 80/2/2 82/2/2
f 85/1/3 84/1/3 83/1/3
f 86/1/3 84/1/3 85/1/3
f 87/2/3 86/2/3 85/2/3
f 88/2/3 86/2/3 87/2/3
f 91/3/3 90/3/3 89/3/3
f 92/3/3 90/3/3 91/3/3
f 95/3/3 94/3/3 93/3/3
f 96/3/3 94/3/3 95/3/3
f 99/3/3 98/3/3 97/3/3
f 100/3/3 98/3/3 99/3/3
f 103/8/3 102/8/3 101/8/3
f 104/8/3 102/8/3 103/8/3
f 107/3/3 106/3/3 105/3/3
f 108/3/3 106/3/3 107/3/3
f 109/7/3 108/7/3 107/7/3
f 110/7/3 108/7/3 109/7/3
f 113/7/3 112/7/3 111/7/3
f 114/7/3 112/7/3 113/7/3
f 115/3/3 114/3/3 113/3/3
f 116/3/3 114/3/3 115/3/3
f 119/3/3 118/3/3 117/3/3
f 120/3/3 118/3/3 119/3/3
f 123/3/3 122/3/3 121/3/3
f 124/3/3 122/3/3 123/3/3
f 125/5/3 124/5/3 123/5/3
f 126/5/3 124/5/3 125/5/3
f 129/3/3 128/3/3 127/3/3
f 130/3/3 128/3/3 129/3/3
f 131/3/4 132/3/4 133/3/4
f 133/3/4 132/3/4 134/3/4
f 135/3/4 136/3/4 137/3/4
f 137/3/4 136/3/4 138/3/4
f 139/3/4 140/3/4 141/3/4
f 141/3/4 140/3/4 142/3/4
f 143/3/4 144/3/4 145/3/4
f 145/3/4 144/3/4 146/3/4
f 147/2/4 148/2/4 149/2/4
f 149/2/4 148/2/4 150/2/4
f 151/7/4 152/7/4 153/7/4
f 153/7/4 152/7/4 154/7/4
f 155/7/4 156/7/4 157/7/4
f 157/7/4 156/7/4 158/7/4
f 159/3/4 160/3/4 161/3/4
f 161/3/4 160/3/4 162/3/4
f 163/7/4 164/7/4 165/7/4
f 165/7/4 164/7/4 166/7/4
f 167/7/4 168/7/4 169/7/4
f 169/7/4 168/7/4 170/7/4
f 175/1/5 172/1/5 171/1/5
f 177/3/5 175/3/5 174/3/5
f 178/3/5 175/3/5 177/3/5
f 180/3/5 177/3/5 176/3/5
f 181/3/5 177/3/5 180/3/5
f 182/3/5 175/3/5 178/3/5
f 183/1/5 172/1/5 175/1/5
f 183/3/5 175/3/5 182/3/5
f 184/1/5 172/1/5 183/1/5
f 190/3/5 180/3/5 179/3/5
f 191/3/5 180/3/5 190/3/5
f 192/8/5 182/8/5 181/8/5
f 193/3/5 183/3/5 182/3/5
f 193/3/5 184/3/5 183/3/5
f 193/8/5 182/8/5 192/8/5
f 194/3/5 186/3/5 185/3/5
f 195/3/5 186/3/5 194/3/5
f 196/7/5 187/7/5 186/7/5
f 196/3/5 186/3/5 195/3/5
f 197/7/5 187/7/5 196/7/5
f 199/7/5 189/7/5 188/7/5
f 200/3/5 191/3/5 190/3/5
f 200/3/5 192/3/5 191/3/5
f 200/7/5 189/7/5 199/7/5
f 200/3/5 190/3/5 189/3/5
f 200/3/5 193/3/5 192/3/5
f 201/3/5 193/3/5 200/3/5
f 202/1/5 172/1/5 184/1/5
f 202/3/5 193/3/5 201/3/5
f 202/3/5 184/3/5 193/3/5
f 203/1/5 172/1/5 202/1/5
f 204/2/5 173/2/5 172/2/5
f 204/1/5 172/1/5 203/1/5
f 206/3/5 196/3/5 195/3/5
f 207/6/5 197/6/5 196/6/5
f 207/3/5 196/3/5 206/3/5
f 208/3/5 198/3/5 197/3/5
f 208/6/5 197/6/5 207/6/5
f 209/5/5 199/5/5 198/5/5
f 209/3/5 198/3/5 208/3/5
f 210/3/5 200/3/5 199/3/5
f 210/5/5 199/5/5 209/5/5
f 211/4/5 201/4/5 200/4/5
f 211/3/5 200/3/5 210/3/5
f 212/3/5 203/3/5 202/3/5
f 212/4/5 201/4/5 211/4/5
f 212/3/5 202/3/5 201/3/5
f 213/3/5 203/3/5 212/3/5
f 214/3/5 203/3/5 213/3/5
f 215/3/5 203/3/5 214/3/5
f 216/3/5 203/3/5 215/3/5
f 217/2/5 204/2/5 203/2/5
f 217/3/5 203/3/5 216/3/5
f 218/2/5 173/2/5 204/2/5
f 218/2/5 204/2/5 217/2/5
f 219/2/5 173/2/5 218/2/5
f 220/3/5 208/3/5 207/3/5
f 220/3/5 210/3/5 209/3/5
f 220/3/5 207/3/5 206/3/5
f 220/3/5 209/3/5 208/3/5
f 220/3/5 206/3/5 205/3/5
f 221/7/5 211/7/5 210/7/5
f 221/3/5 210/3/5 220/3/5
f 221/7/5 212/7/5 211/7/5
f 222/7/5 212/7/5 221/7/5
f 223/7/5 214/7/5 213/7/5
f 224/3/5 215/3/5 214/3/5
f 224/7/5 214/7/5 223/7/5
f 225/8/5 216/8/5 215/8/5
f 225/3/5 215/3/5 224/3/5
f 226/3/5 218/3/5 217/3/5
f 226/8/5 216/8/5 225/8/5
f 226/3/5 217/3/5 216/3/5
f 227/3/5 218/3/5 226/3/5
f 228/3/5 218/3/5 227/3/5
f 229/7/5 221/7/5 220/7/5
f 230/7/5 221/7/5 229/7/5
f 231/7/5 225/7/5 224/7/5
f 231/7/5 227/7/5 226/7/5
f 231/7/5 226/7/5 225/7/5
f 232/7/5 227/7/5 231/7/5
f 233/1/6 234/1/6 237/1/6
f 236/3/6 237/3/6 239/3/6
f 239/3/6 237/3/6 240/3/6
f 238/3/6 239/3/6 242/3/6
f 242/3/6 239/3/6 243/3/6
f 240/3/6 237/3/6 244/3/6
f 237/1/6 234/1/6 245/1/6
f 244/3/6 237/3/6 245/3/6
f 245/1/6 234/1/6 246/1/6
f 241/3/6 242/3/6 252/3/6
f 252/3/6 242/3/6 253/3/6
f 243/8/6 244/8/6 254/8/6
f 244/3/6 245/3/6 255/3/6
f 245/3/6 246/3/6 255/3/6
f 254/8/6 244/8/6 255/8/6
f 247/3/6 248/3/6 256/3/6
f 256/3/6 248/3/6 257/3/6
f 248/7/6 249/7/6 258/7/6
f 257/3/6 248/3/6 258/3/6
f 258/7/6 249/7/6 259/7/6
f 250/7/6 251/7/6 261/7/6
f 252/3/6 253/3/6 262/3/6
f 253/3/6 254/3/6 262/3/6
f 261/7/6 251/7/6 262/7/6
f 251/3/6 252/3/6 262/3/6
f 254/3/6 255/3/6 262/3/6
f 262/3/6 255/3/6 263/3/6
f 246/1/6 234/1/6 264/1/6
f 263/3/6 255/3/6 264/3/6
f 255/3/6 246/3/6 264/3/6
f 264/1/6 234/1/6 265/1/6
f 234/2/6 235/2/6 266/2/6
f 265/1/6 234/1/6 266/1/6
f 257/3/6 258/3/6 268/3/6
f 258/6/6 259/6/6 269/6/6
f 268/3/6 258/3/6 269/3/6
f 259/3/6 260/3/6 270/3/6
f 269/6/6 259/6/6 270/6/6
f 260/5/6 261/5/6 271/5/6
f 270/3/6 260/3/6 271/3/6
f 261/3/6 262/3/6 272/3/6
f 271/5/6 261/5/6 272/5/6
f 262/4/6 263/4/6 273/4/6
f 272/3/6 262/3/6 273/3/6
f 264/3/6 265/3/6 274/3/6
f 273/4/6 263/4/6 274/4/6
f 263/3/6 264/3/6 274/3/6
f 274/3/6 265/3/6 275/3/6
f 275/3/6 265/3/6 276/3/6
f 276/3/6 265/3/6 277/3/6
f 277/3/6 265/3/6 278/3/6
f 265/2/6 266/2/6 279/2/6
f 278/3/6 265/3/6 279/3/6
f 266/2/6 235/2/6 280/2/6
f 279/2/6 266/2/6 280/2/6
f 280/2/6 235/2/6 281/2/6
f 269/3/6 270/3/6 282/3/6
f 271/3/6 272/3/6 282/3/6
f 268/3/6 269/3/6 282/3/6
f 270/3/6 271/3/6 282/3/6
f 267/3/6 268/3/6 282/3/6
f 272/7/6 273/7/6 283/7/6
f 282/3/6 272/3/6 283/3/6
f 273/7/6 274/7/6 283/7/6
f 283/7/6 274/7/6 284/7/6
f 275/7/6 276/7/6 285/7/6
f 276/3/6 277/3/6 286/3/6
f 285/7/6 276/7/6 286/7/6
f 277/8/6 278/8/6 287/8/6
f 286/3/6 277/3/6 287/3/6
f 279/3/6 280/3/6 288/3/6
f 287/8/6 278/8/6 288/8/6
f 278/3/6 279/3/6 288/3/6
f 288/3/6 280/3/6 289/3/6
f 289/3/6 280/3/6 290/3/6
f 282/7/6 283/7/6 291/7/6
f 291/7/6 283/7/6 292/7/6
f 286/7/6 287/7/6 293/7/6
f 288/7/6 289/7/6 293/7/6
f 287/7/6 288/7/6 293/7/6
f 293/7/6 289/7/6 294/7/6
