# MagicaVoxel @ Ephtracy

# group
o 

# material
mtllib Capsule de soin(voxel).mtl
usemtl palette

# normals
vn -1 0 0
vn 1 0 0
vn 0 0 1
vn 0 0 -1
vn 0 -1 0
vn 0 1 0

# texcoords
vt 0.845703 0.5
vt 0.958984 0.5
vt 0.986328 0.5

# verts
v 0 0.2 0.5
v 0 0.2 0.2
v 0 0.5 0.5
v 0 0.5 0.2
v 0 0.6 0.5
v 0 0.6 0.2
v 0 0.8 0.5
v 0 0.8 0.2
v 0 0.9 0.5
v 0 0.9 0.2
v 0 1.1 0.5
v 0 1.1 0.2
v 0 1.2 0.5
v 0 1.2 0.2
v 0 1.5 0.5
v 0 1.5 0.2
v 0.1 0.1 0.5
v 0.1 0.1 0.2
v 0.1 0.2 0.6
v 0.1 0.2 0.5
v 0.1 0.2 0.2
v 0.1 0.2 0.1
v 0.1 0.5 0.5
v 0.1 0.5 0.2
v 0.1 0.6 0.6
v 0.1 0.6 0.5
v 0.1 0.6 0.2
v 0.1 0.8 0.6
v 0.1 0.8 0.5
v 0.1 0.8 0.2
v 0.1 0.9 0.5
v 0.1 0.9 0.2
v 0.1 0.9 0.1
v 0.1 1.1 0.5
v 0.1 1.1 0.2
v 0.1 1.1 0.1
v 0.1 1.2 0.5
v 0.1 1.2 0.2
v 0.1 1.5 0.6
v 0.1 1.5 0.5
v 0.1 1.5 0.2
v 0.1 1.5 0.1
v 0.1 1.6 0.5
v 0.1 1.6 0.2
v 0.2 0 0.4
v 0.2 0 0.3
v 0.2 0.1 0.6
v 0.2 0.1 0.5
v 0.2 0.1 0.4
v 0.2 0.1 0.3
v 0.2 0.1 0.2
v 0.2 0.1 0.1
v 0.2 0.2 0.7
v 0.2 0.2 0.6
v 0.2 0.2 0.5
v 0.2 0.2 0.2
v 0.2 0.2 0.1
v 0.2 0.2 0
v 0.2 0.6 0.6
v 0.2 0.8 0.6
v 0.2 0.9 0.1
v 0.2 1.1 0.1
v 0.2 1.5 0.7
v 0.2 1.5 0.6
v 0.2 1.5 0.5
v 0.2 1.5 0.2
v 0.2 1.5 0.1
v 0.2 1.5 0
v 0.2 1.6 0.6
v 0.2 1.6 0.5
v 0.2 1.6 0.4
v 0.2 1.6 0.3
v 0.2 1.6 0.2
v 0.2 1.6 0.1
v 0.2 1.7 0.4
v 0.2 1.7 0.3
v 0.3 0 0.5
v 0.3 0 0.4
v 0.3 0 0.3
v 0.3 0 0.2
v 0.3 0.1 0.5
v 0.3 0.1 0.4
v 0.3 0.1 0.3
v 0.3 0.1 0.2
v 0.3 1.6 0.5
v 0.3 1.6 0.4
v 0.3 1.6 0.3
v 0.3 1.6 0.2
v 0.3 1.7 0.5
v 0.3 1.7 0.4
v 0.3 1.7 0.3
v 0.3 1.7 0.2
v 0.4 0 0.5
v 0.4 0 0.4
v 0.4 0 0.3
v 0.4 0 0.2
v 0.4 0.1 0.5
v 0.4 0.1 0.4
v 0.4 0.1 0.3
v 0.4 0.1 0.2
v 0.4 1.6 0.5
v 0.4 1.6 0.4
v 0.4 1.6 0.3
v 0.4 1.6 0.2
v 0.4 1.7 0.5
v 0.4 1.7 0.4
v 0.4 1.7 0.3
v 0.4 1.7 0.2
v 0.5 0 0.4
v 0.5 0 0.3
v 0.5 0.1 0.6
v 0.5 0.1 0.5
v 0.5 0.1 0.4
v 0.5 0.1 0.3
v 0.5 0.1 0.2
v 0.5 0.1 0.1
v 0.5 0.2 0.7
v 0.5 0.2 0.6
v 0.5 0.2 0.5
v 0.5 0.2 0.2
v 0.5 0.2 0.1
v 0.5 0.2 0
v 0.5 0.6 0.1
v 0.5 0.8 0.1
v 0.5 0.9 0.6
v 0.5 1.1 0.6
v 0.5 1.5 0.7
v 0.5 1.5 0.6
v 0.5 1.5 0.5
v 0.5 1.5 0.2
v 0.5 1.5 0.1
v 0.5 1.5 0
v 0.5 1.6 0.6
v 0.5 1.6 0.5
v 0.5 1.6 0.4
v 0.5 1.6 0.3
v 0.5 1.6 0.2
v 0.5 1.6 0.1
v 0.5 1.7 0.4
v 0.5 1.7 0.3
v 0.6 0.1 0.5
v 0.6 0.1 0.2
v 0.6 0.2 0.6
v 0.6 0.2 0.5
v 0.6 0.2 0.2
v 0.6 0.2 0.1
v 0.6 0.5 0.5
v 0.6 0.5 0.2
v 0.6 0.6 0.5
v 0.6 0.6 0.2
v 0.6 0.6 0.1
v 0.6 0.8 0.5
v 0.6 0.8 0.2
v 0.6 0.8 0.1
v 0.6 0.9 0.6
v 0.6 0.9 0.5
v 0.6 0.9 0.2
v 0.6 1.1 0.6
v 0.6 1.1 0.5
v 0.6 1.1 0.2
v 0.6 1.2 0.5
v 0.6 1.2 0.2
v 0.6 1.5 0.6
v 0.6 1.5 0.5
v 0.6 1.5 0.2
v 0.6 1.5 0.1
v 0.6 1.6 0.5
v 0.6 1.6 0.2
v 0.7 0.2 0.5
v 0.7 0.2 0.2
v 0.7 0.5 0.5
v 0.7 0.5 0.2
v 0.7 0.6 0.5
v 0.7 0.6 0.2
v 0.7 0.8 0.5
v 0.7 0.8 0.2
v 0.7 0.9 0.5
v 0.7 0.9 0.2
v 0.7 1.1 0.5
v 0.7 1.1 0.2
v 0.7 1.2 0.5
v 0.7 1.2 0.2
v 0.7 1.5 0.5
v 0.7 1.5 0.2
v 0.2 0.2 0.7
v 0.2 1.5 0.7
v 0.5 0.2 0.7
v 0.5 1.5 0.7
v 0.1 0.2 0.6
v 0.1 0.6 0.6
v 0.1 0.8 0.6
v 0.1 1.5 0.6
v 0.2 0.1 0.6
v 0.2 0.2 0.6
v 0.2 0.6 0.6
v 0.2 0.8 0.6
v 0.2 1.5 0.6
v 0.2 1.6 0.6
v 0.5 0.1 0.6
v 0.5 0.2 0.6
v 0.5 0.9 0.6
v 0.5 1.1 0.6
v 0.5 1.5 0.6
v 0.5 1.6 0.6
v 0.6 0.2 0.6
v 0.6 0.9 0.6
v 0.6 1.1 0.6
v 0.6 1.5 0.6
v 0 0.2 0.5
v 0 0.5 0.5
v 0 0.6 0.5
v 0 0.8 0.5
v 0 0.9 0.5
v 0 1.1 0.5
v 0 1.2 0.5
v 0 1.5 0.5
v 0.1 0.1 0.5
v 0.1 0.2 0.5
v 0.1 0.5 0.5
v 0.1 0.6 0.5
v 0.1 0.8 0.5
v 0.1 0.9 0.5
v 0.1 1.1 0.5
v 0.1 1.2 0.5
v 0.1 1.5 0.5
v 0.1 1.6 0.5
v 0.2 0.1 0.5
v 0.2 0.2 0.5
v 0.2 1.5 0.5
v 0.2 1.6 0.5
v 0.3 0 0.5
v 0.3 0.1 0.5
v 0.3 1.6 0.5
v 0.3 1.7 0.5
v 0.4 0 0.5
v 0.4 0.1 0.5
v 0.4 1.6 0.5
v 0.4 1.7 0.5
v 0.5 0.1 0.5
v 0.5 0.2 0.5
v 0.5 1.5 0.5
v 0.5 1.6 0.5
v 0.6 0.1 0.5
v 0.6 0.2 0.5
v 0.6 0.5 0.5
v 0.6 0.6 0.5
v 0.6 0.8 0.5
v 0.6 0.9 0.5
v 0.6 1.1 0.5
v 0.6 1.2 0.5
v 0.6 1.5 0.5
v 0.6 1.6 0.5
v 0.7 0.2 0.5
v 0.7 0.5 0.5
v 0.7 0.6 0.5
v 0.7 0.8 0.5
v 0.7 0.9 0.5
v 0.7 1.1 0.5
v 0.7 1.2 0.5
v 0.7 1.5 0.5
v 0.2 0 0.4
v 0.2 0.1 0.4
v 0.2 1.6 0.4
v 0.2 1.7 0.4
v 0.3 0 0.4
v 0.3 0.1 0.4
v 0.3 1.6 0.4
v 0.3 1.7 0.4
v 0.4 0 0.4
v 0.4 0.1 0.4
v 0.4 1.6 0.4
v 0.4 1.7 0.4
v 0.5 0 0.4
v 0.5 0.1 0.4
v 0.5 1.6 0.4
v 0.5 1.7 0.4
v 0.2 0 0.3
v 0.2 0.1 0.3
v 0.2 1.6 0.3
v 0.2 1.7 0.3
v 0.3 0 0.3
v 0.3 0.1 0.3
v 0.3 1.6 0.3
v 0.3 1.7 0.3
v 0.4 0 0.3
v 0.4 0.1 0.3
v 0.4 1.6 0.3
v 0.4 1.7 0.3
v 0.5 0 0.3
v 0.5 0.1 0.3
v 0.5 1.6 0.3
v 0.5 1.7 0.3
v 0 0.2 0.2
v 0 0.5 0.2
v 0 0.6 0.2
v 0 0.8 0.2
v 0 0.9 0.2
v 0 1.1 0.2
v 0 1.2 0.2
v 0 1.5 0.2
v 0.1 0.1 0.2
v 0.1 0.2 0.2
v 0.1 0.5 0.2
v 0.1 0.6 0.2
v 0.1 0.8 0.2
v 0.1 0.9 0.2
v 0.1 1.1 0.2
v 0.1 1.2 0.2
v 0.1 1.5 0.2
v 0.1 1.6 0.2
v 0.2 0.1 0.2
v 0.2 0.2 0.2
v 0.2 1.5 0.2
v 0.2 1.6 0.2
v 0.3 0 0.2
v 0.3 0.1 0.2
v 0.3 1.6 0.2
v 0.3 1.7 0.2
v 0.4 0 0.2
v 0.4 0.1 0.2
v 0.4 1.6 0.2
v 0.4 1.7 0.2
v 0.5 0.1 0.2
v 0.5 0.2 0.2
v 0.5 1.5 0.2
v 0.5 1.6 0.2
v 0.6 0.1 0.2
v 0.6 0.2 0.2
v 0.6 0.5 0.2
v 0.6 0.6 0.2
v 0.6 0.8 0.2
v 0.6 0.9 0.2
v 0.6 1.1 0.2
v 0.6 1.2 0.2
v 0.6 1.5 0.2
v 0.6 1.6 0.2
v 0.7 0.2 0.2
v 0.7 0.5 0.2
v 0.7 0.6 0.2
v 0.7 0.8 0.2
v 0.7 0.9 0.2
v 0.7 1.1 0.2
v 0.7 1.2 0.2
v 0.7 1.5 0.2
v 0.1 0.2 0.1
v 0.1 0.9 0.1
v 0.1 1.1 0.1
v 0.1 1.5 0.1
v 0.2 0.1 0.1
v 0.2 0.2 0.1
v 0.2 0.9 0.1
v 0.2 1.1 0.1
v 0.2 1.5 0.1
v 0.2 1.6 0.1
v 0.5 0.1 0.1
v 0.5 0.2 0.1
v 0.5 0.6 0.1
v 0.5 0.8 0.1
v 0.5 1.5 0.1
v 0.5 1.6 0.1
v 0.6 0.2 0.1
v 0.6 0.6 0.1
v 0.6 0.8 0.1
v 0.6 1.5 0.1
v 0.2 0.2 0
v 0.2 1.5 0
v 0.5 0.2 0
v 0.5 1.5 0
v 0.3 0 0.5
v 0.4 0 0.5
v 0.2 0 0.4
v 0.3 0 0.4
v 0.4 0 0.4
v 0.5 0 0.4
v 0.2 0 0.3
v 0.3 0 0.3
v 0.4 0 0.3
v 0.5 0 0.3
v 0.3 0 0.2
v 0.4 0 0.2
v 0.2 0.1 0.6
v 0.5 0.1 0.6
v 0.1 0.1 0.5
v 0.2 0.1 0.5
v 0.3 0.1 0.5
v 0.4 0.1 0.5
v 0.5 0.1 0.5
v 0.6 0.1 0.5
v 0.2 0.1 0.4
v 0.3 0.1 0.4
v 0.4 0.1 0.4
v 0.5 0.1 0.4
v 0.2 0.1 0.3
v 0.3 0.1 0.3
v 0.4 0.1 0.3
v 0.5 0.1 0.3
v 0.1 0.1 0.2
v 0.2 0.1 0.2
v 0.3 0.1 0.2
v 0.4 0.1 0.2
v 0.5 0.1 0.2
v 0.6 0.1 0.2
v 0.2 0.1 0.1
v 0.5 0.1 0.1
v 0.2 0.2 0.7
v 0.5 0.2 0.7
v 0.1 0.2 0.6
v 0.2 0.2 0.6
v 0.5 0.2 0.6
v 0.6 0.2 0.6
v 0 0.2 0.5
v 0.1 0.2 0.5
v 0.2 0.2 0.5
v 0.5 0.2 0.5
v 0.6 0.2 0.5
v 0.7 0.2 0.5
v 0 0.2 0.2
v 0.1 0.2 0.2
v 0.2 0.2 0.2
v 0.5 0.2 0.2
v 0.6 0.2 0.2
v 0.7 0.2 0.2
v 0.1 0.2 0.1
v 0.2 0.2 0.1
v 0.5 0.2 0.1
v 0.6 0.2 0.1
v 0.2 0.2 0
v 0.5 0.2 0
v 0.2 1.5 0.7
v 0.5 1.5 0.7
v 0.1 1.5 0.6
v 0.2 1.5 0.6
v 0.5 1.5 0.6
v 0.6 1.5 0.6
v 0 1.5 0.5
v 0.1 1.5 0.5
v 0.2 1.5 0.5
v 0.5 1.5 0.5
v 0.6 1.5 0.5
v 0.7 1.5 0.5
v 0 1.5 0.2
v 0.1 1.5 0.2
v 0.2 1.5 0.2
v 0.5 1.5 0.2
v 0.6 1.5 0.2
v 0.7 1.5 0.2
v 0.1 1.5 0.1
v 0.2 1.5 0.1
v 0.5 1.5 0.1
v 0.6 1.5 0.1
v 0.2 1.5 0
v 0.5 1.5 0
v 0.2 1.6 0.6
v 0.5 1.6 0.6
v 0.1 1.6 0.5
v 0.2 1.6 0.5
v 0.3 1.6 0.5
v 0.4 1.6 0.5
v 0.5 1.6 0.5
v 0.6 1.6 0.5
v 0.2 1.6 0.4
v 0.3 1.6 0.4
v 0.4 1.6 0.4
v 0.5 1.6 0.4
v 0.2 1.6 0.3
v 0.3 1.6 0.3
v 0.4 1.6 0.3
v 0.5 1.6 0.3
v 0.1 1.6 0.2
v 0.2 1.6 0.2
v 0.3 1.6 0.2
v 0.4 1.6 0.2
v 0.5 1.6 0.2
v 0.6 1.6 0.2
v 0.2 1.6 0.1
v 0.5 1.6 0.1
v 0.3 1.7 0.5
v 0.4 1.7 0.5
v 0.2 1.7 0.4
v 0.3 1.7 0.4
v 0.4 1.7 0.4
v 0.5 1.7 0.4
v 0.2 1.7 0.3
v 0.3 1.7 0.3
v 0.4 1.7 0.3
v 0.5 1.7 0.3
v 0.3 1.7 0.2
v 0.4 1.7 0.2

# faces
f 3/1/1 2/1/1 1/1/1
f 4/1/1 2/1/1 3/1/1
f 5/2/1 4/2/1 3/2/1
f 6/2/1 4/2/1 5/2/1
f 7/1/1 6/1/1 5/1/1
f 8/1/1 6/1/1 7/1/1
f 9/2/1 8/2/1 7/2/1
f 10/2/1 8/2/1 9/2/1
f 11/1/1 10/1/1 9/1/1
f 12/1/1 10/1/1 11/1/1
f 13/2/1 12/2/1 11/2/1
f 14/2/1 12/2/1 13/2/1
f 15/1/1 14/1/1 13/1/1
f 16/1/1 14/1/1 15/1/1
f 20/3/1 18/3/1 17/3/1
f 21/3/1 18/3/1 20/3/1
f 23/1/1 20/1/1 19/1/1
f 24/1/1 22/1/1 21/1/1
f 25/1/1 23/1/1 19/1/1
f 26/1/1 23/1/1 25/1/1
f 27/1/1 22/1/1 24/1/1
f 28/2/1 26/2/1 25/2/1
f 29/2/1 26/2/1 28/2/1
f 30/1/1 22/1/1 27/1/1
f 31/1/1 29/1/1 28/1/1
f 32/1/1 22/1/1 30/1/1
f 33/1/1 22/1/1 32/1/1
f 34/1/1 31/1/1 28/1/1
f 35/2/1 33/2/1 32/2/1
f 36/2/1 33/2/1 35/2/1
f 37/1/1 34/1/1 28/1/1
f 38/1/1 36/1/1 35/1/1
f 39/1/1 37/1/1 28/1/1
f 40/1/1 37/1/1 39/1/1
f 41/1/1 36/1/1 38/1/1
f 42/1/1 36/1/1 41/1/1
f 43/3/1 41/3/1 40/3/1
f 44/3/1 41/3/1 43/3/1
f 49/3/1 46/3/1 45/3/1
f 50/3/1 46/3/1 49/3/1
f 54/3/1 48/3/1 47/3/1
f 55/3/1 48/3/1 54/3/1
f 56/3/1 52/3/1 51/3/1
f 57/3/1 52/3/1 56/3/1
f 59/1/1 54/1/1 53/1/1
f 60/1/1 59/1/1 53/1/1
f 61/1/1 58/1/1 57/1/1
f 62/1/1 58/1/1 61/1/1
f 63/1/1 60/1/1 53/1/1
f 64/1/1 60/1/1 63/1/1
f 67/1/1 58/1/1 62/1/1
f 68/1/1 58/1/1 67/1/1
f 69/3/1 65/3/1 64/3/1
f 70/3/1 65/3/1 69/3/1
f 73/3/1 67/3/1 66/3/1
f 74/3/1 67/3/1 73/3/1
f 75/3/1 72/3/1 71/3/1
f 76/3/1 72/3/1 75/3/1
f 81/3/1 78/3/1 77/3/1
f 82/3/1 78/3/1 81/3/1
f 83/3/1 80/3/1 79/3/1
f 84/3/1 80/3/1 83/3/1
f 89/3/1 86/3/1 85/3/1
f 90/3/1 86/3/1 89/3/1
f 91/3/1 88/3/1 87/3/1
f 92/3/1 88/3/1 91/3/1
f 93/3/2 94/3/2 97/3/2
f 97/3/2 94/3/2 98/3/2
f 95/3/2 96/3/2 99/3/2
f 99/3/2 96/3/2 100/3/2
f 101/3/2 102/3/2 105/3/2
f 105/3/2 102/3/2 106/3/2
f 103/3/2 104/3/2 107/3/2
f 107/3/2 104/3/2 108/3/2
f 109/3/2 110/3/2 113/3/2
f 113/3/2 110/3/2 114/3/2
f 111/3/2 112/3/2 118/3/2
f 118/3/2 112/3/2 119/3/2
f 115/3/2 116/3/2 120/3/2
f 120/3/2 116/3/2 121/3/2
f 121/1/2 122/1/2 123/1/2
f 123/1/2 122/1/2 124/1/2
f 117/1/2 118/1/2 125/1/2
f 117/1/2 125/1/2 126/1/2
f 117/1/2 126/1/2 127/1/2
f 127/1/2 126/1/2 128/1/2
f 124/1/2 122/1/2 131/1/2
f 131/1/2 122/1/2 132/1/2
f 128/3/2 129/3/2 133/3/2
f 133/3/2 129/3/2 134/3/2
f 130/3/2 131/3/2 137/3/2
f 137/3/2 131/3/2 138/3/2
f 135/3/2 136/3/2 139/3/2
f 139/3/2 136/3/2 140/3/2
f 141/3/2 142/3/2 144/3/2
f 144/3/2 142/3/2 145/3/2
f 143/1/2 144/1/2 147/1/2
f 145/1/2 146/1/2 148/1/2
f 143/1/2 147/1/2 149/1/2
f 148/1/2 146/1/2 150/1/2
f 150/1/2 146/1/2 151/1/2
f 143/1/2 149/1/2 152/1/2
f 150/2/2 151/2/2 153/2/2
f 153/2/2 151/2/2 154/2/2
f 143/1/2 152/1/2 155/1/2
f 155/1/2 152/1/2 156/1/2
f 153/1/2 154/1/2 157/1/2
f 155/2/2 156/2/2 158/2/2
f 158/2/2 156/2/2 159/2/2
f 157/1/2 154/1/2 160/1/2
f 158/1/2 159/1/2 161/1/2
f 160/1/2 154/1/2 162/1/2
f 158/1/2 161/1/2 163/1/2
f 163/1/2 161/1/2 164/1/2
f 162/1/2 154/1/2 165/1/2
f 165/1/2 154/1/2 166/1/2
f 164/3/2 165/3/2 167/3/2
f 167/3/2 165/3/2 168/3/2
f 169/1/2 170/1/2 171/1/2
f 171/1/2 170/1/2 172/1/2
f 171/2/2 172/2/2 173/2/2
f 173/2/2 172/2/2 174/2/2
f 173/1/2 174/1/2 175/1/2
f 175/1/2 174/1/2 176/1/2
f 175/2/2 176/2/2 177/2/2
f 177/2/2 176/2/2 178/2/2
f 177/1/2 178/1/2 179/1/2
f 179/1/2 178/1/2 180/1/2
f 179/2/2 180/2/2 181/2/2
f 181/2/2 180/2/2 182/2/2
f 181/1/2 182/1/2 183/1/2
f 183/1/2 182/1/2 184/1/2
f 187/1/3 186/1/3 185/1/3
f 188/1/3 186/1/3 187/1/3
f 194/1/3 190/1/3 189/1/3
f 195/2/3 191/2/3 190/2/3
f 195/1/3 190/1/3 194/1/3
f 196/1/3 192/1/3 191/1/3
f 196/2/3 191/2/3 195/2/3
f 197/1/3 192/1/3 196/1/3
f 199/3/3 194/3/3 193/3/3
f 200/3/3 194/3/3 199/3/3
f 203/3/3 198/3/3 197/3/3
f 204/3/3 198/3/3 203/3/3
f 205/1/3 201/1/3 200/1/3
f 206/2/3 202/2/3 201/2/3
f 206/1/3 201/1/3 205/1/3
f 207/1/3 203/1/3 202/1/3
f 207/2/3 202/2/3 206/2/3
f 208/1/3 203/1/3 207/1/3
f 218/1/3 210/1/3 209/1/3
f 219/2/3 211/2/3 210/2/3
f 219/1/3 210/1/3 218/1/3
f 220/1/3 212/1/3 211/1/3
f 220/2/3 211/2/3 219/2/3
f 221/2/3 213/2/3 212/2/3
f 221/1/3 212/1/3 220/1/3
f 222/1/3 214/1/3 213/1/3
f 222/2/3 213/2/3 221/2/3
f 223/2/3 215/2/3 214/2/3
f 223/1/3 214/1/3 222/1/3
f 224/1/3 216/1/3 215/1/3
f 224/2/3 215/2/3 223/2/3
f 225/1/3 216/1/3 224/1/3
f 227/3/3 218/3/3 217/3/3
f 228/3/3 218/3/3 227/3/3
f 229/3/3 226/3/3 225/3/3
f 230/3/3 226/3/3 229/3/3
f 235/3/3 232/3/3 231/3/3
f 236/3/3 232/3/3 235/3/3
f 237/3/3 234/3/3 233/3/3
f 238/3/3 234/3/3 237/3/3
f 243/3/3 240/3/3 239/3/3
f 244/3/3 240/3/3 243/3/3
f 251/3/3 242/3/3 241/3/3
f 252/3/3 242/3/3 251/3/3
f 253/1/3 245/1/3 244/1/3
f 254/2/3 246/2/3 245/2/3
f 254/1/3 245/1/3 253/1/3
f 255/1/3 247/1/3 246/1/3
f 255/2/3 246/2/3 254/2/3
f 256/2/3 248/2/3 247/2/3
f 256/1/3 247/1/3 255/1/3
f 257/1/3 249/1/3 248/1/3
f 257/2/3 248/2/3 256/2/3
f 258/2/3 250/2/3 249/2/3
f 258/1/3 249/1/3 257/1/3
f 259/1/3 251/1/3 250/1/3
f 259/2/3 250/2/3 258/2/3
f 260/1/3 251/1/3 259/1/3
f 265/3/3 262/3/3 261/3/3
f 266/3/3 262/3/3 265/3/3
f 267/3/3 264/3/3 263/3/3
f 268/3/3 264/3/3 267/3/3
f 273/3/3 270/3/3 269/3/3
f 274/3/3 270/3/3 273/3/3
f 275/3/3 272/3/3 271/3/3
f 276/3/3 272/3/3 275/3/3
f 277/3/4 278/3/4 281/3/4
f 281/3/4 278/3/4 282/3/4
f 279/3/4 280/3/4 283/3/4
f 283/3/4 280/3/4 284/3/4
f 285/3/4 286/3/4 289/3/4
f 289/3/4 286/3/4 290/3/4
f 287/3/4 288/3/4 291/3/4
f 291/3/4 288/3/4 292/3/4
f 293/1/4 294/1/4 302/1/4
f 294/2/4 295/2/4 303/2/4
f 302/1/4 294/1/4 303/1/4
f 295/1/4 296/1/4 304/1/4
f 303/2/4 295/2/4 304/2/4
f 296/2/4 297/2/4 305/2/4
f 304/1/4 296/1/4 305/1/4
f 297/1/4 298/1/4 306/1/4
f 305/2/4 297/2/4 306/2/4
f 298/2/4 299/2/4 307/2/4
f 306/1/4 298/1/4 307/1/4
f 299/1/4 300/1/4 308/1/4
f 307/2/4 299/2/4 308/2/4
f 308/1/4 300/1/4 309/1/4
f 301/3/4 302/3/4 311/3/4
f 311/3/4 302/3/4 312/3/4
f 309/3/4 310/3/4 313/3/4
f 313/3/4 310/3/4 314/3/4
f 315/3/4 316/3/4 319/3/4
f 319/3/4 316/3/4 320/3/4
f 317/3/4 318/3/4 321/3/4
f 321/3/4 318/3/4 322/3/4
f 323/3/4 324/3/4 327/3/4
f 327/3/4 324/3/4 328/3/4
f 325/3/4 326/3/4 335/3/4
f 335/3/4 326/3/4 336/3/4
f 328/1/4 329/1/4 337/1/4
f 329/2/4 330/2/4 338/2/4
f 337/1/4 329/1/4 338/1/4
f 330/1/4 331/1/4 339/1/4
f 338/2/4 330/2/4 339/2/4
f 331/2/4 332/2/4 340/2/4
f 339/1/4 331/1/4 340/1/4
f 332/1/4 333/1/4 341/1/4
f 340/2/4 332/2/4 341/2/4
f 333/2/4 334/2/4 342/2/4
f 341/1/4 333/1/4 342/1/4
f 334/1/4 335/1/4 343/1/4
f 342/2/4 334/2/4 343/2/4
f 343/1/4 335/1/4 344/1/4
f 345/1/4 346/1/4 350/1/4
f 346/2/4 347/2/4 351/2/4
f 350/1/4 346/1/4 351/1/4
f 347/1/4 348/1/4 352/1/4
f 351/2/4 347/2/4 352/2/4
f 352/1/4 348/1/4 353/1/4
f 349/3/4 350/3/4 355/3/4
f 355/3/4 350/3/4 356/3/4
f 353/3/4 354/3/4 359/3/4
f 359/3/4 354/3/4 360/3/4
f 356/1/4 357/1/4 361/1/4
f 357/2/4 358/2/4 362/2/4
f 361/1/4 357/1/4 362/1/4
f 358/1/4 359/1/4 363/1/4
f 362/2/4 358/2/4 363/2/4
f 363/1/4 359/1/4 364/1/4
f 365/1/4 366/1/4 367/1/4
f 367/1/4 366/1/4 368/1/4
f 372/3/5 370/3/5 369/3/5
f 373/3/5 370/3/5 372/3/5
f 375/3/5 372/3/5 371/3/5
f 375/3/5 374/3/5 373/3/5
f 375/3/5 373/3/5 372/3/5
f 376/3/5 374/3/5 375/3/5
f 377/3/5 374/3/5 376/3/5
f 378/3/5 374/3/5 377/3/5
f 379/3/5 377/3/5 376/3/5
f 380/3/5 377/3/5 379/3/5
f 384/3/5 382/3/5 381/3/5
f 385/3/5 382/3/5 384/3/5
f 386/3/5 382/3/5 385/3/5
f 387/3/5 382/3/5 386/3/5
f 389/3/5 384/3/5 383/3/5
f 389/3/5 385/3/5 384/3/5
f 390/3/5 385/3/5 389/3/5
f 391/3/5 388/3/5 387/3/5
f 391/3/5 387/3/5 386/3/5
f 392/3/5 388/3/5 391/3/5
f 393/3/5 389/3/5 383/3/5
f 396/3/5 388/3/5 392/3/5
f 397/3/5 394/3/5 393/3/5
f 397/3/5 393/3/5 383/3/5
f 398/3/5 394/3/5 397/3/5
f 399/3/5 394/3/5 398/3/5
f 400/3/5 396/3/5 395/3/5
f 401/3/5 388/3/5 396/3/5
f 401/3/5 396/3/5 400/3/5
f 402/3/5 388/3/5 401/3/5
f 403/3/5 399/3/5 398/3/5
f 403/3/5 400/3/5 399/3/5
f 403/3/5 401/3/5 400/3/5
f 404/3/5 401/3/5 403/3/5
f 408/1/5 406/1/5 405/1/5
f 409/1/5 406/1/5 408/1/5
f 412/1/5 408/1/5 407/1/5
f 413/1/5 408/1/5 412/1/5
f 414/1/5 410/1/5 409/1/5
f 415/1/5 410/1/5 414/1/5
f 417/1/5 412/1/5 411/1/5
f 418/1/5 412/1/5 417/1/5
f 421/1/5 416/1/5 415/1/5
f 422/1/5 416/1/5 421/1/5
f 423/1/5 419/1/5 418/1/5
f 424/1/5 419/1/5 423/1/5
f 425/1/5 421/1/5 420/1/5
f 426/1/5 421/1/5 425/1/5
f 427/1/5 425/1/5 424/1/5
f 428/1/5 425/1/5 427/1/5
f 429/1/6 430/1/6 432/1/6
f 432/1/6 430/1/6 433/1/6
f 431/1/6 432/1/6 436/1/6
f 436/1/6 432/1/6 437/1/6
f 433/1/6 434/1/6 438/1/6
f 438/1/6 434/1/6 439/1/6
f 435/1/6 436/1/6 441/1/6
f 441/1/6 436/1/6 442/1/6
f 439/1/6 440/1/6 445/1/6
f 445/1/6 440/1/6 446/1/6
f 442/1/6 443/1/6 447/1/6
f 447/1/6 443/1/6 448/1/6
f 444/1/6 445/1/6 449/1/6
f 449/1/6 445/1/6 450/1/6
f 448/1/6 449/1/6 451/1/6
f 451/1/6 449/1/6 452/1/6
f 453/3/6 454/3/6 456/3/6
f 456/3/6 454/3/6 457/3/6
f 457/3/6 454/3/6 458/3/6
f 458/3/6 454/3/6 459/3/6
f 455/3/6 456/3/6 461/3/6
f 456/3/6 457/3/6 461/3/6
f 461/3/6 457/3/6 462/3/6
f 459/3/6 460/3/6 463/3/6
f 458/3/6 459/3/6 463/3/6
f 463/3/6 460/3/6 464/3/6
f 455/3/6 461/3/6 465/3/6
f 464/3/6 460/3/6 468/3/6
f 465/3/6 466/3/6 469/3/6
f 455/3/6 465/3/6 469/3/6
f 469/3/6 466/3/6 470/3/6
f 470/3/6 466/3/6 471/3/6
f 467/3/6 468/3/6 472/3/6
f 468/3/6 460/3/6 473/3/6
f 472/3/6 468/3/6 473/3/6
f 473/3/6 460/3/6 474/3/6
f 470/3/6 471/3/6 475/3/6
f 471/3/6 472/3/6 475/3/6
f 472/3/6 473/3/6 475/3/6
f 475/3/6 473/3/6 476/3/6
f 477/3/6 478/3/6 480/3/6
f 480/3/6 478/3/6 481/3/6
f 479/3/6 480/3/6 483/3/6
f 481/3/6 482/3/6 483/3/6
f 480/3/6 481/3/6 483/3/6
f 483/3/6 482/3/6 484/3/6
f 484/3/6 482/3/6 485/3/6
f 485/3/6 482/3/6 486/3/6
f 484/3/6 485/3/6 487/3/6
f 487/3/6 485/3/6 488/3/6
