# MagicaVoxel @ Ephtracy

# group
o 

# material
mtllib Chaise2(marron).mtl
usemtl palette

# normals
vn -1 0 0
vn 1 0 0
vn 0 0 1
vn 0 0 -1
vn 0 -1 0
vn 0 1 0

# texcoords
vt 0.533203 0.5
vt 0.537109 0.5
vt 0.701172 0.5

# verts
v -1 0 0
v -1 0 -0.2
v -1 0 -0.8
v -1 0 -1
v -1 0.1 0
v -1 0.1 -0.2
v -1 0.1 -0.8
v -1 0.1 -1
v -1 0.8 -0.2
v -1 0.8 -0.8
v -1 0.9 0
v -1 0.9 -0.9
v -1 1.3 -0.8
v -1 1.3 -0.9
v -1 1.9 -0.8
v -1 1.9 -0.9
v -1 1.9 -1
v -0.9 1 -0.8
v -0.9 1 -0.9
v -0.9 1.3 -0.8
v -0.9 1.3 -0.9
v -0.9 1.9 -0.9
v -0.9 1.9 -1
v -0.9 2 -0.9
v -0.9 2 -1
v -0.8 1.5 -0.8
v -0.8 1.5 -0.9
v -0.8 1.5 -1
v -0.8 1.8 -0.8
v -0.8 1.8 -0.9
v -0.8 1.8 -1
v -0.8 1.9 -0.8
v -0.8 1.9 -0.9
v -0.8 2 -0.8
v -0.8 2 -0.9
v -0.7 1.1 -0.8
v -0.7 1.1 -0.9
v -0.7 1.1 -1
v -0.7 1.5 -0.8
v -0.7 1.5 -0.9
v -0.7 1.5 -1
v -0.4 1.1 -0.8
v -0.4 1.1 -0.9
v -0.4 1.1 -1
v -0.4 1.6 -0.8
v -0.4 1.6 -0.9
v -0.4 1.6 -1
v -0.3 1.6 -0.8
v -0.3 1.6 -0.9
v -0.3 1.6 -1
v -0.3 1.8 -0.8
v -0.3 1.8 -0.9
v -0.3 1.8 -1
v -0.2 0 0
v -0.2 0 -0.2
v -0.2 0 -0.8
v -0.2 0 -1
v -0.2 0.1 0
v -0.2 0.1 -0.2
v -0.2 0.1 -0.8
v -0.2 0.1 -1
v -0.2 0.8 0
v -0.2 0.8 -0.2
v -0.2 0.8 -0.8
v -0.2 0.8 -1
v -0.2 1.1 -0.8
v -0.2 1.1 -0.9
v -0.2 1.1 -1
v -0.2 1.4 -0.8
v -0.2 1.4 -0.9
v -0.2 1.4 -1
v -0.2 1.8 -0.8
v -0.2 1.8 -0.9
v -0.2 1.8 -1
v -0.2 1.9 -0.8
v -0.2 1.9 -0.9
v -0.2 1.9 -1
v -0.1 0.9 -0.9
v -0.1 0.9 -1
v -0.1 1 -0.9
v -0.1 1 -1
v -0.1 1.4 -0.8
v -0.1 1.4 -0.9
v -0.1 1.4 -1
v -0.1 1.8 -0.8
v -0.1 1.8 -0.9
v -0.1 1.8 -1
v -0.9 0.9 -0.9
v -0.9 0.9 -1
v -0.9 1 -0.9
v -0.9 1 -1
v -0.9 1.4 -0.8
v -0.9 1.4 -0.9
v -0.9 1.4 -1
v -0.9 1.8 -0.8
v -0.9 1.8 -0.9
v -0.9 1.8 -1
v -0.8 0 0
v -0.8 0 -0.2
v -0.8 0 -0.8
v -0.8 0 -1
v -0.8 0.1 0
v -0.8 0.1 -0.2
v -0.8 0.1 -0.8
v -0.8 0.1 -1
v -0.8 0.8 0
v -0.8 0.8 -0.2
v -0.8 0.8 -0.8
v -0.8 0.8 -1
v -0.8 1.1 -0.8
v -0.8 1.1 -0.9
v -0.8 1.1 -1
v -0.8 1.4 -0.8
v -0.8 1.4 -0.9
v -0.8 1.4 -1
v -0.8 1.8 -0.8
v -0.8 1.8 -0.9
v -0.8 1.8 -1
v -0.8 1.9 -0.8
v -0.8 1.9 -0.9
v -0.8 1.9 -1
v -0.7 1.6 -0.8
v -0.7 1.6 -0.9
v -0.7 1.6 -1
v -0.7 1.8 -0.8
v -0.7 1.8 -0.9
v -0.7 1.8 -1
v -0.6 1.1 -0.8
v -0.6 1.1 -0.9
v -0.6 1.1 -1
v -0.6 1.6 -0.8
v -0.6 1.6 -0.9
v -0.6 1.6 -1
v -0.3 1.1 -0.8
v -0.3 1.1 -0.9
v -0.3 1.1 -1
v -0.3 1.5 -0.8
v -0.3 1.5 -0.9
v -0.3 1.5 -1
v -0.2 1.5 -0.8
v -0.2 1.5 -0.9
v -0.2 1.5 -1
v -0.2 1.8 -0.8
v -0.2 1.8 -0.9
v -0.2 1.8 -1
v -0.2 1.9 -0.8
v -0.2 1.9 -0.9
v -0.2 2 -0.8
v -0.2 2 -0.9
v -0.1 1 -0.8
v -0.1 1 -0.9
v -0.1 1.3 -0.8
v -0.1 1.3 -0.9
v -0.1 1.9 -0.9
v -0.1 1.9 -1
v -0.1 2 -0.9
v -0.1 2 -1
v 0 0 0
v 0 0 -0.2
v 0 0 -0.8
v 0 0 -1
v 0 0.1 0
v 0 0.1 -0.2
v 0 0.1 -0.8
v 0 0.1 -1
v 0 0.8 -0.2
v 0 0.8 -0.8
v 0 0.9 0
v 0 0.9 -0.9
v 0 1.3 -0.8
v 0 1.3 -0.9
v 0 1.9 -0.8
v 0 1.9 -0.9
v 0 1.9 -1
v -1 0 0
v -1 0.1 0
v -1 0.9 0
v -0.8 0 0
v -0.8 0.1 0
v -0.8 0.8 0
v -0.2 0 0
v -0.2 0.1 0
v -0.2 0.8 0
v 0 0 0
v 0 0.1 0
v 0 0.9 0
v -1 0 -0.8
v -1 0.1 -0.8
v -1 0.8 -0.8
v -1 1.3 -0.8
v -1 1.9 -0.8
v -0.9 1 -0.8
v -0.9 1.3 -0.8
v -0.9 1.4 -0.8
v -0.9 1.8 -0.8
v -0.8 0 -0.8
v -0.8 0.1 -0.8
v -0.8 0.8 -0.8
v -0.8 1.1 -0.8
v -0.8 1.4 -0.8
v -0.8 1.5 -0.8
v -0.8 1.8 -0.8
v -0.8 1.9 -0.8
v -0.8 2 -0.8
v -0.7 1.1 -0.8
v -0.7 1.5 -0.8
v -0.7 1.6 -0.8
v -0.7 1.8 -0.8
v -0.6 1.1 -0.8
v -0.6 1.6 -0.8
v -0.4 1.1 -0.8
v -0.4 1.6 -0.8
v -0.3 1.1 -0.8
v -0.3 1.5 -0.8
v -0.3 1.6 -0.8
v -0.3 1.8 -0.8
v -0.2 0 -0.8
v -0.2 0.1 -0.8
v -0.2 0.8 -0.8
v -0.2 1.1 -0.8
v -0.2 1.4 -0.8
v -0.2 1.5 -0.8
v -0.2 1.8 -0.8
v -0.2 1.9 -0.8
v -0.2 2 -0.8
v -0.1 1 -0.8
v -0.1 1.3 -0.8
v -0.1 1.4 -0.8
v -0.1 1.8 -0.8
v 0 0 -0.8
v 0 0.1 -0.8
v 0 0.8 -0.8
v 0 1.3 -0.8
v 0 1.9 -0.8
v -1 0.9 -0.9
v -1 1.3 -0.9
v -0.9 0.9 -0.9
v -0.9 1 -0.9
v -0.9 1.3 -0.9
v -0.9 1.9 -0.9
v -0.9 2 -0.9
v -0.8 1.9 -0.9
v -0.8 2 -0.9
v -0.2 1.9 -0.9
v -0.2 2 -0.9
v -0.1 0.9 -0.9
v -0.1 1 -0.9
v -0.1 1.3 -0.9
v -0.1 1.9 -0.9
v -0.1 2 -0.9
v 0 0.9 -0.9
v 0 1.3 -0.9
v -1 0 -0.2
v -1 0.1 -0.2
v -1 0.8 -0.2
v -0.8 0 -0.2
v -0.8 0.1 -0.2
v -0.8 0.8 -0.2
v -0.2 0 -0.2
v -0.2 0.1 -0.2
v -0.2 0.8 -0.2
v 0 0 -0.2
v 0 0.1 -0.2
v 0 0.8 -0.2
v -1 0 -1
v -1 0.1 -1
v -1 1.9 -1
v -0.9 0.9 -1
v -0.9 1 -1
v -0.9 1.4 -1
v -0.9 1.8 -1
v -0.9 1.9 -1
v -0.9 2 -1
v -0.8 0 -1
v -0.8 0.1 -1
v -0.8 0.8 -1
v -0.8 1.1 -1
v -0.8 1.4 -1
v -0.8 1.5 -1
v -0.8 1.8 -1
v -0.8 1.9 -1
v -0.7 1.1 -1
v -0.7 1.5 -1
v -0.7 1.6 -1
v -0.7 1.8 -1
v -0.6 1.1 -1
v -0.6 1.6 -1
v -0.4 1.1 -1
v -0.4 1.6 -1
v -0.3 1.1 -1
v -0.3 1.5 -1
v -0.3 1.6 -1
v -0.3 1.8 -1
v -0.2 0 -1
v -0.2 0.1 -1
v -0.2 0.8 -1
v -0.2 1.1 -1
v -0.2 1.4 -1
v -0.2 1.5 -1
v -0.2 1.8 -1
v -0.2 1.9 -1
v -0.1 0.9 -1
v -0.1 1 -1
v -0.1 1.4 -1
v -0.1 1.8 -1
v -0.1 1.9 -1
v -0.1 2 -1
v 0 0 -1
v 0 0.1 -1
v 0 1.9 -1
v -1 0 0
v -0.8 0 0
v -0.2 0 0
v 0 0 0
v -1 0 -0.2
v -0.8 0 -0.2
v -0.2 0 -0.2
v 0 0 -0.2
v -1 0 -0.8
v -0.8 0 -0.8
v -0.2 0 -0.8
v 0 0 -0.8
v -1 0 -1
v -0.8 0 -1
v -0.2 0 -1
v 0 0 -1
v -0.8 0.8 0
v -0.2 0.8 0
v -1 0.8 -0.2
v -0.8 0.8 -0.2
v -0.2 0.8 -0.2
v 0 0.8 -0.2
v -1 0.8 -0.8
v -0.8 0.8 -0.8
v -0.2 0.8 -0.8
v 0 0.8 -0.8
v -0.8 0.8 -1
v -0.2 0.8 -1
v -0.9 1 -0.8
v -0.1 1 -0.8
v -0.9 1 -0.9
v -0.1 1 -0.9
v -0.9 1 -1
v -0.1 1 -1
v -1 1.3 -0.8
v -0.9 1.3 -0.8
v -0.1 1.3 -0.8
v 0 1.3 -0.8
v -1 1.3 -0.9
v -0.9 1.3 -0.9
v -0.1 1.3 -0.9
v 0 1.3 -0.9
v -0.8 1.5 -0.8
v -0.7 1.5 -0.8
v -0.3 1.5 -0.8
v -0.2 1.5 -0.8
v -0.8 1.5 -0.9
v -0.7 1.5 -0.9
v -0.3 1.5 -0.9
v -0.2 1.5 -0.9
v -0.8 1.5 -1
v -0.7 1.5 -1
v -0.3 1.5 -1
v -0.2 1.5 -1
v -0.9 1.8 -0.8
v -0.8 1.8 -0.8
v -0.2 1.8 -0.8
v -0.1 1.8 -0.8
v -0.9 1.8 -0.9
v -0.8 1.8 -0.9
v -0.2 1.8 -0.9
v -0.1 1.8 -0.9
v -0.9 1.8 -1
v -0.8 1.8 -1
v -0.2 1.8 -1
v -0.1 1.8 -1
v -0.8 1.9 -0.8
v -0.2 1.9 -0.8
v -0.8 1.9 -0.9
v -0.2 1.9 -0.9
v -0.8 1.9 -1
v -0.2 1.9 -1
v -1 0.9 0
v 0 0.9 0
v -1 0.9 -0.9
v -0.9 0.9 -0.9
v -0.1 0.9 -0.9
v 0 0.9 -0.9
v -0.9 0.9 -1
v -0.1 0.9 -1
v -0.8 1.1 -0.8
v -0.7 1.1 -0.8
v -0.6 1.1 -0.8
v -0.4 1.1 -0.8
v -0.3 1.1 -0.8
v -0.2 1.1 -0.8
v -0.8 1.1 -0.9
v -0.7 1.1 -0.9
v -0.6 1.1 -0.9
v -0.4 1.1 -0.9
v -0.3 1.1 -0.9
v -0.2 1.1 -0.9
v -0.8 1.1 -1
v -0.7 1.1 -1
v -0.6 1.1 -1
v -0.4 1.1 -1
v -0.3 1.1 -1
v -0.2 1.1 -1
v -0.9 1.4 -0.8
v -0.8 1.4 -0.8
v -0.2 1.4 -0.8
v -0.1 1.4 -0.8
v -0.9 1.4 -0.9
v -0.8 1.4 -0.9
v -0.2 1.4 -0.9
v -0.1 1.4 -0.9
v -0.9 1.4 -1
v -0.8 1.4 -1
v -0.2 1.4 -1
v -0.1 1.4 -1
v -0.7 1.6 -0.8
v -0.6 1.6 -0.8
v -0.4 1.6 -0.8
v -0.3 1.6 -0.8
v -0.7 1.6 -0.9
v -0.6 1.6 -0.9
v -0.4 1.6 -0.9
v -0.3 1.6 -0.9
v -0.7 1.6 -1
v -0.6 1.6 -1
v -0.4 1.6 -1
v -0.3 1.6 -1
v -0.8 1.8 -0.8
v -0.7 1.8 -0.8
v -0.3 1.8 -0.8
v -0.2 1.8 -0.8
v -0.8 1.8 -0.9
v -0.7 1.8 -0.9
v -0.3 1.8 -0.9
v -0.2 1.8 -0.9
v -0.8 1.8 -1
v -0.7 1.8 -1
v -0.3 1.8 -1
v -0.2 1.8 -1
v -1 1.9 -0.8
v -0.8 1.9 -0.8
v -0.2 1.9 -0.8
v 0 1.9 -0.8
v -1 1.9 -0.9
v -0.9 1.9 -0.9
v -0.8 1.9 -0.9
v -0.2 1.9 -0.9
v -0.1 1.9 -0.9
v 0 1.9 -0.9
v -1 1.9 -1
v -0.9 1.9 -1
v -0.1 1.9 -1
v 0 1.9 -1
v -0.8 2 -0.8
v -0.2 2 -0.8
v -0.9 2 -0.9
v -0.8 2 -0.9
v -0.2 2 -0.9
v -0.1 2 -0.9
v -0.9 2 -1
v -0.1 2 -1

# faces
f 5/3/1 2/3/1 1/3/1
f 6/3/1 2/3/1 5/3/1
f 7/3/1 4/3/1 3/3/1
f 8/3/1 4/3/1 7/3/1
f 9/2/1 6/2/1 5/2/1
f 10/2/1 8/2/1 7/2/1
f 11/2/1 9/2/1 5/2/1
f 11/2/1 10/2/1 9/2/1
f 12/2/1 8/2/1 10/2/1
f 12/2/1 10/2/1 11/2/1
f 14/2/1 8/2/1 12/2/1
f 15/1/1 14/1/1 13/1/1
f 16/2/1 8/2/1 14/2/1
f 16/1/1 14/1/1 15/1/1
f 17/2/1 8/2/1 16/2/1
f 20/1/1 19/1/1 18/1/1
f 21/1/1 19/1/1 20/1/1
f 24/2/1 23/2/1 22/2/1
f 25/2/1 23/2/1 24/2/1
f 29/1/1 27/1/1 26/1/1
f 30/2/1 28/2/1 27/2/1
f 30/1/1 27/1/1 29/1/1
f 31/2/1 28/2/1 30/2/1
f 34/1/1 33/1/1 32/1/1
f 35/1/1 33/1/1 34/1/1
f 39/1/1 37/1/1 36/1/1
f 40/2/1 38/2/1 37/2/1
f 40/1/1 37/1/1 39/1/1
f 41/2/1 38/2/1 40/2/1
f 45/1/1 43/1/1 42/1/1
f 46/2/1 44/2/1 43/2/1
f 46/1/1 43/1/1 45/1/1
f 47/2/1 44/2/1 46/2/1
f 51/1/1 49/1/1 48/1/1
f 52/2/1 50/2/1 49/2/1
f 52/1/1 49/1/1 51/1/1
f 53/2/1 50/2/1 52/2/1
f 58/3/1 55/3/1 54/3/1
f 59/3/1 55/3/1 58/3/1
f 60/3/1 57/3/1 56/3/1
f 61/3/1 57/3/1 60/3/1
f 62/2/1 59/2/1 58/2/1
f 63/2/1 59/2/1 62/2/1
f 64/2/1 61/2/1 60/2/1
f 65/2/1 61/2/1 64/2/1
f 69/1/1 67/1/1 66/1/1
f 70/2/1 68/2/1 67/2/1
f 70/1/1 67/1/1 69/1/1
f 71/2/1 68/2/1 70/2/1
f 75/1/1 73/1/1 72/1/1
f 76/2/1 74/2/1 73/2/1
f 76/1/1 73/1/1 75/1/1
f 77/2/1 74/2/1 76/2/1
f 80/2/1 79/2/1 78/2/1
f 81/2/1 79/2/1 80/2/1
f 85/1/1 83/1/1 82/1/1
f 86/2/1 84/2/1 83/2/1
f 86/1/1 83/1/1 85/1/1
f 87/2/1 84/2/1 86/2/1
f 88/2/2 89/2/2 90/2/2
f 90/2/2 89/2/2 91/2/2
f 92/1/2 93/1/2 95/1/2
f 93/2/2 94/2/2 96/2/2
f 95/1/2 93/1/2 96/1/2
f 96/2/2 94/2/2 97/2/2
f 98/3/2 99/3/2 102/3/2
f 102/3/2 99/3/2 103/3/2
f 100/3/2 101/3/2 104/3/2
f 104/3/2 101/3/2 105/3/2
f 102/2/2 103/2/2 106/2/2
f 106/2/2 103/2/2 107/2/2
f 104/2/2 105/2/2 108/2/2
f 108/2/2 105/2/2 109/2/2
f 110/1/2 111/1/2 113/1/2
f 111/2/2 112/2/2 114/2/2
f 113/1/2 111/1/2 114/1/2
f 114/2/2 112/2/2 115/2/2
f 116/1/2 117/1/2 119/1/2
f 117/2/2 118/2/2 120/2/2
f 119/1/2 117/1/2 120/1/2
f 120/2/2 118/2/2 121/2/2
f 122/1/2 123/1/2 125/1/2
f 123/2/2 124/2/2 126/2/2
f 125/1/2 123/1/2 126/1/2
f 126/2/2 124/2/2 127/2/2
f 128/1/2 129/1/2 131/1/2
f 129/2/2 130/2/2 132/2/2
f 131/1/2 129/1/2 132/1/2
f 132/2/2 130/2/2 133/2/2
f 134/1/2 135/1/2 137/1/2
f 135/2/2 136/2/2 138/2/2
f 137/1/2 135/1/2 138/1/2
f 138/2/2 136/2/2 139/2/2
f 140/1/2 141/1/2 143/1/2
f 141/2/2 142/2/2 144/2/2
f 143/1/2 141/1/2 144/1/2
f 144/2/2 142/2/2 145/2/2
f 146/1/2 147/1/2 148/1/2
f 148/1/2 147/1/2 149/1/2
f 150/1/2 151/1/2 152/1/2
f 152/1/2 151/1/2 153/1/2
f 154/2/2 155/2/2 156/2/2
f 156/2/2 155/2/2 157/2/2
f 158/3/2 159/3/2 162/3/2
f 162/3/2 159/3/2 163/3/2
f 160/3/2 161/3/2 164/3/2
f 164/3/2 161/3/2 165/3/2
f 162/2/2 163/2/2 166/2/2
f 164/2/2 165/2/2 167/2/2
f 162/2/2 166/2/2 168/2/2
f 166/2/2 167/2/2 168/2/2
f 167/2/2 165/2/2 169/2/2
f 168/2/2 167/2/2 169/2/2
f 169/2/2 165/2/2 171/2/2
f 170/1/2 171/1/2 172/1/2
f 171/2/2 165/2/2 173/2/2
f 172/1/2 171/1/2 173/1/2
f 173/2/2 165/2/2 174/2/2
f 178/3/3 176/3/3 175/3/3
f 179/2/3 177/2/3 176/2/3
f 179/3/3 176/3/3 178/3/3
f 180/2/3 177/2/3 179/2/3
f 183/2/3 177/2/3 180/2/3
f 184/3/3 182/3/3 181/3/3
f 185/2/3 183/2/3 182/2/3
f 185/3/3 182/3/3 184/3/3
f 186/2/3 177/2/3 183/2/3
f 186/2/3 183/2/3 185/2/3
f 193/1/3 191/1/3 190/1/3
f 194/1/3 191/1/3 193/1/3
f 195/1/3 191/1/3 194/1/3
f 196/3/3 188/3/3 187/3/3
f 197/2/3 189/2/3 188/2/3
f 197/3/3 188/3/3 196/3/3
f 198/2/3 189/2/3 197/2/3
f 199/1/3 193/1/3 192/1/3
f 199/1/3 194/1/3 193/1/3
f 200/1/3 194/1/3 199/1/3
f 202/1/3 191/1/3 195/1/3
f 203/1/3 191/1/3 202/1/3
f 205/1/3 199/1/3 192/1/3
f 206/1/3 202/1/3 201/1/3
f 207/1/3 202/1/3 206/1/3
f 208/1/3 202/1/3 207/1/3
f 209/1/3 205/1/3 192/1/3
f 209/1/3 206/1/3 205/1/3
f 209/1/3 207/1/3 206/1/3
f 210/1/3 207/1/3 209/1/3
f 211/1/3 209/1/3 192/1/3
f 213/1/3 211/1/3 192/1/3
f 213/1/3 212/1/3 211/1/3
f 214/1/3 212/1/3 213/1/3
f 215/1/3 212/1/3 214/1/3
f 220/1/3 213/1/3 192/1/3
f 222/1/3 215/1/3 214/1/3
f 222/1/3 216/1/3 215/1/3
f 223/1/3 216/1/3 222/1/3
f 224/1/3 204/1/3 203/1/3
f 225/1/3 204/1/3 224/1/3
f 226/1/3 221/1/3 220/1/3
f 226/1/3 220/1/3 192/1/3
f 227/1/3 221/1/3 226/1/3
f 228/1/3 221/1/3 227/1/3
f 229/1/3 224/1/3 223/1/3
f 230/3/3 218/3/3 217/3/3
f 231/2/3 219/2/3 218/2/3
f 231/3/3 218/3/3 230/3/3
f 232/2/3 219/2/3 231/2/3
f 233/1/3 228/1/3 227/1/3
f 233/1/3 229/1/3 228/1/3
f 234/1/3 224/1/3 229/1/3
f 234/1/3 229/1/3 233/1/3
f 237/2/3 236/2/3 235/2/3
f 238/2/3 236/2/3 237/2/3
f 239/2/3 236/2/3 238/2/3
f 242/2/3 241/2/3 240/2/3
f 243/2/3 241/2/3 242/2/3
f 249/2/3 245/2/3 244/2/3
f 250/2/3 245/2/3 249/2/3
f 251/2/3 248/2/3 247/2/3
f 251/2/3 247/2/3 246/2/3
f 252/2/3 248/2/3 251/2/3
f 253/3/4 254/3/4 256/3/4
f 254/2/4 255/2/4 257/2/4
f 256/3/4 254/3/4 257/3/4
f 257/2/4 255/2/4 258/2/4
f 259/3/4 260/3/4 262/3/4
f 260/2/4 261/2/4 263/2/4
f 262/3/4 260/3/4 263/3/4
f 263/2/4 261/2/4 264/2/4
f 266/2/4 267/2/4 268/2/4
f 268/2/4 267/2/4 269/2/4
f 269/2/4 267/2/4 270/2/4
f 270/2/4 267/2/4 271/2/4
f 271/2/4 267/2/4 272/2/4
f 265/3/4 266/3/4 274/3/4
f 266/2/4 268/2/4 275/2/4
f 274/3/4 266/3/4 275/3/4
f 275/2/4 268/2/4 276/2/4
f 269/2/4 270/2/4 277/2/4
f 277/2/4 270/2/4 278/2/4
f 272/2/4 273/2/4 280/2/4
f 271/2/4 272/2/4 280/2/4
f 280/2/4 273/2/4 281/2/4
f 269/2/4 277/2/4 282/2/4
f 279/2/4 280/2/4 283/2/4
f 283/2/4 280/2/4 284/2/4
f 284/2/4 280/2/4 285/2/4
f 269/2/4 282/2/4 286/2/4
f 282/2/4 283/2/4 286/2/4
f 283/2/4 284/2/4 286/2/4
f 286/2/4 284/2/4 287/2/4
f 269/2/4 286/2/4 288/2/4
f 269/2/4 288/2/4 290/2/4
f 288/2/4 289/2/4 290/2/4
f 290/2/4 289/2/4 291/2/4
f 291/2/4 289/2/4 292/2/4
f 276/2/4 268/2/4 296/2/4
f 269/2/4 290/2/4 297/2/4
f 291/2/4 292/2/4 299/2/4
f 292/2/4 293/2/4 299/2/4
f 299/2/4 293/2/4 300/2/4
f 281/2/4 273/2/4 301/2/4
f 295/2/4 296/2/4 302/2/4
f 296/2/4 268/2/4 302/2/4
f 297/2/4 298/2/4 303/2/4
f 269/2/4 297/2/4 303/2/4
f 303/2/4 298/2/4 304/2/4
f 300/2/4 301/2/4 305/2/4
f 301/2/4 273/2/4 306/2/4
f 305/2/4 301/2/4 306/2/4
f 306/2/4 273/2/4 307/2/4
f 294/3/4 295/3/4 308/3/4
f 303/2/4 304/2/4 309/2/4
f 308/3/4 295/3/4 309/3/4
f 295/2/4 302/2/4 309/2/4
f 305/2/4 306/2/4 309/2/4
f 304/2/4 305/2/4 309/2/4
f 302/2/4 303/2/4 309/2/4
f 309/2/4 306/2/4 310/2/4
f 315/3/5 312/3/5 311/3/5
f 316/3/5 312/3/5 315/3/5
f 317/3/5 314/3/5 313/3/5
f 318/3/5 314/3/5 317/3/5
f 323/3/5 320/3/5 319/3/5
f 324/3/5 320/3/5 323/3/5
f 325/3/5 322/3/5 321/3/5
f 326/3/5 322/3/5 325/3/5
f 330/2/5 328/2/5 327/2/5
f 331/2/5 328/2/5 330/2/5
f 333/2/5 330/2/5 329/2/5
f 333/2/5 332/2/5 331/2/5
f 333/2/5 331/2/5 330/2/5
f 334/2/5 332/2/5 333/2/5
f 335/2/5 332/2/5 334/2/5
f 336/2/5 332/2/5 335/2/5
f 337/2/5 335/2/5 334/2/5
f 338/2/5 335/2/5 337/2/5
f 341/1/5 340/1/5 339/1/5
f 342/1/5 340/1/5 341/1/5
f 343/2/5 342/2/5 341/2/5
f 344/2/5 342/2/5 343/2/5
f 349/1/5 346/1/5 345/1/5
f 350/1/5 346/1/5 349/1/5
f 351/1/5 348/1/5 347/1/5
f 352/1/5 348/1/5 351/1/5
f 357/1/5 354/1/5 353/1/5
f 358/1/5 354/1/5 357/1/5
f 359/1/5 356/1/5 355/1/5
f 360/1/5 356/1/5 359/1/5
f 361/2/5 358/2/5 357/2/5
f 362/2/5 358/2/5 361/2/5
f 363/2/5 360/2/5 359/2/5
f 364/2/5 360/2/5 363/2/5
f 369/1/5 366/1/5 365/1/5
f 370/1/5 366/1/5 369/1/5
f 371/1/5 368/1/5 367/1/5
f 372/1/5 368/1/5 371/1/5
f 373/2/5 370/2/5 369/2/5
f 374/2/5 370/2/5 373/2/5
f 375/2/5 372/2/5 371/2/5
f 376/2/5 372/2/5 375/2/5
f 379/1/5 378/1/5 377/1/5
f 380/1/5 378/1/5 379/1/5
f 381/2/5 380/2/5 379/2/5
f 382/2/5 380/2/5 381/2/5
f 383/2/6 384/2/6 385/2/6
f 385/2/6 384/2/6 386/2/6
f 386/2/6 384/2/6 387/2/6
f 387/2/6 384/2/6 388/2/6
f 386/2/6 387/2/6 389/2/6
f 389/2/6 387/2/6 390/2/6
f 391/1/6 392/1/6 397/1/6
f 397/1/6 392/1/6 398/1/6
f 393/1/6 394/1/6 399/1/6
f 399/1/6 394/1/6 400/1/6
f 395/1/6 396/1/6 401/1/6
f 401/1/6 396/1/6 402/1/6
f 397/2/6 398/2/6 403/2/6
f 403/2/6 398/2/6 404/2/6
f 399/2/6 400/2/6 405/2/6
f 405/2/6 400/2/6 406/2/6
f 401/2/6 402/2/6 407/2/6
f 407/2/6 402/2/6 408/2/6
f 409/1/6 410/1/6 413/1/6
f 413/1/6 410/1/6 414/1/6
f 411/1/6 412/1/6 415/1/6
f 415/1/6 412/1/6 416/1/6
f 413/2/6 414/2/6 417/2/6
f 417/2/6 414/2/6 418/2/6
f 415/2/6 416/2/6 419/2/6
f 419/2/6 416/2/6 420/2/6
f 421/1/6 422/1/6 425/1/6
f 425/1/6 422/1/6 426/1/6
f 423/1/6 424/1/6 427/1/6
f 427/1/6 424/1/6 428/1/6
f 425/2/6 426/2/6 429/2/6
f 429/2/6 426/2/6 430/2/6
f 427/2/6 428/2/6 431/2/6
f 431/2/6 428/2/6 432/2/6
f 433/1/6 434/1/6 437/1/6
f 437/1/6 434/1/6 438/1/6
f 435/1/6 436/1/6 439/1/6
f 439/1/6 436/1/6 440/1/6
f 437/2/6 438/2/6 441/2/6
f 441/2/6 438/2/6 442/2/6
f 439/2/6 440/2/6 443/2/6
f 443/2/6 440/2/6 444/2/6
f 445/1/6 446/1/6 449/1/6
f 449/1/6 446/1/6 450/1/6
f 450/1/6 446/1/6 451/1/6
f 447/1/6 448/1/6 452/1/6
f 452/1/6 448/1/6 453/1/6
f 453/1/6 448/1/6 454/1/6
f 449/2/6 450/2/6 455/2/6
f 455/2/6 450/2/6 456/2/6
f 453/2/6 454/2/6 457/2/6
f 457/2/6 454/2/6 458/2/6
f 459/1/6 460/1/6 462/1/6
f 462/1/6 460/1/6 463/1/6
f 461/2/6 462/2/6 465/2/6
f 463/2/6 464/2/6 465/2/6
f 462/2/6 463/2/6 465/2/6
f 465/2/6 464/2/6 466/2/6
