# MagicaVoxel @ Ephtracy

# group
o 

# material
mtllib Assiette1(Battle-Scarred).mtl
usemtl palette

# normals
vn -1 0 0
vn 1 0 0
vn 0 0 1
vn 0 0 -1
vn 0 -1 0
vn 0 1 0

# texcoords
vt 0.931641 0.5
vt 0.962891 0.5
vt 0.966797 0.5

# verts
v -1.4 0.1 1
v -1.4 0.1 0.5
v -1.4 0.3 1
v -1.4 0.3 0.5
v -1.3 0.1 1.2
v -1.3 0.1 1
v -1.3 0.1 0.5
v -1.3 0.1 0.3
v -1.3 0.3 1.2
v -1.3 0.3 1
v -1.3 0.3 0.5
v -1.3 0.3 0.3
v -1.2 0.1 1.3
v -1.2 0.1 1.2
v -1.2 0.1 0.3
v -1.2 0.1 0.2
v -1.2 0.2 1.3
v -1.2 0.2 1.2
v -1.2 0.2 0.3
v -1.2 0.2 0.2
v -1.2 0.3 1.3
v -1.2 0.3 1.2
v -1.2 0.3 0.3
v -1.2 0.3 0.2
v -1.1 0 1
v -1.1 0 0.9
v -1.1 0 0.7
v -1.1 0 0.6
v -1.1 0 0.5
v -1.1 0.1 1.4
v -1.1 0.1 1.3
v -1.1 0.1 1
v -1.1 0.1 0.9
v -1.1 0.1 0.7
v -1.1 0.1 0.6
v -1.1 0.1 0.5
v -1.1 0.1 0.2
v -1.1 0.1 0.1
v -1.1 0.2 1.3
v -1.1 0.2 0.2
v -1.1 0.3 1.4
v -1.1 0.3 1.3
v -1.1 0.3 0.2
v -1.1 0.3 0.1
v -1 0 1.1
v -1 0 1
v -1 0 0.5
v -1 0 0.4
v -1 0.1 1.1
v -1 0.1 1
v -1 0.1 0.5
v -1 0.1 0.4
v -0.9 0 1.2
v -0.9 0 1.1
v -0.9 0 0.4
v -0.9 0 0.3
v -0.9 0.1 1.5
v -0.9 0.1 1.4
v -0.9 0.1 1.2
v -0.9 0.1 1.1
v -0.9 0.1 0.4
v -0.9 0.1 0.3
v -0.9 0.1 0.1
v -0.9 0.1 0
v -0.9 0.3 1.5
v -0.9 0.3 1.4
v -0.9 0.3 0.1
v -0.9 0.3 0
v -0.4 0.1 0.4
v -0.4 0.1 0.3
v -0.4 0.2 0.4
v -0.4 0.2 0.3
v -0.4 0.2 0.2
v -0.4 0.3 0.3
v -0.4 0.3 0.2
v -0.3 0.1 0.5
v -0.3 0.1 0.4
v -0.3 0.2 0.5
v -0.3 0.2 0.4
v -0.3 0.2 0.3
v -0.3 0.3 0.4
v -0.3 0.3 0.3
v -0.2 0.1 0.6
v -0.2 0.1 0.5
v -0.2 0.2 0.6
v -0.2 0.2 0.5
v -0.2 0.2 0.4
v -0.2 0.3 0.5
v -0.2 0.3 0.4
v -1.2 0.2 1
v -1.2 0.2 0.7
v -1.2 0.2 0.5
v -1.2 0.3 1
v -1.2 0.3 0.5
v -1.1 0.1 1
v -1.1 0.1 0.9
v -1.1 0.1 0.7
v -1.1 0.1 0.6
v -1.1 0.1 0.5
v -1.1 0.2 1.1
v -1.1 0.2 1
v -1.1 0.2 0.7
v -1.1 0.2 0.5
v -1.1 0.2 0.4
v -1.1 0.3 1.1
v -1.1 0.3 1
v -1.1 0.3 0.5
v -1.1 0.3 0.4
v -1 0.1 1.1
v -1 0.1 1
v -1 0.1 0.5
v -1 0.1 0.4
v -1 0.2 1.2
v -1 0.2 1.1
v -1 0.2 1
v -1 0.2 0.5
v -1 0.2 0.4
v -1 0.2 0.3
v -1 0.3 1.2
v -1 0.3 1.1
v -1 0.3 0.4
v -1 0.3 0.3
v -0.9 0.1 1.2
v -0.9 0.1 1.1
v -0.9 0.1 0.4
v -0.9 0.1 0.3
v -0.9 0.2 1.3
v -0.9 0.2 1.2
v -0.9 0.2 1.1
v -0.9 0.2 0.4
v -0.9 0.2 0.3
v -0.9 0.2 0.2
v -0.9 0.3 1.3
v -0.9 0.3 1.2
v -0.9 0.3 0.3
v -0.9 0.3 0.2
v -0.7 0 1.2
v -0.7 0 1.1
v -0.7 0 1
v -0.7 0.1 1.2
v -0.7 0.1 1.1
v -0.7 0.1 1
v -0.6 0.1 1.3
v -0.6 0.1 1.2
v -0.6 0.2 1.4
v -0.6 0.2 1.3
v -0.6 0.2 1.2
v -0.6 0.3 1.4
v -0.6 0.3 1.3
v -0.5 0 1
v -0.5 0 0.8
v -0.5 0.1 1.5
v -0.5 0.1 1.3
v -0.5 0.1 1
v -0.5 0.1 0.8
v -0.5 0.2 1.4
v -0.5 0.2 1.3
v -0.5 0.3 1.5
v -0.5 0.3 1.4
v -0.4 0 0.8
v -0.4 0 0.7
v -0.4 0 0.4
v -0.4 0 0.3
v -0.4 0.1 0.8
v -0.4 0.1 0.7
v -0.4 0.1 0.4
v -0.4 0.1 0.3
v -0.4 0.1 0.1
v -0.4 0.1 0
v -0.4 0.3 0.1
v -0.4 0.3 0
v -0.3 0 0.7
v -0.3 0 0.6
v -0.3 0 0.5
v -0.3 0 0.4
v -0.3 0.1 0.7
v -0.3 0.1 0.6
v -0.3 0.1 0.5
v -0.3 0.1 0.4
v -0.2 0 0.6
v -0.2 0 0.5
v -0.2 0.1 0.6
v -0.2 0.1 0.5
v -0.2 0.1 0.2
v -0.2 0.1 0.1
v -0.2 0.2 0.2
v -0.2 0.3 0.2
v -0.2 0.3 0.1
v -0.1 0.1 0.6
v -0.1 0.1 0.5
v -0.1 0.1 0.3
v -0.1 0.1 0.2
v -0.1 0.2 0.6
v -0.1 0.2 0.5
v -0.1 0.2 0.3
v -0.1 0.2 0.2
v -0.1 0.3 0.3
v -0.1 0.3 0.2
v 0 0.1 0.5
v 0 0.1 0.3
v 0 0.3 0.5
v 0 0.3 0.3
v -0.9 0.1 1.5
v -0.9 0.3 1.5
v -0.5 0.1 1.5
v -0.5 0.3 1.5
v -1.1 0.1 1.4
v -1.1 0.3 1.4
v -0.9 0.1 1.4
v -0.9 0.3 1.4
v -1.2 0.1 1.3
v -1.2 0.2 1.3
v -1.2 0.3 1.3
v -1.1 0.1 1.3
v -1.1 0.2 1.3
v -1.1 0.3 1.3
v -1.3 0.1 1.2
v -1.3 0.3 1.2
v -1.2 0.1 1.2
v -1.2 0.2 1.2
v -1.2 0.3 1.2
v -0.9 0 1.2
v -0.9 0.1 1.2
v -0.8 0 1.2
v -0.8 0.1 1.2
v -0.7 0 1.2
v -0.7 0.1 1.2
v -1 0 1.1
v -1 0.1 1.1
v -0.9 0 1.1
v -0.9 0.1 1.1
v -1.4 0.1 1
v -1.4 0.3 1
v -1.3 0.1 1
v -1.3 0.3 1
v -1.1 0 1
v -1.1 0.1 1
v -1 0 1
v -1 0.1 1
v -0.7 0 1
v -0.7 0.1 1
v -0.5 0 1
v -0.5 0.1 1
v -0.5 0 0.8
v -0.5 0.1 0.8
v -0.4 0 0.8
v -0.4 0.1 0.8
v -0.4 0 0.7
v -0.4 0.1 0.7
v -0.3 0 0.7
v -0.3 0.1 0.7
v -0.3 0 0.6
v -0.3 0.1 0.6
v -0.2 0 0.6
v -0.2 0.1 0.6
v -0.2 0.2 0.6
v -0.1 0.1 0.6
v -0.1 0.2 0.6
v -1.2 0.2 0.5
v -1.2 0.3 0.5
v -1.1 0.1 0.5
v -1.1 0.2 0.5
v -1.1 0.3 0.5
v -1 0.1 0.5
v -1 0.2 0.5
v -0.3 0.1 0.5
v -0.3 0.2 0.5
v -0.2 0.1 0.5
v -0.2 0.2 0.5
v -0.2 0.3 0.5
v -0.1 0.1 0.5
v -0.1 0.2 0.5
v 0 0.1 0.5
v 0 0.3 0.5
v -1.1 0.2 0.4
v -1.1 0.3 0.4
v -1 0.1 0.4
v -1 0.2 0.4
v -1 0.3 0.4
v -0.9 0.1 0.4
v -0.9 0.2 0.4
v -0.4 0.1 0.4
v -0.4 0.2 0.4
v -0.3 0.1 0.4
v -0.3 0.2 0.4
v -0.3 0.3 0.4
v -0.2 0.2 0.4
v -0.2 0.3 0.4
v -1 0.2 0.3
v -1 0.3 0.3
v -0.9 0.1 0.3
v -0.9 0.2 0.3
v -0.9 0.3 0.3
v -0.8 0.1 0.3
v -0.8 0.2 0.3
v -0.7 0.1 0.3
v -0.7 0.2 0.3
v -0.5 0.1 0.3
v -0.4 0.1 0.3
v -0.4 0.2 0.3
v -0.4 0.3 0.3
v -0.3 0.2 0.3
v -0.3 0.3 0.3
v -0.9 0.2 0.2
v -0.9 0.3 0.2
v -0.8 0.2 0.2
v -0.8 0.3 0.2
v -0.7 0.2 0.2
v -0.6 0.2 0.2
v -0.6 0.3 0.2
v -0.4 0.2 0.2
v -0.4 0.3 0.2
v -0.6 0.2 1.4
v -0.6 0.3 1.4
v -0.5 0.2 1.4
v -0.5 0.3 1.4
v -0.9 0.2 1.3
v -0.9 0.3 1.3
v -0.7 0.2 1.3
v -0.6 0.1 1.3
v -0.6 0.2 1.3
v -0.6 0.3 1.3
v -0.5 0.1 1.3
v -0.5 0.2 1.3
v -1 0.2 1.2
v -1 0.3 1.2
v -0.9 0.1 1.2
v -0.9 0.2 1.2
v -0.9 0.3 1.2
v -0.8 0.1 1.2
v -0.7 0.1 1.2
v -0.7 0.2 1.2
v -0.6 0.1 1.2
v -0.6 0.2 1.2
v -1.1 0.2 1.1
v -1.1 0.3 1.1
v -1 0.1 1.1
v -1 0.2 1.1
v -1 0.3 1.1
v -0.9 0.1 1.1
v -0.9 0.2 1.1
v -1.2 0.2 1
v -1.2 0.3 1
v -1.1 0.1 1
v -1.1 0.2 1
v -1.1 0.3 1
v -1 0.1 1
v -1 0.2 1
v -1.4 0.1 0.5
v -1.4 0.3 0.5
v -1.3 0.1 0.5
v -1.3 0.3 0.5
v -1.1 0 0.5
v -1.1 0.1 0.5
v -1 0 0.5
v -1 0.1 0.5
v -0.3 0 0.5
v -0.3 0.1 0.5
v -0.2 0 0.5
v -0.2 0.1 0.5
v -1 0 0.4
v -1 0.1 0.4
v -0.9 0 0.4
v -0.9 0.1 0.4
v -0.4 0 0.4
v -0.4 0.1 0.4
v -0.3 0 0.4
v -0.3 0.1 0.4
v -1.3 0.1 0.3
v -1.3 0.3 0.3
v -1.2 0.1 0.3
v -1.2 0.2 0.3
v -1.2 0.3 0.3
v -0.9 0 0.3
v -0.9 0.1 0.3
v -0.8 0 0.3
v -0.8 0.1 0.3
v -0.7 0.1 0.3
v -0.5 0 0.3
v -0.5 0.1 0.3
v -0.4 0 0.3
v -0.4 0.1 0.3
v -0.1 0.1 0.3
v -0.1 0.2 0.3
v -0.1 0.3 0.3
v 0 0.1 0.3
v 0 0.3 0.3
v -1.2 0.1 0.2
v -1.2 0.2 0.2
v -1.2 0.3 0.2
v -1.1 0.1 0.2
v -1.1 0.2 0.2
v -1.1 0.3 0.2
v -0.2 0.1 0.2
v -0.2 0.2 0.2
v -0.2 0.3 0.2
v -0.1 0.1 0.2
v -0.1 0.2 0.2
v -0.1 0.3 0.2
v -1.1 0.1 0.1
v -1.1 0.3 0.1
v -0.9 0.1 0.1
v -0.9 0.3 0.1
v -0.4 0.1 0.1
v -0.4 0.3 0.1
v -0.2 0.1 0.1
v -0.2 0.3 0.1
v -0.9 0.1 0
v -0.9 0.3 0
v -0.7 0.2 0
v -0.7 0.3 0
v -0.6 0.2 0
v -0.6 0.3 0
v -0.4 0.1 0
v -0.4 0.3 0
v -0.9 0 1.2
v -0.8 0 1.2
v -0.7 0 1.2
v -1 0 1.1
v -0.9 0 1.1
v -0.8 0 1.1
v -0.7 0 1.1
v -1.1 0 1
v -1 0 1
v -0.7 0 1
v -0.5 0 1
v -1.1 0 0.9
v -1 0 0.9
v -1 0 0.8
v -0.8 0 0.8
v -0.5 0 0.8
v -0.4 0 0.8
v -1.1 0 0.7
v -1 0 0.7
v -0.8 0 0.7
v -0.4 0 0.7
v -0.3 0 0.7
v -1.1 0 0.6
v -1 0 0.6
v -0.3 0 0.6
v -0.2 0 0.6
v -1.1 0 0.5
v -1 0 0.5
v -0.3 0 0.5
v -0.2 0 0.5
v -1 0 0.4
v -0.9 0 0.4
v -0.8 0 0.4
v -0.5 0 0.4
v -0.4 0 0.4
v -0.3 0 0.4
v -0.9 0 0.3
v -0.8 0 0.3
v -0.5 0 0.3
v -0.4 0 0.3
v -0.9 0.1 1.5
v -0.5 0.1 1.5
v -1.1 0.1 1.4
v -0.9 0.1 1.4
v -1.2 0.1 1.3
v -1.1 0.1 1.3
v -0.9 0.1 1.3
v -0.7 0.1 1.3
v -0.6 0.1 1.3
v -0.5 0.1 1.3
v -1.3 0.1 1.2
v -1.2 0.1 1.2
v -1 0.1 1.2
v -0.9 0.1 1.2
v -0.8 0.1 1.2
v -0.7 0.1 1.2
v -0.6 0.1 1.2
v -1.1 0.1 1.1
v -1 0.1 1.1
v -0.9 0.1 1.1
v -1.4 0.1 1
v -1.3 0.1 1
v -1.1 0.1 1
v -1 0.1 1
v -1.1 0.1 0.9
v -1.2 0.1 0.7
v -1.1 0.1 0.7
v -1.1 0.1 0.6
v -0.2 0.1 0.6
v -0.1 0.1 0.6
v -1.4 0.1 0.5
v -1.3 0.1 0.5
v -1.2 0.1 0.5
v -1.1 0.1 0.5
v -1 0.1 0.5
v -0.3 0.1 0.5
v -0.2 0.1 0.5
v -0.1 0.1 0.5
v 0 0.1 0.5
v -1.1 0.1 0.4
v -1 0.1 0.4
v -0.9 0.1 0.4
v -0.4 0.1 0.4
v -0.3 0.1 0.4
v -0.2 0.1 0.4
v -1.3 0.1 0.3
v -1.2 0.1 0.3
v -1 0.1 0.3
v -0.9 0.1 0.3
v -0.8 0.1 0.3
v -0.7 0.1 0.3
v -0.5 0.1 0.3
v -0.4 0.1 0.3
v -0.3 0.1 0.3
v -0.1 0.1 0.3
v 0 0.1 0.3
v -1.2 0.1 0.2
v -1.1 0.1 0.2
v -0.8 0.1 0.2
v -0.7 0.1 0.2
v -0.2 0.1 0.2
v -0.1 0.1 0.2
v -1.1 0.1 0.1
v -0.9 0.1 0.1
v -0.4 0.1 0.1
v -0.2 0.1 0.1
v -0.9 0.1 0
v -0.4 0.1 0
v -0.9 0.1 1.2
v -0.8 0.1 1.2
v -0.7 0.1 1.2
v -1 0.1 1.1
v -0.9 0.1 1.1
v -0.8 0.1 1.1
v -0.7 0.1 1.1
v -1.1 0.1 1
v -1 0.1 1
v -0.7 0.1 1
v -0.5 0.1 1
v -1.1 0.1 0.9
v -1 0.1 0.9
v -1 0.1 0.8
v -0.8 0.1 0.8
v -0.5 0.1 0.8
v -0.4 0.1 0.8
v -1.1 0.1 0.7
v -1 0.1 0.7
v -0.8 0.1 0.7
v -0.4 0.1 0.7
v -0.3 0.1 0.7
v -1.1 0.1 0.6
v -1 0.1 0.6
v -0.3 0.1 0.6
v -0.2 0.1 0.6
v -1.1 0.1 0.5
v -1 0.1 0.5
v -0.3 0.1 0.5
v -0.2 0.1 0.5
v -1 0.1 0.4
v -0.9 0.1 0.4
v -0.8 0.1 0.4
v -0.5 0.1 0.4
v -0.4 0.1 0.4
v -0.3 0.1 0.4
v -0.9 0.1 0.3
v -0.8 0.1 0.3
v -0.7 0.1 0.3
v -0.5 0.1 0.3
v -0.4 0.1 0.3
v -0.6 0.2 1.4
v -0.5 0.2 1.4
v -0.9 0.2 1.3
v -0.7 0.2 1.3
v -0.6 0.2 1.3
v -0.5 0.2 1.3
v -1 0.2 1.2
v -0.9 0.2 1.2
v -0.7 0.2 1.2
v -0.6 0.2 1.2
v -1.1 0.2 1.1
v -1 0.2 1.1
v -0.9 0.2 1.1
v -1.2 0.2 1
v -1.1 0.2 1
v -1 0.2 1
v -1.2 0.2 0.7
v -1.1 0.2 0.7
v -0.2 0.2 0.6
v -0.1 0.2 0.6
v -1.2 0.2 0.5
v -1.1 0.2 0.5
v -1 0.2 0.5
v -0.3 0.2 0.5
v -0.2 0.2 0.5
v -0.1 0.2 0.5
v -1.1 0.2 0.4
v -1 0.2 0.4
v -0.9 0.2 0.4
v -0.4 0.2 0.4
v -0.3 0.2 0.4
v -0.2 0.2 0.4
v -1 0.2 0.3
v -0.9 0.2 0.3
v -0.8 0.2 0.3
v -0.7 0.2 0.3
v -0.4 0.2 0.3
v -0.3 0.2 0.3
v -0.9 0.2 0.2
v -0.8 0.2 0.2
v -0.7 0.2 0.2
v -0.6 0.2 0.2
v -0.4 0.2 0.2
v -0.9 0.3 1.5
v -0.5 0.3 1.5
v -1.1 0.3 1.4
v -0.9 0.3 1.4
v -0.6 0.3 1.4
v -0.5 0.3 1.4
v -1.2 0.3 1.3
v -1.1 0.3 1.3
v -0.9 0.3 1.3
v -0.6 0.3 1.3
v -1.3 0.3 1.2
v -1.2 0.3 1.2
v -1.1 0.3 1.2
v -1 0.3 1.2
v -0.9 0.3 1.2
v -1.1 0.3 1.1
v -1 0.3 1.1
v -1.4 0.3 1
v -1.3 0.3 1
v -1.2 0.3 1
v -1.1 0.3 1
v -1.4 0.3 0.5
v -1.3 0.3 0.5
v -1.2 0.3 0.5
v -1.1 0.3 0.5
v -0.2 0.3 0.5
v 0 0.3 0.5
v -1.1 0.3 0.4
v -1 0.3 0.4
v -0.3 0.3 0.4
v -0.2 0.3 0.4
v -1.3 0.3 0.3
v -1.2 0.3 0.3
v -1.1 0.3 0.3
v -1 0.3 0.3
v -0.9 0.3 0.3
v -0.4 0.3 0.3
v -0.3 0.3 0.3
v -0.2 0.3 0.3
v -0.1 0.3 0.3
v 0 0.3 0.3
v -1.2 0.3 0.2
v -1.1 0.3 0.2
v -0.9 0.3 0.2
v -0.8 0.3 0.2
v -0.6 0.3 0.2
v -0.4 0.3 0.2
v -0.2 0.3 0.2
v -0.1 0.3 0.2
v -1.1 0.3 0.1
v -0.9 0.3 0.1
v -0.8 0.3 0.1
v -0.7 0.3 0.1
v -0.4 0.3 0.1
v -0.2 0.3 0.1
v -0.9 0.3 0
v -0.7 0.3 0
v -0.6 0.3 0
v -0.4 0.3 0

# faces
f 3/2/1 2/2/1 1/2/1
f 4/2/1 2/2/1 3/2/1
f 9/2/1 6/2/1 5/2/1
f 10/2/1 6/2/1 9/2/1
f 11/2/1 8/2/1 7/2/1
f 12/2/1 8/2/1 11/2/1
f 17/2/1 14/2/1 13/2/1
f 18/2/1 14/2/1 17/2/1
f 19/2/1 16/2/1 15/2/1
f 20/2/1 16/2/1 19/2/1
f 21/1/1 18/1/1 17/1/1
f 22/1/1 18/1/1 21/1/1
f 23/1/1 20/1/1 19/1/1
f 24/1/1 20/1/1 23/1/1
f 32/1/1 26/1/1 25/1/1
f 33/2/1 27/2/1 26/2/1
f 33/1/1 26/1/1 32/1/1
f 34/3/1 28/3/1 27/3/1
f 34/2/1 27/2/1 33/2/1
f 35/1/1 29/1/1 28/1/1
f 35/3/1 28/3/1 34/3/1
f 36/1/1 29/1/1 35/1/1
f 39/2/1 31/2/1 30/2/1
f 40/2/1 38/2/1 37/2/1
f 41/2/1 39/2/1 30/2/1
f 42/2/1 39/2/1 41/2/1
f 43/2/1 38/2/1 40/2/1
f 44/2/1 38/2/1 43/2/1
f 49/2/1 46/2/1 45/2/1
f 50/2/1 46/2/1 49/2/1
f 51/2/1 48/2/1 47/2/1
f 52/2/1 48/2/1 51/2/1
f 59/1/1 54/1/1 53/1/1
f 60/1/1 54/1/1 59/1/1
f 61/1/1 56/1/1 55/1/1
f 62/1/1 56/1/1 61/1/1
f 65/2/1 58/2/1 57/2/1
f 66/2/1 58/2/1 65/2/1
f 67/2/1 64/2/1 63/2/1
f 68/2/1 64/2/1 67/2/1
f 71/1/1 70/1/1 69/1/1
f 72/1/1 70/1/1 71/1/1
f 74/2/1 73/2/1 72/2/1
f 75/2/1 73/2/1 74/2/1
f 78/1/1 77/1/1 76/1/1
f 79/1/1 77/1/1 78/1/1
f 81/1/1 80/1/1 79/1/1
f 82/1/1 80/1/1 81/1/1
f 85/2/1 84/2/1 83/2/1
f 86/2/1 84/2/1 85/2/1
f 88/2/1 87/2/1 86/2/1
f 89/2/1 87/2/1 88/2/1
f 90/2/2 91/2/2 93/2/2
f 91/2/2 92/2/2 93/2/2
f 93/2/2 92/2/2 94/2/2
f 95/2/2 96/2/2 101/2/2
f 96/2/2 97/2/2 101/2/2
f 98/3/2 99/3/2 102/3/2
f 97/3/2 98/3/2 102/3/2
f 101/2/2 97/2/2 102/2/2
f 102/3/2 99/3/2 103/3/2
f 100/2/2 101/2/2 105/2/2
f 105/2/2 101/2/2 106/2/2
f 103/2/2 104/2/2 107/2/2
f 107/2/2 104/2/2 108/2/2
f 109/1/2 110/1/2 114/1/2
f 114/1/2 110/1/2 115/1/2
f 111/1/2 112/1/2 116/1/2
f 116/1/2 112/1/2 117/1/2
f 113/1/2 114/1/2 119/1/2
f 119/1/2 114/1/2 120/1/2
f 117/1/2 118/1/2 121/1/2
f 121/1/2 118/1/2 122/1/2
f 123/1/2 124/1/2 128/1/2
f 128/1/2 124/1/2 129/1/2
f 125/1/2 126/1/2 130/1/2
f 130/1/2 126/1/2 131/1/2
f 127/2/2 128/2/2 133/2/2
f 133/2/2 128/2/2 134/2/2
f 131/2/2 132/2/2 135/2/2
f 135/2/2 132/2/2 136/2/2
f 137/3/2 138/3/2 140/3/2
f 138/2/2 139/2/2 141/2/2
f 140/3/2 138/3/2 141/3/2
f 141/2/2 139/2/2 142/2/2
f 143/2/2 144/2/2 146/2/2
f 146/2/2 144/2/2 147/2/2
f 145/2/2 146/2/2 148/2/2
f 148/2/2 146/2/2 149/2/2
f 150/2/2 151/2/2 154/2/2
f 154/2/2 151/2/2 155/2/2
f 152/2/2 153/2/2 156/2/2
f 156/2/2 153/2/2 157/2/2
f 152/2/2 156/2/2 158/2/2
f 158/2/2 156/2/2 159/2/2
f 160/2/2 161/2/2 164/2/2
f 164/2/2 161/2/2 165/2/2
f 162/1/2 163/1/2 166/1/2
f 166/1/2 163/1/2 167/1/2
f 168/2/2 169/2/2 170/2/2
f 170/2/2 169/2/2 171/2/2
f 172/2/2 173/2/2 176/2/2
f 176/2/2 173/2/2 177/2/2
f 174/2/2 175/2/2 178/2/2
f 178/2/2 175/2/2 179/2/2
f 180/1/2 181/1/2 182/1/2
f 182/1/2 181/1/2 183/1/2
f 184/2/2 185/2/2 186/2/2
f 186/2/2 185/2/2 187/2/2
f 187/2/2 185/2/2 188/2/2
f 189/2/2 190/2/2 193/2/2
f 193/2/2 190/2/2 194/2/2
f 191/2/2 192/2/2 195/2/2
f 195/2/2 192/2/2 196/2/2
f 195/1/2 196/1/2 197/1/2
f 197/1/2 196/1/2 198/1/2
f 199/2/2 200/2/2 201/2/2
f 201/2/2 200/2/2 202/2/2
f 205/2/3 204/2/3 203/2/3
f 206/2/3 204/2/3 205/2/3
f 209/2/3 208/2/3 207/2/3
f 210/2/3 208/2/3 209/2/3
f 214/2/3 212/2/3 211/2/3
f 215/1/3 213/1/3 212/1/3
f 215/2/3 212/2/3 214/2/3
f 216/1/3 213/1/3 215/1/3
f 219/2/3 218/2/3 217/2/3
f 220/2/3 218/2/3 219/2/3
f 221/2/3 218/2/3 220/2/3
f 224/1/3 223/1/3 222/1/3
f 225/1/3 223/1/3 224/1/3
f 226/3/3 225/3/3 224/3/3
f 227/3/3 225/3/3 226/3/3
f 230/2/3 229/2/3 228/2/3
f 231/2/3 229/2/3 230/2/3
f 234/2/3 233/2/3 232/2/3
f 235/2/3 233/2/3 234/2/3
f 238/1/3 237/1/3 236/1/3
f 239/1/3 237/1/3 238/1/3
f 242/2/3 241/2/3 240/2/3
f 243/2/3 241/2/3 242/2/3
f 246/2/3 245/2/3 244/2/3
f 247/2/3 245/2/3 246/2/3
f 250/2/3 249/2/3 248/2/3
f 251/2/3 249/2/3 250/2/3
f 254/1/3 253/1/3 252/1/3
f 255/1/3 253/1/3 254/1/3
f 257/2/3 256/2/3 255/2/3
f 258/2/3 256/2/3 257/2/3
f 262/2/3 260/2/3 259/2/3
f 263/2/3 260/2/3 262/2/3
f 264/1/3 262/1/3 261/1/3
f 265/1/3 262/1/3 264/1/3
f 268/1/3 267/1/3 266/1/3
f 269/1/3 267/1/3 268/1/3
f 272/2/3 270/2/3 269/2/3
f 273/2/3 272/2/3 271/2/3
f 274/2/3 270/2/3 272/2/3
f 274/2/3 272/2/3 273/2/3
f 278/1/3 276/1/3 275/1/3
f 279/1/3 276/1/3 278/1/3
f 280/1/3 278/1/3 277/1/3
f 281/1/3 278/1/3 280/1/3
f 284/1/3 283/1/3 282/1/3
f 285/1/3 283/1/3 284/1/3
f 287/1/3 286/1/3 285/1/3
f 288/1/3 286/1/3 287/1/3
f 292/2/3 290/2/3 289/2/3
f 293/2/3 290/2/3 292/2/3
f 294/2/3 292/2/3 291/2/3
f 295/2/3 292/2/3 294/2/3
f 296/3/3 295/3/3 294/3/3
f 297/3/3 295/3/3 296/3/3
f 298/2/3 297/2/3 296/2/3
f 299/2/3 297/2/3 298/2/3
f 300/2/3 297/2/3 299/2/3
f 302/2/3 301/2/3 300/2/3
f 303/2/3 301/2/3 302/2/3
f 306/2/3 305/2/3 304/2/3
f 307/2/3 305/2/3 306/2/3
f 308/3/3 307/3/3 306/3/3
f 309/3/3 307/3/3 308/3/3
f 310/3/3 307/3/3 309/3/3
f 311/2/3 310/2/3 309/2/3
f 312/2/3 310/2/3 311/2/3
f 313/2/4 314/2/4 315/2/4
f 315/2/4 314/2/4 316/2/4
f 317/2/4 318/2/4 319/2/4
f 319/2/4 318/2/4 321/2/4
f 321/2/4 318/2/4 322/2/4
f 320/2/4 321/2/4 323/2/4
f 323/2/4 321/2/4 324/2/4
f 325/2/4 326/2/4 328/2/4
f 328/2/4 326/2/4 329/2/4
f 327/3/4 328/3/4 330/3/4
f 330/3/4 328/3/4 331/3/4
f 331/3/4 328/3/4 332/3/4
f 331/2/4 332/2/4 333/2/4
f 333/2/4 332/2/4 334/2/4
f 335/1/4 336/1/4 338/1/4
f 338/1/4 336/1/4 339/1/4
f 337/1/4 338/1/4 340/1/4
f 340/1/4 338/1/4 341/1/4
f 342/2/4 343/2/4 345/2/4
f 345/2/4 343/2/4 346/2/4
f 344/1/4 345/1/4 347/1/4
f 347/1/4 345/1/4 348/1/4
f 349/2/4 350/2/4 351/2/4
f 351/2/4 350/2/4 352/2/4
f 353/1/4 354/1/4 355/1/4
f 355/1/4 354/1/4 356/1/4
f 357/1/4 358/1/4 359/1/4
f 359/1/4 358/1/4 360/1/4
f 361/2/4 362/2/4 363/2/4
f 363/2/4 362/2/4 364/2/4
f 365/2/4 366/2/4 367/2/4
f 367/2/4 366/2/4 368/2/4
f 369/2/4 370/2/4 371/2/4
f 371/2/4 370/2/4 372/2/4
f 372/2/4 370/2/4 373/2/4
f 374/1/4 375/1/4 376/1/4
f 376/1/4 375/1/4 377/1/4
f 376/2/4 377/2/4 378/2/4
f 376/2/4 378/2/4 379/2/4
f 379/2/4 378/2/4 380/2/4
f 379/1/4 380/1/4 381/1/4
f 381/1/4 380/1/4 382/1/4
f 383/2/4 384/2/4 386/2/4
f 384/2/4 385/2/4 386/2/4
f 386/2/4 385/2/4 387/2/4
f 388/2/4 389/2/4 391/2/4
f 389/1/4 390/1/4 392/1/4
f 391/2/4 389/2/4 392/2/4
f 392/1/4 390/1/4 393/1/4
f 394/2/4 395/2/4 397/2/4
f 395/1/4 396/1/4 398/1/4
f 397/2/4 395/2/4 398/2/4
f 398/1/4 396/1/4 399/1/4
f 400/2/4 401/2/4 402/2/4
f 402/2/4 401/2/4 403/2/4
f 404/2/4 405/2/4 406/2/4
f 406/2/4 405/2/4 407/2/4
f 408/2/4 409/2/4 410/2/4
f 410/2/4 409/2/4 411/2/4
f 408/2/4 410/2/4 412/2/4
f 410/3/4 411/3/4 412/3/4
f 412/3/4 411/3/4 413/3/4
f 408/2/4 412/2/4 414/2/4
f 412/2/4 413/2/4 414/2/4
f 414/2/4 413/2/4 415/2/4
f 420/1/5 417/1/5 416/1/5
f 421/3/5 418/3/5 417/3/5
f 421/1/5 417/1/5 420/1/5
f 422/3/5 418/3/5 421/3/5
f 424/2/5 420/2/5 419/2/5
f 424/2/5 421/2/5 420/2/5
f 424/2/5 422/2/5 421/2/5
f 425/2/5 422/2/5 424/2/5
f 427/1/5 424/1/5 423/1/5
f 428/2/5 425/2/5 424/2/5
f 428/1/5 424/1/5 427/1/5
f 428/2/5 426/2/5 425/2/5
f 429/2/5 428/2/5 427/2/5
f 429/2/5 426/2/5 428/2/5
f 430/2/5 426/2/5 429/2/5
f 431/2/5 426/2/5 430/2/5
f 433/2/5 429/2/5 427/2/5
f 434/3/5 430/3/5 429/3/5
f 434/2/5 429/2/5 433/2/5
f 435/2/5 432/2/5 431/2/5
f 435/3/5 430/3/5 434/3/5
f 435/2/5 431/2/5 430/2/5
f 436/2/5 432/2/5 435/2/5
f 438/3/5 434/3/5 433/3/5
f 439/2/5 437/2/5 436/2/5
f 439/3/5 434/3/5 438/3/5
f 439/2/5 435/2/5 434/2/5
f 439/2/5 436/2/5 435/2/5
f 440/2/5 437/2/5 439/2/5
f 442/1/5 439/1/5 438/1/5
f 443/2/5 440/2/5 439/2/5
f 443/1/5 439/1/5 442/1/5
f 444/1/5 441/1/5 440/1/5
f 444/2/5 440/2/5 443/2/5
f 445/1/5 441/1/5 444/1/5
f 446/2/5 444/2/5 443/2/5
f 447/2/5 444/2/5 446/2/5
f 448/2/5 444/2/5 447/2/5
f 449/2/5 444/2/5 448/2/5
f 450/2/5 444/2/5 449/2/5
f 451/2/5 444/2/5 450/2/5
f 452/1/5 448/1/5 447/1/5
f 453/2/5 449/2/5 448/2/5
f 453/1/5 448/1/5 452/1/5
f 454/1/5 450/1/5 449/1/5
f 454/2/5 449/2/5 453/2/5
f 455/1/5 450/1/5 454/1/5
f 459/2/5 457/2/5 456/2/5
f 461/2/5 459/2/5 458/2/5
f 462/2/5 457/2/5 459/2/5
f 462/2/5 459/2/5 461/2/5
f 463/2/5 457/2/5 462/2/5
f 464/2/5 457/2/5 463/2/5
f 465/2/5 457/2/5 464/2/5
f 467/2/5 461/2/5 460/2/5
f 467/2/5 462/2/5 461/2/5
f 468/2/5 462/2/5 467/2/5
f 469/3/5 463/3/5 462/3/5
f 469/2/5 462/2/5 468/2/5
f 470/3/5 463/3/5 469/3/5
f 471/2/5 464/2/5 463/2/5
f 471/3/5 463/3/5 470/3/5
f 472/2/5 464/2/5 471/2/5
f 473/2/5 468/2/5 467/2/5
f 473/2/5 467/2/5 466/2/5
f 474/1/5 469/1/5 468/1/5
f 474/2/5 468/2/5 473/2/5
f 475/1/5 469/1/5 474/1/5
f 477/2/5 473/2/5 466/2/5
f 478/1/5 474/1/5 473/1/5
f 478/2/5 473/2/5 477/2/5
f 479/1/5 474/1/5 478/1/5
f 480/2/5 477/2/5 476/2/5
f 480/2/5 478/2/5 477/2/5
f 481/2/5 480/2/5 476/2/5
f 482/2/5 480/2/5 481/2/5
f 483/3/5 482/3/5 481/3/5
f 486/2/5 481/2/5 476/2/5
f 487/2/5 481/2/5 486/2/5
f 488/3/5 483/3/5 481/3/5
f 488/2/5 481/2/5 487/2/5
f 489/3/5 483/3/5 488/3/5
f 492/2/5 485/2/5 484/2/5
f 493/2/5 485/2/5 492/2/5
f 495/1/5 490/1/5 489/1/5
f 495/2/5 488/2/5 487/2/5
f 495/2/5 489/2/5 488/2/5
f 496/1/5 490/1/5 495/1/5
f 499/1/5 492/1/5 491/1/5
f 500/2/5 494/2/5 493/2/5
f 500/2/5 493/2/5 492/2/5
f 500/1/5 492/1/5 499/1/5
f 501/2/5 495/2/5 487/2/5
f 501/2/5 496/2/5 495/2/5
f 502/2/5 496/2/5 501/2/5
f 503/1/5 497/1/5 496/1/5
f 503/2/5 496/2/5 502/2/5
f 504/1/5 497/1/5 503/1/5
f 508/1/5 499/1/5 498/1/5
f 509/2/5 500/2/5 499/2/5
f 509/1/5 499/1/5 508/1/5
f 510/2/5 494/2/5 500/2/5
f 510/2/5 500/2/5 509/2/5
f 511/2/5 494/2/5 510/2/5
f 512/2/5 503/2/5 502/2/5
f 512/2/5 504/2/5 503/2/5
f 512/2/5 505/2/5 504/2/5
f 513/2/5 505/2/5 512/2/5
f 514/3/5 506/3/5 505/3/5
f 514/2/5 505/2/5 513/2/5
f 515/2/5 507/2/5 506/2/5
f 515/3/5 506/3/5 514/3/5
f 515/2/5 509/2/5 508/2/5
f 515/2/5 508/2/5 507/2/5
f 515/2/5 510/2/5 509/2/5
f 516/2/5 510/2/5 515/2/5
f 517/2/5 510/2/5 516/2/5
f 518/2/5 514/2/5 513/2/5
f 518/2/5 516/2/5 515/2/5
f 518/2/5 515/2/5 514/2/5
f 519/2/5 516/2/5 518/2/5
f 520/2/5 516/2/5 519/2/5
f 521/2/5 516/2/5 520/2/5
f 522/2/5 520/2/5 519/2/5
f 523/2/5 520/2/5 522/2/5
f 524/1/6 525/1/6 528/1/6
f 525/3/6 526/3/6 529/3/6
f 528/1/6 525/1/6 529/1/6
f 529/3/6 526/3/6 530/3/6
f 527/2/6 528/2/6 532/2/6
f 528/2/6 529/2/6 532/2/6
f 529/2/6 530/2/6 532/2/6
f 532/2/6 530/2/6 533/2/6
f 531/1/6 532/1/6 535/1/6
f 532/2/6 533/2/6 536/2/6
f 535/1/6 532/1/6 536/1/6
f 533/2/6 534/2/6 536/2/6
f 535/2/6 536/2/6 537/2/6
f 536/2/6 534/2/6 537/2/6
f 537/2/6 534/2/6 538/2/6
f 538/2/6 534/2/6 539/2/6
f 535/2/6 537/2/6 541/2/6
f 537/3/6 538/3/6 542/3/6
f 541/2/6 537/2/6 542/2/6
f 539/2/6 540/2/6 543/2/6
f 542/3/6 538/3/6 543/3/6
f 538/2/6 539/2/6 543/2/6
f 543/2/6 540/2/6 544/2/6
f 541/3/6 542/3/6 546/3/6
f 544/2/6 545/2/6 547/2/6
f 546/3/6 542/3/6 547/3/6
f 542/2/6 543/2/6 547/2/6
f 543/2/6 544/2/6 547/2/6
f 547/2/6 545/2/6 548/2/6
f 546/1/6 547/1/6 550/1/6
f 547/2/6 548/2/6 551/2/6
f 550/1/6 547/1/6 551/1/6
f 548/1/6 549/1/6 552/1/6
f 551/2/6 548/2/6 552/2/6
f 552/1/6 549/1/6 553/1/6
f 551/2/6 552/2/6 554/2/6
f 554/2/6 552/2/6 555/2/6
f 555/2/6 552/2/6 556/2/6
f 556/2/6 552/2/6 557/2/6
f 557/2/6 552/2/6 558/2/6
f 558/2/6 552/2/6 559/2/6
f 555/1/6 556/1/6 560/1/6
f 556/2/6 557/2/6 561/2/6
f 560/1/6 556/1/6 561/1/6
f 561/2/6 557/2/6 562/2/6
f 557/1/6 558/1/6 563/1/6
f 562/2/6 557/2/6 563/2/6
f 563/1/6 558/1/6 564/1/6
f 565/2/6 566/2/6 569/2/6
f 569/2/6 566/2/6 570/2/6
f 567/3/6 568/3/6 572/3/6
f 568/2/6 569/2/6 573/2/6
f 572/3/6 568/3/6 573/3/6
f 573/2/6 569/2/6 574/2/6
f 571/1/6 572/1/6 576/1/6
f 576/1/6 572/1/6 577/1/6
f 575/1/6 576/1/6 579/1/6
f 579/1/6 576/1/6 580/1/6
f 578/2/6 579/2/6 581/2/6
f 581/2/6 579/2/6 582/2/6
f 581/3/6 582/3/6 585/3/6
f 585/3/6 582/3/6 586/3/6
f 583/2/6 584/2/6 589/2/6
f 589/2/6 584/2/6 590/2/6
f 586/1/6 587/1/6 591/1/6
f 591/1/6 587/1/6 592/1/6
f 588/1/6 589/1/6 595/1/6
f 595/1/6 589/1/6 596/1/6
f 592/1/6 593/1/6 597/1/6
f 597/1/6 593/1/6 598/1/6
f 594/1/6 595/1/6 601/1/6
f 601/1/6 595/1/6 602/1/6
f 598/2/6 599/2/6 603/2/6
f 599/3/6 600/3/6 604/3/6
f 603/2/6 599/2/6 604/2/6
f 600/2/6 601/2/6 605/2/6
f 604/3/6 600/3/6 605/3/6
f 605/2/6 601/2/6 606/2/6
f 606/2/6 601/2/6 607/2/6
f 608/2/6 609/2/6 611/2/6
f 611/2/6 609/2/6 612/2/6
f 612/2/6 609/2/6 613/2/6
f 610/2/6 611/2/6 615/2/6
f 611/2/6 612/2/6 615/2/6
f 615/2/6 612/2/6 616/2/6
f 616/2/6 612/2/6 617/2/6
f 614/1/6 615/1/6 619/1/6
f 615/2/6 616/2/6 620/2/6
f 619/1/6 615/1/6 620/1/6
f 620/2/6 616/2/6 621/2/6
f 621/2/6 616/2/6 622/2/6
f 618/2/6 619/2/6 623/2/6
f 619/2/6 620/2/6 623/2/6
f 620/1/6 621/1/6 623/1/6
f 623/1/6 621/1/6 624/1/6
f 618/2/6 623/2/6 626/2/6
f 626/2/6 623/2/6 627/2/6
f 627/2/6 623/2/6 628/2/6
f 625/2/6 626/2/6 629/2/6
f 626/2/6 627/2/6 629/2/6
f 629/2/6 627/2/6 630/2/6
f 630/2/6 627/2/6 631/2/6
f 631/2/6 632/2/6 635/2/6
f 630/2/6 631/2/6 635/2/6
f 633/2/6 634/2/6 638/2/6
f 630/2/6 635/2/6 639/2/6
f 639/2/6 635/2/6 640/2/6
f 635/1/6 636/1/6 641/1/6
f 640/2/6 635/2/6 641/2/6
f 641/1/6 636/1/6 642/1/6
f 637/1/6 638/1/6 645/1/6
f 638/2/6 634/2/6 646/2/6
f 645/1/6 638/1/6 646/1/6
f 646/2/6 634/2/6 647/2/6
f 647/2/6 634/2/6 648/2/6
f 640/1/6 641/1/6 649/1/6
f 642/2/6 643/2/6 650/2/6
f 649/1/6 641/1/6 650/1/6
f 641/2/6 642/2/6 650/2/6
f 650/2/6 643/2/6 651/2/6
f 644/2/6 645/2/6 654/2/6
f 645/2/6 646/2/6 654/2/6
f 646/1/6 647/1/6 655/1/6
f 654/2/6 646/2/6 655/2/6
f 655/1/6 647/1/6 656/1/6
f 651/2/6 652/2/6 657/2/6
f 650/2/6 651/2/6 657/2/6
f 657/2/6 652/2/6 658/2/6
f 652/3/6 653/3/6 659/3/6
f 658/2/6 652/2/6 659/2/6
f 659/3/6 653/3/6 660/3/6
f 653/2/6 654/2/6 661/2/6
f 654/2/6 655/2/6 661/2/6
f 661/2/6 655/2/6 662/2/6
f 659/2/6 660/2/6 663/2/6
f 658/2/6 659/2/6 663/2/6
f 660/3/6 653/3/6 664/3/6
f 663/2/6 660/2/6 664/2/6
f 653/2/6 661/2/6 665/2/6
f 664/3/6 653/3/6 665/3/6
f 665/2/6 661/2/6 666/2/6
