# MagicaVoxel @ Ephtracy

# group
o 

# material
mtllib Chaise2(marron)(cassé).mtl
usemtl palette

# normals
vn -1 0 0
vn 1 0 0
vn 0 0 1
vn 0 0 -1
vn 0 -1 0
vn 0 1 0

# texcoords
vt 0.533203 0.5
vt 0.537109 0.5
vt 0.701172 0.5
vt 0.861328 0.5
vt 0.869141 0.5

# verts
v -1 0 0
v -1 0 -0.2
v -1 0 -0.8
v -1 0 -1
v -1 0.1 0
v -1 0.1 -0.2
v -1 0.1 -0.8
v -1 0.1 -1
v -1 0.8 -0.2
v -1 0.8 -0.8
v -1 0.9 0
v -1 0.9 -0.9
v -1 1.3 -0.8
v -1 1.3 -0.9
v -1 1.9 -0.8
v -1 1.9 -0.9
v -1 1.9 -1
v -0.9 1 -0.8
v -0.9 1 -0.9
v -0.9 1.3 -0.8
v -0.9 1.3 -0.9
v -0.9 1.9 -0.9
v -0.9 1.9 -1
v -0.9 2 -0.9
v -0.9 2 -1
v -0.8 1.5 -0.8
v -0.8 1.5 -0.9
v -0.8 1.5 -1
v -0.8 1.8 -0.8
v -0.8 1.8 -0.9
v -0.8 1.8 -1
v -0.8 1.9 -0.8
v -0.8 1.9 -0.9
v -0.8 2 -0.8
v -0.8 2 -0.9
v -0.7 1.1 -0.8
v -0.7 1.1 -0.9
v -0.7 1.1 -1
v -0.7 1.5 -0.8
v -0.7 1.5 -0.9
v -0.7 1.5 -1
v -0.4 1.1 -0.8
v -0.4 1.1 -0.9
v -0.4 1.1 -1
v -0.4 1.5 -0.8
v -0.4 1.5 -0.9
v -0.4 1.5 -1
v -0.2 0 0
v -0.2 0 -0.1
v -0.2 0 -0.2
v -0.2 0 -0.8
v -0.2 0 -1
v -0.2 0.1 -0.1
v -0.2 0.1 -0.2
v -0.2 0.1 -0.8
v -0.2 0.1 -1
v -0.2 0.2 0
v -0.2 0.2 -0.1
v -0.2 0.8 0
v -0.2 0.8 -0.2
v -0.2 0.8 -0.8
v -0.2 0.8 -1
v -0.2 1.1 -0.8
v -0.2 1.1 -0.9
v -0.2 1.1 -1
v -0.2 1.4 -0.8
v -0.2 1.4 -0.9
v -0.2 1.4 -1
v -0.1 0.9 -0.9
v -0.1 0.9 -1
v -0.1 1 -0.9
v -0.1 1 -1
v -0.1 1.4 -0.9
v -0.1 1.4 -1
v -0.1 1.5 -0.9
v -0.1 1.5 -1
v -0.9 0.9 -0.9
v -0.9 0.9 -1
v -0.9 1 -0.9
v -0.9 1 -1
v -0.9 1.4 -0.8
v -0.9 1.4 -0.9
v -0.9 1.4 -1
v -0.9 1.8 -0.8
v -0.9 1.8 -0.9
v -0.9 1.8 -1
v -0.8 0 0
v -0.8 0 -0.2
v -0.8 0 -0.8
v -0.8 0 -1
v -0.8 0.1 0
v -0.8 0.1 -0.2
v -0.8 0.1 -0.8
v -0.8 0.1 -1
v -0.8 0.8 0
v -0.8 0.8 -0.2
v -0.8 0.8 -0.8
v -0.8 0.8 -1
v -0.8 1.1 -0.8
v -0.8 1.1 -0.9
v -0.8 1.1 -1
v -0.8 1.4 -0.8
v -0.8 1.4 -0.9
v -0.8 1.4 -1
v -0.8 1.8 -0.8
v -0.8 1.8 -0.9
v -0.8 1.8 -1
v -0.8 1.9 -0.8
v -0.8 1.9 -0.9
v -0.8 1.9 -1
v -0.7 1.6 -0.8
v -0.7 1.6 -0.9
v -0.7 1.6 -1
v -0.7 1.8 -0.8
v -0.7 1.8 -0.9
v -0.7 1.8 -1
v -0.6 1.1 -0.8
v -0.6 1.1 -0.9
v -0.6 1.1 -1
v -0.6 1.6 -0.8
v -0.6 1.6 -0.9
v -0.6 1.6 -1
v -0.5 1.9 -0.8
v -0.5 1.9 -0.9
v -0.5 2 -0.8
v -0.5 2 -0.9
v -0.4 1.9 -0.9
v -0.4 1.9 -1
v -0.4 2 -0.9
v -0.4 2 -1
v -0.3 1.1 -0.8
v -0.3 1.1 -0.9
v -0.3 1.1 -1
v -0.3 1.5 -0.8
v -0.3 1.5 -0.9
v -0.3 1.5 -1
v -0.1 1 -0.8
v -0.1 1 -0.9
v -0.1 1.2 -0.9
v -0.1 1.2 -1
v -0.1 1.3 -0.9
v -0.1 1.3 -1
v -0.1 1.4 -0.8
v -0.1 1.4 -0.9
v 0 0 0
v 0 0 -0.2
v 0 0 -0.8
v 0 0 -1
v 0 0.1 -0.8
v 0 0.1 -1
v 0 0.2 -0.1
v 0 0.2 -0.2
v 0 0.4 0
v 0 0.4 -0.1
v 0 0.4 -0.2
v 0 0.5 0
v 0 0.5 -0.1
v 0 0.8 -0.2
v 0 0.8 -0.8
v 0 0.9 0
v 0 0.9 -0.9
v 0 1.2 -0.9
v 0 1.2 -1
v 0 1.3 -0.9
v 0 1.3 -1
v 0 1.5 -0.9
v 0 1.5 -1
v -1 0 0
v -1 0.1 0
v -1 0.9 0
v -0.8 0 0
v -0.8 0.1 0
v -0.8 0.8 0
v -0.2 0 0
v -0.2 0.2 0
v -0.2 0.8 0
v -0.1 0.2 0
v -0.1 0.4 0
v -0.1 0.5 0
v 0 0 0
v 0 0.4 0
v 0 0.5 0
v 0 0.9 0
v -1 0 -0.8
v -1 0.1 -0.8
v -1 0.8 -0.8
v -1 1.3 -0.8
v -1 1.9 -0.8
v -0.9 1 -0.8
v -0.9 1.3 -0.8
v -0.9 1.4 -0.8
v -0.9 1.8 -0.8
v -0.8 0 -0.8
v -0.8 0.1 -0.8
v -0.8 0.8 -0.8
v -0.8 1.1 -0.8
v -0.8 1.4 -0.8
v -0.8 1.5 -0.8
v -0.8 1.8 -0.8
v -0.8 1.9 -0.8
v -0.8 2 -0.8
v -0.7 1.1 -0.8
v -0.7 1.5 -0.8
v -0.7 1.6 -0.8
v -0.7 1.8 -0.8
v -0.6 1.1 -0.8
v -0.6 1.6 -0.8
v -0.5 1.9 -0.8
v -0.5 2 -0.8
v -0.4 1.1 -0.8
v -0.4 1.5 -0.8
v -0.3 1.1 -0.8
v -0.3 1.5 -0.8
v -0.2 0 -0.8
v -0.2 0.1 -0.8
v -0.2 0.8 -0.8
v -0.2 1.1 -0.8
v -0.2 1.4 -0.8
v -0.1 1 -0.8
v -0.1 1.4 -0.8
v 0 0 -0.8
v 0 0.1 -0.8
v 0 0.8 -0.8
v -1 0.9 -0.9
v -1 1.3 -0.9
v -0.9 0.9 -0.9
v -0.9 1 -0.9
v -0.9 1.3 -0.9
v -0.9 1.9 -0.9
v -0.9 2 -0.9
v -0.8 1.9 -0.9
v -0.8 2 -0.9
v -0.5 1.9 -0.9
v -0.5 2 -0.9
v -0.4 1.9 -0.9
v -0.4 2 -0.9
v -0.1 0.9 -0.9
v -0.1 1 -0.9
v -0.1 1.2 -0.9
v -0.1 1.3 -0.9
v -0.1 1.4 -0.9
v -0.1 1.5 -0.9
v 0 0.9 -0.9
v 0 1.2 -0.9
v 0 1.3 -0.9
v 0 1.5 -0.9
v -1 0 -0.2
v -1 0.1 -0.2
v -1 0.8 -0.2
v -0.8 0 -0.2
v -0.8 0.1 -0.2
v -0.8 0.8 -0.2
v -0.2 0 -0.2
v -0.2 0.1 -0.2
v -0.2 0.8 -0.2
v -0.1 0 -0.2
v -0.1 0.1 -0.2
v -0.1 0.2 -0.2
v -0.1 0.4 -0.2
v 0 0 -0.2
v 0 0.2 -0.2
v 0 0.4 -0.2
v 0 0.8 -0.2
v -1 0 -1
v -1 0.1 -1
v -1 1.9 -1
v -0.9 0.9 -1
v -0.9 1 -1
v -0.9 1.4 -1
v -0.9 1.8 -1
v -0.9 1.9 -1
v -0.9 2 -1
v -0.8 0 -1
v -0.8 0.1 -1
v -0.8 0.8 -1
v -0.8 1.1 -1
v -0.8 1.4 -1
v -0.8 1.5 -1
v -0.8 1.8 -1
v -0.8 1.9 -1
v -0.7 1.1 -1
v -0.7 1.5 -1
v -0.7 1.6 -1
v -0.7 1.8 -1
v -0.6 1.1 -1
v -0.6 1.6 -1
v -0.4 1.1 -1
v -0.4 1.5 -1
v -0.4 1.9 -1
v -0.4 2 -1
v -0.3 1.1 -1
v -0.3 1.5 -1
v -0.2 0 -1
v -0.2 0.1 -1
v -0.2 0.8 -1
v -0.2 1.1 -1
v -0.2 1.4 -1
v -0.1 0.9 -1
v -0.1 1 -1
v -0.1 1.2 -1
v -0.1 1.3 -1
v -0.1 1.4 -1
v -0.1 1.5 -1
v 0 0 -1
v 0 0.1 -1
v 0 1.2 -1
v 0 1.3 -1
v 0 1.5 -1
v -1 0 0
v -0.8 0 0
v -0.2 0 0
v 0 0 0
v -0.2 0 -0.1
v -0.1 0 -0.1
v -1 0 -0.2
v -0.8 0 -0.2
v -0.2 0 -0.2
v -0.1 0 -0.2
v 0 0 -0.2
v -1 0 -0.8
v -0.8 0 -0.8
v -0.2 0 -0.8
v 0 0 -0.8
v -1 0 -1
v -0.8 0 -1
v -0.2 0 -1
v 0 0 -1
v -0.8 0.8 0
v -0.2 0.8 0
v -1 0.8 -0.2
v -0.8 0.8 -0.2
v -0.2 0.8 -0.2
v 0 0.8 -0.2
v -1 0.8 -0.8
v -0.8 0.8 -0.8
v -0.2 0.8 -0.8
v 0 0.8 -0.8
v -0.8 0.8 -1
v -0.2 0.8 -1
v -0.9 1 -0.8
v -0.1 1 -0.8
v -0.9 1 -0.9
v -0.1 1 -0.9
v -0.9 1 -1
v -0.1 1 -1
v -1 1.3 -0.8
v -0.9 1.3 -0.8
v -1 1.3 -0.9
v -0.9 1.3 -0.9
v -0.1 1.3 -0.9
v 0 1.3 -0.9
v -0.1 1.3 -1
v 0 1.3 -1
v -0.8 1.5 -0.8
v -0.7 1.5 -0.8
v -0.8 1.5 -0.9
v -0.7 1.5 -0.9
v -0.8 1.5 -1
v -0.7 1.5 -1
v -0.9 1.8 -0.8
v -0.8 1.8 -0.8
v -0.9 1.8 -0.9
v -0.8 1.8 -0.9
v -0.9 1.8 -1
v -0.8 1.8 -1
v -0.8 1.9 -0.8
v -0.5 1.9 -0.8
v -0.8 1.9 -0.9
v -0.5 1.9 -0.9
v -0.4 1.9 -0.9
v -0.8 1.9 -1
v -0.4 1.9 -1
v -1 0.9 0
v 0 0.9 0
v -1 0.9 -0.9
v -0.9 0.9 -0.9
v -0.1 0.9 -0.9
v 0 0.9 -0.9
v -0.9 0.9 -1
v -0.1 0.9 -1
v -0.8 1.1 -0.8
v -0.7 1.1 -0.8
v -0.6 1.1 -0.8
v -0.4 1.1 -0.8
v -0.3 1.1 -0.8
v -0.2 1.1 -0.8
v -0.8 1.1 -0.9
v -0.7 1.1 -0.9
v -0.6 1.1 -0.9
v -0.4 1.1 -0.9
v -0.3 1.1 -0.9
v -0.2 1.1 -0.9
v -0.8 1.1 -1
v -0.7 1.1 -1
v -0.6 1.1 -1
v -0.4 1.1 -1
v -0.3 1.1 -1
v -0.2 1.1 -1
v -0.1 1.2 -0.9
v 0 1.2 -0.9
v -0.1 1.2 -1
v 0 1.2 -1
v -0.9 1.4 -0.8
v -0.8 1.4 -0.8
v -0.2 1.4 -0.8
v -0.1 1.4 -0.8
v -0.9 1.4 -0.9
v -0.8 1.4 -0.9
v -0.2 1.4 -0.9
v -0.1 1.4 -0.9
v -0.9 1.4 -1
v -0.8 1.4 -1
v -0.2 1.4 -1
v -0.1 1.4 -1
v -0.4 1.5 -0.8
v -0.3 1.5 -0.8
v -0.4 1.5 -0.9
v -0.3 1.5 -0.9
v -0.1 1.5 -0.9
v 0 1.5 -0.9
v -0.4 1.5 -1
v -0.3 1.5 -1
v -0.1 1.5 -1
v 0 1.5 -1
v -0.7 1.6 -0.8
v -0.6 1.6 -0.8
v -0.7 1.6 -0.9
v -0.6 1.6 -0.9
v -0.7 1.6 -1
v -0.6 1.6 -1
v -0.8 1.8 -0.8
v -0.7 1.8 -0.8
v -0.8 1.8 -0.9
v -0.7 1.8 -0.9
v -0.8 1.8 -1
v -0.7 1.8 -1
v -1 1.9 -0.8
v -0.8 1.9 -0.8
v -1 1.9 -0.9
v -0.9 1.9 -0.9
v -0.8 1.9 -0.9
v -1 1.9 -1
v -0.9 1.9 -1
v -0.8 2 -0.8
v -0.5 2 -0.8
v -0.9 2 -0.9
v -0.8 2 -0.9
v -0.5 2 -0.9
v -0.4 2 -0.9
v -0.9 2 -1
v -0.4 2 -1

# faces
f 5/3/1 2/3/1 1/3/1
f 6/3/1 2/3/1 5/3/1
f 7/3/1 4/3/1 3/3/1
f 8/3/1 4/3/1 7/3/1
f 9/2/1 6/2/1 5/2/1
f 10/2/1 8/2/1 7/2/1
f 11/2/1 9/2/1 5/2/1
f 11/2/1 10/2/1 9/2/1
f 12/2/1 8/2/1 10/2/1
f 12/2/1 10/2/1 11/2/1
f 14/2/1 8/2/1 12/2/1
f 15/1/1 14/1/1 13/1/1
f 16/2/1 8/2/1 14/2/1
f 16/1/1 14/1/1 15/1/1
f 17/2/1 8/2/1 16/2/1
f 20/1/1 19/1/1 18/1/1
f 21/1/1 19/1/1 20/1/1
f 24/2/1 23/2/1 22/2/1
f 25/2/1 23/2/1 24/2/1
f 29/1/1 27/1/1 26/1/1
f 30/2/1 28/2/1 27/2/1
f 30/1/1 27/1/1 29/1/1
f 31/2/1 28/2/1 30/2/1
f 34/1/1 33/1/1 32/1/1
f 35/1/1 33/1/1 34/1/1
f 39/1/1 37/1/1 36/1/1
f 40/2/1 38/2/1 37/2/1
f 40/1/1 37/1/1 39/1/1
f 41/2/1 38/2/1 40/2/1
f 45/1/1 43/1/1 42/1/1
f 46/2/1 44/2/1 43/2/1
f 46/1/1 43/1/1 45/1/1
f 47/2/1 44/2/1 46/2/1
f 53/5/1 49/5/1 48/5/1
f 53/3/1 50/3/1 49/3/1
f 54/3/1 50/3/1 53/3/1
f 55/3/1 52/3/1 51/3/1
f 56/3/1 52/3/1 55/3/1
f 57/5/1 53/5/1 48/5/1
f 58/2/1 54/2/1 53/2/1
f 58/5/1 53/5/1 57/5/1
f 59/2/1 58/2/1 57/2/1
f 60/2/1 54/2/1 58/2/1
f 60/2/1 58/2/1 59/2/1
f 61/2/1 56/2/1 55/2/1
f 62/2/1 56/2/1 61/2/1
f 66/1/1 64/1/1 63/1/1
f 67/2/1 65/2/1 64/2/1
f 67/1/1 64/1/1 66/1/1
f 68/2/1 65/2/1 67/2/1
f 71/2/1 70/2/1 69/2/1
f 72/2/1 70/2/1 71/2/1
f 75/2/1 74/2/1 73/2/1
f 76/2/1 74/2/1 75/2/1
f 77/2/2 78/2/2 79/2/2
f 79/2/2 78/2/2 80/2/2
f 81/1/2 82/1/2 84/1/2
f 82/2/2 83/2/2 85/2/2
f 84/1/2 82/1/2 85/1/2
f 85/2/2 83/2/2 86/2/2
f 87/3/2 88/3/2 91/3/2
f 91/3/2 88/3/2 92/3/2
f 89/3/2 90/3/2 93/3/2
f 93/3/2 90/3/2 94/3/2
f 91/2/2 92/2/2 95/2/2
f 95/2/2 92/2/2 96/2/2
f 93/2/2 94/2/2 97/2/2
f 97/2/2 94/2/2 98/2/2
f 99/1/2 100/1/2 102/1/2
f 100/2/2 101/2/2 103/2/2
f 102/1/2 100/1/2 103/1/2
f 103/2/2 101/2/2 104/2/2
f 105/1/2 106/1/2 108/1/2
f 106/2/2 107/2/2 109/2/2
f 108/1/2 106/1/2 109/1/2
f 109/2/2 107/2/2 110/2/2
f 111/1/2 112/1/2 114/1/2
f 112/2/2 113/2/2 115/2/2
f 114/1/2 112/1/2 115/1/2
f 115/2/2 113/2/2 116/2/2
f 117/1/2 118/1/2 120/1/2
f 118/2/2 119/2/2 121/2/2
f 120/1/2 118/1/2 121/1/2
f 121/2/2 119/2/2 122/2/2
f 123/1/2 124/1/2 125/1/2
f 125/1/2 124/1/2 126/1/2
f 127/2/2 128/2/2 129/2/2
f 129/2/2 128/2/2 130/2/2
f 131/1/2 132/1/2 134/1/2
f 132/2/2 133/2/2 135/2/2
f 134/1/2 132/1/2 135/1/2
f 135/2/2 133/2/2 136/2/2
f 137/1/2 138/1/2 139/1/2
f 137/1/2 139/1/2 141/1/2
f 139/2/2 140/2/2 141/2/2
f 141/2/2 140/2/2 142/2/2
f 137/1/2 141/1/2 143/1/2
f 143/1/2 141/1/2 144/1/2
f 147/3/2 148/3/2 149/3/2
f 149/3/2 148/3/2 150/3/2
f 145/5/2 146/5/2 151/5/2
f 151/5/2 146/5/2 152/5/2
f 145/5/2 151/5/2 153/5/2
f 151/4/2 152/4/2 154/4/2
f 153/5/2 151/5/2 154/5/2
f 154/4/2 152/4/2 155/4/2
f 153/4/2 154/4/2 156/4/2
f 154/2/2 155/2/2 157/2/2
f 156/4/2 154/4/2 157/4/2
f 156/2/2 157/2/2 158/2/2
f 157/2/2 155/2/2 158/2/2
f 149/2/2 150/2/2 159/2/2
f 156/2/2 158/2/2 160/2/2
f 158/2/2 159/2/2 160/2/2
f 159/2/2 150/2/2 161/2/2
f 160/2/2 159/2/2 161/2/2
f 161/2/2 150/2/2 162/2/2
f 162/2/2 150/2/2 163/2/2
f 164/2/2 165/2/2 166/2/2
f 166/2/2 165/2/2 167/2/2
f 171/3/3 169/3/3 168/3/3
f 172/2/3 170/2/3 169/2/3
f 172/3/3 169/3/3 171/3/3
f 173/2/3 170/2/3 172/2/3
f 176/2/3 170/2/3 173/2/3
f 177/5/3 175/5/3 174/5/3
f 177/2/3 176/2/3 175/2/3
f 178/2/3 176/2/3 177/2/3
f 179/2/3 176/2/3 178/2/3
f 180/5/3 177/5/3 174/5/3
f 180/5/3 178/5/3 177/5/3
f 181/4/3 179/4/3 178/4/3
f 181/5/3 178/5/3 180/5/3
f 182/2/3 176/2/3 179/2/3
f 182/4/3 179/4/3 181/4/3
f 183/2/3 170/2/3 176/2/3
f 183/2/3 176/2/3 182/2/3
f 190/1/3 188/1/3 187/1/3
f 191/1/3 188/1/3 190/1/3
f 192/1/3 188/1/3 191/1/3
f 193/3/3 185/3/3 184/3/3
f 194/2/3 186/2/3 185/2/3
f 194/3/3 185/3/3 193/3/3
f 195/2/3 186/2/3 194/2/3
f 196/1/3 190/1/3 189/1/3
f 196/1/3 191/1/3 190/1/3
f 197/1/3 191/1/3 196/1/3
f 199/1/3 188/1/3 192/1/3
f 200/1/3 188/1/3 199/1/3
f 202/1/3 196/1/3 189/1/3
f 203/1/3 199/1/3 198/1/3
f 204/1/3 199/1/3 203/1/3
f 205/1/3 199/1/3 204/1/3
f 206/1/3 202/1/3 189/1/3
f 206/1/3 203/1/3 202/1/3
f 206/1/3 204/1/3 203/1/3
f 207/1/3 204/1/3 206/1/3
f 208/1/3 201/1/3 200/1/3
f 209/1/3 201/1/3 208/1/3
f 210/1/3 206/1/3 189/1/3
f 212/1/3 210/1/3 189/1/3
f 212/1/3 211/1/3 210/1/3
f 213/1/3 211/1/3 212/1/3
f 217/1/3 212/1/3 189/1/3
f 219/1/3 217/1/3 189/1/3
f 219/1/3 218/1/3 217/1/3
f 220/1/3 218/1/3 219/1/3
f 221/3/3 215/3/3 214/3/3
f 222/2/3 216/2/3 215/2/3
f 222/3/3 215/3/3 221/3/3
f 223/2/3 216/2/3 222/2/3
f 226/2/3 225/2/3 224/2/3
f 227/2/3 225/2/3 226/2/3
f 228/2/3 225/2/3 227/2/3
f 231/2/3 230/2/3 229/2/3
f 232/2/3 230/2/3 231/2/3
f 235/2/3 234/2/3 233/2/3
f 236/2/3 234/2/3 235/2/3
f 243/2/3 238/2/3 237/2/3
f 243/2/3 239/2/3 238/2/3
f 244/2/3 239/2/3 243/2/3
f 245/2/3 242/2/3 241/2/3
f 245/2/3 241/2/3 240/2/3
f 246/2/3 242/2/3 245/2/3
f 247/3/4 248/3/4 250/3/4
f 248/2/4 249/2/4 251/2/4
f 250/3/4 248/3/4 251/3/4
f 251/2/4 249/2/4 252/2/4
f 253/3/4 254/3/4 256/3/4
f 254/2/4 255/2/4 257/2/4
f 256/3/4 254/3/4 257/3/4
f 257/2/4 255/2/4 258/2/4
f 258/2/4 255/2/4 259/2/4
f 256/5/4 257/5/4 260/5/4
f 257/5/4 258/5/4 260/5/4
f 258/4/4 259/4/4 261/4/4
f 260/5/4 258/5/4 261/5/4
f 259/2/4 255/2/4 262/2/4
f 261/4/4 259/4/4 262/4/4
f 262/2/4 255/2/4 263/2/4
f 265/2/4 266/2/4 267/2/4
f 267/2/4 266/2/4 268/2/4
f 268/2/4 266/2/4 269/2/4
f 269/2/4 266/2/4 270/2/4
f 270/2/4 266/2/4 271/2/4
f 264/3/4 265/3/4 273/3/4
f 265/2/4 267/2/4 274/2/4
f 273/3/4 265/3/4 274/3/4
f 274/2/4 267/2/4 275/2/4
f 268/2/4 269/2/4 276/2/4
f 276/2/4 269/2/4 277/2/4
f 271/2/4 272/2/4 279/2/4
f 270/2/4 271/2/4 279/2/4
f 279/2/4 272/2/4 280/2/4
f 268/2/4 276/2/4 281/2/4
f 278/2/4 279/2/4 282/2/4
f 282/2/4 279/2/4 283/2/4
f 283/2/4 279/2/4 284/2/4
f 268/2/4 281/2/4 285/2/4
f 281/2/4 282/2/4 285/2/4
f 282/2/4 283/2/4 285/2/4
f 285/2/4 283/2/4 286/2/4
f 268/2/4 285/2/4 287/2/4
f 280/2/4 272/2/4 289/2/4
f 289/2/4 272/2/4 290/2/4
f 287/2/4 288/2/4 291/2/4
f 268/2/4 287/2/4 291/2/4
f 291/2/4 288/2/4 292/2/4
f 275/2/4 267/2/4 295/2/4
f 268/2/4 291/2/4 296/2/4
f 294/2/4 295/2/4 298/2/4
f 295/2/4 267/2/4 298/2/4
f 296/2/4 297/2/4 299/2/4
f 268/2/4 296/2/4 299/2/4
f 299/2/4 297/2/4 300/2/4
f 300/2/4 297/2/4 301/2/4
f 301/2/4 297/2/4 302/2/4
f 293/3/4 294/3/4 304/3/4
f 294/2/4 298/2/4 305/2/4
f 304/3/4 294/3/4 305/3/4
f 298/2/4 299/2/4 305/2/4
f 299/2/4 300/2/4 305/2/4
f 305/2/4 300/2/4 306/2/4
f 302/2/4 303/2/4 307/2/4
f 301/2/4 302/2/4 307/2/4
f 307/2/4 303/2/4 308/2/4
f 313/5/5 312/5/5 311/5/5
f 314/5/5 312/5/5 313/5/5
f 315/3/5 310/3/5 309/3/5
f 316/3/5 310/3/5 315/3/5
f 317/3/5 314/3/5 313/3/5
f 318/5/5 312/5/5 314/5/5
f 318/3/5 314/3/5 317/3/5
f 319/5/5 312/5/5 318/5/5
f 324/3/5 321/3/5 320/3/5
f 325/3/5 321/3/5 324/3/5
f 326/3/5 323/3/5 322/3/5
f 327/3/5 323/3/5 326/3/5
f 331/2/5 329/2/5 328/2/5
f 332/2/5 329/2/5 331/2/5
f 334/2/5 331/2/5 330/2/5
f 334/2/5 333/2/5 332/2/5
f 334/2/5 332/2/5 331/2/5
f 335/2/5 333/2/5 334/2/5
f 336/2/5 333/2/5 335/2/5
f 337/2/5 333/2/5 336/2/5
f 338/2/5 336/2/5 335/2/5
f 339/2/5 336/2/5 338/2/5
f 342/1/5 341/1/5 340/1/5
f 343/1/5 341/1/5 342/1/5
f 344/2/5 343/2/5 342/2/5
f 345/2/5 343/2/5 344/2/5
f 348/1/5 347/1/5 346/1/5
f 349/1/5 347/1/5 348/1/5
f 352/2/5 351/2/5 350/2/5
f 353/2/5 351/2/5 352/2/5
f 356/1/5 355/1/5 354/1/5
f 357/1/5 355/1/5 356/1/5
f 358/2/5 357/2/5 356/2/5
f 359/2/5 357/2/5 358/2/5
f 362/1/5 361/1/5 360/1/5
f 363/1/5 361/1/5 362/1/5
f 364/2/5 363/2/5 362/2/5
f 365/2/5 363/2/5 364/2/5
f 368/1/5 367/1/5 366/1/5
f 369/1/5 367/1/5 368/1/5
f 371/2/5 369/2/5 368/2/5
f 371/2/5 370/2/5 369/2/5
f 372/2/5 370/2/5 371/2/5
f 373/2/6 374/2/6 375/2/6
f 375/2/6 374/2/6 376/2/6
f 376/2/6 374/2/6 377/2/6
f 377/2/6 374/2/6 378/2/6
f 376/2/6 377/2/6 379/2/6
f 379/2/6 377/2/6 380/2/6
f 381/1/6 382/1/6 387/1/6
f 387/1/6 382/1/6 388/1/6
f 383/1/6 384/1/6 389/1/6
f 389/1/6 384/1/6 390/1/6
f 385/1/6 386/1/6 391/1/6
f 391/1/6 386/1/6 392/1/6
f 387/2/6 388/2/6 393/2/6
f 393/2/6 388/2/6 394/2/6
f 389/2/6 390/2/6 395/2/6
f 395/2/6 390/2/6 396/2/6
f 391/2/6 392/2/6 397/2/6
f 397/2/6 392/2/6 398/2/6
f 399/2/6 400/2/6 401/2/6
f 401/2/6 400/2/6 402/2/6
f 403/1/6 404/1/6 407/1/6
f 407/1/6 404/1/6 408/1/6
f 405/1/6 406/1/6 409/1/6
f 409/1/6 406/1/6 410/1/6
f 407/2/6 408/2/6 411/2/6
f 411/2/6 408/2/6 412/2/6
f 409/2/6 410/2/6 413/2/6
f 413/2/6 410/2/6 414/2/6
f 415/1/6 416/1/6 417/1/6
f 417/1/6 416/1/6 418/1/6
f 417/2/6 418/2/6 421/2/6
f 421/2/6 418/2/6 422/2/6
f 419/2/6 420/2/6 423/2/6
f 423/2/6 420/2/6 424/2/6
f 425/1/6 426/1/6 427/1/6
f 427/1/6 426/1/6 428/1/6
f 427/2/6 428/2/6 429/2/6
f 429/2/6 428/2/6 430/2/6
f 431/1/6 432/1/6 433/1/6
f 433/1/6 432/1/6 434/1/6
f 433/2/6 434/2/6 435/2/6
f 435/2/6 434/2/6 436/2/6
f 437/1/6 438/1/6 439/1/6
f 439/1/6 438/1/6 440/1/6
f 440/1/6 438/1/6 441/1/6
f 439/2/6 440/2/6 442/2/6
f 442/2/6 440/2/6 443/2/6
f 444/1/6 445/1/6 447/1/6
f 447/1/6 445/1/6 448/1/6
f 446/2/6 447/2/6 450/2/6
f 448/2/6 449/2/6 450/2/6
f 447/2/6 448/2/6 450/2/6
f 450/2/6 449/2/6 451/2/6
