# MagicaVoxel @ Ephtracy

# group
o 

# material
mtllib Plante non bug.mtl
usemtl palette

# normals
vn -1 0 0
vn 1 0 0
vn 0 0 1
vn 0 0 -1
vn 0 -1 0
vn 0 1 0

# texcoords
vt 0.373047 0.5
vt 0.537109 0.5
vt 0.908203 0.5
vt 0.912109 0.5
vt 0.962891 0.5

# verts
v -0.7 0 0
v -0.7 0 -1.1
v -0.7 0.1 0
v -0.7 0.1 -0.1
v -0.7 0.1 -1
v -0.7 0.1 -1.1
v -0.7 0.3 0
v -0.7 0.3 -0.1
v -0.7 0.3 -1
v -0.7 0.3 -1.1
v -0.7 0.7 0
v -0.7 0.7 -1.1
v -0.7 1.3 -0.5
v -0.7 1.3 -0.7
v -0.7 1.4 -0.6
v -0.7 1.4 -0.7
v -0.7 1.5 -0.5
v -0.7 1.5 -0.6
v -0.6 1 -0.5
v -0.6 1 -0.6
v -0.6 1.1 -0.4
v -0.6 1.1 -0.5
v -0.6 1.2 -0.6
v -0.6 1.2 -0.7
v -0.6 1.3 -0.4
v -0.6 1.3 -0.5
v -0.6 1.3 -0.6
v -0.6 1.3 -0.7
v -0.6 1.4 -0.6
v -0.6 1.4 -0.7
v -0.6 1.5 -0.4
v -0.6 1.5 -0.5
v -0.6 1.5 -0.6
v -0.6 1.5 -0.7
v -0.6 1.6 -0.5
v -0.6 1.6 -0.6
v -0.6 1.7 -0.3
v -0.6 1.7 -0.4
v -0.6 1.9 -0.3
v -0.6 1.9 -0.4
v -0.6 2.2 -0.3
v -0.6 2.2 -0.4
v -0.5 0.8 -0.7
v -0.5 0.8 -0.8
v -0.5 1 -0.7
v -0.5 1 -0.8
v -0.5 1.6 -0.3
v -0.5 1.6 -0.4
v -0.5 1.7 -0.2
v -0.5 1.7 -0.3
v -0.5 1.7 -0.4
v -0.5 1.8 -0.2
v -0.5 1.8 -0.3
v -0.5 1.8 -0.4
v -0.5 1.8 -0.5
v -0.5 1.9 -0.2
v -0.5 1.9 -0.3
v -0.5 1.9 -0.4
v -0.5 2 -0.4
v -0.5 2 -0.5
v -0.5 2.1 -0.4
v -0.5 2.1 -0.5
v -0.5 2.2 -0.2
v -0.5 2.2 -0.3
v -0.5 2.2 -0.4
v -0.5 2.2 -0.5
v -0.5 2.3 -0.3
v -0.5 2.3 -0.4
v -0.4 0.5 -0.5
v -0.4 0.5 -0.6
v -0.4 0.7 -0.6
v -0.4 0.7 -0.8
v -0.4 0.8 -0.6
v -0.4 0.8 -0.7
v -0.4 0.8 -0.8
v -0.4 0.8 -0.9
v -0.4 0.9 -0.3
v -0.4 0.9 -0.5
v -0.4 1 -0.4
v -0.4 1 -0.5
v -0.4 1 -0.6
v -0.4 1 -0.7
v -0.4 1 -0.8
v -0.4 1 -0.9
v -0.4 1.1 -0.5
v -0.4 1.1 -0.6
v -0.4 1.1 -0.7
v -0.4 1.1 -0.8
v -0.4 1.2 -0.5
v -0.4 1.2 -0.6
v -0.4 1.3 -0.5
v -0.4 1.3 -0.6
v -0.4 1.4 -0.5
v -0.4 1.4 -0.6
v -0.4 1.5 -0.5
v -0.4 1.5 -0.6
v -0.4 1.6 -0.2
v -0.4 1.6 -0.3
v -0.4 1.6 -0.4
v -0.4 1.7 -0.2
v -0.4 1.7 -0.3
v -0.4 1.7 -0.4
v -0.4 1.7 -0.5
v -0.4 1.8 -0.4
v -0.4 1.8 -0.5
v -0.3 1.2 -0.4
v -0.3 1.2 -0.5
v -0.3 1.2 -0.6
v -0.3 1.3 -0.5
v -0.3 1.3 -0.6
v -0.3 1.3 -0.7
v -0.3 1.4 -0.4
v -0.3 1.4 -0.5
v -0.3 1.4 -0.6
v -0.3 1.4 -0.7
v -0.1 0.5 -0.1
v -0.1 0.5 -0.2
v -0.1 0.5 -0.4
v -0.1 0.5 -0.6
v -0.1 0.5 -0.7
v -0.1 0.5 -1
v -0.1 0.7 -0.1
v -0.1 0.7 -1
v -0.6 0.5 -0.1
v -0.6 0.5 -0.3
v -0.6 0.5 -0.4
v -0.6 0.5 -0.6
v -0.6 0.5 -0.7
v -0.6 0.5 -0.9
v -0.6 0.5 -1
v -0.6 0.7 -0.1
v -0.6 0.7 -1
v -0.5 1.1 -0.4
v -0.5 1.1 -0.5
v -0.5 1.1 -0.6
v -0.5 1.2 -0.6
v -0.5 1.2 -0.7
v -0.5 1.3 -0.4
v -0.5 1.3 -0.5
v -0.5 1.4 -0.6
v -0.5 1.4 -0.7
v -0.5 1.5 -0.4
v -0.5 1.5 -0.5
v -0.5 1.5 -0.6
v -0.5 1.5 -0.7
v -0.5 1.6 -0.5
v -0.5 1.6 -0.6
v -0.4 1.8 -0.2
v -0.4 1.8 -0.3
v -0.4 1.8 -0.4
v -0.4 1.8 -0.5
v -0.4 1.9 -0.2
v -0.4 1.9 -0.3
v -0.4 2 -0.4
v -0.4 2 -0.5
v -0.4 2.1 -0.3
v -0.4 2.1 -0.4
v -0.4 2.1 -0.5
v -0.4 2.2 -0.2
v -0.4 2.2 -0.3
v -0.4 2.2 -0.4
v -0.4 2.2 -0.5
v -0.4 2.3 -0.3
v -0.4 2.3 -0.4
v -0.3 0.5 -0.5
v -0.3 0.5 -0.6
v -0.3 0.7 -0.6
v -0.3 0.7 -0.8
v -0.3 0.8 -0.6
v -0.3 0.8 -0.7
v -0.3 0.8 -0.8
v -0.3 0.9 -0.3
v -0.3 0.9 -0.5
v -0.3 0.9 -0.8
v -0.3 0.9 -0.9
v -0.3 1 -0.4
v -0.3 1 -0.5
v -0.3 1 -0.6
v -0.3 1 -0.7
v -0.3 1 -0.8
v -0.3 1 -0.9
v -0.3 1.1 -0.5
v -0.3 1.1 -0.6
v -0.3 1.1 -0.7
v -0.3 1.1 -0.8
v -0.3 1.2 -0.4
v -0.3 1.4 -0.4
v -0.3 1.6 -0.2
v -0.3 1.6 -0.3
v -0.3 1.7 -0.2
v -0.3 1.7 -0.3
v -0.3 1.7 -0.4
v -0.3 1.7 -0.5
v -0.3 1.8 -0.2
v -0.3 1.8 -0.3
v -0.3 1.8 -0.4
v -0.3 1.8 -0.5
v -0.3 2.1 -0.3
v -0.3 2.1 -0.4
v -0.3 2.2 -0.3
v -0.3 2.2 -0.4
v -0.2 0.8 -0.7
v -0.2 0.8 -0.9
v -0.2 0.9 -0.8
v -0.2 0.9 -0.9
v -0.2 1 -0.7
v -0.2 1 -0.8
v -0.2 1.1 -0.5
v -0.2 1.1 -0.6
v -0.2 1.2 -0.4
v -0.2 1.2 -0.5
v -0.2 1.2 -0.6
v -0.2 1.3 -0.5
v -0.2 1.3 -0.6
v -0.2 1.3 -0.7
v -0.2 1.4 -0.4
v -0.2 1.4 -0.5
v -0.2 1.4 -0.6
v -0.2 1.4 -0.7
v -0.2 1.5 -0.5
v -0.2 1.5 -0.6
v -0.1 1.2 -0.5
v -0.1 1.2 -0.6
v -0.1 1.3 -0.5
v -0.1 1.3 -0.6
v -0.1 1.4 -0.5
v -0.1 1.4 -0.6
v 0 0 0
v 0 0 -1.1
v 0 0.1 0
v 0 0.1 -0.1
v 0 0.1 -1
v 0 0.1 -1.1
v 0 0.3 0
v 0 0.3 -0.1
v 0 0.3 -1
v 0 0.3 -1.1
v 0 0.7 0
v 0 0.7 -1.1
v -0.7 0 0
v -0.7 0.1 0
v -0.7 0.3 0
v -0.7 0.7 0
v 0 0 0
v 0 0.1 0
v 0 0.3 0
v 0 0.7 0
v -0.7 0.1 -0.1
v -0.7 0.3 -0.1
v 0 0.1 -0.1
v 0 0.3 -0.1
v -0.5 1.7 -0.2
v -0.5 1.8 -0.2
v -0.5 1.9 -0.2
v -0.5 2.2 -0.2
v -0.4 1.6 -0.2
v -0.4 1.7 -0.2
v -0.4 1.8 -0.2
v -0.4 1.9 -0.2
v -0.4 2.2 -0.2
v -0.3 1.6 -0.2
v -0.3 1.7 -0.2
v -0.3 1.8 -0.2
v -0.6 1.7 -0.3
v -0.6 1.9 -0.3
v -0.6 2.2 -0.3
v -0.5 1.6 -0.3
v -0.5 1.7 -0.3
v -0.5 1.8 -0.3
v -0.5 1.9 -0.3
v -0.5 2.2 -0.3
v -0.5 2.3 -0.3
v -0.4 0.9 -0.3
v -0.4 1.6 -0.3
v -0.4 1.7 -0.3
v -0.4 1.8 -0.3
v -0.4 1.9 -0.3
v -0.4 2.1 -0.3
v -0.4 2.2 -0.3
v -0.4 2.3 -0.3
v -0.3 0.9 -0.3
v -0.3 1.6 -0.3
v -0.3 1.8 -0.3
v -0.3 2.1 -0.3
v -0.3 2.2 -0.3
v -0.6 1.1 -0.4
v -0.6 1.3 -0.4
v -0.6 1.5 -0.4
v -0.5 1.1 -0.4
v -0.5 1.3 -0.4
v -0.5 1.5 -0.4
v -0.3 1.2 -0.4
v -0.3 1.4 -0.4
v -0.2 1.2 -0.4
v -0.2 1.4 -0.4
v -0.7 1.3 -0.5
v -0.7 1.5 -0.5
v -0.6 1 -0.5
v -0.6 1.1 -0.5
v -0.6 1.3 -0.5
v -0.6 1.5 -0.5
v -0.6 1.6 -0.5
v -0.5 1.1 -0.5
v -0.5 1.5 -0.5
v -0.5 1.6 -0.5
v -0.4 0.5 -0.5
v -0.4 0.9 -0.5
v -0.4 1 -0.5
v -0.4 1.1 -0.5
v -0.4 1.2 -0.5
v -0.4 1.3 -0.5
v -0.4 1.4 -0.5
v -0.4 1.5 -0.5
v -0.3 0.5 -0.5
v -0.3 0.9 -0.5
v -0.3 1 -0.5
v -0.3 1.1 -0.5
v -0.3 1.2 -0.5
v -0.3 1.3 -0.5
v -0.3 1.4 -0.5
v -0.2 1.1 -0.5
v -0.2 1.2 -0.5
v -0.2 1.3 -0.5
v -0.2 1.4 -0.5
v -0.2 1.5 -0.5
v -0.1 1.2 -0.5
v -0.1 1.3 -0.5
v -0.1 1.4 -0.5
v -0.5 0.8 -0.7
v -0.5 1 -0.7
v -0.4 0.8 -0.7
v -0.4 1 -0.7
v -0.4 1.1 -0.7
v -0.3 0.8 -0.7
v -0.3 1 -0.7
v -0.3 1.1 -0.7
v -0.2 0.8 -0.7
v -0.2 1 -0.7
v -0.6 0.5 -1
v -0.6 0.7 -1
v -0.4 0.5 -1
v -0.2 0.5 -1
v -0.1 0.5 -1
v -0.1 0.7 -1
v -0.6 0.5 -0.1
v -0.6 0.7 -0.1
v -0.5 0.5 -0.1
v -0.3 0.5 -0.1
v -0.2 0.5 -0.1
v -0.1 0.5 -0.1
v -0.1 0.7 -0.1
v -0.6 1.7 -0.4
v -0.6 1.9 -0.4
v -0.6 2.2 -0.4
v -0.5 1.6 -0.4
v -0.5 1.7 -0.4
v -0.5 1.8 -0.4
v -0.5 1.9 -0.4
v -0.5 2 -0.4
v -0.5 2.1 -0.4
v -0.5 2.2 -0.4
v -0.5 2.3 -0.4
v -0.4 1 -0.4
v -0.4 1.6 -0.4
v -0.4 1.7 -0.4
v -0.4 1.8 -0.4
v -0.4 2 -0.4
v -0.4 2.1 -0.4
v -0.4 2.2 -0.4
v -0.4 2.3 -0.4
v -0.3 1 -0.4
v -0.3 1.2 -0.4
v -0.3 1.4 -0.4
v -0.3 1.7 -0.4
v -0.3 1.8 -0.4
v -0.3 2.1 -0.4
v -0.3 2.2 -0.4
v -0.5 1.8 -0.5
v -0.5 2 -0.5
v -0.5 2.1 -0.5
v -0.5 2.2 -0.5
v -0.4 1.7 -0.5
v -0.4 1.8 -0.5
v -0.4 2 -0.5
v -0.4 2.1 -0.5
v -0.4 2.2 -0.5
v -0.3 1.7 -0.5
v -0.3 1.8 -0.5
v -0.7 1.4 -0.6
v -0.7 1.5 -0.6
v -0.6 1 -0.6
v -0.6 1.2 -0.6
v -0.6 1.4 -0.6
v -0.6 1.5 -0.6
v -0.6 1.6 -0.6
v -0.5 1.1 -0.6
v -0.5 1.2 -0.6
v -0.5 1.5 -0.6
v -0.5 1.6 -0.6
v -0.4 0.5 -0.6
v -0.4 0.7 -0.6
v -0.4 1 -0.6
v -0.4 1.1 -0.6
v -0.4 1.2 -0.6
v -0.4 1.3 -0.6
v -0.4 1.4 -0.6
v -0.4 1.5 -0.6
v -0.3 0.5 -0.6
v -0.3 0.7 -0.6
v -0.3 1 -0.6
v -0.3 1.1 -0.6
v -0.3 1.2 -0.6
v -0.3 1.3 -0.6
v -0.3 1.4 -0.6
v -0.2 1.1 -0.6
v -0.2 1.2 -0.6
v -0.2 1.3 -0.6
v -0.2 1.4 -0.6
v -0.2 1.5 -0.6
v -0.1 1.2 -0.6
v -0.1 1.3 -0.6
v -0.1 1.4 -0.6
v -0.7 1.3 -0.7
v -0.7 1.4 -0.7
v -0.6 1.2 -0.7
v -0.6 1.3 -0.7
v -0.6 1.4 -0.7
v -0.6 1.5 -0.7
v -0.5 1.2 -0.7
v -0.5 1.4 -0.7
v -0.5 1.5 -0.7
v -0.3 1.3 -0.7
v -0.3 1.4 -0.7
v -0.2 1.3 -0.7
v -0.2 1.4 -0.7
v -0.5 0.8 -0.8
v -0.5 1 -0.8
v -0.4 0.7 -0.8
v -0.4 0.8 -0.8
v -0.4 1 -0.8
v -0.4 1.1 -0.8
v -0.3 0.7 -0.8
v -0.3 0.8 -0.8
v -0.3 0.9 -0.8
v -0.3 1 -0.8
v -0.3 1.1 -0.8
v -0.2 0.9 -0.8
v -0.2 1 -0.8
v -0.4 0.8 -0.9
v -0.4 1 -0.9
v -0.3 0.9 -0.9
v -0.3 1 -0.9
v -0.2 0.8 -0.9
v -0.2 0.9 -0.9
v -0.7 0.1 -1
v -0.7 0.3 -1
v 0 0.1 -1
v 0 0.3 -1
v -0.7 0 -1.1
v -0.7 0.1 -1.1
v -0.7 0.3 -1.1
v -0.7 0.7 -1.1
v 0 0 -1.1
v 0 0.1 -1.1
v 0 0.3 -1.1
v 0 0.7 -1.1
v -0.7 0 0
v 0 0 0
v -0.7 0 -1.1
v 0 0 -1.1
v -0.7 0.3 0
v 0 0.3 0
v -0.7 0.3 -0.1
v 0 0.3 -0.1
v -0.7 0.3 -1
v 0 0.3 -1
v -0.7 0.3 -1.1
v 0 0.3 -1.1
v -0.4 0.7 -0.6
v -0.3 0.7 -0.6
v -0.4 0.7 -0.8
v -0.3 0.7 -0.8
v -0.5 0.8 -0.7
v -0.4 0.8 -0.7
v -0.3 0.8 -0.7
v -0.2 0.8 -0.7
v -0.5 0.8 -0.8
v -0.4 0.8 -0.8
v -0.3 0.8 -0.8
v -0.4 0.8 -0.9
v -0.2 0.8 -0.9
v -0.4 0.9 -0.3
v -0.3 0.9 -0.3
v -0.4 0.9 -0.5
v -0.3 0.9 -0.5
v -0.6 1 -0.5
v -0.4 1 -0.5
v -0.6 1 -0.6
v -0.4 1 -0.6
v -0.6 1.1 -0.4
v -0.5 1.1 -0.4
v -0.6 1.1 -0.5
v -0.5 1.1 -0.5
v -0.3 1.1 -0.5
v -0.2 1.1 -0.5
v -0.3 1.1 -0.6
v -0.2 1.1 -0.6
v -0.3 1.2 -0.4
v -0.2 1.2 -0.4
v -0.3 1.2 -0.5
v -0.2 1.2 -0.5
v -0.1 1.2 -0.5
v -0.6 1.2 -0.6
v -0.5 1.2 -0.6
v -0.2 1.2 -0.6
v -0.1 1.2 -0.6
v -0.6 1.2 -0.7
v -0.5 1.2 -0.7
v -0.7 1.3 -0.5
v -0.6 1.3 -0.5
v -0.4 1.3 -0.5
v -0.3 1.3 -0.5
v -0.6 1.3 -0.6
v -0.4 1.3 -0.6
v -0.3 1.3 -0.6
v -0.2 1.3 -0.6
v -0.7 1.3 -0.7
v -0.6 1.3 -0.7
v -0.3 1.3 -0.7
v -0.2 1.3 -0.7
v -0.4 1.6 -0.2
v -0.3 1.6 -0.2
v -0.5 1.6 -0.3
v -0.4 1.6 -0.3
v -0.3 1.6 -0.3
v -0.5 1.6 -0.4
v -0.4 1.6 -0.4
v -0.5 1.7 -0.2
v -0.4 1.7 -0.2
v -0.6 1.7 -0.3
v -0.5 1.7 -0.3
v -0.4 1.7 -0.3
v -0.6 1.7 -0.4
v -0.5 1.7 -0.4
v -0.4 1.7 -0.4
v -0.3 1.7 -0.4
v -0.4 1.7 -0.5
v -0.3 1.7 -0.5
v -0.5 1.8 -0.4
v -0.4 1.8 -0.4
v -0.5 1.8 -0.5
v -0.4 1.8 -0.5
v -0.7 0.1 0
v 0 0.1 0
v -0.7 0.1 -0.1
v 0 0.1 -0.1
v -0.7 0.1 -1
v 0 0.1 -1
v -0.7 0.1 -1.1
v 0 0.1 -1.1
v -0.6 0.5 -0.1
v -0.5 0.5 -0.1
v -0.3 0.5 -0.1
v -0.2 0.5 -0.1
v -0.1 0.5 -0.1
v -0.4 0.5 -0.2
v -0.3 0.5 -0.2
v -0.2 0.5 -0.2
v -0.1 0.5 -0.2
v -0.6 0.5 -0.3
v -0.5 0.5 -0.3
v -0.4 0.5 -0.3
v -0.6 0.5 -0.4
v -0.5 0.5 -0.4
v -0.3 0.5 -0.4
v -0.2 0.5 -0.4
v -0.1 0.5 -0.4
v -0.4 0.5 -0.5
v -0.3 0.5 -0.5
v -0.2 0.5 -0.5
v -0.6 0.5 -0.6
v -0.5 0.5 -0.6
v -0.4 0.5 -0.6
v -0.3 0.5 -0.6
v -0.2 0.5 -0.6
v -0.1 0.5 -0.6
v -0.6 0.5 -0.7
v -0.5 0.5 -0.7
v -0.4 0.5 -0.7
v -0.2 0.5 -0.7
v -0.1 0.5 -0.7
v -0.5 0.5 -0.8
v -0.4 0.5 -0.8
v -0.3 0.5 -0.8
v -0.6 0.5 -0.9
v -0.4 0.5 -0.9
v -0.3 0.5 -0.9
v -0.6 0.5 -1
v -0.4 0.5 -1
v -0.2 0.5 -1
v -0.1 0.5 -1
v -0.7 0.7 0
v 0 0.7 0
v -0.6 0.7 -0.1
v -0.1 0.7 -0.1
v -0.6 0.7 -1
v -0.1 0.7 -1
v -0.7 0.7 -1.1
v 0 0.7 -1.1
v -0.3 0.9 -0.8
v -0.2 0.9 -0.8
v -0.3 0.9 -0.9
v -0.2 0.9 -0.9
v -0.4 1 -0.4
v -0.3 1 -0.4
v -0.4 1 -0.5
v -0.3 1 -0.5
v -0.4 1 -0.6
v -0.3 1 -0.6
v -0.5 1 -0.7
v -0.4 1 -0.7
v -0.3 1 -0.7
v -0.2 1 -0.7
v -0.5 1 -0.8
v -0.4 1 -0.8
v -0.3 1 -0.8
v -0.2 1 -0.8
v -0.4 1 -0.9
v -0.3 1 -0.9
v -0.5 1.1 -0.5
v -0.4 1.1 -0.5
v -0.5 1.1 -0.6
v -0.4 1.1 -0.6
v -0.4 1.1 -0.7
v -0.3 1.1 -0.7
v -0.4 1.1 -0.8
v -0.3 1.1 -0.8
v -0.4 1.2 -0.5
v -0.3 1.2 -0.5
v -0.4 1.2 -0.6
v -0.3 1.2 -0.6
v -0.3 1.4 -0.4
v -0.2 1.4 -0.4
v -0.3 1.4 -0.5
v -0.2 1.4 -0.5
v -0.1 1.4 -0.5
v -0.7 1.4 -0.6
v -0.6 1.4 -0.6
v -0.3 1.4 -0.6
v -0.2 1.4 -0.6
v -0.1 1.4 -0.6
v -0.7 1.4 -0.7
v -0.6 1.4 -0.7
v -0.3 1.4 -0.7
v -0.2 1.4 -0.7
v -0.6 1.5 -0.4
v -0.5 1.5 -0.4
v -0.7 1.5 -0.5
v -0.6 1.5 -0.5
v -0.5 1.5 -0.5
v -0.4 1.5 -0.5
v -0.2 1.5 -0.5
v -0.7 1.5 -0.6
v -0.6 1.5 -0.6
v -0.5 1.5 -0.6
v -0.4 1.5 -0.6
v -0.2 1.5 -0.6
v -0.6 1.5 -0.7
v -0.5 1.5 -0.7
v -0.6 1.6 -0.5
v -0.5 1.6 -0.5
v -0.6 1.6 -0.6
v -0.5 1.6 -0.6
v -0.4 1.8 -0.2
v -0.3 1.8 -0.2
v -0.4 1.8 -0.3
v -0.3 1.8 -0.3
v -0.4 1.8 -0.4
v -0.3 1.8 -0.4
v -0.4 1.8 -0.5
v -0.3 1.8 -0.5
v -0.5 2.2 -0.2
v -0.4 2.2 -0.2
v -0.6 2.2 -0.3
v -0.5 2.2 -0.3
v -0.4 2.2 -0.3
v -0.3 2.2 -0.3
v -0.6 2.2 -0.4
v -0.5 2.2 -0.4
v -0.4 2.2 -0.4
v -0.3 2.2 -0.4
v -0.5 2.2 -0.5
v -0.4 2.2 -0.5
v -0.5 2.3 -0.3
v -0.4 2.3 -0.3
v -0.5 2.3 -0.4
v -0.4 2.3 -0.4

# faces
f 3/5/1 2/5/1 1/5/1
f 4/5/1 2/5/1 3/5/1
f 5/5/1 2/5/1 4/5/1
f 6/5/1 2/5/1 5/5/1
f 8/5/1 5/5/1 4/5/1
f 9/5/1 5/5/1 8/5/1
f 11/5/1 8/5/1 7/5/1
f 11/5/1 10/5/1 9/5/1
f 11/5/1 9/5/1 8/5/1
f 12/5/1 10/5/1 11/5/1
f 15/3/1 14/3/1 13/3/1
f 16/3/1 14/3/1 15/3/1
f 17/3/1 15/3/1 13/3/1
f 18/3/1 15/3/1 17/3/1
f 22/2/1 20/2/1 19/2/1
f 23/2/1 20/2/1 22/2/1
f 25/3/1 22/3/1 21/3/1
f 26/2/1 23/2/1 22/2/1
f 26/3/1 22/3/1 25/3/1
f 27/3/1 24/3/1 23/3/1
f 27/2/1 23/2/1 26/2/1
f 28/3/1 24/3/1 27/3/1
f 31/4/1 26/4/1 25/4/1
f 32/4/1 26/4/1 31/4/1
f 33/4/1 30/4/1 29/4/1
f 34/4/1 30/4/1 33/4/1
f 35/4/1 33/4/1 32/4/1
f 36/4/1 33/4/1 35/4/1
f 39/3/1 38/3/1 37/3/1
f 40/3/1 38/3/1 39/3/1
f 41/4/1 40/4/1 39/4/1
f 42/4/1 40/4/1 41/4/1
f 45/4/1 44/4/1 43/4/1
f 46/4/1 44/4/1 45/4/1
f 50/2/1 48/2/1 47/2/1
f 51/2/1 48/2/1 50/2/1
f 52/3/1 50/3/1 49/3/1
f 53/3/1 50/3/1 52/3/1
f 56/4/1 53/4/1 52/4/1
f 57/4/1 53/4/1 56/4/1
f 58/3/1 55/3/1 54/3/1
f 59/3/1 55/3/1 58/3/1
f 60/3/1 55/3/1 59/3/1
f 61/4/1 60/4/1 59/4/1
f 62/4/1 60/4/1 61/4/1
f 63/3/1 57/3/1 56/3/1
f 64/3/1 57/3/1 63/3/1
f 65/3/1 62/3/1 61/3/1
f 66/3/1 62/3/1 65/3/1
f 67/3/1 65/3/1 64/3/1
f 68/3/1 65/3/1 67/3/1
f 71/2/1 70/2/1 69/2/1
f 73/2/1 71/2/1 69/2/1
f 73/2/1 72/2/1 71/2/1
f 74/2/1 72/2/1 73/2/1
f 75/2/1 72/2/1 74/2/1
f 78/2/1 73/2/1 69/2/1
f 79/2/1 78/2/1 77/2/1
f 80/2/1 73/2/1 78/2/1
f 80/2/1 78/2/1 79/2/1
f 81/4/1 74/4/1 73/4/1
f 81/2/1 73/2/1 80/2/1
f 82/4/1 74/4/1 81/4/1
f 83/3/1 76/3/1 75/3/1
f 84/3/1 76/3/1 83/3/1
f 87/4/1 83/4/1 82/4/1
f 88/4/1 83/4/1 87/4/1
f 89/2/1 86/2/1 85/2/1
f 90/2/1 86/2/1 89/2/1
f 93/3/1 92/3/1 91/3/1
f 94/3/1 92/3/1 93/3/1
f 95/4/1 94/4/1 93/4/1
f 96/4/1 94/4/1 95/4/1
f 98/2/1 79/2/1 77/2/1
f 99/2/1 79/2/1 98/2/1
f 100/3/1 98/3/1 97/3/1
f 101/3/1 98/3/1 100/3/1
f 104/3/1 103/3/1 102/3/1
f 105/3/1 103/3/1 104/3/1
f 109/3/1 107/3/1 106/3/1
f 109/2/1 108/2/1 107/2/1
f 110/2/1 108/2/1 109/2/1
f 112/3/1 109/3/1 106/3/1
f 113/3/1 109/3/1 112/3/1
f 114/3/1 111/3/1 110/3/1
f 115/3/1 111/3/1 114/3/1
f 122/5/1 117/5/1 116/5/1
f 122/5/1 121/5/1 120/5/1
f 122/5/1 120/5/1 119/5/1
f 122/5/1 119/5/1 118/5/1
f 122/5/1 118/5/1 117/5/1
f 123/5/1 121/5/1 122/5/1
f 124/5/2 125/5/2 131/5/2
f 129/5/2 130/5/2 131/5/2
f 128/5/2 129/5/2 131/5/2
f 127/5/2 128/5/2 131/5/2
f 126/5/2 127/5/2 131/5/2
f 125/5/2 126/5/2 131/5/2
f 131/5/2 130/5/2 132/5/2
f 134/2/2 135/2/2 136/2/2
f 133/3/2 134/3/2 138/3/2
f 134/2/2 136/2/2 139/2/2
f 138/3/2 134/3/2 139/3/2
f 136/3/2 137/3/2 140/3/2
f 139/2/2 136/2/2 140/2/2
f 140/3/2 137/3/2 141/3/2
f 138/4/2 139/4/2 142/4/2
f 139/2/2 140/2/2 143/2/2
f 142/4/2 139/4/2 143/4/2
f 140/4/2 141/4/2 144/4/2
f 143/2/2 140/2/2 144/2/2
f 144/4/2 141/4/2 145/4/2
f 143/4/2 144/4/2 146/4/2
f 146/4/2 144/4/2 147/4/2
f 148/4/2 149/4/2 152/4/2
f 152/4/2 149/4/2 153/4/2
f 150/3/2 151/3/2 154/3/2
f 154/3/2 151/3/2 155/3/2
f 152/3/2 153/3/2 156/3/2
f 154/4/2 155/4/2 157/4/2
f 157/4/2 155/4/2 158/4/2
f 152/3/2 156/3/2 159/3/2
f 159/3/2 156/3/2 160/3/2
f 157/3/2 158/3/2 161/3/2
f 161/3/2 158/3/2 162/3/2
f 160/3/2 161/3/2 163/3/2
f 163/3/2 161/3/2 164/3/2
f 165/2/2 166/2/2 167/2/2
f 165/2/2 167/2/2 169/2/2
f 167/2/2 168/2/2 169/2/2
f 169/2/2 168/2/2 170/2/2
f 170/2/2 168/2/2 171/2/2
f 165/2/2 169/2/2 173/2/2
f 172/2/2 173/2/2 176/2/2
f 173/2/2 169/2/2 177/2/2
f 176/2/2 173/2/2 177/2/2
f 169/4/2 170/4/2 178/4/2
f 177/2/2 169/2/2 178/2/2
f 178/4/2 170/4/2 179/4/2
f 174/3/2 175/3/2 180/3/2
f 180/3/2 175/3/2 181/3/2
f 177/2/2 178/2/2 182/2/2
f 182/2/2 178/2/2 183/2/2
f 179/4/2 180/4/2 184/4/2
f 184/4/2 180/4/2 185/4/2
f 172/2/2 176/2/2 186/2/2
f 172/2/2 186/2/2 187/2/2
f 172/2/2 187/2/2 189/2/2
f 188/3/2 189/3/2 190/3/2
f 189/2/2 187/2/2 191/2/2
f 190/3/2 189/3/2 191/3/2
f 191/2/2 187/2/2 192/2/2
f 190/4/2 191/4/2 194/4/2
f 191/2/2 192/2/2 195/2/2
f 194/4/2 191/4/2 195/4/2
f 192/3/2 193/3/2 196/3/2
f 195/2/2 192/2/2 196/2/2
f 196/3/2 193/3/2 197/3/2
f 195/3/2 196/3/2 198/3/2
f 198/3/2 196/3/2 199/3/2
f 198/4/2 199/4/2 200/4/2
f 200/4/2 199/4/2 201/4/2
f 202/3/2 203/3/2 204/3/2
f 204/3/2 203/3/2 205/3/2
f 202/3/2 204/3/2 206/3/2
f 206/3/2 204/3/2 207/3/2
f 208/2/2 209/2/2 211/2/2
f 211/2/2 209/2/2 212/2/2
f 210/3/2 211/3/2 213/3/2
f 210/3/2 213/3/2 216/3/2
f 216/3/2 213/3/2 217/3/2
f 214/3/2 215/3/2 218/3/2
f 218/3/2 215/3/2 219/3/2
f 217/4/2 218/4/2 220/4/2
f 220/4/2 218/4/2 221/4/2
f 222/3/2 223/3/2 224/3/2
f 224/3/2 223/3/2 225/3/2
f 224/4/2 225/4/2 226/4/2
f 226/4/2 225/4/2 227/4/2
f 228/5/2 229/5/2 230/5/2
f 230/5/2 229/5/2 231/5/2
f 231/5/2 229/5/2 232/5/2
f 232/5/2 229/5/2 233/5/2
f 231/5/2 232/5/2 235/5/2
f 235/5/2 232/5/2 236/5/2
f 234/5/2 235/5/2 238/5/2
f 236/5/2 237/5/2 238/5/2
f 235/5/2 236/5/2 238/5/2
f 238/5/2 237/5/2 239/5/2
f 244/5/3 241/5/3 240/5/3
f 245/5/3 241/5/3 244/5/3
f 246/5/3 243/5/3 242/5/3
f 247/5/3 243/5/3 246/5/3
f 250/5/3 249/5/3 248/5/3
f 251/5/3 249/5/3 250/5/3
f 257/3/3 253/3/3 252/3/3
f 258/4/3 254/4/3 253/4/3
f 258/3/3 253/3/3 257/3/3
f 259/3/3 255/3/3 254/3/3
f 259/4/3 254/4/3 258/4/3
f 260/3/3 255/3/3 259/3/3
f 261/3/3 257/3/3 256/3/3
f 262/4/3 258/4/3 257/4/3
f 262/3/3 257/3/3 261/3/3
f 263/4/3 258/4/3 262/4/3
f 268/3/3 265/3/3 264/3/3
f 269/3/3 265/3/3 268/3/3
f 270/4/3 266/4/3 265/4/3
f 270/3/3 265/3/3 269/3/3
f 271/4/3 266/4/3 270/4/3
f 274/2/3 268/2/3 267/2/3
f 275/2/3 268/2/3 274/2/3
f 279/3/3 272/3/3 271/3/3
f 280/3/3 272/3/3 279/3/3
f 281/2/3 274/2/3 273/2/3
f 282/2/3 274/2/3 281/2/3
f 283/3/3 278/3/3 277/3/3
f 283/3/3 277/3/3 276/3/3
f 284/4/3 279/4/3 278/4/3
f 284/3/3 278/3/3 283/3/3
f 285/4/3 279/4/3 284/4/3
f 289/3/3 287/3/3 286/3/3
f 290/4/3 288/4/3 287/4/3
f 290/3/3 287/3/3 289/3/3
f 291/4/3 288/4/3 290/4/3
f 294/3/3 293/3/3 292/3/3
f 295/3/3 293/3/3 294/3/3
f 300/3/3 297/3/3 296/3/3
f 301/3/3 297/3/3 300/3/3
f 303/2/3 299/2/3 298/2/3
f 304/4/3 302/4/3 301/4/3
f 305/4/3 302/4/3 304/4/3
f 308/2/3 303/2/3 298/2/3
f 309/2/3 303/2/3 308/2/3
f 314/2/3 307/2/3 306/2/3
f 315/2/3 307/2/3 314/2/3
f 316/2/3 309/2/3 308/2/3
f 316/2/3 310/2/3 309/2/3
f 317/2/3 310/2/3 316/2/3
f 318/2/3 310/2/3 317/2/3
f 319/3/3 312/3/3 311/3/3
f 320/4/3 313/4/3 312/4/3
f 320/3/3 312/3/3 319/3/3
f 321/2/3 318/2/3 317/2/3
f 322/2/3 318/2/3 321/2/3
f 324/4/3 313/4/3 320/4/3
f 325/4/3 313/4/3 324/4/3
f 326/3/3 323/3/3 322/3/3
f 327/4/3 324/4/3 323/4/3
f 327/3/3 323/3/3 326/3/3
f 328/4/3 324/4/3 327/4/3
f 331/4/3 330/4/3 329/4/3
f 332/4/3 330/4/3 331/4/3
f 335/4/3 333/4/3 332/4/3
f 336/4/3 333/4/3 335/4/3
f 337/3/3 335/3/3 334/3/3
f 338/3/3 335/3/3 337/3/3
f 341/5/3 340/5/3 339/5/3
f 342/5/3 340/5/3 341/5/3
f 343/5/3 340/5/3 342/5/3
f 344/5/3 340/5/3 343/5/3
f 345/5/4 346/5/4 347/5/4
f 347/5/4 346/5/4 348/5/4
f 348/5/4 346/5/4 349/5/4
f 349/5/4 346/5/4 350/5/4
f 350/5/4 346/5/4 351/5/4
f 352/3/4 353/3/4 356/3/4
f 356/3/4 353/3/4 357/3/4
f 353/4/4 354/4/4 358/4/4
f 357/3/4 353/3/4 358/3/4
f 358/4/4 354/4/4 359/4/4
f 359/4/4 354/4/4 360/4/4
f 360/4/4 354/4/4 361/4/4
f 356/2/4 357/2/4 364/2/4
f 355/2/4 356/2/4 364/2/4
f 364/2/4 357/2/4 365/2/4
f 365/2/4 357/2/4 366/2/4
f 361/3/4 362/3/4 369/3/4
f 369/3/4 362/3/4 370/3/4
f 363/2/4 364/2/4 371/2/4
f 364/2/4 365/2/4 371/2/4
f 371/2/4 365/2/4 372/2/4
f 372/2/4 365/2/4 373/2/4
f 373/2/4 365/2/4 374/2/4
f 367/3/4 368/3/4 375/3/4
f 366/3/4 367/3/4 375/3/4
f 368/4/4 369/4/4 376/4/4
f 375/3/4 368/3/4 376/3/4
f 376/4/4 369/4/4 377/4/4
f 378/3/4 379/3/4 383/3/4
f 379/4/4 380/4/4 384/4/4
f 383/3/4 379/3/4 384/3/4
f 380/3/4 381/3/4 385/3/4
f 384/4/4 380/4/4 385/4/4
f 385/3/4 381/3/4 386/3/4
f 382/3/4 383/3/4 387/3/4
f 387/3/4 383/3/4 388/3/4
f 389/3/4 390/3/4 393/3/4
f 393/3/4 390/3/4 394/3/4
f 391/2/4 392/2/4 396/2/4
f 396/2/4 392/2/4 397/2/4
f 394/4/4 395/4/4 398/4/4
f 398/4/4 395/4/4 399/4/4
f 391/2/4 396/2/4 402/2/4
f 402/2/4 396/2/4 403/2/4
f 400/2/4 401/2/4 408/2/4
f 408/2/4 401/2/4 409/2/4
f 402/2/4 403/2/4 410/2/4
f 403/2/4 404/2/4 410/2/4
f 410/2/4 404/2/4 411/2/4
f 411/2/4 404/2/4 412/2/4
f 405/3/4 406/3/4 413/3/4
f 406/4/4 407/4/4 414/4/4
f 413/3/4 406/3/4 414/3/4
f 412/2/4 413/2/4 415/2/4
f 411/2/4 412/2/4 415/2/4
f 415/2/4 413/2/4 416/2/4
f 416/2/4 413/2/4 417/2/4
f 414/4/4 407/4/4 418/4/4
f 418/4/4 407/4/4 419/4/4
f 416/3/4 417/3/4 420/3/4
f 417/4/4 418/4/4 421/4/4
f 420/3/4 417/3/4 421/3/4
f 421/4/4 418/4/4 422/4/4
f 423/3/4 424/3/4 426/3/4
f 426/3/4 424/3/4 427/3/4
f 425/3/4 426/3/4 429/3/4
f 426/3/4 427/3/4 429/3/4
f 427/4/4 428/4/4 430/4/4
f 429/3/4 427/3/4 430/3/4
f 430/4/4 428/4/4 431/4/4
f 432/3/4 433/3/4 434/3/4
f 434/3/4 433/3/4 435/3/4
f 436/4/4 437/4/4 439/4/4
f 439/4/4 437/4/4 440/4/4
f 438/2/4 439/2/4 442/2/4
f 442/2/4 439/2/4 443/2/4
f 440/4/4 441/4/4 445/4/4
f 445/4/4 441/4/4 446/4/4
f 444/3/4 445/3/4 447/3/4
f 447/3/4 445/3/4 448/3/4
f 449/3/4 450/3/4 451/3/4
f 451/3/4 450/3/4 452/3/4
f 449/3/4 451/3/4 453/3/4
f 453/3/4 451/3/4 454/3/4
f 455/5/4 456/5/4 457/5/4
f 457/5/4 456/5/4 458/5/4
f 459/5/4 460/5/4 463/5/4
f 463/5/4 460/5/4 464/5/4
f 461/5/4 462/5/4 465/5/4
f 465/5/4 462/5/4 466/5/4
f 469/5/5 468/5/5 467/5/5
f 470/5/5 468/5/5 469/5/5
f 473/5/5 472/5/5 471/5/5
f 474/5/5 472/5/5 473/5/5
f 477/5/5 476/5/5 475/5/5
f 478/5/5 476/5/5 477/5/5
f 481/2/5 480/2/5 479/2/5
f 482/2/5 480/2/5 481/2/5
f 487/4/5 484/4/5 483/4/5
f 488/4/5 484/4/5 487/4/5
f 489/3/5 486/3/5 485/3/5
f 490/3/5 489/3/5 488/3/5
f 491/3/5 486/3/5 489/3/5
f 491/3/5 489/3/5 490/3/5
f 494/2/5 493/2/5 492/2/5
f 495/2/5 493/2/5 494/2/5
f 498/2/5 497/2/5 496/2/5
f 499/2/5 497/2/5 498/2/5
f 502/3/5 501/3/5 500/3/5
f 503/3/5 501/3/5 502/3/5
f 506/2/5 505/2/5 504/2/5
f 507/2/5 505/2/5 506/2/5
f 510/3/5 509/3/5 508/3/5
f 511/3/5 509/3/5 510/3/5
f 515/3/5 512/3/5 511/3/5
f 516/3/5 512/3/5 515/3/5
f 517/3/5 514/3/5 513/3/5
f 518/3/5 514/3/5 517/3/5
f 523/3/5 520/3/5 519/3/5
f 524/3/5 522/3/5 521/3/5
f 525/3/5 522/3/5 524/3/5
f 527/3/5 523/3/5 519/3/5
f 528/3/5 523/3/5 527/3/5
f 529/3/5 526/3/5 525/3/5
f 530/3/5 526/3/5 529/3/5
f 534/3/5 532/3/5 531/3/5
f 535/3/5 532/3/5 534/3/5
f 536/2/5 534/2/5 533/2/5
f 537/2/5 534/2/5 536/2/5
f 541/3/5 539/3/5 538/3/5
f 542/3/5 539/3/5 541/3/5
f 543/3/5 541/3/5 540/3/5
f 544/3/5 541/3/5 543/3/5
f 547/3/5 546/3/5 545/3/5
f 548/3/5 546/3/5 547/3/5
f 551/3/5 550/3/5 549/3/5
f 552/3/5 550/3/5 551/3/5
f 553/5/6 554/5/6 555/5/6
f 555/5/6 554/5/6 556/5/6
f 557/5/6 558/5/6 559/5/6
f 559/5/6 558/5/6 560/5/6
f 562/1/6 563/1/6 566/1/6
f 563/2/6 564/2/6 567/2/6
f 566/1/6 563/1/6 567/1/6
f 564/1/6 565/1/6 568/1/6
f 567/2/6 564/2/6 568/2/6
f 568/1/6 565/1/6 569/1/6
f 561/2/6 562/2/6 570/2/6
f 562/1/6 566/1/6 571/1/6
f 570/2/6 562/2/6 571/2/6
f 566/2/6 567/2/6 572/2/6
f 571/1/6 566/1/6 572/1/6
f 570/1/6 571/1/6 573/1/6
f 571/2/6 572/2/6 574/2/6
f 573/1/6 571/1/6 574/1/6
f 572/2/6 567/2/6 575/2/6
f 574/2/6 572/2/6 575/2/6
f 567/1/6 568/1/6 575/1/6
f 568/2/6 569/2/6 576/2/6
f 575/1/6 568/1/6 576/1/6
f 576/2/6 569/2/6 577/2/6
f 574/1/6 575/1/6 578/1/6
f 575/2/6 576/2/6 579/2/6
f 578/1/6 575/1/6 579/1/6
f 576/1/6 577/1/6 580/1/6
f 579/2/6 576/2/6 580/2/6
f 573/2/6 574/2/6 581/2/6
f 574/1/6 578/1/6 582/1/6
f 581/2/6 574/2/6 582/2/6
f 582/1/6 578/1/6 583/1/6
f 579/1/6 580/1/6 584/1/6
f 580/1/6 577/1/6 585/1/6
f 584/1/6 580/1/6 585/1/6
f 585/1/6 577/1/6 586/1/6
f 581/1/6 582/1/6 587/1/6
f 582/2/6 583/2/6 588/2/6
f 587/1/6 582/1/6 588/1/6
f 583/1/6 584/1/6 589/1/6
f 588/2/6 583/2/6 589/2/6
f 584/1/6 585/1/6 589/1/6
f 585/2/6 586/2/6 590/2/6
f 589/1/6 585/1/6 590/1/6
f 590/2/6 586/2/6 591/2/6
f 587/2/6 588/2/6 592/2/6
f 588/1/6 589/1/6 592/1/6
f 589/2/6 590/2/6 593/2/6
f 592/1/6 589/1/6 593/1/6
f 593/2/6 590/2/6 594/2/6
f 587/2/6 592/2/6 595/2/6
f 592/2/6 593/2/6 595/2/6
f 593/1/6 594/1/6 596/1/6
f 595/2/6 593/2/6 596/2/6
f 594/2/6 590/2/6 597/2/6
f 596/1/6 594/1/6 597/1/6
f 595/1/6 596/1/6 598/1/6
f 596/2/6 597/2/6 599/2/6
f 598/1/6 596/1/6 599/1/6
f 590/1/6 591/1/6 600/1/6
f 599/2/6 597/2/6 600/2/6
f 597/2/6 590/2/6 600/2/6
f 600/1/6 591/1/6 601/1/6
f 602/5/6 603/5/6 604/5/6
f 604/5/6 603/5/6 605/5/6
f 602/5/6 604/5/6 606/5/6
f 605/5/6 603/5/6 607/5/6
f 602/5/6 606/5/6 608/5/6
f 606/5/6 607/5/6 608/5/6
f 607/5/6 603/5/6 609/5/6
f 608/5/6 607/5/6 609/5/6
f 610/3/6 611/3/6 612/3/6
f 612/3/6 611/3/6 613/3/6
f 614/2/6 615/2/6 616/2/6
f 616/2/6 615/2/6 617/2/6
f 618/4/6 619/4/6 621/4/6
f 621/4/6 619/4/6 622/4/6
f 620/4/6 621/4/6 624/4/6
f 624/4/6 621/4/6 625/4/6
f 622/3/6 623/3/6 626/3/6
f 626/3/6 623/3/6 627/3/6
f 625/3/6 626/3/6 628/3/6
f 628/3/6 626/3/6 629/3/6
f 630/2/6 631/2/6 632/2/6
f 632/2/6 631/2/6 633/2/6
f 634/4/6 635/4/6 636/4/6
f 636/4/6 635/4/6 637/4/6
f 638/2/6 639/2/6 640/2/6
f 640/2/6 639/2/6 641/2/6
f 642/3/6 643/3/6 644/3/6
f 644/3/6 643/3/6 645/3/6
f 645/4/6 646/4/6 650/4/6
f 650/4/6 646/4/6 651/4/6
f 647/3/6 648/3/6 652/3/6
f 652/3/6 648/3/6 653/3/6
f 649/3/6 650/3/6 654/3/6
f 654/3/6 650/3/6 655/3/6
f 656/4/6 657/4/6 659/4/6
f 659/4/6 657/4/6 660/4/6
f 658/3/6 659/3/6 663/3/6
f 663/3/6 659/3/6 664/3/6
f 661/4/6 662/4/6 666/4/6
f 666/4/6 662/4/6 667/4/6
f 664/4/6 665/4/6 668/4/6
f 668/4/6 665/4/6 669/4/6
f 670/4/6 671/4/6 672/4/6
f 672/4/6 671/4/6 673/4/6
f 674/4/6 675/4/6 676/4/6
f 676/4/6 675/4/6 677/4/6
f 678/3/6 679/3/6 680/3/6
f 680/3/6 679/3/6 681/3/6
f 682/3/6 683/3/6 685/3/6
f 685/3/6 683/3/6 686/3/6
f 684/4/6 685/4/6 688/4/6
f 688/4/6 685/4/6 689/4/6
f 686/4/6 687/4/6 690/4/6
f 690/4/6 687/4/6 691/4/6
f 689/3/6 690/3/6 692/3/6
f 692/3/6 690/3/6 693/3/6
f 694/3/6 695/3/6 696/3/6
f 696/3/6 695/3/6 697/3/6
